<svg xmlns="http://www.w3.org/2000/svg" viewBox="0 0 50 50"><path style="line-height:normal;text-indent:0;text-align:start;text-decoration-line:none;text-decoration-style:solid;text-decoration-color:#000;text-transform:none;block-progression:tb;isolation:auto;mix-blend-mode:normal" d="M 11 2 A 1.0001 1.0001 0 0 0 10 3 L 10 38 L 12 38 L 12 4 L 44 4 L 44 42 C 44 44.204545 42.204545 46 40 46 C 37.795455 46 36 44.204545 36 42 L 36 41 A 1.0001 1.0001 0 0 0 35 40 L 5 40 A 1.0001 1.0001 0 0 0 4 41 L 4 42 C 4 45.295455 6.7045455 48 10 48 L 39.986328 48 L 40 48 C 43.295455 48 46 45.295455 46 42 L 46 3 A 1.0001 1.0001 0 0 0 45 2 L 11 2 z M 36.21875 10 C 36.131844 10.001281 36.072266 10.015625 36.072266 10.015625 C 36.072266 10.015625 24.498594 12.401078 23.683594 12.580078 C 23.195594 12.687078 23 13.012187 23 13.492188 L 23 26.496094 C 23 27.426094 23.216 27.996094 21 27.996094 C 18.622 27.996094 17 29.511047 17 30.998047 C 17 32.000047 17.371 34 20.5 34 C 23.629 34 25 32.125047 25 30.998047 L 25 18.369141 C 25 17.791141 25.093875 17.597531 25.421875 17.519531 C 25.749875 17.440531 32.969516 15.658047 34.228516 15.373047 C 34.959516 15.207047 35 15.444516 35 16.103516 L 35 21.900391 L 35 23.496094 C 35 24.426094 35.216 24.996094 33 24.996094 C 30.622 24.996094 29 26.511047 29 27.998047 C 29 28.999047 29.371 30.998047 32.5 30.998047 C 35.629 30.998047 37 29.125047 37 27.998047 L 37 21.296875 L 37 15.369141 L 37 10.992188 C 37 10.099688 36.479469 9.9961563 36.21875 10 z M 6 42 L 34 42 C 34 43.545591 34.631747 44.932427 35.603516 46 L 10.013672 46 L 10 46 C 7.7954545 46 6 44.204545 6 42 z" font-weight="400" font-family="sans-serif"></path></svg>