<svg xmlns="http://www.w3.org/2000/svg" width="400.000000pt" height="400.000000pt" viewBox="0 0 400.000000 400.000000" preserveAspectRatio="xMidYMid meet"><metadata>
Created by potrace 1.16, written by Peter Selinger 2001-2019
</metadata><g transform="translate(0.000000,400.000000) scale(0.100000,-0.100000)" fill="#000000" stroke="none"><path d="M0 2000 l0 -2000 2000 0 2000 0 0 2000 0 2000 -2000 0 -2000 0 0 -2000z m2719 1729 c26 -173 107 -362 205 -481 127 -154 340 -261 562 -284 l64 -7 0 -287 0 -288 -52 -4 c-197 -15 -438 52 -681 187 -54 30 -100 55 -102 55 -2 0 -6 -298 -8 -662 -3 -639 -4 -666 -25 -760 -61 -268 -176 -490 -345 -661 -441 -449 -1117 -463 -1542 -32 -451 456 -460 1210 -20 1651 199 199 511 330 833 350 l102 7 -2 -303 -3 -303 -101 -23 c-295 -66 -452 -161 -531 -320 -33 -68 -37 -84 -41 -177 -5 -124 8 -194 55 -287 66 -133 208 -245 359 -284 128 -33 282 -14 386 47 120 70 222 231 258 408 19 90 20 145 20 1317 l0 1222 298 0 299 0 12 -81z"></path></g></svg>