<svg xmlns="http://www.w3.org/2000/svg" xmlns:xlink="http://www.w3.org/1999/xlink" preserveAspectRatio="xMidYMid meet" viewBox="0 0 640 640" width="640" height="640"><defs><path d="M445.1 0C455.66 90.83 506.35 144.97 594.49 150.74C594.49 160.95 594.49 242.67 594.49 252.89C543.41 257.88 498.67 241.18 446.64 209.68C446.64 228.79 446.64 381.64 446.64 400.74C446.64 643.46 182.03 719.3 75.66 545.33C7.3 433.39 49.16 236.95 268.44 229.08C268.44 239.85 268.44 326.03 268.44 336.8C251.74 339.49 233.88 343.71 217.56 349.28C168.78 365.8 141.13 396.71 148.81 451.25C163.6 555.7 355.24 586.62 339.3 382.5C339.3 357.01 339.3 229.58 339.3 0.19L445.1 0.19C445.1 0.09 445.1 0.03 445.1 0Z" id="czSvzuYVA"></path></defs><g><g><g><use xlink:href="#czSvzuYVA" opacity="1" fill="#ffffff" fill-opacity="1"></use><g><use xlink:href="#czSvzuYVA" opacity="1" fill-opacity="0" stroke="#000000" stroke-width="1" stroke-opacity="0"></use></g></g></g></g></svg>