<svg xmlns="http://www.w3.org/2000/svg" xmlns:xlink="http://www.w3.org/1999/xlink" width="344" height="400"><g><title>background</title><rect fill="#000000" id="canvas_background" height="402" width="346" y="-1" x="-1"></rect><g display="none" y="0" x="0" height="100%" width="100%" id="canvasGrid"><rect fill="url(#gridpattern)" stroke-width="0" y="0" x="0" height="100%" width="100%"></rect></g></g><g><title>Layer 1</title><defs><path id="svg_4" d="m445.1,0c10.56,90.83 61.25,144.97 149.39,150.74c0,10.21 0,91.93 0,102.15c-51.08,4.99 -95.82,-11.71 -147.85,-43.21c0,19.11 0,171.96 0,191.06c0,242.72 -264.61,318.56 -370.98,144.59c-68.36,-111.94 -26.5,-308.38 192.78,-316.25c0,10.77 0,96.95 0,107.72c-16.7,2.69 -34.56,6.91 -50.88,12.48c-48.78,16.52 -76.43,47.43 -68.75,101.97c14.79,104.45 206.43,135.37 190.49,-68.75c0,-25.49 0,-152.92 0,-382.31l105.8,0c0,-0.1 0,-0.16 0,-0.19z"></path></defs><g stroke="null" id="svg_12"><g stroke="null" transform="matrix(0.608205418703295,0,0,0.608205418703295,-3376.3896684964207,-2261.152649863164) " id="svg_6"><g stroke="null" id="svg_7"><g stroke="null" id="svg_8"><use stroke="null" x="5514.138428" y="3726.147217" id="svg_9" fill="#ffffff" xlink:href="#svg_4"></use><g stroke="null" id="svg_10"><use stroke="#000000" x="5514.138428" y="3726.147217" id="svg_11" stroke-opacity="0" fill-opacity="0" xlink:href="#svg_4"></use></g></g></g></g></g></g></svg>