<svg xmlns="http://www.w3.org/2000/svg" xmlns:xlink="http://www.w3.org/1999/xlink" id="svg" width="400" height="400" viewBox="0, 0, 400,400"><g id="svgg"><path id="path0" d="M256.200 50.228 C 250.462 51.538,235.855 54.554,233.400 54.936 C 232.740 55.038,231.930 55.220,231.600 55.339 C 231.270 55.458,230.370 55.650,229.600 55.766 C 228.830 55.882,227.390 56.175,226.400 56.418 C 225.410 56.660,223.970 56.946,223.200 57.054 C 222.430 57.161,221.440 57.405,221.000 57.594 C 220.267 57.910,219.048 58.134,215.200 58.659 C 214.430 58.764,213.440 59.007,213.000 59.200 C 212.560 59.393,211.570 59.644,210.800 59.759 C 208.786 60.058,205.681 60.680,203.600 61.200 C 202.610 61.448,200.945 61.819,199.900 62.025 C 198.855 62.231,197.055 62.587,195.900 62.817 C 194.745 63.046,193.170 63.327,192.400 63.441 C 191.630 63.556,190.640 63.807,190.200 64.000 C 189.760 64.193,188.770 64.444,188.000 64.559 C 187.230 64.673,185.655 64.954,184.500 65.183 C 183.345 65.413,181.545 65.767,180.500 65.971 C 179.455 66.175,176.890 66.728,174.800 67.200 C 172.710 67.672,170.460 68.143,169.800 68.248 C 169.140 68.353,167.880 68.595,167.000 68.787 C 166.120 68.978,164.320 69.350,163.000 69.613 C 157.644 70.680,154.945 71.900,153.899 73.728 C 153.509 74.409,153.352 87.274,153.179 132.400 C 152.942 194.689,153.036 192.283,150.731 194.685 C 147.680 197.864,144.483 198.707,133.600 199.204 C 112.928 200.149,104.772 205.920,104.814 219.576 C 104.869 237.478,118.190 246.448,140.600 243.674 C 151.691 242.301,161.879 235.574,164.339 228.000 C 166.058 222.708,166.000 224.785,166.001 168.480 C 166.001 118.366,166.045 114.912,166.701 113.600 C 167.491 112.020,168.928 111.192,171.700 110.722 C 174.541 110.241,177.186 109.704,179.200 109.200 C 180.190 108.952,181.810 108.592,182.800 108.400 C 183.790 108.208,185.410 107.846,186.400 107.596 C 187.390 107.346,188.830 107.054,189.600 106.946 C 190.370 106.839,191.360 106.594,191.800 106.402 C 192.240 106.211,193.140 105.961,193.800 105.847 C 195.831 105.497,201.410 104.324,204.400 103.619 C 205.390 103.386,207.010 103.030,208.000 102.827 C 209.732 102.473,213.523 101.645,223.800 99.374 C 230.264 97.946,237.403 96.420,239.600 95.997 C 240.590 95.806,242.210 95.444,243.200 95.192 C 244.190 94.941,245.720 94.641,246.600 94.526 C 247.480 94.412,248.371 94.156,248.580 93.959 C 249.273 93.304,251.811 93.564,252.686 94.379 C 253.974 95.579,254.077 99.069,253.931 136.600 L 253.800 170.600 252.727 172.854 C 250.664 177.185,248.675 177.909,237.400 178.431 C 228.166 178.859,224.795 179.145,223.800 179.585 C 223.360 179.780,222.460 180.051,221.800 180.188 C 218.545 180.861,217.635 181.152,215.600 182.174 C 207.083 186.453,203.672 194.495,206.033 204.723 C 206.773 207.927,208.218 211.052,209.736 212.729 C 210.101 213.133,210.400 213.637,210.400 213.850 C 210.400 215.372,219.861 221.600,222.172 221.600 C 222.491 221.600,222.864 221.780,223.000 222.000 C 223.136 222.220,223.831 222.400,224.544 222.400 C 225.257 222.400,226.011 222.563,226.220 222.763 C 227.192 223.692,241.924 224.105,245.800 223.312 C 255.195 221.390,262.196 215.696,265.144 207.578 C 266.815 202.977,266.800 203.680,266.800 128.440 C 266.800 51.159,266.874 54.068,264.846 51.864 C 262.694 49.528,260.821 49.173,256.200 50.228 M49.691 279.118 L 46.781 279.235 46.891 335.918 L 47.000 392.600 48.000 394.272 C 49.319 396.478,51.070 398.400,51.760 398.400 C 52.065 398.400,52.425 398.689,52.561 399.042 C 52.734 399.494,53.096 399.613,53.779 399.441 C 54.314 399.307,54.863 399.378,54.999 399.599 C 55.335 400.143,344.656 400.157,344.992 399.613 C 345.123 399.400,345.764 399.333,346.416 399.463 C 347.339 399.648,347.600 399.557,347.600 399.050 C 347.600 398.693,347.863 398.400,348.184 398.400 C 348.947 398.400,350.581 396.653,351.926 394.400 L 353.000 392.600 353.000 335.886 L 353.000 279.171 202.800 279.086 C 120.190 279.039,51.291 279.053,49.691 279.118 M277.326 298.386 C 283.331 299.369,291.600 306.685,291.600 311.014 C 291.600 311.530,291.780 312.064,292.000 312.200 C 292.221 312.336,292.400 314.130,292.400 316.200 C 292.400 318.270,292.221 320.064,292.000 320.200 C 291.780 320.336,291.600 320.776,291.600 321.178 C 291.600 322.607,289.531 325.665,286.239 329.100 C 285.133 330.255,284.465 331.200,284.756 331.200 C 285.046 331.200,286.168 331.644,287.250 332.187 C 298.455 337.815,302.996 353.924,296.662 365.570 C 294.414 369.702,290.089 374.024,286.700 375.525 C 285.875 375.890,285.200 376.326,285.200 376.494 C 285.200 376.662,284.851 376.800,284.424 376.800 C 283.997 376.800,283.536 376.980,283.400 377.200 C 283.264 377.420,282.659 377.600,282.056 377.600 C 281.453 377.600,280.769 377.791,280.535 378.025 C 280.002 378.558,269.931 378.584,268.921 378.055 C 268.524 377.848,267.390 377.446,266.400 377.162 C 265.410 376.879,263.848 376.141,262.928 375.523 C 262.008 374.906,261.152 374.400,261.024 374.400 C 260.073 374.400,254.898 368.834,253.493 366.299 C 251.953 363.523,250.343 358.624,250.263 356.478 C 250.200 354.761,250.205 354.754,252.200 354.018 C 253.300 353.612,255.450 352.816,256.977 352.248 C 260.325 351.003,261.013 351.333,261.316 354.329 C 262.497 365.969,274.112 371.506,283.133 364.727 C 295.266 355.610,286.970 338.484,270.000 337.615 L 265.800 337.400 265.800 332.000 L 265.800 326.600 269.600 326.349 C 273.736 326.075,275.600 325.704,275.600 325.153 C 275.600 324.959,275.833 324.800,276.119 324.800 C 276.703 324.800,279.032 322.447,280.337 320.538 C 281.651 318.617,281.562 314.530,280.161 312.413 C 278.442 309.815,272.768 307.635,271.800 309.200 C 271.664 309.420,271.276 309.600,270.938 309.600 C 269.290 309.600,266.741 312.923,265.797 316.301 C 265.499 317.370,264.886 317.279,260.645 315.534 C 259.130 314.910,257.690 314.396,257.445 314.391 C 257.200 314.386,256.589 314.066,256.086 313.679 L 255.172 312.975 256.058 310.788 C 256.546 309.584,257.273 308.122,257.673 307.538 C 258.073 306.954,258.400 306.371,258.400 306.243 C 258.400 306.114,258.715 305.610,259.100 305.121 C 263.454 299.600,269.991 297.184,277.326 298.386 M119.172 301.400 C 119.784 302.500,120.670 304.075,121.142 304.900 C 121.614 305.725,122.381 307.075,122.847 307.900 C 123.313 308.725,123.994 309.850,124.361 310.400 C 124.728 310.950,125.292 311.940,125.614 312.600 C 125.935 313.260,126.289 313.890,126.399 314.000 C 126.795 314.394,128.054 316.613,128.271 317.300 C 128.393 317.685,128.652 318.000,128.847 318.000 C 129.041 318.000,129.200 318.177,129.200 318.393 C 129.200 318.609,130.700 321.354,132.534 324.493 C 134.368 327.632,136.411 331.190,137.075 332.400 C 137.739 333.610,138.849 335.553,139.541 336.718 C 140.234 337.882,140.800 339.007,140.800 339.218 C 140.800 339.428,140.936 339.600,141.102 339.600 C 141.269 339.600,141.647 340.147,141.943 340.815 C 142.477 342.023,143.600 341.895,143.600 340.626 C 143.600 340.365,143.915 339.802,144.300 339.375 C 144.685 338.948,145.378 337.879,145.840 337.000 C 146.302 336.120,147.877 333.352,149.340 330.848 C 150.803 328.345,152.000 326.248,152.000 326.189 C 152.000 326.130,152.737 324.869,153.637 323.388 C 154.537 321.906,155.617 320.087,156.037 319.347 C 156.457 318.606,157.143 317.395,157.562 316.655 C 157.982 315.915,158.567 314.880,158.862 314.355 C 159.158 313.830,159.490 313.310,159.600 313.200 C 159.710 313.090,160.177 312.280,160.638 311.400 C 161.100 310.520,161.865 309.125,162.338 308.300 C 162.812 307.475,163.563 306.159,164.008 305.374 C 164.452 304.590,165.113 303.494,165.477 302.938 C 165.841 302.383,166.444 301.359,166.816 300.664 L 167.494 299.400 172.547 299.288 L 177.600 299.176 177.600 338.400 L 177.600 377.623 172.300 377.512 L 167.000 377.400 166.897 350.500 C 166.841 335.705,166.661 323.602,166.497 323.605 C 166.191 323.610,164.400 326.196,164.400 326.633 C 164.400 326.767,164.061 327.354,163.647 327.938 C 163.233 328.522,162.513 329.675,162.047 330.500 C 161.581 331.325,160.857 332.605,160.438 333.345 C 160.018 334.085,159.433 335.120,159.138 335.645 C 158.842 336.170,158.510 336.690,158.400 336.800 C 158.290 336.910,157.975 337.405,157.700 337.900 C 157.425 338.395,156.975 339.205,156.700 339.700 C 156.425 340.195,156.110 340.690,155.999 340.800 C 155.889 340.910,155.529 341.537,155.199 342.193 C 154.697 343.193,152.748 346.609,147.151 356.300 C 146.738 357.015,146.011 358.275,145.535 359.100 C 145.059 359.925,144.425 361.076,144.126 361.658 C 143.080 363.696,142.533 363.803,141.743 362.124 C 141.349 361.286,140.705 360.251,140.313 359.825 C 139.921 359.398,139.600 358.921,139.600 358.765 C 139.600 358.609,138.880 357.297,138.000 355.848 C 137.120 354.400,136.400 353.128,136.400 353.021 C 136.400 352.915,135.453 351.247,134.296 349.314 C 133.139 347.381,131.924 345.260,131.597 344.600 C 131.269 343.940,130.898 343.310,130.771 343.200 C 130.644 343.090,130.104 342.190,129.570 341.200 C 129.037 340.210,128.510 339.310,128.400 339.200 C 128.004 338.804,126.746 336.585,126.529 335.900 C 126.407 335.515,126.148 335.200,125.953 335.200 C 125.759 335.200,125.600 334.840,125.600 334.400 C 125.600 333.960,125.420 333.600,125.200 333.600 C 124.980 333.600,124.800 333.330,124.800 333.000 C 124.800 332.670,124.641 332.400,124.447 332.400 C 124.252 332.400,123.990 332.085,123.864 331.700 C 123.738 331.315,123.089 330.100,122.422 329.000 C 121.755 327.900,120.712 326.115,120.104 325.033 L 119.000 323.066 118.800 350.233 L 118.600 377.400 113.200 377.400 L 107.800 377.400 107.698 338.288 L 107.596 299.177 112.828 299.288 L 118.059 299.400 119.172 301.400 M220.280 299.795 C 225.597 301.159,235.600 308.083,235.600 310.400 C 235.600 310.589,235.826 310.981,236.102 311.271 C 236.927 312.139,238.536 315.683,239.585 318.939 C 241.342 324.398,239.296 336.968,236.102 340.329 C 235.826 340.619,235.600 341.011,235.600 341.200 C 235.600 342.255,229.074 347.975,226.151 349.483 C 221.425 351.921,219.347 352.377,211.625 352.668 L 204.811 352.925 204.706 365.163 L 204.600 377.400 200.000 377.516 C 197.470 377.580,194.995 377.532,194.500 377.408 L 193.600 377.185 193.600 338.459 C 193.600 317.160,193.720 299.613,193.867 299.467 C 194.449 298.884,217.863 299.175,220.280 299.795 M204.800 325.770 L 204.800 342.000 209.654 342.000 C 217.264 342.000,220.936 340.783,225.119 336.876 C 226.494 335.591,228.800 331.559,228.800 330.439 C 228.800 330.066,228.994 329.566,229.231 329.329 C 229.969 328.591,229.274 320.254,228.420 319.600 C 228.276 319.490,227.832 318.700,227.434 317.844 C 224.921 312.446,219.879 310.059,210.300 309.729 L 204.800 309.540 204.800 325.770 " stroke="none" fill="#4cc484" fill-rule="evenodd"></path><path id="path1" d="M268.267 1.467 C 268.120 1.613,268.000 2.243,268.000 2.867 C 268.000 3.490,267.798 4.000,267.551 4.000 C 267.228 4.000,267.234 4.159,267.570 4.564 C 267.907 4.969,267.915 5.205,267.600 5.400 C 267.282 5.597,267.282 5.816,267.600 6.200 C 267.918 6.584,267.918 6.803,267.600 7.000 C 267.282 7.197,267.282 7.416,267.600 7.800 C 267.918 8.184,267.918 8.403,267.600 8.600 C 267.282 8.797,267.282 9.016,267.600 9.400 C 267.918 9.784,267.918 10.003,267.600 10.200 C 267.282 10.397,267.282 10.616,267.600 11.000 C 267.918 11.384,267.918 11.603,267.600 11.800 C 267.282 11.997,267.282 12.216,267.600 12.600 C 267.918 12.984,267.918 13.203,267.600 13.400 C 267.298 13.586,267.289 13.826,267.571 14.165 C 267.854 14.506,267.835 14.805,267.510 15.130 C 267.186 15.454,267.177 15.600,267.481 15.600 C 268.022 15.600,268.117 21.481,267.581 21.812 C 267.372 21.941,267.416 22.356,267.684 22.786 C 268.044 23.363,268.038 23.672,267.657 24.132 C 267.304 24.556,267.288 24.807,267.600 25.000 C 267.918 25.197,267.918 25.416,267.600 25.800 C 267.282 26.184,267.282 26.403,267.600 26.600 C 267.918 26.797,267.918 27.016,267.600 27.400 C 267.282 27.784,267.282 28.003,267.600 28.200 C 267.918 28.397,267.918 28.616,267.600 29.000 C 267.282 29.384,267.282 29.603,267.600 29.800 C 267.917 29.996,267.918 30.217,267.603 30.597 C 267.282 30.983,267.304 31.168,267.683 31.296 C 268.099 31.436,268.093 31.600,267.651 32.135 C 267.349 32.501,267.260 32.800,267.454 32.800 C 267.937 32.800,268.017 37.688,267.543 38.264 C 267.296 38.564,267.317 38.825,267.600 39.000 C 267.918 39.197,267.918 39.416,267.600 39.800 C 267.296 40.166,267.290 40.409,267.581 40.588 C 268.130 40.927,268.120 42.520,267.565 43.075 C 267.252 43.388,267.252 43.585,267.565 43.778 C 267.804 43.926,268.000 44.451,268.000 44.944 C 268.000 45.437,267.804 46.036,267.565 46.275 C 267.252 46.588,267.252 46.785,267.565 46.978 C 268.147 47.338,268.119 48.921,267.520 49.520 C 267.147 49.893,267.147 50.000,267.520 50.000 C 267.829 50.000,268.000 50.711,268.000 52.000 C 268.000 53.575,267.863 54.000,267.353 54.000 C 266.904 54.000,266.770 53.756,266.916 53.200 C 267.031 52.761,266.959 52.298,266.756 52.173 C 266.553 52.047,266.480 51.793,266.595 51.608 C 267.008 50.940,266.342 49.950,265.789 50.409 C 265.424 50.712,265.194 50.713,265.008 50.413 C 263.794 48.449,259.923 48.325,253.154 50.035 C 252.358 50.236,251.089 50.400,250.334 50.400 C 249.578 50.400,248.760 50.600,248.515 50.845 C 248.270 51.090,247.334 51.220,246.435 51.135 C 245.337 51.030,244.800 51.138,244.800 51.463 C 244.800 51.740,244.294 51.932,243.614 51.913 C 242.961 51.894,242.160 52.101,241.834 52.372 C 241.507 52.643,240.621 52.811,239.865 52.746 C 239.108 52.681,238.198 52.870,237.841 53.166 C 237.435 53.503,236.682 53.621,235.821 53.481 C 234.870 53.327,234.296 53.443,233.949 53.862 C 233.412 54.508,234.419 54.447,238.200 53.601 C 239.080 53.404,240.250 53.162,240.800 53.063 C 241.350 52.964,244.500 52.304,247.800 51.598 C 256.697 49.693,257.217 49.592,259.493 49.337 C 262.823 48.963,265.551 50.700,266.667 53.903 C 267.367 55.915,267.453 200.324,266.756 203.669 C 265.245 210.915,260.390 217.512,253.888 221.153 C 253.056 221.619,252.032 222.000,251.611 222.000 C 251.191 222.000,250.732 222.187,250.590 222.416 C 250.421 222.689,250.723 222.738,251.466 222.559 C 252.475 222.317,253.480 221.836,256.593 220.107 C 257.994 219.328,263.408 213.481,264.032 212.074 C 264.342 211.373,264.804 210.800,265.060 210.800 C 265.319 210.800,265.438 210.465,265.328 210.045 C 265.219 209.630,265.326 209.169,265.565 209.022 C 265.804 208.874,266.000 208.324,266.000 207.800 C 266.000 207.276,266.180 206.736,266.400 206.600 C 266.620 206.464,266.800 205.829,266.800 205.189 C 266.800 204.261,266.942 204.071,267.500 204.250 C 268.049 204.427,268.080 204.390,267.642 204.078 C 267.309 203.841,267.193 203.395,267.355 202.972 C 267.505 202.582,267.651 174.979,267.680 141.632 C 267.709 108.284,267.838 82.080,267.967 83.400 L 268.200 85.800 310.178 85.902 C 335.536 85.963,352.303 85.857,352.527 85.633 C 352.754 85.406,351.416 83.799,349.069 81.478 C 346.963 79.396,345.141 77.792,345.020 77.913 C 344.899 78.034,344.798 77.878,344.796 77.567 C 344.794 77.255,344.220 76.550,343.520 76.000 C 342.820 75.450,341.697 74.383,341.024 73.629 C 338.143 70.402,328.834 61.299,328.627 61.507 C 328.502 61.631,328.398 61.478,328.396 61.167 C 328.394 60.855,327.818 60.150,327.115 59.600 C 326.412 59.050,325.469 58.168,325.019 57.639 C 324.383 56.893,316.266 48.772,308.690 41.300 C 308.299 40.915,305.120 37.689,301.626 34.131 C 298.131 30.573,295.166 27.768,295.036 27.897 C 294.906 28.027,294.798 27.878,294.796 27.567 C 294.794 27.255,294.220 26.550,293.520 26.000 C 292.820 25.450,291.697 24.383,291.024 23.629 C 288.143 20.402,278.834 11.299,278.627 11.507 C 278.502 11.631,278.398 11.478,278.396 11.167 C 278.394 10.855,277.818 10.150,277.115 9.600 C 276.412 9.050,275.469 8.176,275.019 7.659 C 273.670 6.109,268.862 1.200,268.691 1.200 C 268.604 1.200,268.413 1.320,268.267 1.467 M248.976 17.238 C 248.827 17.479,248.997 17.968,249.353 18.324 C 249.719 18.691,250.000 18.775,250.000 18.519 C 250.000 18.270,249.775 17.975,249.500 17.864 C 249.124 17.711,249.148 17.556,249.600 17.237 C 249.969 16.975,250.017 16.810,249.724 16.806 C 249.462 16.803,249.125 16.997,248.976 17.238 M65.443 34.233 C 65.067 35.211,65.149 35.308,65.800 34.657 C 66.480 33.977,66.567 33.600,66.043 33.600 C 65.846 33.600,65.576 33.885,65.443 34.233 M229.563 54.872 C 229.248 55.459,229.349 55.501,230.372 55.208 C 232.553 54.582,232.992 54.135,231.389 54.169 C 230.452 54.189,229.794 54.442,229.563 54.872 M227.600 55.088 C 227.050 55.187,226.420 55.456,226.200 55.686 C 225.691 56.217,228.026 55.713,228.580 55.172 C 228.789 54.967,228.879 54.825,228.780 54.854 C 228.681 54.884,228.150 54.990,227.600 55.088 M222.194 56.409 C 222.027 56.679,222.531 56.728,223.671 56.554 C 225.956 56.203,226.110 56.000,224.090 56.000 C 223.187 56.000,222.333 56.184,222.194 56.409 M267.887 59.095 C 267.795 59.703,267.717 59.300,267.714 58.200 C 267.711 57.100,267.787 56.603,267.882 57.095 C 267.977 57.586,267.979 58.486,267.887 59.095 M219.000 57.200 C 218.705 57.678,219.489 57.678,220.600 57.200 C 221.314 56.893,221.285 56.853,220.324 56.828 C 219.732 56.813,219.136 56.980,219.000 57.200 M215.000 58.000 L 214.200 58.344 215.000 58.344 C 215.440 58.344,216.160 58.189,216.600 58.000 L 217.400 57.656 216.600 57.656 C 216.160 57.656,215.440 57.811,215.000 58.000 M211.000 58.800 C 210.705 59.278,211.489 59.278,212.600 58.800 C 213.314 58.493,213.285 58.453,212.324 58.428 C 211.732 58.413,211.136 58.580,211.000 58.800 M207.400 59.600 C 207.085 60.109,208.012 60.109,208.800 59.600 C 209.288 59.285,209.236 59.211,208.524 59.206 C 208.042 59.203,207.536 59.380,207.400 59.600 M202.000 60.597 C 200.570 60.889,198.731 61.242,197.914 61.380 C 197.097 61.518,196.304 61.832,196.151 62.079 C 195.959 62.389,196.169 62.434,196.837 62.225 C 197.367 62.060,198.610 61.773,199.600 61.587 C 202.966 60.957,204.831 60.502,205.083 60.251 C 205.407 59.927,205.121 59.959,202.000 60.597 M191.400 62.649 L 190.200 63.164 191.600 63.176 C 192.370 63.182,193.240 63.035,193.534 62.849 C 194.482 62.248,192.719 62.082,191.400 62.649 M188.800 63.200 C 189.278 63.509,189.201 63.589,188.424 63.594 C 187.006 63.603,182.742 64.433,181.741 64.895 C 181.268 65.113,180.143 65.221,179.241 65.135 C 178.183 65.034,177.600 65.142,177.600 65.437 C 177.600 65.690,176.835 66.007,175.900 66.142 C 174.965 66.277,173.300 66.573,172.200 66.800 C 171.100 67.027,169.435 67.323,168.500 67.458 C 167.565 67.593,166.800 67.839,166.800 68.005 C 166.800 68.170,166.055 68.316,165.144 68.329 C 164.234 68.341,163.342 68.498,163.163 68.677 C 162.715 69.125,166.507 68.811,166.980 68.361 C 167.189 68.163,168.098 68.000,169.000 68.000 C 169.902 68.000,170.811 67.848,171.020 67.662 C 171.229 67.475,172.750 67.097,174.400 66.822 C 176.050 66.546,177.760 66.170,178.200 65.985 C 178.640 65.801,179.630 65.556,180.400 65.441 C 181.170 65.327,182.790 65.038,184.000 64.800 C 185.210 64.562,186.830 64.272,187.600 64.156 C 189.911 63.808,190.286 63.625,189.589 63.185 C 189.265 62.980,188.820 62.812,188.600 62.812 C 188.380 62.812,188.470 62.987,188.800 63.200 M48.806 67.471 C 48.818 68.084,49.555 68.978,49.826 68.707 C 49.974 68.559,49.804 68.147,49.448 67.790 C 49.091 67.434,48.803 67.291,48.806 67.471 M159.329 69.471 C 158.737 69.778,158.029 69.943,157.756 69.838 C 157.482 69.733,157.043 69.907,156.780 70.224 C 156.517 70.541,156.089 70.800,155.829 70.800 C 155.059 70.800,152.798 73.373,152.825 74.219 C 152.850 74.980,152.859 74.979,153.184 74.200 C 154.061 72.093,158.689 69.450,161.300 69.564 C 162.672 69.625,162.732 69.357,161.403 69.103 C 160.854 68.998,159.921 69.163,159.329 69.471 M151.989 76.100 C 151.983 76.595,151.979 102.605,151.980 133.900 C 151.982 178.871,151.879 190.800,151.488 190.800 C 151.195 190.800,150.994 191.331,150.996 192.100 C 150.999 193.067,150.769 193.501,150.100 193.795 C 149.605 194.012,149.200 194.404,149.200 194.666 C 149.200 195.174,147.035 196.400,146.139 196.400 C 145.842 196.400,145.600 196.594,145.600 196.830 C 145.600 197.067,145.105 197.220,144.500 197.172 C 143.895 197.123,142.860 197.308,142.200 197.583 C 141.462 197.890,138.535 198.129,134.600 198.203 C 128.687 198.315,121.588 199.168,119.284 200.044 C 118.769 200.240,117.910 200.400,117.374 200.400 C 116.838 200.400,116.400 200.542,116.400 200.716 C 116.400 200.890,115.428 201.525,114.241 202.126 C 113.053 202.727,111.842 203.530,111.548 203.910 C 111.050 204.553,111.068 204.556,111.807 203.964 C 113.300 202.767,117.799 200.847,120.600 200.212 C 122.140 199.862,123.760 199.490,124.200 199.385 C 124.640 199.280,128.602 199.023,133.004 198.813 C 146.118 198.190,150.226 196.673,151.992 191.800 C 152.721 189.789,153.136 75.200,152.414 75.200 C 152.186 75.200,151.995 75.605,151.989 76.100 M249.000 94.400 C 248.407 94.655,248.718 94.749,250.200 94.766 C 251.631 94.781,252.029 94.677,251.600 94.400 C 250.881 93.936,250.081 93.936,249.000 94.400 M245.000 95.200 C 244.286 95.507,244.315 95.547,245.276 95.572 C 245.868 95.587,246.464 95.420,246.600 95.200 C 246.895 94.722,246.111 94.722,245.000 95.200 M252.675 132.916 C 252.736 163.948,252.652 171.104,252.222 171.596 C 251.932 171.928,251.562 172.650,251.400 173.200 C 251.238 173.750,250.829 174.515,250.491 174.900 C 250.153 175.285,250.007 175.600,250.167 175.600 C 250.701 175.600,251.395 174.617,252.401 172.432 L 253.400 170.265 253.400 132.952 C 253.400 108.611,253.261 95.501,253.000 95.240 C 252.733 94.973,252.625 107.532,252.675 132.916 M240.048 96.217 C 237.395 96.793,235.939 97.509,238.400 97.028 C 239.170 96.878,240.520 96.656,241.400 96.536 C 242.280 96.416,243.171 96.156,243.380 95.959 C 243.883 95.484,243.178 95.538,240.048 96.217 M234.400 97.600 L 233.000 97.895 234.400 97.941 C 235.170 97.967,236.070 97.813,236.400 97.600 C 237.127 97.130,236.633 97.130,234.400 97.600 M230.600 98.276 C 229.940 98.362,228.950 98.586,228.400 98.773 C 227.850 98.961,226.320 99.330,225.000 99.594 C 222.831 100.027,218.704 100.940,214.094 102.006 C 213.156 102.223,211.952 102.400,211.418 102.400 C 210.884 102.400,210.336 102.580,210.200 102.800 C 210.064 103.020,209.378 103.203,208.676 103.206 C 207.974 103.209,207.130 103.396,206.800 103.621 C 206.122 104.083,208.661 103.788,210.400 103.203 C 210.950 103.018,212.120 102.746,213.000 102.598 C 214.937 102.274,217.187 101.796,219.600 101.197 C 221.785 100.654,224.873 100.037,226.903 99.737 C 227.729 99.615,228.505 99.355,228.626 99.158 C 228.748 98.961,229.512 98.797,230.324 98.794 C 231.136 98.791,232.070 98.613,232.400 98.400 C 233.068 97.968,233.002 97.963,230.600 98.276 M203.000 104.400 C 202.864 104.620,202.178 104.803,201.476 104.806 C 200.774 104.809,199.930 104.996,199.600 105.221 C 198.908 105.692,201.520 105.378,203.200 104.788 C 203.750 104.595,204.650 104.363,205.200 104.273 C 205.909 104.157,205.770 104.093,204.724 104.054 C 203.912 104.025,203.136 104.180,203.000 104.400 M195.600 106.000 C 194.861 106.477,195.924 106.477,197.800 106.000 L 199.000 105.695 197.600 105.653 C 196.830 105.631,195.930 105.787,195.600 106.000 M188.400 107.600 C 187.912 107.915,187.964 107.989,188.676 107.994 C 189.158 107.997,189.664 107.820,189.800 107.600 C 190.115 107.091,189.188 107.091,188.400 107.600 M181.200 109.200 C 180.712 109.515,180.764 109.589,181.476 109.594 C 181.958 109.597,182.464 109.420,182.600 109.200 C 182.915 108.691,181.988 108.691,181.200 109.200 M170.200 111.600 C 169.486 111.907,169.515 111.947,170.476 111.972 C 171.068 111.987,171.664 111.820,171.800 111.600 C 172.095 111.122,171.311 111.122,170.200 111.600 M167.831 112.300 C 166.402 113.720,166.400 113.791,166.400 168.920 C 166.400 201.461,166.251 223.026,166.022 223.772 C 165.814 224.447,165.359 225.990,165.011 227.200 C 163.981 230.781,157.950 238.226,155.245 239.258 C 154.719 239.458,154.389 239.722,154.510 239.844 C 155.126 240.459,162.800 233.715,162.800 232.558 C 162.800 232.305,163.066 231.877,163.392 231.607 C 164.161 230.968,165.200 228.874,165.200 227.962 C 165.200 227.569,165.380 227.136,165.600 227.000 C 165.820 226.864,166.000 226.169,166.000 225.456 C 166.000 224.743,166.179 223.981,166.398 223.762 C 166.657 223.503,166.798 204.574,166.803 169.269 C 166.811 113.232,166.771 114.682,168.362 112.700 C 168.903 112.026,168.450 111.685,167.831 112.300 M87.300 117.023 C 86.711 117.663,86.662 118.000,87.157 118.000 C 87.498 118.000,88.137 116.796,87.909 116.583 C 87.849 116.527,87.575 116.725,87.300 117.023 M53.700 134.223 C 53.111 134.863,53.062 135.200,53.557 135.200 C 53.898 135.200,54.537 133.996,54.309 133.783 C 54.249 133.727,53.975 133.925,53.700 134.223 M335.842 167.034 C 335.708 167.383,335.749 167.937,335.933 168.266 C 336.168 168.686,336.267 168.499,336.267 167.631 C 336.267 166.237,336.190 166.129,335.842 167.034 M243.800 177.386 C 243.140 177.688,242.881 177.950,243.224 177.968 C 243.566 177.985,244.196 177.736,244.624 177.413 C 245.588 176.683,245.351 176.676,243.800 177.386 M227.000 178.400 C 225.906 178.870,227.733 178.870,229.200 178.400 C 230.175 178.088,230.170 178.079,229.000 178.068 C 228.340 178.062,227.440 178.211,227.000 178.400 M223.600 178.800 C 223.270 179.013,222.426 179.191,221.724 179.194 C 221.022 179.197,220.351 179.356,220.233 179.547 C 220.115 179.738,219.133 180.012,218.051 180.155 C 216.969 180.299,215.858 180.689,215.581 181.023 C 215.304 181.357,214.790 181.581,214.439 181.522 C 214.087 181.463,213.196 181.951,212.459 182.607 C 211.721 183.263,210.731 183.803,210.259 183.807 C 209.635 183.811,209.145 184.332,208.470 185.707 C 207.958 186.748,207.289 187.600,206.982 187.600 C 206.643 187.600,206.518 187.843,206.663 188.221 C 206.941 188.945,207.793 188.189,208.716 186.400 C 209.387 185.101,211.742 183.545,217.195 180.800 C 217.632 180.580,218.431 180.400,218.971 180.400 C 219.511 180.400,220.064 180.220,220.200 180.000 C 220.336 179.780,220.956 179.600,221.578 179.600 C 222.199 179.600,223.314 179.337,224.054 179.016 C 224.794 178.694,225.130 178.427,224.800 178.422 C 224.470 178.417,223.930 178.587,223.600 178.800 M203.700 184.223 C 203.111 184.863,203.062 185.200,203.557 185.200 C 203.898 185.200,204.537 183.996,204.309 183.783 C 204.249 183.727,203.975 183.925,203.700 184.223 M205.467 191.867 C 205.320 192.013,205.200 192.565,205.200 193.093 C 205.200 193.621,205.016 194.396,204.791 194.817 C 204.190 195.940,204.135 202.295,204.721 202.881 C 205.093 203.253,205.202 202.427,205.210 199.180 C 205.215 196.881,205.385 194.285,205.587 193.411 C 205.965 191.783,205.935 191.398,205.467 191.867 M299.223 201.373 C 298.687 202.018,298.964 202.804,299.724 202.794 C 300.011 202.790,299.962 202.632,299.600 202.394 C 299.073 202.048,299.072 201.954,299.588 201.622 C 299.912 201.414,300.073 201.139,299.945 201.012 C 299.818 200.885,299.493 201.047,299.223 201.373 M205.234 204.720 C 205.203 205.938,206.139 208.400,206.634 208.400 C 206.751 208.400,206.712 208.181,206.547 207.914 C 206.382 207.647,206.027 206.522,205.757 205.414 C 205.327 203.644,205.264 203.560,205.234 204.720 M108.648 205.843 C 107.058 207.756,107.481 207.827,109.236 205.942 C 110.026 205.094,110.476 204.413,110.236 204.429 C 109.996 204.445,109.282 205.081,108.648 205.843 M106.400 208.440 C 106.400 208.869,105.498 211.107,104.766 212.495 C 104.565 212.877,104.409 213.507,104.421 213.895 C 104.432 214.283,104.719 213.880,105.057 213.000 C 106.040 210.448,106.526 209.448,107.145 208.700 C 107.656 208.082,107.646 208.000,107.062 208.000 C 106.698 208.000,106.400 208.198,106.400 208.440 M206.832 209.638 C 206.814 209.989,207.205 210.619,207.700 211.038 C 208.592 211.794,208.594 211.793,207.952 211.000 C 207.596 210.560,207.205 209.930,207.084 209.600 C 206.897 209.091,206.858 209.096,206.832 209.638 M208.400 212.338 C 208.400 212.524,208.788 213.019,209.262 213.438 L 210.124 214.200 209.416 213.100 C 208.686 211.966,208.400 211.751,208.400 212.338 M210.013 214.617 C 209.996 215.159,213.298 218.400,213.866 218.400 C 214.106 218.400,214.530 218.675,214.809 219.010 C 215.699 220.084,223.165 223.313,222.584 222.374 C 222.457 222.168,222.096 222.000,221.783 222.000 C 220.051 222.000,212.311 217.264,210.857 215.315 C 210.400 214.702,210.020 214.388,210.013 214.617 M103.859 215.391 C 103.430 216.508,103.501 223.068,103.952 223.910 C 104.198 224.370,104.400 225.379,104.400 226.150 C 104.400 226.922,104.580 227.664,104.800 227.800 C 105.288 228.102,105.288 228.172,104.810 225.655 C 104.596 224.525,104.381 221.621,104.333 219.200 C 104.240 214.583,104.223 214.442,103.859 215.391 M229.000 224.000 C 229.136 224.220,229.642 224.397,230.124 224.394 C 230.836 224.389,230.888 224.315,230.400 224.000 C 229.612 223.491,228.685 223.491,229.000 224.000 M244.800 224.000 C 244.267 224.345,244.267 224.388,244.800 224.388 C 245.130 224.388,245.670 224.213,246.000 224.000 C 246.533 223.655,246.533 223.612,246.000 223.612 C 245.670 223.612,245.130 223.787,244.800 224.000 M105.209 228.839 C 105.199 229.580,106.404 232.130,106.649 231.884 C 106.740 231.794,106.455 230.927,106.016 229.960 C 105.577 228.992,105.214 228.487,105.209 228.839 M106.800 232.605 C 106.800 233.531,112.534 240.000,113.354 240.000 C 113.561 240.000,112.522 238.804,111.045 237.341 C 109.568 235.879,108.094 234.169,107.770 233.541 C 107.232 232.501,106.800 232.084,106.800 232.605 M284.077 236.774 C 284.343 237.200,284.705 237.458,284.883 237.349 C 285.061 237.239,284.948 236.890,284.632 236.574 C 283.812 235.755,283.509 235.865,284.077 236.774 M119.000 242.800 C 119.136 243.020,119.642 243.197,120.124 243.194 C 120.836 243.189,120.888 243.115,120.400 242.800 C 119.612 242.291,118.685 242.291,119.000 242.800 M121.400 243.600 C 121.536 243.820,122.132 243.987,122.724 243.972 C 123.685 243.947,123.714 243.907,123.000 243.600 C 121.889 243.122,121.105 243.122,121.400 243.600 M144.200 243.600 C 143.486 243.907,143.515 243.947,144.476 243.972 C 145.068 243.987,145.664 243.820,145.800 243.600 C 146.095 243.122,145.311 243.122,144.200 243.600 M125.400 244.400 C 125.536 244.620,126.492 244.787,127.524 244.772 C 128.940 244.751,129.204 244.659,128.600 244.400 C 127.463 243.912,125.098 243.912,125.400 244.400 M138.200 244.400 C 137.611 244.653,137.947 244.751,139.476 244.772 C 140.618 244.787,141.664 244.620,141.800 244.400 C 142.103 243.910,139.341 243.910,138.200 244.400 M287.200 249.237 C 287.652 249.556,287.676 249.711,287.300 249.864 C 287.025 249.975,286.800 250.270,286.800 250.519 C 286.800 250.775,287.081 250.691,287.447 250.324 C 288.118 249.653,287.909 248.795,287.076 248.806 C 286.783 248.810,286.831 248.975,287.200 249.237 M350.477 269.574 C 350.743 270.000,351.105 270.258,351.283 270.149 C 351.461 270.039,351.348 269.690,351.032 269.374 C 350.212 268.555,349.909 268.665,350.477 269.574 M47.900 277.920 C 37.285 278.474,65.553 278.600,200.000 278.600 C 284.920 278.600,354.400 278.465,354.400 278.300 C 354.400 277.928,54.876 277.556,47.900 277.920 M269.823 298.760 C 269.395 298.928,270.655 298.995,272.623 298.909 C 277.485 298.698,278.122 298.497,274.000 298.475 C 272.130 298.464,270.250 298.593,269.823 298.760 M108.171 299.732 C 108.059 300.024,108.027 301.869,108.101 303.832 L 108.235 307.400 108.318 303.500 L 108.400 299.600 112.720 299.600 C 115.610 299.600,117.226 299.765,117.601 300.100 C 118.078 300.525,118.082 300.496,117.632 299.900 C 116.942 298.988,108.514 298.838,108.171 299.732 M170.316 299.497 C 171.699 299.575,173.859 299.574,175.116 299.495 C 176.372 299.416,175.240 299.352,172.600 299.353 C 169.960 299.353,168.932 299.418,170.316 299.497 M194.584 299.700 C 194.479 299.975,194.441 317.570,194.499 338.800 L 194.604 377.400 194.702 338.506 L 194.800 299.613 205.900 299.500 L 217.000 299.387 205.887 299.293 C 197.296 299.221,194.732 299.313,194.584 299.700 M219.233 300.144 C 219.325 300.223,219.940 300.408,220.600 300.556 C 221.476 300.752,221.638 300.715,221.200 300.418 C 220.660 300.053,218.832 299.798,219.233 300.144 M284.000 301.940 C 284.770 302.615,285.525 303.175,285.678 303.184 C 285.831 303.193,286.776 304.207,287.778 305.437 C 288.780 306.667,289.600 307.494,289.600 307.275 C 289.600 306.687,284.764 301.805,283.600 301.217 C 282.842 300.834,282.938 301.009,284.000 301.940 M166.200 302.400 C 165.859 303.060,165.669 303.600,165.779 303.600 C 165.889 303.600,166.259 303.060,166.600 302.400 C 166.941 301.740,167.131 301.200,167.021 301.200 C 166.911 301.200,166.541 301.740,166.200 302.400 M260.778 303.900 L 259.400 305.400 260.900 304.022 C 261.725 303.263,262.400 302.588,262.400 302.522 C 262.400 302.216,262.062 302.504,260.778 303.900 M231.787 307.109 C 234.164 309.589,235.417 310.579,233.570 308.518 C 232.262 307.059,231.956 306.761,230.582 305.609 C 229.932 305.064,230.474 305.739,231.787 307.109 M121.615 307.000 C 121.617 307.220,121.986 307.850,122.436 308.400 C 122.979 309.064,123.115 309.131,122.840 308.600 C 122.166 307.295,121.612 306.572,121.615 307.000 M204.267 309.467 C 203.897 309.837,203.929 341.909,204.300 342.138 C 204.465 342.240,204.600 334.871,204.600 325.762 C 204.600 316.653,204.585 309.200,204.567 309.200 C 204.548 309.200,204.413 309.320,204.267 309.467 M214.833 309.347 C 214.925 309.428,215.720 309.604,216.600 309.738 C 217.715 309.907,217.958 309.871,217.400 309.619 C 216.632 309.271,214.490 309.044,214.833 309.347 M267.847 310.801 C 267.051 311.682,266.400 312.533,266.400 312.692 C 266.400 312.852,266.951 312.314,267.624 311.498 C 268.297 310.681,269.152 309.836,269.524 309.619 C 269.896 309.402,269.996 309.219,269.747 309.212 C 269.497 309.205,268.642 309.921,267.847 310.801 M123.215 309.800 C 123.217 310.020,123.586 310.650,124.036 311.200 C 124.579 311.864,124.715 311.931,124.440 311.400 C 123.766 310.095,123.212 309.372,123.215 309.800 M279.594 311.003 C 281.187 312.921,281.321 313.045,280.886 312.196 C 280.659 311.753,280.052 311.034,279.537 310.598 C 278.633 309.834,278.635 309.848,279.594 311.003 M291.462 313.000 C 291.596 313.880,291.772 314.675,291.853 314.767 C 292.156 315.110,291.929 312.968,291.581 312.200 C 291.329 311.642,291.293 311.885,291.462 313.000 M108.159 318.000 C 108.159 321.190,108.221 322.495,108.297 320.900 C 108.373 319.305,108.373 316.695,108.297 315.100 C 108.221 313.505,108.159 314.810,108.159 318.000 M225.000 314.000 C 225.859 314.880,226.652 315.600,226.762 315.600 C 226.872 315.600,226.259 314.880,225.400 314.000 C 224.541 313.120,223.748 312.400,223.638 312.400 C 223.528 312.400,224.141 313.120,225.000 314.000 M238.880 319.000 C 238.880 319.440,239.024 320.250,239.200 320.800 C 239.454 321.592,239.520 321.633,239.520 321.000 C 239.520 320.560,239.376 319.750,239.200 319.200 C 238.946 318.408,238.880 318.367,238.880 319.000 M291.449 319.015 C 291.312 319.373,291.215 319.966,291.234 320.333 C 291.253 320.700,291.427 320.469,291.621 319.820 C 291.998 318.558,291.865 317.933,291.449 319.015 M229.568 322.300 C 229.759 323.681,229.787 323.709,229.919 322.651 C 229.998 322.019,229.905 321.345,229.712 321.152 C 229.510 320.950,229.449 321.440,229.568 322.300 M118.089 327.900 L 118.178 334.600 118.299 328.517 C 118.390 323.970,118.544 322.463,118.910 322.551 C 119.180 322.616,119.265 322.593,119.100 322.501 C 118.935 322.409,118.800 322.078,118.800 321.767 C 118.800 321.455,118.620 321.200,118.400 321.200 C 118.146 321.200,118.032 323.641,118.089 327.900 M278.585 323.300 L 276.600 325.400 278.700 323.415 C 280.651 321.571,280.983 321.200,280.685 321.200 C 280.622 321.200,279.677 322.145,278.585 323.300 M290.278 322.605 C 289.912 323.372,289.695 324.000,289.796 324.000 C 290.070 324.000,291.284 321.551,291.101 321.368 C 291.014 321.281,290.644 321.838,290.278 322.605 M239.728 325.600 C 239.728 327.030,239.801 327.615,239.889 326.900 C 239.978 326.185,239.978 325.015,239.889 324.300 C 239.801 323.585,239.728 324.170,239.728 325.600 M133.040 326.802 C 133.639 327.903,134.193 328.740,134.271 328.663 C 134.443 328.490,132.408 324.800,132.141 324.800 C 132.036 324.800,132.440 325.701,133.040 326.802 M151.400 328.000 C 151.059 328.660,150.869 329.200,150.979 329.200 C 151.089 329.200,151.459 328.660,151.800 328.000 C 152.141 327.340,152.331 326.800,152.221 326.800 C 152.111 326.800,151.741 327.340,151.400 328.000 M266.700 327.076 C 265.969 327.267,265.577 336.799,266.300 336.801 C 266.465 336.801,266.544 334.737,266.476 332.214 C 266.338 327.103,266.124 327.478,269.400 327.070 C 270.295 326.958,270.194 326.916,269.000 326.906 C 268.120 326.899,267.085 326.975,266.700 327.076 M285.219 328.981 C 283.509 330.723,283.385 332.000,284.925 332.000 C 285.161 332.000,285.004 331.742,284.576 331.426 C 283.830 330.874,283.869 330.781,285.583 329.026 C 286.564 328.022,287.277 327.200,287.167 327.200 C 287.057 327.200,286.180 328.001,285.219 328.981 M229.654 328.400 C 229.619 328.950,229.496 329.850,229.383 330.400 L 229.177 331.400 229.607 330.415 C 229.843 329.874,229.965 328.974,229.878 328.415 L 229.720 327.400 229.654 328.400 M108.159 334.400 C 108.159 337.590,108.221 338.895,108.297 337.300 C 108.373 335.705,108.373 333.095,108.297 331.500 C 108.221 329.905,108.159 331.210,108.159 334.400 M286.800 332.550 C 286.800 332.644,287.441 333.099,288.224 333.561 C 289.007 334.023,289.536 334.220,289.399 333.998 C 289.131 333.564,286.800 332.266,286.800 332.550 M147.053 335.700 L 146.333 337.000 147.158 336.000 C 147.889 335.113,148.214 334.400,147.886 334.400 C 147.824 334.400,147.449 334.985,147.053 335.700 M224.981 337.700 L 223.400 339.400 225.100 337.819 C 226.681 336.348,226.984 336.000,226.681 336.000 C 226.616 336.000,225.851 336.765,224.981 337.700 M268.833 336.945 C 268.925 337.024,270.350 337.183,272.000 337.297 C 273.693 337.414,274.564 337.369,274.000 337.192 C 273.008 336.882,268.513 336.667,268.833 336.945 M156.823 338.000 C 156.800 338.330,156.430 339.050,156.000 339.600 C 155.570 340.150,155.214 340.777,155.209 340.993 C 155.204 341.209,155.662 340.706,156.227 339.874 C 156.792 339.043,157.166 338.146,157.059 337.881 C 156.933 337.572,156.849 337.615,156.823 338.000 M275.246 337.780 C 275.381 337.914,276.089 338.196,276.819 338.405 C 277.549 338.615,277.978 338.632,277.773 338.445 C 277.348 338.056,274.871 337.404,275.246 337.780 M139.600 338.120 C 139.600 338.504,141.645 341.600,141.899 341.600 C 142.078 341.600,141.441 340.519,140.139 338.611 C 139.842 338.177,139.600 337.956,139.600 338.120 M145.353 338.500 C 143.976 340.836,143.886 341.035,144.587 340.200 C 145.400 339.232,146.100 338.000,145.838 338.000 C 145.733 338.000,145.515 338.225,145.353 338.500 M221.900 339.829 C 221.295 340.157,220.800 340.510,220.800 340.613 C 220.800 340.999,221.432 340.757,222.400 340.000 C 223.589 339.070,223.411 339.009,221.900 339.829 M129.549 340.600 C 129.765 341.040,130.234 341.760,130.593 342.200 L 131.244 343.000 130.851 342.200 C 130.635 341.760,130.166 341.040,129.807 340.600 L 129.156 339.800 129.549 340.600 M282.727 341.400 C 283.381 341.950,284.038 342.400,284.188 342.400 C 284.339 342.400,283.927 341.950,283.273 341.400 C 282.619 340.850,281.962 340.400,281.812 340.400 C 281.661 340.400,282.073 340.850,282.727 341.400 M143.245 342.077 C 142.820 342.757,142.652 342.811,142.366 342.359 C 142.137 341.997,142.010 341.968,142.006 342.276 C 141.995 343.140,142.681 343.194,143.411 342.388 C 143.805 341.952,144.048 341.514,143.949 341.416 C 143.850 341.317,143.533 341.615,143.245 342.077 M215.800 342.000 C 214.711 342.277,214.693 342.307,215.600 342.325 C 216.150 342.335,216.960 342.189,217.400 342.000 C 218.386 341.576,217.466 341.576,215.800 342.000 M231.787 344.478 C 230.333 345.987,230.028 346.417,231.007 345.578 C 232.521 344.280,234.631 342.000,234.318 342.000 C 234.239 342.000,233.101 343.115,231.787 344.478 M284.400 342.925 C 284.400 342.994,284.985 343.579,285.700 344.225 L 287.000 345.400 285.825 344.100 C 284.730 342.888,284.400 342.616,284.400 342.925 M152.688 345.364 C 152.090 346.310,151.600 347.235,151.600 347.420 C 151.600 347.605,152.149 346.891,152.820 345.832 C 153.492 344.774,153.981 343.848,153.909 343.775 C 153.836 343.703,153.287 344.417,152.688 345.364 M131.960 344.600 C 132.634 345.905,133.188 346.628,133.185 346.200 C 133.183 345.980,132.814 345.350,132.364 344.800 C 131.821 344.136,131.685 344.069,131.960 344.600 M108.163 351.600 C 108.163 355.230,108.223 356.715,108.298 354.900 C 108.372 353.085,108.372 350.115,108.298 348.300 C 108.223 346.485,108.163 347.970,108.163 351.600 M226.311 348.560 C 224.216 349.805,223.884 350.263,225.800 349.265 C 227.805 348.220,228.719 347.603,228.200 347.644 C 227.980 347.661,227.130 348.074,226.311 348.560 M298.470 349.000 C 298.457 349.440,298.595 350.520,298.777 351.400 C 299.055 352.745,299.108 352.809,299.107 351.800 C 299.105 350.399,298.508 347.770,298.470 349.000 M288.428 349.876 C 288.518 350.915,289.144 351.796,289.172 350.924 C 289.187 350.442,289.020 349.936,288.800 349.800 C 288.580 349.664,288.413 349.698,288.428 349.876 M216.900 351.876 C 217.285 351.976,217.915 351.976,218.300 351.876 C 218.685 351.775,218.370 351.693,217.600 351.693 C 216.830 351.693,216.515 351.775,216.900 351.876 M258.800 352.033 C 258.323 352.366,258.375 352.403,259.053 352.214 C 259.783 352.010,259.946 352.187,260.179 353.429 C 260.329 354.228,260.540 354.793,260.649 354.685 C 261.519 353.814,259.793 351.338,258.800 352.033 M207.282 352.296 C 208.758 352.373,211.278 352.373,212.882 352.297 C 214.487 352.221,213.280 352.158,210.200 352.158 C 207.120 352.157,205.807 352.219,207.282 352.296 M204.178 364.800 C 204.178 371.730,204.233 374.565,204.299 371.100 C 204.366 367.635,204.366 361.965,204.299 358.500 C 204.233 355.035,204.178 357.870,204.178 364.800 M298.646 356.646 C 298.500 357.893,298.459 358.993,298.557 359.090 C 298.654 359.188,298.861 358.254,299.015 357.015 C 299.170 355.777,299.210 354.677,299.105 354.571 C 298.999 354.466,298.793 355.399,298.646 356.646 M250.806 358.233 C 250.809 358.655,250.995 359.270,251.218 359.600 C 251.515 360.038,251.552 359.876,251.356 359.000 C 251.027 357.529,250.798 357.210,250.806 358.233 M108.163 367.200 C 108.163 370.830,108.223 372.315,108.298 370.500 C 108.372 368.685,108.372 365.715,108.298 363.900 C 108.223 362.085,108.163 363.570,108.163 367.200 M286.226 362.300 C 285.362 363.405,285.293 363.590,285.963 363.004 C 286.765 362.304,287.823 360.800,287.514 360.800 C 287.451 360.800,286.872 361.475,286.226 362.300 M264.600 364.000 C 265.459 364.880,266.252 365.600,266.362 365.600 C 266.472 365.600,265.859 364.880,265.000 364.000 C 264.141 363.120,263.348 362.400,263.238 362.400 C 263.128 362.400,263.741 363.120,264.600 364.000 M283.215 365.216 C 281.408 366.761,281.851 366.749,283.800 365.200 C 284.631 364.540,285.150 364.007,284.955 364.016 C 284.760 364.025,283.977 364.565,283.215 365.216 M274.105 368.287 C 274.714 368.379,275.614 368.377,276.105 368.282 C 276.597 368.187,276.100 368.111,275.000 368.114 C 273.900 368.117,273.497 368.195,274.105 368.287 M257.800 371.200 C 258.659 372.080,259.452 372.800,259.562 372.800 C 259.672 372.800,259.059 372.080,258.200 371.200 C 257.341 370.320,256.548 369.600,256.438 369.600 C 256.328 369.600,256.941 370.320,257.800 371.200 M290.894 371.612 C 290.175 372.265,289.737 372.800,289.919 372.800 C 290.101 372.800,290.768 372.260,291.400 371.600 C 292.870 370.065,292.586 370.072,290.894 371.612 M260.367 373.345 C 260.900 374.001,262.400 374.993,262.400 374.689 C 262.400 374.613,261.815 374.122,261.100 373.599 C 260.296 373.010,260.016 372.913,260.367 373.345 M269.200 377.600 C 269.530 377.813,270.070 377.988,270.400 377.988 C 270.933 377.988,270.933 377.945,270.400 377.600 C 270.070 377.387,269.530 377.212,269.200 377.212 C 268.667 377.212,268.667 377.255,269.200 377.600 M45.600 391.429 C 45.600 391.774,45.870 392.327,46.200 392.657 C 46.870 393.328,47.049 392.715,46.557 391.433 C 46.244 390.616,45.600 390.614,45.600 391.429 M353.452 391.700 C 353.077 393.100,353.152 393.306,353.800 392.657 C 354.454 392.003,354.614 390.800,354.047 390.800 C 353.852 390.800,353.585 391.205,353.452 391.700 M46.879 394.500 C 47.227 394.775,47.822 395.675,48.201 396.500 C 48.581 397.325,49.141 398.000,49.446 398.000 C 50.228 398.000,50.141 397.704,49.031 396.595 C 48.498 396.062,47.946 395.260,47.804 394.813 C 47.662 394.366,47.254 394.000,46.897 394.000 C 46.306 394.000,46.305 394.046,46.879 394.500 M351.275 396.287 C 350.080 397.771,350.144 398.714,351.356 397.500 C 351.781 397.075,352.499 395.200,352.237 395.200 C 352.189 395.200,351.755 395.689,351.275 396.287 " stroke="none" fill="#d7e3dc" fill-rule="evenodd"></path><path id="path2" d="M55.400 0.378 C 54.960 0.555,53.970 0.617,53.200 0.517 C 52.132 0.377,51.942 0.435,52.400 0.761 C 52.807 1.051,52.839 1.190,52.500 1.194 C 52.225 1.197,51.280 1.920,50.400 2.800 C 49.520 3.680,48.600 4.400,48.357 4.400 C 48.089 4.400,48.008 4.778,48.153 5.354 C 48.304 5.956,48.174 6.490,47.801 6.800 C 47.475 7.070,47.297 7.434,47.406 7.609 C 47.514 7.784,47.487 8.229,47.346 8.597 C 47.141 9.131,47.020 9.159,46.750 8.734 C 46.538 8.398,46.410 8.895,46.406 10.071 C 46.401 11.519,46.558 11.983,47.100 12.124 C 47.744 12.293,47.742 12.311,47.073 12.354 C 46.522 12.389,46.411 12.604,46.614 13.244 C 46.838 13.949,46.995 71.380,46.777 72.600 C 46.737 72.820,46.742 73.180,46.786 73.400 C 46.885 73.890,46.875 112.840,46.776 113.400 C 46.737 113.620,46.743 113.980,46.790 114.200 C 46.982 115.110,46.879 168.054,46.685 168.249 C 46.568 168.365,46.620 168.973,46.800 169.600 C 46.980 170.227,47.038 170.828,46.930 170.937 C 46.822 171.045,46.752 172.003,46.776 173.067 C 46.920 179.640,46.849 208.484,46.688 208.645 C 46.581 208.752,46.634 209.462,46.805 210.222 C 46.980 211.000,46.957 211.703,46.752 211.830 C 46.551 211.954,46.497 212.233,46.631 212.450 C 46.839 212.786,46.980 262.258,46.776 263.400 C 46.737 263.620,46.750 263.980,46.805 264.200 C 46.860 264.420,46.891 267.591,46.875 271.247 L 46.844 277.894 200.013 277.888 L 353.182 277.883 353.116 269.149 C 353.081 264.346,353.154 260.313,353.279 260.188 C 353.404 260.062,353.381 259.384,353.228 258.680 C 353.074 257.976,353.071 256.821,353.221 256.113 C 353.371 255.406,353.407 254.741,353.302 254.635 C 353.134 254.467,353.062 196.513,353.229 196.000 C 353.265 195.890,353.261 195.627,353.219 195.415 C 353.122 194.922,353.125 177.933,353.222 177.400 C 353.262 177.180,353.257 176.820,353.212 176.600 C 353.105 176.086,353.107 162.330,353.214 161.800 C 353.258 161.580,353.262 161.220,353.222 161.000 C 353.125 160.464,353.121 146.679,353.218 146.187 C 353.260 145.974,353.266 145.710,353.230 145.600 C 353.138 145.317,353.128 127.885,353.220 127.400 C 353.261 127.180,353.256 126.820,353.208 126.600 C 353.002 125.647,353.149 97.693,353.386 92.700 C 353.565 88.930,353.514 87.200,353.224 87.200 C 352.991 87.200,352.800 86.885,352.800 86.500 C 352.800 85.838,350.519 85.800,310.500 85.800 L 268.200 85.800 267.967 83.400 C 267.838 82.080,267.709 108.284,267.680 141.632 C 267.651 174.979,267.505 202.582,267.355 202.972 C 267.193 203.395,267.309 203.841,267.642 204.078 C 268.080 204.390,268.049 204.427,267.500 204.250 C 266.942 204.071,266.800 204.261,266.800 205.189 C 266.800 205.829,266.620 206.464,266.400 206.600 C 266.180 206.736,266.000 207.276,266.000 207.800 C 266.000 208.324,265.804 208.874,265.565 209.022 C 265.326 209.169,265.219 209.630,265.328 210.045 C 265.438 210.465,265.319 210.800,265.060 210.800 C 264.804 210.800,264.342 211.373,264.032 212.074 C 263.415 213.467,258.008 219.316,256.606 220.107 C 254.154 221.489,251.967 222.419,249.800 223.000 C 248.480 223.354,246.847 223.814,246.172 224.022 C 244.607 224.503,229.487 224.520,228.980 224.041 C 228.771 223.844,227.880 223.588,227.000 223.473 C 222.431 222.876,216.088 220.552,214.802 219.002 C 214.527 218.671,214.092 218.400,213.834 218.400 C 213.256 218.400,210.000 215.128,210.000 214.547 C 210.000 214.314,209.640 213.798,209.200 213.400 C 208.760 213.002,208.400 212.462,208.400 212.200 C 208.400 211.938,208.040 211.398,207.600 211.000 C 207.160 210.602,206.800 209.948,206.800 209.548 C 206.800 209.147,206.441 208.230,206.001 207.510 C 205.562 206.789,205.202 205.561,205.201 204.780 C 205.201 203.999,204.984 203.144,204.721 202.881 C 204.135 202.295,204.190 195.940,204.791 194.817 C 205.016 194.396,205.200 193.601,205.200 193.050 C 205.200 192.498,205.380 191.936,205.600 191.800 C 205.820 191.664,206.000 191.124,206.000 190.600 C 206.000 190.076,206.196 189.526,206.435 189.378 C 206.674 189.231,206.781 188.770,206.672 188.355 C 206.552 187.894,206.682 187.600,207.007 187.600 C 207.300 187.600,207.958 186.748,208.470 185.707 C 209.145 184.332,209.635 183.811,210.259 183.807 C 210.731 183.803,211.721 183.263,212.459 182.607 C 213.196 181.951,214.087 181.463,214.439 181.522 C 214.790 181.581,215.300 181.362,215.571 181.034 C 215.843 180.707,216.906 180.318,217.933 180.169 C 218.960 180.021,219.980 179.763,220.200 179.597 C 220.598 179.296,222.538 178.917,225.200 178.621 C 225.970 178.535,227.770 178.301,229.200 178.101 C 230.630 177.901,234.202 177.780,237.138 177.833 C 240.752 177.897,242.884 177.762,243.738 177.416 C 244.432 177.134,245.232 176.988,245.517 177.091 C 246.876 177.583,250.886 174.931,251.398 173.200 C 251.561 172.650,251.931 171.929,252.220 171.598 C 252.648 171.109,252.732 163.898,252.673 132.998 L 252.600 95.000 249.840 94.880 C 248.279 94.813,246.897 94.943,246.660 95.180 C 246.429 95.411,245.682 95.600,245.000 95.600 C 244.318 95.600,243.589 95.762,243.380 95.959 C 243.171 96.156,242.280 96.412,241.400 96.526 C 240.520 96.641,238.990 96.941,238.000 97.192 C 235.954 97.713,232.863 98.335,230.800 98.641 C 230.030 98.756,229.040 99.006,228.600 99.198 C 228.160 99.389,227.170 99.655,226.400 99.788 C 224.095 100.187,221.510 100.723,219.600 101.197 C 217.734 101.660,216.017 102.039,212.600 102.740 C 210.373 103.197,204.870 104.411,200.600 105.388 C 199.060 105.740,196.720 106.191,195.400 106.390 C 192.248 106.865,190.776 107.185,189.800 107.605 C 189.360 107.795,188.280 108.058,187.400 108.191 C 186.520 108.323,185.124 108.533,184.297 108.658 C 183.471 108.782,182.695 109.045,182.574 109.242 C 182.452 109.439,181.564 109.600,180.600 109.600 C 179.636 109.600,178.736 109.780,178.600 110.000 C 178.464 110.220,177.553 110.400,176.576 110.400 C 175.599 110.400,174.800 110.580,174.800 110.800 C 174.800 111.020,174.181 111.200,173.424 111.200 C 172.667 111.200,171.936 111.380,171.800 111.600 C 171.664 111.820,170.961 112.000,170.238 112.000 C 168.933 112.000,168.311 112.485,167.305 114.286 C 166.919 114.978,166.809 127.053,166.803 169.269 C 166.798 204.574,166.657 223.503,166.398 223.762 C 166.179 223.981,166.000 224.743,166.000 225.456 C 166.000 226.169,165.820 226.864,165.600 227.000 C 165.380 227.136,165.200 227.569,165.200 227.962 C 165.200 228.874,164.161 230.968,163.392 231.607 C 163.066 231.877,162.800 232.305,162.800 232.558 C 162.800 234.564,151.900 242.400,149.110 242.400 C 148.745 242.400,148.336 242.580,148.200 242.800 C 148.064 243.020,147.524 243.200,147.000 243.200 C 146.476 243.200,145.936 243.380,145.800 243.600 C 145.664 243.820,144.764 244.000,143.800 244.000 C 142.836 244.000,141.936 244.180,141.800 244.400 C 141.466 244.940,125.734 244.940,125.400 244.400 C 125.264 244.180,124.364 244.000,123.400 244.000 C 122.436 244.000,121.536 243.820,121.400 243.600 C 121.264 243.380,120.850 243.200,120.479 243.200 C 115.736 243.200,105.200 233.233,105.200 228.747 C 105.200 228.362,105.020 227.936,104.800 227.800 C 104.580 227.664,104.400 226.922,104.400 226.150 C 104.400 225.379,104.198 224.369,103.950 223.907 C 103.700 223.440,103.529 221.542,103.564 219.633 C 103.635 215.880,103.991 214.369,105.759 210.340 C 106.112 209.536,106.400 208.681,106.400 208.440 C 106.400 208.198,106.670 208.000,107.000 208.000 C 107.330 208.000,107.605 207.775,107.612 207.500 C 107.629 206.783,109.884 204.400,110.545 204.400 C 110.852 204.400,111.323 204.134,111.592 203.810 C 111.861 203.485,113.053 202.727,114.241 202.126 C 115.428 201.525,116.400 200.890,116.400 200.716 C 116.400 200.542,116.838 200.400,117.374 200.400 C 117.910 200.400,118.769 200.240,119.284 200.044 C 121.588 199.168,128.687 198.315,134.600 198.203 C 138.535 198.129,141.462 197.890,142.200 197.583 C 142.860 197.308,143.895 197.123,144.500 197.172 C 145.105 197.220,145.600 197.067,145.600 196.830 C 145.600 196.594,145.842 196.400,146.139 196.400 C 147.035 196.400,149.200 195.174,149.200 194.666 C 149.200 194.404,149.605 194.012,150.100 193.795 C 150.769 193.501,150.999 193.067,150.996 192.100 C 150.994 191.332,151.195 190.800,151.487 190.800 C 151.878 190.800,151.979 178.687,151.969 133.107 C 151.961 93.018,152.085 75.372,152.378 75.274 C 152.610 75.197,152.800 74.734,152.800 74.245 C 152.800 73.348,155.071 70.800,155.870 70.800 C 156.108 70.800,156.517 70.541,156.780 70.224 C 157.043 69.907,157.518 69.747,157.834 69.869 C 158.151 69.990,158.686 69.861,159.023 69.581 C 159.361 69.301,160.290 69.096,161.089 69.126 C 161.887 69.156,162.766 68.994,163.041 68.766 C 163.316 68.537,164.275 68.341,165.171 68.328 C 166.067 68.316,166.800 68.170,166.800 68.005 C 166.800 67.839,167.565 67.593,168.500 67.458 C 169.435 67.323,171.100 67.027,172.200 66.800 C 173.300 66.573,174.965 66.277,175.900 66.142 C 176.835 66.007,177.600 65.690,177.600 65.437 C 177.600 65.142,178.183 65.034,179.241 65.135 C 180.143 65.221,181.268 65.109,181.741 64.886 C 182.213 64.662,183.950 64.262,185.600 63.996 C 187.250 63.730,189.500 63.232,190.600 62.889 C 191.700 62.546,193.322 62.243,194.204 62.216 C 195.086 62.188,196.031 62.028,196.305 61.859 C 196.806 61.549,198.109 61.292,203.600 60.419 C 205.250 60.157,206.913 59.775,207.295 59.571 C 207.677 59.367,208.586 59.200,209.315 59.200 C 210.044 59.200,210.811 59.038,211.020 58.841 C 211.229 58.644,212.120 58.385,213.000 58.266 C 213.880 58.147,215.549 57.925,216.708 57.773 C 217.868 57.621,218.914 57.340,219.032 57.148 C 219.150 56.957,219.856 56.800,220.600 56.800 C 221.344 56.800,222.064 56.620,222.200 56.400 C 222.336 56.180,223.211 56.000,224.144 56.000 C 225.077 56.000,226.024 55.816,226.250 55.590 C 226.475 55.365,227.313 55.156,228.111 55.126 C 228.910 55.096,229.640 54.872,229.734 54.627 C 229.830 54.377,230.708 54.210,231.742 54.245 C 232.838 54.282,233.755 54.095,234.015 53.782 C 234.295 53.445,234.938 53.338,235.821 53.481 C 236.682 53.621,237.435 53.503,237.841 53.166 C 238.198 52.870,239.108 52.681,239.865 52.746 C 240.621 52.811,241.507 52.643,241.834 52.372 C 242.160 52.101,242.961 51.894,243.614 51.913 C 244.294 51.932,244.800 51.740,244.800 51.463 C 244.800 51.138,245.337 51.030,246.435 51.135 C 247.334 51.220,248.270 51.090,248.515 50.845 C 248.760 50.600,249.578 50.400,250.334 50.400 C 251.089 50.400,252.358 50.236,253.154 50.035 C 258.991 48.560,260.848 48.413,262.997 49.254 C 264.836 49.974,267.145 52.325,266.907 53.236 C 266.771 53.755,266.914 54.000,267.353 54.000 C 267.863 54.000,268.000 53.575,268.000 52.000 C 268.000 50.711,267.829 50.000,267.520 50.000 C 267.147 50.000,267.147 49.893,267.520 49.520 C 268.118 48.922,268.143 47.503,267.565 46.925 C 267.252 46.612,267.252 46.415,267.565 46.222 C 267.804 46.074,268.000 45.549,268.000 45.056 C 268.000 44.563,267.804 43.964,267.565 43.725 C 267.252 43.412,267.252 43.215,267.565 43.022 C 268.121 42.678,268.132 40.929,267.581 40.588 C 267.290 40.409,267.296 40.166,267.600 39.800 C 267.918 39.416,267.918 39.197,267.600 39.000 C 267.317 38.825,267.296 38.564,267.543 38.264 C 268.017 37.688,267.937 32.800,267.454 32.800 C 267.260 32.800,267.349 32.501,267.651 32.135 C 268.093 31.600,268.099 31.436,267.683 31.296 C 267.304 31.168,267.282 30.983,267.603 30.597 C 267.918 30.217,267.917 29.996,267.600 29.800 C 267.282 29.603,267.282 29.384,267.600 29.000 C 267.918 28.616,267.918 28.397,267.600 28.200 C 267.282 28.003,267.282 27.784,267.600 27.400 C 267.918 27.016,267.918 26.797,267.600 26.600 C 267.282 26.403,267.282 26.184,267.600 25.800 C 267.897 25.442,267.906 25.189,267.628 25.017 C 267.352 24.846,267.370 24.517,267.684 24.014 C 268.044 23.437,268.038 23.128,267.657 22.668 C 267.348 22.296,267.309 21.980,267.553 21.829 C 268.081 21.502,268.042 15.600,267.512 15.600 C 267.247 15.600,267.258 15.413,267.542 15.070 C 267.852 14.696,267.856 14.416,267.556 14.116 C 267.255 13.815,267.264 13.608,267.585 13.410 C 267.915 13.205,267.919 12.985,267.600 12.600 C 267.282 12.216,267.282 11.997,267.600 11.800 C 267.918 11.603,267.918 11.384,267.600 11.000 C 267.282 10.616,267.282 10.397,267.600 10.200 C 267.918 10.003,267.918 9.784,267.600 9.400 C 267.282 9.016,267.282 8.797,267.600 8.600 C 267.918 8.403,267.918 8.184,267.600 7.800 C 267.282 7.416,267.282 7.197,267.600 7.000 C 267.918 6.803,267.918 6.584,267.600 6.200 C 267.282 5.816,267.282 5.597,267.600 5.400 C 267.915 5.205,267.907 4.969,267.570 4.564 C 267.289 4.225,267.263 4.000,267.507 4.000 C 267.730 4.000,267.987 3.364,268.077 2.587 C 268.199 1.544,268.106 1.227,267.721 1.375 C 267.432 1.486,267.200 1.301,267.200 0.960 C 267.200 0.537,266.962 0.422,266.434 0.589 C 266.012 0.723,265.552 0.645,265.410 0.416 C 265.099 -0.086,56.649 -0.124,55.400 0.378 M249.600 17.237 C 249.148 17.556,249.124 17.711,249.500 17.864 C 249.775 17.975,250.000 18.270,250.000 18.519 C 250.000 18.775,249.719 18.691,249.353 18.324 C 248.682 17.653,248.891 16.795,249.724 16.806 C 250.017 16.810,249.969 16.975,249.600 17.237 M66.400 33.829 C 66.400 33.954,66.130 34.327,65.800 34.657 C 65.149 35.308,65.067 35.211,65.443 34.233 C 65.671 33.638,66.400 33.330,66.400 33.829 M267.714 58.200 C 267.717 59.300,267.795 59.703,267.887 59.095 C 267.979 58.486,267.977 57.586,267.882 57.095 C 267.787 56.603,267.711 57.100,267.714 58.200 M49.826 68.707 C 49.678 68.856,49.389 68.712,49.184 68.388 C 48.587 67.443,48.744 67.087,49.448 67.790 C 49.804 68.147,49.974 68.559,49.826 68.707 M87.767 117.343 C 87.534 117.948,86.800 118.283,86.800 117.783 C 86.800 117.498,87.768 116.451,87.909 116.583 C 87.970 116.639,87.905 116.981,87.767 117.343 M54.167 134.543 C 53.934 135.148,53.200 135.483,53.200 134.983 C 53.200 134.698,54.168 133.651,54.309 133.783 C 54.370 133.839,54.305 134.181,54.167 134.543 M336.267 167.631 C 336.267 168.499,336.168 168.686,335.933 168.266 C 335.749 167.937,335.708 167.383,335.842 167.034 C 336.190 166.129,336.267 166.237,336.267 167.631 M204.167 184.543 C 203.934 185.148,203.200 185.483,203.200 184.983 C 203.200 184.698,204.168 183.651,204.309 183.783 C 204.370 183.839,204.305 184.181,204.167 184.543 M299.588 201.622 C 299.072 201.954,299.073 202.048,299.600 202.394 C 299.962 202.632,300.011 202.790,299.724 202.794 C 298.964 202.804,298.687 202.018,299.223 201.373 C 299.493 201.047,299.818 200.885,299.945 201.012 C 300.073 201.139,299.912 201.414,299.588 201.622 M284.632 236.574 C 284.948 236.890,285.061 237.239,284.883 237.349 C 284.705 237.458,284.343 237.200,284.077 236.774 C 283.509 235.865,283.812 235.755,284.632 236.574 M287.824 249.238 C 287.973 249.479,287.803 249.968,287.447 250.324 C 287.081 250.691,286.800 250.775,286.800 250.519 C 286.800 250.270,287.025 249.975,287.300 249.864 C 287.676 249.711,287.652 249.556,287.200 249.237 C 286.831 248.975,286.783 248.810,287.076 248.806 C 287.338 248.803,287.675 248.997,287.824 249.238 M351.032 269.374 C 351.348 269.690,351.461 270.039,351.283 270.149 C 351.105 270.258,350.743 270.000,350.477 269.574 C 349.909 268.665,350.212 268.555,351.032 269.374 M282.093 316.800 C 282.093 317.570,282.175 317.885,282.276 317.500 C 282.376 317.115,282.376 316.485,282.276 316.100 C 282.175 315.715,282.093 316.030,282.093 316.800 M167.389 348.800 C 167.389 363.650,167.439 369.725,167.500 362.300 C 167.561 354.875,167.561 342.725,167.500 335.300 C 167.439 327.875,167.389 333.950,167.389 348.800 " stroke="none" fill="#e4e4ec" fill-rule="evenodd"></path><path id="path3" d="M53.852 0.412 C 54.125 0.685,54.591 0.694,55.232 0.438 C 56.142 0.074,56.117 0.049,54.820 0.025 C 53.873 0.008,53.569 0.129,53.852 0.412 M265.520 0.480 C 265.893 0.853,266.107 0.853,266.480 0.480 C 266.853 0.107,266.747 0.000,266.000 0.000 C 265.253 0.000,265.147 0.107,265.520 0.480 M267.200 0.987 C 267.200 1.345,267.435 1.485,267.800 1.345 C 268.130 1.218,268.400 0.954,268.400 0.757 C 268.400 0.561,268.130 0.400,267.800 0.400 C 267.470 0.400,267.200 0.664,267.200 0.987 M49.700 2.210 C 48.851 3.117,48.521 4.000,49.031 4.000 C 49.332 4.000,51.600 1.732,51.600 1.431 C 51.600 0.885,50.530 1.324,49.700 2.210 M47.200 6.286 C 47.200 7.286,47.251 7.321,47.847 6.724 C 48.203 6.368,48.373 5.879,48.224 5.638 C 47.733 4.844,47.200 5.181,47.200 6.286 M46.557 8.233 C 46.691 8.581,46.803 8.986,46.806 9.133 C 46.814 9.491,47.586 8.283,47.594 7.900 C 47.597 7.735,47.311 7.600,46.957 7.600 C 46.535 7.600,46.398 7.818,46.557 8.233 M45.600 145.400 C 45.600 263.000,45.668 278.000,46.200 278.000 C 46.582 278.000,46.809 277.601,46.824 276.900 C 46.897 273.450,46.881 264.540,46.800 264.200 C 46.748 263.980,46.737 263.620,46.776 263.400 C 46.980 262.258,46.839 212.786,46.631 212.450 C 46.497 212.233,46.551 211.954,46.752 211.830 C 46.957 211.703,46.980 211.000,46.805 210.222 C 46.634 209.462,46.581 208.752,46.688 208.645 C 46.849 208.484,46.920 179.640,46.776 173.067 C 46.752 172.003,46.822 171.045,46.930 170.937 C 47.038 170.828,46.980 170.227,46.800 169.600 C 46.620 168.973,46.568 168.365,46.685 168.249 C 46.879 168.054,46.982 115.110,46.790 114.200 C 46.743 113.980,46.737 113.620,46.776 113.400 C 46.875 112.840,46.885 73.890,46.786 73.400 C 46.742 73.180,46.738 72.820,46.777 72.600 C 46.994 71.395,46.837 13.584,46.617 13.227 C 46.471 12.992,46.183 12.800,45.976 12.800 C 45.742 12.800,45.600 62.811,45.600 145.400 M353.437 91.940 C 353.196 92.331,353.199 92.059,353.154 112.000 C 353.136 119.810,353.161 126.380,353.208 126.600 C 353.256 126.820,353.261 127.180,353.220 127.400 C 353.128 127.885,353.138 145.317,353.230 145.600 C 353.266 145.710,353.260 145.974,353.218 146.187 C 353.121 146.679,353.125 160.464,353.222 161.000 C 353.262 161.220,353.258 161.580,353.214 161.800 C 353.107 162.330,353.105 176.086,353.212 176.600 C 353.257 176.820,353.262 177.180,353.222 177.400 C 353.125 177.933,353.122 194.922,353.219 195.415 C 353.261 195.627,353.265 195.890,353.229 196.000 C 353.058 196.526,353.136 254.469,353.309 254.642 C 353.418 254.751,353.381 255.416,353.228 256.120 C 353.074 256.824,353.071 257.979,353.221 258.687 C 353.371 259.394,353.399 260.067,353.284 260.182 C 353.107 260.360,353.069 265.667,353.176 275.700 C 353.194 277.464,353.339 278.000,353.798 278.000 C 354.498 278.000,354.718 92.244,354.019 91.812 C 353.819 91.688,353.557 91.746,353.437 91.940 M268.742 299.408 C 263.436 300.862,256.398 308.209,256.401 312.290 C 256.401 312.914,259.695 314.800,260.785 314.800 C 260.963 314.800,261.624 315.069,262.254 315.398 C 264.331 316.481,264.965 316.212,265.951 313.833 C 270.082 303.866,285.164 308.800,281.819 319.025 C 280.712 322.409,275.848 326.800,273.205 326.800 C 272.517 326.800,270.704 327.006,269.177 327.259 L 266.400 327.717 266.400 332.059 C 266.400 335.261,266.531 336.402,266.900 336.407 C 268.876 336.434,274.941 337.271,275.866 337.643 C 276.490 337.894,277.360 338.242,277.800 338.416 C 280.534 339.498,281.200 339.828,281.200 340.098 C 281.200 340.264,281.438 340.400,281.729 340.400 C 282.020 340.400,283.235 341.355,284.429 342.522 C 286.398 344.447,287.460 346.117,288.749 349.319 C 289.307 350.704,289.347 357.462,288.800 357.800 C 288.580 357.936,288.400 358.369,288.400 358.762 C 288.400 361.665,283.348 366.465,278.859 367.827 C 273.805 369.361,266.488 367.165,263.790 363.306 C 262.645 361.668,261.600 359.523,261.600 358.811 C 261.600 358.391,261.439 357.948,261.242 357.826 C 261.045 357.705,260.786 356.929,260.665 356.103 C 260.327 353.789,259.926 352.000,259.747 352.000 C 259.657 352.000,258.553 352.413,257.292 352.917 C 256.031 353.421,254.190 354.082,253.200 354.386 C 250.647 355.170,250.632 355.205,251.377 358.552 C 252.679 364.406,259.156 374.000,261.806 374.000 C 262.096 374.000,262.393 374.135,262.467 374.300 C 262.685 374.791,266.016 376.400,266.814 376.400 C 267.220 376.400,267.645 376.550,267.758 376.732 C 268.148 377.363,273.399 378.084,276.000 377.864 C 279.847 377.539,281.977 377.160,282.226 376.758 C 282.348 376.561,282.872 376.400,283.390 376.400 C 283.909 376.400,284.393 376.265,284.467 376.100 C 284.540 375.935,285.494 375.350,286.587 374.800 C 290.818 372.671,297.600 364.358,297.600 361.301 C 297.600 360.893,297.807 360.353,298.061 360.099 C 300.492 357.668,297.392 342.175,293.800 338.800 C 293.250 338.283,292.800 337.699,292.800 337.502 C 292.800 336.610,288.554 333.518,285.788 332.395 C 283.092 331.301,283.104 331.212,286.441 327.701 C 289.010 324.998,290.563 322.357,291.607 318.915 C 292.137 317.167,291.549 311.507,290.745 310.620 C 290.555 310.411,290.400 309.993,290.400 309.692 C 290.400 308.190,285.984 303.167,283.004 301.279 C 279.382 298.986,273.230 298.179,268.742 299.408 M108.593 338.388 L 108.586 377.200 113.293 377.200 L 118.000 377.200 118.000 349.200 C 118.000 330.800,118.137 321.200,118.400 321.200 C 118.620 321.200,118.800 321.470,118.800 321.800 C 118.800 322.130,118.955 322.400,119.144 322.400 C 119.334 322.400,119.919 323.255,120.444 324.300 C 120.970 325.345,121.503 326.290,121.630 326.400 C 121.756 326.510,122.296 327.410,122.830 328.400 C 123.363 329.390,123.890 330.290,124.000 330.400 C 124.110 330.510,124.442 331.030,124.738 331.555 C 125.033 332.080,125.618 333.115,126.038 333.855 C 126.457 334.595,127.179 335.875,127.643 336.700 C 128.106 337.525,128.627 338.380,128.800 338.600 C 128.973 338.820,129.470 339.630,129.905 340.400 C 130.339 341.170,132.249 344.483,134.148 347.762 C 136.046 351.042,137.600 353.768,137.600 353.822 C 137.600 353.875,138.320 355.103,139.200 356.552 C 140.080 358.000,140.800 359.369,140.800 359.593 C 140.800 359.817,140.936 360.000,141.102 360.000 C 141.269 360.000,141.647 360.547,141.943 361.215 C 142.477 362.423,143.600 362.295,143.600 361.026 C 143.600 360.765,143.921 360.202,144.313 359.775 C 144.705 359.349,145.324 358.367,145.687 357.594 C 146.051 356.820,146.810 355.507,147.374 354.676 C 147.938 353.845,148.400 353.098,148.400 353.016 C 148.400 352.888,151.245 347.835,153.645 343.700 C 154.575 342.099,155.731 340.077,156.847 338.100 C 157.313 337.275,157.994 336.150,158.361 335.600 C 158.728 335.050,159.292 334.060,159.614 333.400 C 159.935 332.740,160.289 332.110,160.399 332.000 C 160.795 331.606,162.054 329.387,162.271 328.700 C 162.393 328.315,162.652 328.000,162.847 328.000 C 163.041 328.000,163.200 327.817,163.200 327.593 C 163.200 327.369,163.920 326.000,164.800 324.552 C 165.680 323.103,166.400 321.757,166.400 321.559 C 166.400 320.959,167.098 321.158,167.357 321.833 C 167.491 322.181,167.600 334.781,167.600 349.833 L 167.600 377.200 172.400 377.200 L 177.200 377.200 177.200 338.400 L 177.200 299.600 172.692 299.600 L 168.185 299.600 166.792 302.062 C 166.027 303.416,165.130 304.991,164.799 305.562 C 164.469 306.133,163.577 307.680,162.817 309.000 C 162.057 310.320,161.108 311.940,160.707 312.600 C 160.306 313.260,159.872 314.115,159.742 314.500 C 159.613 314.885,159.392 315.200,159.251 315.200 C 159.110 315.200,158.743 315.785,158.435 316.500 C 158.127 317.215,157.564 318.250,157.184 318.800 C 156.804 319.350,156.113 320.475,155.647 321.300 C 155.181 322.125,154.462 323.385,154.049 324.100 C 150.942 329.478,150.154 330.859,149.087 332.800 C 148.422 334.010,147.545 335.478,147.139 336.062 C 146.733 336.646,146.400 337.243,146.400 337.390 C 146.400 337.536,145.860 338.441,145.200 339.400 C 144.540 340.359,144.000 341.309,144.000 341.510 C 144.000 342.538,142.373 343.383,142.136 342.478 C 142.010 341.995,141.769 341.600,141.600 341.600 C 141.431 341.600,141.187 341.285,141.058 340.900 C 140.928 340.515,140.498 339.660,140.102 339.000 C 138.061 335.597,136.400 332.744,136.400 332.641 C 136.400 332.577,135.231 330.562,133.802 328.162 C 132.373 325.763,131.203 323.575,131.202 323.300 C 131.201 323.025,131.065 322.800,130.899 322.800 C 130.734 322.800,130.153 321.945,129.609 320.900 C 129.065 319.855,128.525 318.910,128.410 318.800 C 128.294 318.690,127.958 318.170,127.662 317.645 C 125.499 313.803,124.309 311.733,122.856 309.282 C 122.165 308.118,121.600 306.993,121.600 306.782 C 121.600 306.572,121.441 306.400,121.247 306.400 C 121.052 306.400,120.788 306.085,120.659 305.700 C 120.531 305.315,119.736 303.830,118.894 302.400 L 117.362 299.800 112.981 299.688 L 108.600 299.576 108.593 338.388 M194.800 338.400 L 194.800 377.200 199.394 377.200 L 203.989 377.200 204.094 364.700 L 204.200 352.200 211.224 351.958 C 221.787 351.594,226.137 349.922,232.000 343.975 C 246.364 329.404,239.694 305.963,219.608 300.425 C 216.924 299.685,215.492 299.600,205.708 299.600 L 194.800 299.600 194.800 338.400 M217.800 309.600 C 217.936 309.820,218.380 310.000,218.786 310.000 C 220.910 310.000,226.658 314.514,227.880 317.141 C 228.253 317.943,228.659 318.690,228.781 318.800 C 230.804 320.615,230.497 330.420,228.315 333.662 C 227.922 334.246,227.599 334.876,227.598 335.062 C 227.590 336.481,220.711 341.600,218.811 341.600 C 218.391 341.600,217.936 341.780,217.800 342.000 C 217.651 342.241,214.863 342.400,210.776 342.400 L 204.000 342.400 204.000 325.800 L 204.000 309.200 210.776 309.200 C 214.863 309.200,217.651 309.359,217.800 309.600 M46.400 395.029 C 46.400 395.453,47.636 396.497,47.867 396.267 C 47.992 396.141,47.817 395.760,47.476 395.419 C 46.841 394.784,46.400 394.624,46.400 395.029 " stroke="none" fill="#eff3f3" fill-rule="evenodd"></path><path id="path4" d="M257.400 49.602 C 256.898 49.819,257.503 49.865,259.025 49.725 C 262.546 49.401,265.263 51.121,266.346 54.360 C 266.975 56.242,266.996 200.201,266.367 203.280 C 264.205 213.874,256.832 221.055,245.800 223.312 C 241.924 224.105,227.192 223.692,226.220 222.763 C 226.011 222.563,225.257 222.400,224.544 222.400 C 223.831 222.400,223.136 222.220,223.000 222.000 C 222.864 221.780,222.491 221.600,222.172 221.600 C 219.861 221.600,210.400 215.372,210.400 213.850 C 210.400 213.637,210.101 213.133,209.736 212.729 C 208.472 211.332,206.918 208.211,206.187 205.600 C 206.033 205.050,205.768 202.260,205.597 199.400 L 205.288 194.200 205.380 199.600 C 205.559 210.143,210.191 217.165,219.600 221.158 C 220.810 221.671,222.113 222.251,222.495 222.446 C 222.877 222.641,223.696 222.800,224.315 222.800 C 224.934 222.800,225.611 222.963,225.820 223.163 C 226.817 224.116,243.003 224.529,246.400 223.688 C 247.390 223.443,248.698 223.122,249.306 222.974 C 249.914 222.826,250.510 222.546,250.630 222.352 C 250.749 222.159,251.191 222.000,251.611 222.000 C 256.561 222.000,265.085 211.683,266.756 203.669 C 267.453 200.324,267.367 55.915,266.667 53.903 C 265.378 50.204,260.859 48.107,257.400 49.602 M253.934 50.199 C 253.740 50.394,243.713 52.548,239.849 53.226 C 238.777 53.414,237.802 53.665,237.683 53.784 C 237.312 54.154,238.893 53.996,241.600 53.391 C 243.030 53.072,246.360 52.354,249.000 51.795 C 251.640 51.237,254.430 50.623,255.200 50.431 L 256.600 50.082 255.367 50.041 C 254.688 50.018,254.044 50.090,253.934 50.199 M233.400 54.410 C 232.520 54.580,231.260 54.915,230.600 55.156 L 229.400 55.592 230.800 55.391 C 234.130 54.913,235.300 54.702,236.318 54.395 L 237.400 54.069 236.200 54.084 C 235.540 54.093,234.280 54.239,233.400 54.410 M227.000 55.842 L 225.400 56.400 226.800 56.193 C 227.570 56.080,228.425 55.960,228.700 55.927 C 228.975 55.894,229.200 55.717,229.200 55.533 C 229.200 55.118,228.990 55.148,227.000 55.842 M222.000 56.846 C 220.644 57.199,219.687 57.400,214.600 58.402 C 213.280 58.661,211.390 59.046,210.400 59.255 C 209.410 59.465,207.790 59.797,206.800 59.993 C 205.810 60.189,204.190 60.552,203.200 60.800 C 200.664 61.434,194.461 62.676,192.000 63.041 C 191.230 63.156,190.240 63.407,189.800 63.600 C 189.360 63.793,188.370 64.044,187.600 64.159 C 186.830 64.273,185.210 64.562,184.000 64.800 C 182.790 65.038,181.170 65.327,180.400 65.441 C 179.630 65.556,178.640 65.801,178.200 65.985 C 177.760 66.170,176.050 66.546,174.400 66.822 C 172.750 67.097,171.229 67.475,171.020 67.662 C 170.811 67.848,169.877 68.000,168.944 68.000 C 168.011 68.000,167.143 68.169,167.015 68.376 C 166.758 68.792,168.952 68.586,171.200 67.983 C 172.704 67.581,177.408 66.560,180.500 65.965 C 181.545 65.764,183.345 65.413,184.500 65.183 C 185.655 64.954,187.230 64.673,188.000 64.559 C 188.770 64.444,189.760 64.193,190.200 64.000 C 190.640 63.807,191.630 63.556,192.400 63.441 C 193.170 63.327,194.745 63.046,195.900 62.817 C 197.055 62.587,198.855 62.231,199.900 62.025 C 200.945 61.819,202.610 61.448,203.600 61.200 C 205.681 60.680,208.786 60.058,210.800 59.759 C 211.570 59.644,212.560 59.393,213.000 59.200 C 213.764 58.865,214.600 58.717,218.908 58.148 C 219.958 58.010,220.914 57.740,221.032 57.548 C 221.150 57.357,221.912 57.197,222.724 57.194 C 223.536 57.191,224.470 57.013,224.800 56.800 C 225.578 56.298,224.009 56.323,222.000 56.846 M162.738 69.211 C 162.374 69.423,161.654 69.579,161.138 69.556 C 159.524 69.485,155.876 71.138,154.407 72.606 L 153.000 74.013 152.784 132.107 C 152.548 195.650,152.694 192.125,150.206 194.600 C 147.288 197.503,144.091 198.286,133.004 198.813 C 128.602 199.023,124.640 199.280,124.200 199.385 C 123.760 199.490,122.140 199.862,120.600 200.212 C 115.408 201.389,110.080 204.457,107.932 207.506 C 104.990 211.681,104.272 214.107,104.357 219.580 C 104.396 222.100,104.511 224.245,104.614 224.347 C 104.716 224.450,104.800 222.377,104.800 219.743 C 104.800 205.886,112.839 200.153,133.600 199.204 C 144.483 198.707,147.680 197.864,150.731 194.685 C 153.036 192.283,152.942 194.689,153.179 132.400 C 153.352 87.274,153.509 74.409,153.899 73.728 C 154.609 72.487,156.285 71.409,158.600 70.702 C 160.331 70.173,161.587 69.885,165.800 69.051 C 166.240 68.964,165.880 68.877,165.000 68.859 C 164.120 68.840,163.102 68.998,162.738 69.211 M248.600 94.000 C 248.464 94.220,247.791 94.400,247.105 94.400 C 246.418 94.400,245.304 94.574,244.628 94.786 C 243.953 94.998,242.884 95.277,242.253 95.406 C 241.622 95.534,241.200 95.733,241.314 95.848 C 241.429 95.963,242.756 95.772,244.262 95.424 C 250.996 93.868,250.658 93.906,251.925 94.561 C 253.612 95.433,253.693 97.606,253.533 137.400 L 253.400 170.600 252.400 172.600 C 250.272 176.855,248.393 177.500,236.600 178.024 C 232.420 178.210,227.830 178.546,226.400 178.771 C 224.970 178.996,223.034 179.294,222.097 179.432 C 221.161 179.571,220.295 179.845,220.174 180.042 C 220.052 180.239,219.511 180.400,218.971 180.400 C 218.431 180.400,217.587 180.608,217.095 180.862 C 216.603 181.117,215.860 181.494,215.445 181.700 C 211.849 183.487,209.300 185.268,208.717 186.400 C 208.433 186.950,208.101 187.490,207.977 187.600 C 207.371 188.142,206.400 189.846,206.400 190.367 C 206.400 190.691,207.137 189.796,208.038 188.378 C 209.740 185.698,211.563 184.203,215.600 182.174 C 217.635 181.152,218.545 180.861,221.800 180.188 C 222.460 180.051,223.360 179.780,223.800 179.585 C 224.795 179.145,228.166 178.859,237.400 178.431 C 248.675 177.909,250.664 177.185,252.727 172.854 L 253.800 170.600 253.931 136.600 C 254.077 99.069,253.974 95.579,252.686 94.379 C 251.792 93.546,249.038 93.291,248.600 94.000 M237.889 96.244 C 237.755 96.378,235.610 96.900,233.123 97.403 C 224.097 99.230,221.814 99.774,222.548 99.924 C 223.228 100.063,224.019 99.910,228.400 98.792 C 229.170 98.596,231.330 98.152,233.200 97.805 C 237.468 97.015,240.654 96.065,239.167 96.027 C 238.598 96.012,238.023 96.110,237.889 96.244 M219.514 100.219 C 219.326 100.407,214.569 101.485,208.000 102.827 C 207.010 103.030,205.390 103.385,204.400 103.618 C 203.410 103.850,201.700 104.227,200.600 104.455 C 199.500 104.684,197.790 105.043,196.800 105.253 C 195.810 105.464,194.460 105.730,193.800 105.845 C 193.140 105.960,192.240 106.211,191.800 106.402 C 191.360 106.594,190.370 106.839,189.600 106.946 C 188.830 107.054,187.390 107.346,186.400 107.596 C 185.410 107.846,183.790 108.208,182.800 108.400 C 181.810 108.592,180.190 108.952,179.200 109.200 C 177.186 109.704,174.541 110.241,171.700 110.722 C 168.928 111.192,167.491 112.020,166.701 113.600 C 166.045 114.912,166.001 118.366,166.001 168.480 C 166.000 224.785,166.058 222.708,164.339 228.000 C 161.879 235.574,151.691 242.301,140.600 243.674 C 121.828 245.998,108.558 239.569,105.382 226.611 C 105.110 225.505,104.870 224.960,104.846 225.400 C 104.426 233.410,114.759 242.550,126.000 244.110 C 132.280 244.982,146.611 244.076,147.427 242.756 C 147.548 242.560,147.960 242.400,148.341 242.400 C 153.092 242.400,163.292 233.085,165.017 227.171 C 165.366 225.977,165.819 224.447,166.025 223.772 C 166.250 223.035,166.408 201.004,166.419 168.772 C 166.437 118.967,166.489 114.899,167.119 113.625 C 167.894 112.060,169.011 111.652,176.000 110.378 C 176.990 110.198,178.610 109.846,179.600 109.596 C 180.590 109.346,182.030 109.054,182.800 108.946 C 183.570 108.839,184.560 108.594,185.000 108.402 C 185.781 108.063,187.168 107.773,190.000 107.356 C 190.770 107.243,191.760 106.994,192.200 106.802 C 192.640 106.611,193.630 106.345,194.400 106.212 C 195.170 106.079,196.610 105.803,197.600 105.600 C 198.590 105.397,200.030 105.121,200.800 104.988 C 201.570 104.855,202.560 104.589,203.000 104.398 C 203.440 104.206,204.520 103.942,205.400 103.809 C 206.280 103.677,207.676 103.467,208.503 103.342 C 209.329 103.218,210.105 102.955,210.226 102.758 C 210.348 102.561,210.911 102.400,211.477 102.400 C 212.044 102.400,213.158 102.232,213.954 102.026 C 214.749 101.820,216.795 101.349,218.500 100.979 C 220.205 100.609,221.600 100.238,221.600 100.153 C 221.600 99.915,219.760 99.973,219.514 100.219 M205.800 192.400 C 205.648 193.091,205.607 193.741,205.709 193.842 C 205.811 193.944,206.009 193.453,206.150 192.750 C 206.483 191.083,206.160 190.760,205.800 192.400 M46.300 278.676 C 45.267 278.946,45.205 390.062,46.237 391.094 C 46.659 391.516,46.797 392.114,46.647 392.865 C 46.484 393.682,46.578 394.000,46.983 394.000 C 47.293 394.000,47.657 394.351,47.794 394.780 C 47.930 395.208,48.572 396.127,49.220 396.822 C 49.869 397.516,50.400 398.246,50.400 398.442 C 50.400 398.639,50.760 398.800,51.200 398.800 C 51.640 398.800,52.000 398.980,52.000 399.200 C 52.000 399.420,52.174 399.600,52.387 399.600 C 52.601 399.600,52.671 399.330,52.545 399.000 C 52.418 398.670,52.065 398.400,51.760 398.400 C 51.070 398.400,49.319 396.478,48.000 394.272 L 47.000 392.600 46.891 335.900 L 46.781 279.200 49.491 279.199 C 50.981 279.198,119.880 279.191,202.600 279.184 L 353.000 279.171 353.000 335.886 L 353.000 392.600 351.926 394.400 C 350.581 396.653,348.947 398.400,348.184 398.400 C 347.863 398.400,347.614 398.715,347.632 399.100 C 347.650 399.518,347.744 399.599,347.865 399.300 C 347.976 399.025,348.372 398.800,348.745 398.800 C 349.118 398.800,349.688 398.423,350.012 397.963 C 350.335 397.502,351.005 396.647,351.500 396.063 C 351.994 395.478,352.399 394.775,352.400 394.500 C 352.400 394.225,352.634 394.000,352.920 394.000 C 353.253 394.000,353.440 393.469,353.440 392.527 C 353.440 391.716,353.656 390.981,353.920 390.893 C 354.290 390.770,354.400 377.951,354.400 334.813 L 354.400 278.893 353.500 278.652 C 352.466 278.375,47.361 278.398,46.300 278.676 M272.707 298.290 C 273.426 298.379,274.506 298.377,275.107 298.286 C 275.708 298.195,275.120 298.122,273.800 298.124 C 272.480 298.126,271.988 298.201,272.707 298.290 M267.578 298.980 C 264.158 300.240,261.339 302.282,259.100 305.121 C 257.752 306.831,258.422 306.363,260.968 303.817 C 263.437 301.349,265.553 300.075,268.993 298.987 C 269.877 298.708,270.240 298.474,269.800 298.468 C 269.360 298.461,268.360 298.692,267.578 298.980 M279.193 299.166 C 280.399 299.596,281.459 299.875,281.548 299.785 C 281.776 299.557,279.639 298.777,278.200 298.563 C 277.534 298.465,277.976 298.733,279.193 299.166 M107.698 338.300 L 107.800 377.400 113.200 377.400 L 118.600 377.400 118.800 350.233 L 119.000 323.066 120.104 325.033 C 120.712 326.115,121.755 327.900,122.422 329.000 C 123.089 330.100,123.738 331.315,123.864 331.700 C 123.990 332.085,124.252 332.400,124.447 332.400 C 124.641 332.400,124.814 332.715,124.832 333.100 C 124.849 333.485,124.945 333.603,125.044 333.362 C 125.144 333.121,124.488 331.710,123.587 330.226 C 120.603 325.316,119.967 324.207,119.743 323.528 C 118.875 320.896,118.398 322.592,118.343 328.513 C 118.311 331.861,118.247 335.230,118.200 336.000 C 118.153 336.770,118.089 346.355,118.057 357.300 L 118.000 377.200 113.021 377.200 L 108.042 377.200 108.121 338.200 C 108.165 316.750,108.064 299.200,107.898 299.200 C 107.732 299.200,107.642 316.795,107.698 338.300 M118.119 300.655 C 118.663 301.505,119.865 303.519,120.790 305.131 C 121.715 306.743,122.571 307.962,122.693 307.841 C 122.814 307.719,122.728 307.390,122.500 307.110 C 122.100 306.619,121.564 305.698,119.178 301.412 C 118.569 300.318,117.859 299.353,117.600 299.267 C 117.341 299.180,117.574 299.805,118.119 300.655 M167.022 300.222 C 166.645 300.798,166.416 301.349,166.514 301.447 C 166.612 301.545,167.000 301.154,167.378 300.578 C 167.755 300.002,167.984 299.451,167.886 299.353 C 167.788 299.255,167.400 299.646,167.022 300.222 M177.200 338.200 L 177.200 377.200 172.200 377.200 L 167.200 377.200 167.200 349.600 C 167.200 334.420,167.063 322.000,166.896 322.000 C 166.514 322.000,166.241 322.431,163.153 327.900 C 162.687 328.725,161.997 329.850,161.618 330.400 C 160.536 331.973,160.191 333.249,161.186 332.000 C 161.624 331.450,161.986 330.852,161.991 330.672 C 161.996 330.492,162.540 329.559,163.200 328.600 C 163.860 327.641,164.400 326.751,164.400 326.622 C 164.400 326.194,166.196 323.610,166.497 323.605 C 166.661 323.602,166.841 335.705,166.897 350.500 L 167.000 377.400 172.300 377.512 L 177.600 377.623 177.600 338.412 C 177.600 316.845,177.510 299.200,177.400 299.200 C 177.290 299.200,177.200 316.750,177.200 338.200 M193.867 299.467 C 193.720 299.613,193.600 317.160,193.600 338.459 L 193.600 377.185 194.500 377.408 C 194.995 377.532,197.470 377.580,200.000 377.516 L 204.600 377.400 204.706 365.113 L 204.812 352.825 209.506 352.699 L 214.200 352.572 209.300 352.486 L 204.400 352.400 204.400 364.800 L 204.400 377.200 199.396 377.200 L 194.392 377.200 194.496 338.200 C 194.553 316.750,194.495 299.200,194.367 299.200 C 194.238 299.200,194.013 299.320,193.867 299.467 M217.600 299.600 C 218.150 299.776,218.960 299.926,219.400 299.932 L 220.200 299.944 219.400 299.600 C 218.960 299.411,218.150 299.262,217.600 299.268 L 216.600 299.280 217.600 299.600 M221.400 300.416 C 221.840 300.615,223.190 301.222,224.400 301.765 C 228.837 303.757,230.343 304.957,234.986 310.200 C 235.809 311.130,235.948 311.195,235.605 310.491 C 233.977 307.151,223.978 299.897,221.182 300.027 C 220.812 300.044,220.892 300.186,221.400 300.416 M282.000 300.133 C 282.000 300.206,282.893 300.844,283.985 301.552 C 287.084 303.560,289.995 307.385,291.327 311.200 C 291.466 311.597,291.548 311.508,291.568 310.938 C 291.616 309.644,290.040 306.929,287.839 304.510 C 285.646 302.099,282.000 299.366,282.000 300.133 M165.454 302.974 C 165.102 303.510,164.452 304.590,164.008 305.374 C 163.563 306.159,162.840 307.430,162.400 308.200 C 160.261 311.943,159.971 312.505,160.107 312.641 C 160.188 312.721,161.315 310.945,162.611 308.694 C 163.907 306.442,165.308 304.015,165.723 303.300 C 166.602 301.789,166.394 301.539,165.454 302.974 M257.524 307.700 C 257.211 308.195,256.554 309.584,256.063 310.788 L 255.172 312.975 256.086 313.679 C 256.589 314.066,257.200 314.386,257.445 314.391 C 257.690 314.396,259.130 314.910,260.645 315.534 C 264.886 317.279,265.499 317.370,265.797 316.301 C 266.741 312.923,269.290 309.600,270.938 309.600 C 271.276 309.600,271.664 309.420,271.800 309.200 C 272.203 308.548,271.093 308.746,269.746 309.567 C 268.221 310.497,266.729 312.453,265.907 314.600 C 265.272 316.257,263.961 316.921,263.074 316.034 C 262.835 315.795,262.404 315.600,262.116 315.600 C 261.827 315.600,260.828 315.261,259.896 314.847 C 258.963 314.433,257.615 313.872,256.900 313.599 C 255.453 313.047,255.463 313.063,255.946 312.095 C 256.952 310.076,258.372 306.800,258.242 306.800 C 258.159 306.800,257.836 307.205,257.524 307.700 M123.713 310.000 C 124.695 311.776,125.670 313.511,127.163 316.147 C 127.583 316.887,128.663 318.706,129.563 320.188 C 130.463 321.669,131.200 322.971,131.200 323.079 C 131.200 323.188,131.533 323.754,131.939 324.338 C 132.345 324.922,133.224 326.390,133.891 327.600 C 136.452 332.247,137.298 333.636,137.462 333.471 C 137.647 333.286,137.678 333.343,132.640 324.693 C 130.748 321.444,129.200 318.609,129.200 318.393 C 129.200 318.177,129.041 318.000,128.847 318.000 C 128.652 318.000,128.393 317.685,128.271 317.300 C 128.051 316.604,126.787 314.382,126.395 314.000 C 126.282 313.890,125.779 312.990,125.278 312.000 C 124.777 311.010,123.996 309.750,123.542 309.200 C 122.879 308.396,122.912 308.553,123.713 310.000 M274.000 308.782 C 276.502 309.163,279.019 310.612,280.034 312.256 C 280.506 313.018,280.992 313.542,281.114 313.419 C 282.206 312.327,276.403 308.396,273.800 308.465 L 272.200 308.507 274.000 308.782 M204.583 309.701 C 204.477 309.976,204.438 317.401,204.495 326.201 L 204.600 342.200 209.701 342.219 L 214.801 342.237 209.801 342.107 L 204.800 341.976 204.800 325.800 L 204.800 309.624 209.900 309.499 L 215.000 309.374 209.887 309.287 C 206.097 309.222,204.725 309.329,204.583 309.701 M215.800 310.000 C 216.240 310.189,217.140 310.335,217.800 310.325 L 219.000 310.305 217.800 310.000 C 217.140 309.832,216.240 309.686,215.800 309.675 L 215.000 309.656 215.800 310.000 M219.200 310.590 C 219.200 310.695,219.975 311.133,220.922 311.565 C 223.178 312.592,226.603 315.939,227.487 317.981 C 227.873 318.871,228.330 319.600,228.502 319.600 C 229.093 319.600,227.144 316.322,225.480 314.516 C 223.566 312.439,219.200 309.710,219.200 310.590 M236.619 312.837 C 236.971 313.518,237.334 314.000,237.425 313.908 C 237.669 313.665,236.655 311.607,236.290 311.603 C 236.119 311.601,236.267 312.157,236.619 312.837 M291.800 316.201 C 291.800 318.469,291.935 320.241,292.100 320.138 C 292.265 320.036,292.400 318.264,292.400 316.200 C 292.400 314.136,292.265 312.364,292.100 312.262 C 291.935 312.161,291.800 313.933,291.800 316.201 M159.064 313.900 C 158.938 314.285,158.352 315.410,157.761 316.400 C 157.170 317.390,156.369 318.761,155.980 319.447 C 155.592 320.132,154.537 321.906,153.637 323.388 C 152.737 324.869,152.000 326.130,152.000 326.189 C 152.000 326.248,150.806 328.345,149.346 330.848 C 145.380 337.649,145.146 338.080,145.329 338.262 C 145.483 338.416,147.359 335.284,150.519 329.600 C 151.191 328.390,152.790 325.641,154.071 323.491 C 155.352 321.340,156.400 319.478,156.400 319.352 C 156.400 319.226,156.728 318.646,157.128 318.062 C 158.622 315.884,160.021 313.200,159.664 313.200 C 159.460 313.200,159.190 313.515,159.064 313.900 M281.277 316.600 C 281.282 319.131,281.320 319.262,281.668 317.957 C 281.915 317.028,281.914 316.031,281.662 315.157 C 281.317 313.957,281.273 314.124,281.277 316.600 M238.428 316.676 C 238.518 317.715,239.144 318.596,239.172 317.724 C 239.187 317.242,239.020 316.736,238.800 316.600 C 238.580 316.464,238.413 316.498,238.428 316.676 M239.466 320.800 C 239.601 322.010,239.777 323.075,239.856 323.167 C 240.194 323.558,239.952 319.744,239.604 319.200 C 239.348 318.799,239.302 319.330,239.466 320.800 M280.387 320.423 C 279.637 321.825,276.756 324.800,276.149 324.800 C 275.847 324.800,275.600 324.959,275.600 325.153 C 275.600 325.704,273.736 326.075,269.600 326.349 L 265.800 326.600 265.800 332.000 L 265.800 337.400 269.583 337.516 C 274.230 337.659,274.241 337.363,269.600 337.066 C 267.730 336.946,266.155 336.837,266.100 336.824 C 266.045 336.811,266.000 334.661,266.000 332.047 C 266.000 326.588,265.820 326.816,270.154 326.805 C 274.584 326.795,282.801 321.468,281.065 319.731 C 280.955 319.621,280.650 319.933,280.387 320.423 M228.834 320.600 C 228.822 321.040,228.987 321.670,229.200 322.000 C 229.714 322.795,229.714 321.796,229.200 320.600 L 228.856 319.800 228.834 320.600 M290.439 322.930 C 289.910 324.028,288.245 326.224,286.739 327.810 C 283.451 331.271,283.485 330.982,286.221 332.192 C 295.733 336.399,301.219 348.777,298.420 359.720 C 294.615 374.599,277.353 382.581,264.005 375.635 C 262.682 374.946,261.600 374.453,261.600 374.538 C 261.600 374.949,264.802 376.696,266.400 377.158 C 267.390 377.444,268.524 377.848,268.921 378.055 C 269.931 378.584,280.002 378.558,280.535 378.025 C 280.769 377.791,281.453 377.600,282.056 377.600 C 282.659 377.600,283.264 377.420,283.400 377.200 C 283.536 376.980,283.997 376.800,284.424 376.800 C 284.851 376.800,285.200 376.662,285.200 376.494 C 285.200 376.326,285.875 375.890,286.700 375.525 C 297.916 370.559,302.808 354.788,296.944 342.501 C 294.399 337.168,287.962 331.200,284.756 331.200 C 284.465 331.200,285.127 330.255,286.228 329.100 C 289.485 325.680,291.884 322.165,291.546 321.306 C 291.466 321.101,290.967 321.832,290.439 322.930 M229.720 325.600 C 229.720 326.810,229.795 327.305,229.887 326.700 C 229.978 326.095,229.978 325.105,229.887 324.500 C 229.795 323.895,229.720 324.390,229.720 325.600 M239.672 329.050 C 239.632 329.738,239.498 330.908,239.373 331.650 C 239.189 332.749,239.230 332.869,239.595 332.297 C 239.842 331.910,239.976 330.740,239.894 329.697 C 239.801 328.524,239.717 328.277,239.672 329.050 M229.067 329.467 C 228.920 329.613,228.800 330.045,228.800 330.426 C 228.800 332.612,225.600 336.869,222.218 339.181 C 220.702 340.217,219.920 340.537,216.400 341.563 C 215.043 341.958,215.056 341.964,216.800 341.757 C 221.016 341.256,226.015 337.541,228.109 333.353 C 229.414 330.743,229.945 328.588,229.067 329.467 M159.570 334.066 C 159.298 334.580,158.813 335.405,158.492 335.900 C 158.116 336.480,158.067 336.800,158.354 336.800 C 158.599 336.800,158.800 336.603,158.800 336.362 C 158.800 336.121,159.180 335.390,159.644 334.739 C 160.108 334.087,160.392 333.459,160.276 333.343 C 160.160 333.227,159.842 333.552,159.570 334.066 M238.600 334.000 C 238.450 334.473,238.417 334.950,238.527 335.060 C 238.637 335.170,238.850 334.873,239.000 334.400 C 239.150 333.927,239.183 333.450,239.073 333.340 C 238.963 333.230,238.750 333.527,238.600 334.000 M138.507 335.700 C 139.048 336.635,139.709 337.820,139.977 338.334 C 140.246 338.848,140.548 339.186,140.649 339.084 C 140.860 338.873,138.075 334.000,137.743 334.000 C 137.622 334.000,137.966 334.765,138.507 335.700 M126.409 335.820 C 126.414 336.029,126.770 336.650,127.200 337.200 C 127.630 337.750,127.986 338.425,127.991 338.700 C 127.996 338.975,128.195 339.200,128.433 339.200 C 128.671 339.200,128.462 338.525,127.969 337.700 C 126.882 335.882,126.397 335.297,126.409 335.820 M236.619 338.763 C 236.267 339.443,236.119 339.999,236.290 339.997 C 236.655 339.993,237.669 337.935,237.425 337.692 C 237.334 337.600,236.971 338.082,236.619 338.763 M274.400 338.000 C 274.730 338.213,275.270 338.388,275.600 338.388 C 276.133 338.388,276.133 338.345,275.600 338.000 C 275.270 337.787,274.730 337.612,274.400 337.612 C 273.867 337.612,273.867 337.655,274.400 338.000 M276.800 338.800 C 277.130 339.013,277.670 339.188,278.000 339.188 C 278.533 339.188,278.533 339.145,278.000 338.800 C 277.670 338.587,277.130 338.412,276.800 338.412 C 276.267 338.412,276.267 338.455,276.800 338.800 M143.984 339.900 C 142.979 341.907,142.751 342.081,142.141 341.304 C 141.656 340.688,141.645 340.736,142.052 341.687 C 142.308 342.286,142.656 342.689,142.826 342.584 C 143.324 342.276,145.174 338.800,144.839 338.800 C 144.672 338.800,144.287 339.295,143.984 339.900 M278.800 339.381 C 278.800 339.481,279.475 339.878,280.300 340.265 C 286.193 343.024,289.977 351.229,288.190 357.376 C 283.772 372.573,262.927 370.209,261.316 354.329 C 261.013 351.333,260.325 351.003,256.977 352.248 C 255.450 352.816,253.300 353.607,252.200 354.007 C 249.992 354.809,249.680 355.434,250.374 357.658 C 250.761 358.895,250.778 358.842,250.595 356.988 L 250.396 354.976 252.298 354.421 C 253.344 354.115,254.470 353.732,254.800 353.569 C 259.357 351.315,260.264 351.368,260.613 353.909 C 261.436 359.899,264.464 364.769,268.440 366.496 C 271.579 367.861,272.161 368.000,274.724 368.000 C 287.743 368.000,293.912 352.338,284.536 343.091 C 282.195 340.783,278.800 338.587,278.800 339.381 M234.386 342.076 C 229.844 347.569,223.890 351.054,217.426 352.003 C 215.532 352.281,215.500 352.303,216.938 352.350 C 222.267 352.523,232.956 346.140,235.595 341.209 C 236.249 339.987,235.917 340.225,234.386 342.076 M130.073 342.200 C 130.323 342.750,130.684 343.200,130.873 343.200 C 131.063 343.200,130.924 342.750,130.563 342.200 C 130.203 341.650,129.843 341.200,129.763 341.200 C 129.683 341.200,129.822 341.650,130.073 342.200 M152.165 346.900 C 150.678 349.421,149.836 350.879,148.437 353.347 C 148.017 354.087,146.937 355.906,146.037 357.388 C 145.137 358.869,144.399 360.198,144.398 360.341 C 144.397 360.483,143.986 361.112,143.486 361.738 L 142.575 362.875 142.000 361.738 C 141.683 361.112,140.924 359.848,140.312 358.928 C 139.701 358.008,139.200 357.176,139.200 357.079 C 139.200 356.778,135.544 350.800,135.359 350.800 C 135.141 350.800,137.872 355.839,138.862 357.262 C 139.268 357.846,139.600 358.487,139.600 358.686 C 139.600 358.886,139.921 359.398,140.313 359.825 C 140.705 360.251,141.349 361.286,141.743 362.124 C 142.533 363.803,143.080 363.696,144.126 361.658 C 144.425 361.076,145.059 359.925,145.535 359.100 C 146.011 358.275,146.734 357.015,147.143 356.300 C 147.551 355.585,148.779 353.470,149.872 351.600 C 153.352 345.647,154.038 344.400,153.836 344.400 C 153.727 344.400,152.975 345.525,152.165 346.900 M132.009 345.271 C 131.993 345.755,134.902 350.431,135.098 350.236 C 135.202 350.131,134.908 349.513,134.444 348.861 C 133.980 348.210,133.596 347.524,133.591 347.338 C 133.580 346.926,132.021 344.889,132.009 345.271 M250.806 359.414 C 250.759 362.576,255.063 369.429,259.525 373.300 C 261.882 375.345,261.217 374.417,258.067 371.267 C 255.090 368.290,251.614 362.653,251.594 360.770 C 251.587 360.115,250.815 358.787,250.806 359.414 M53.800 399.600 C 53.664 399.820,53.934 400.000,54.400 400.000 C 54.866 400.000,55.136 399.820,55.000 399.600 C 54.864 399.380,54.594 399.200,54.400 399.200 C 54.206 399.200,53.936 399.380,53.800 399.600 M345.000 399.600 C 344.864 399.820,345.134 400.000,345.600 400.000 C 346.066 400.000,346.336 399.820,346.200 399.600 C 346.064 399.380,345.794 399.200,345.600 399.200 C 345.406 399.200,345.136 399.380,345.000 399.600 " stroke="none" fill="#8cdcb4" fill-rule="evenodd"></path></g></svg>