<svg xmlns="http://www.w3.org/2000/svg" xmlns:xlink="http://www.w3.org/1999/xlink" id="svg" width="400" height="400" viewBox="0, 0, 400,400"><g id="svgg"><path id="path0" d="M197.814 50.055 C 193.297 50.694,187.600 53.829,187.600 55.675 C 187.600 55.896,187.261 56.554,186.846 57.138 C 183.636 61.655,183.389 75.697,186.365 84.400 C 186.553 84.950,186.926 86.210,187.193 87.200 C 187.460 88.190,187.840 89.313,188.039 89.695 C 188.238 90.077,188.400 90.741,188.400 91.171 C 188.400 91.601,188.580 92.064,188.800 92.200 C 189.020 92.336,189.200 92.763,189.200 93.148 C 189.200 93.534,189.560 94.595,190.000 95.506 C 190.440 96.416,190.800 97.440,190.800 97.781 C 190.800 98.121,190.980 98.400,191.200 98.400 C 191.420 98.400,191.600 98.672,191.600 99.005 C 191.600 99.338,191.759 99.923,191.953 100.305 C 192.148 100.687,192.490 101.450,192.713 102.000 C 192.937 102.550,193.517 103.894,194.003 104.986 C 194.689 106.530,194.787 107.130,194.442 107.681 C 194.199 108.070,194.000 108.831,194.000 109.371 C 194.000 109.911,193.840 110.452,193.644 110.573 C 193.449 110.694,193.195 111.379,193.081 112.096 C 192.968 112.813,192.688 114.030,192.460 114.800 C 192.232 115.570,191.845 116.920,191.600 117.800 C 191.355 118.680,190.968 120.030,190.740 120.800 C 190.512 121.570,190.232 122.787,190.119 123.504 C 190.005 124.221,189.751 124.906,189.556 125.027 C 189.360 125.148,189.200 125.676,189.200 126.200 C 189.200 126.724,189.020 127.264,188.800 127.400 C 188.580 127.536,188.400 127.999,188.400 128.429 C 188.400 128.859,188.237 129.523,188.038 129.905 C 187.839 130.287,186.659 133.840,185.415 137.800 C 184.171 141.760,183.001 145.360,182.815 145.800 C 182.630 146.240,182.100 147.635,181.639 148.900 C 181.178 150.165,180.422 152.235,179.961 153.500 C 179.500 154.765,178.960 156.205,178.761 156.700 C 178.562 157.195,178.244 158.005,178.054 158.500 C 177.863 158.995,177.479 159.940,177.200 160.600 C 176.921 161.260,176.516 162.250,176.300 162.800 C 176.084 163.350,175.748 164.113,175.553 164.495 C 175.359 164.877,175.200 165.380,175.200 165.614 C 175.200 165.848,174.840 166.784,174.400 167.694 C 173.960 168.605,173.600 169.586,173.600 169.875 C 173.600 170.164,173.420 170.400,173.200 170.400 C 172.980 170.400,172.800 170.665,172.800 170.990 C 172.800 171.314,172.260 172.759,171.600 174.200 C 170.940 175.641,170.400 176.900,170.400 176.998 C 170.400 177.203,168.622 181.316,167.892 182.800 C 167.456 183.686,164.185 185.528,158.400 188.146 C 157.850 188.395,157.310 188.706,157.200 188.836 C 157.090 188.967,155.470 189.867,153.600 190.836 C 151.730 191.805,150.110 192.702,150.000 192.828 C 149.890 192.955,149.530 193.163,149.200 193.292 C 145.765 194.628,133.163 204.743,130.376 208.400 C 129.622 209.390,128.899 210.290,128.768 210.400 C 128.638 210.510,128.000 211.590,127.350 212.800 C 123.392 220.166,124.383 227.245,130.180 233.006 C 138.256 241.033,147.744 238.071,157.743 224.400 C 158.789 222.970,159.905 221.483,160.222 221.095 C 160.540 220.708,160.800 220.290,160.800 220.167 C 160.800 220.045,161.314 219.192,161.943 218.272 C 164.281 214.850,166.812 210.402,170.405 203.400 C 172.437 199.440,174.257 196.029,174.450 195.820 C 174.642 195.611,174.801 195.161,174.802 194.820 C 174.806 193.656,176.597 192.107,179.000 191.191 C 180.320 190.687,181.571 190.123,181.780 189.938 C 181.989 189.752,182.396 189.600,182.684 189.600 C 182.973 189.600,183.972 189.257,184.904 188.837 C 187.502 187.668,194.390 185.117,200.600 183.022 C 203.680 181.983,206.560 180.993,207.000 180.822 C 208.709 180.158,210.687 179.600,211.334 179.600 C 211.706 179.600,212.323 179.438,212.705 179.239 C 213.087 179.040,214.210 178.663,215.200 178.400 C 216.190 178.137,217.313 177.760,217.695 177.561 C 218.077 177.362,218.831 177.200,219.371 177.200 C 219.911 177.200,220.451 177.041,220.571 176.846 C 220.692 176.651,221.287 176.393,221.895 176.271 C 222.503 176.149,223.810 175.848,224.800 175.603 C 225.790 175.357,227.320 175.004,228.200 174.818 C 230.486 174.334,234.788 173.247,236.228 172.790 C 239.003 171.909,240.296 172.429,243.759 175.814 C 245.189 177.211,250.263 181.200,250.610 181.200 C 250.739 181.200,251.869 181.895,253.122 182.745 C 264.504 190.462,276.233 190.075,283.571 181.738 C 289.660 174.821,290.448 166.758,285.480 162.200 C 282.684 159.635,280.908 158.931,274.600 157.888 C 269.593 157.060,259.502 157.445,250.200 158.819 C 244.643 159.640,243.241 159.700,242.702 159.137 C 242.420 158.841,241.201 157.430,239.994 156.000 C 238.787 154.570,237.709 153.310,237.598 153.200 C 237.486 153.090,236.406 151.846,235.198 150.436 C 233.048 147.928,232.427 147.103,228.843 141.985 C 227.877 140.605,226.853 139.189,226.569 138.838 C 225.307 137.280,223.200 134.375,223.200 134.193 C 223.200 134.082,222.234 132.509,221.053 130.696 C 216.308 123.410,214.506 120.328,210.007 111.800 C 209.195 110.260,208.125 108.292,207.630 107.426 C 206.690 105.780,206.683 105.074,207.574 101.100 C 208.108 98.717,208.678 96.151,209.219 93.700 C 209.449 92.655,209.822 90.720,210.048 89.400 C 210.274 88.080,210.635 86.010,210.851 84.800 C 212.844 73.630,212.778 62.997,210.690 59.200 C 206.834 52.186,202.833 49.345,197.814 50.055 M199.800 64.000 C 202.790 68.737,202.379 81.315,199.113 85.000 C 198.481 85.714,195.956 82.396,194.700 79.200 C 194.484 78.650,194.148 77.887,193.953 77.505 C 192.985 75.602,194.174 67.338,195.634 65.820 C 195.835 65.611,196.000 65.207,196.000 64.923 C 196.000 62.583,198.519 61.971,199.800 64.000 M203.886 124.300 C 205.750 127.653,206.341 128.689,207.483 130.600 C 209.059 133.238,215.383 142.841,217.369 145.611 C 221.755 151.732,224.749 155.711,226.387 157.600 C 228.581 160.128,230.018 162.341,229.625 162.584 C 229.413 162.716,226.755 163.463,223.720 164.245 C 220.684 165.027,217.660 165.816,217.000 165.998 C 216.340 166.180,213.730 166.901,211.200 167.599 C 208.670 168.298,206.240 169.024,205.800 169.214 C 205.360 169.404,203.740 169.949,202.200 170.426 C 200.660 170.902,199.087 171.451,198.705 171.646 C 198.323 171.841,197.659 172.000,197.229 172.000 C 196.799 172.000,196.336 172.180,196.200 172.400 C 196.064 172.620,195.601 172.800,195.171 172.800 C 194.416 172.800,194.026 172.944,192.105 173.938 C 191.613 174.192,190.936 174.400,190.600 174.400 C 190.264 174.400,189.677 174.559,189.295 174.753 C 188.913 174.948,188.150 175.284,187.600 175.500 C 187.050 175.716,186.117 176.121,185.527 176.400 C 184.332 176.964,183.010 176.664,183.313 175.897 C 183.421 175.623,184.897 171.890,186.592 167.600 C 188.288 163.310,190.036 158.810,190.477 157.600 C 191.429 154.984,191.968 153.647,192.447 152.705 C 192.641 152.323,192.800 151.684,192.800 151.285 C 192.800 150.886,192.943 150.389,193.118 150.180 C 193.293 149.971,193.665 149.080,193.945 148.200 C 194.224 147.320,194.600 146.240,194.779 145.800 C 195.291 144.543,199.898 130.129,200.851 126.800 C 202.133 122.328,202.584 121.956,203.886 124.300 M275.321 169.261 C 279.141 170.218,276.348 174.567,270.772 176.345 C 267.088 177.519,264.388 176.811,260.200 173.574 C 256.576 170.773,255.828 170.012,256.266 169.574 C 257.219 168.621,271.807 168.381,275.321 169.261 M158.174 202.500 C 158.021 202.995,157.559 203.878,157.148 204.462 C 156.736 205.046,156.400 205.721,156.400 205.962 C 156.400 206.203,156.241 206.400,156.047 206.400 C 155.852 206.400,155.593 206.715,155.471 207.100 C 155.261 207.762,154.172 209.673,153.485 210.583 C 153.313 210.812,152.323 212.284,151.285 213.854 C 150.248 215.423,148.800 217.403,148.066 218.254 C 147.333 219.104,146.457 220.250,146.121 220.800 C 145.063 222.532,140.893 225.800,139.741 225.800 C 138.197 225.800,136.287 223.312,136.303 221.319 C 136.317 219.477,136.913 218.300,139.229 215.544 C 141.648 212.666,141.706 212.611,145.600 209.594 C 146.590 208.828,147.490 208.095,147.600 207.968 C 147.889 207.632,152.821 204.400,153.044 204.400 C 153.147 204.400,154.167 203.770,155.310 203.000 C 157.768 201.345,158.577 201.204,158.174 202.500 M46.888 335.900 L 47.000 392.600 47.906 394.124 C 48.405 394.962,49.170 396.031,49.606 396.499 C 50.043 396.968,50.400 397.680,50.400 398.083 C 50.400 398.664,50.606 398.763,51.396 398.565 C 52.104 398.387,52.464 398.500,52.638 398.955 C 52.810 399.402,53.173 399.522,53.847 399.352 C 54.377 399.219,55.052 399.311,55.347 399.556 C 55.850 399.973,343.201 399.966,346.000 399.549 C 346.550 399.467,347.315 399.085,347.700 398.700 C 348.085 398.315,348.636 398.000,348.925 398.000 C 349.483 398.000,350.603 396.631,352.091 394.129 L 353.000 392.600 353.107 335.900 L 353.213 279.200 199.995 279.200 L 46.776 279.200 46.888 335.900 M153.400 300.823 C 159.481 301.922,168.403 308.252,170.638 313.053 C 171.034 313.904,171.458 314.690,171.579 314.800 C 172.114 315.284,172.800 316.858,172.800 317.600 C 172.800 318.046,172.968 318.723,173.173 319.105 C 174.795 322.121,174.783 331.285,173.153 334.495 C 172.959 334.877,172.800 335.477,172.800 335.830 C 172.800 336.718,170.226 341.236,168.795 342.859 C 168.145 343.597,167.610 344.327,167.606 344.483 C 167.593 345.072,162.096 349.157,159.703 350.357 C 155.656 352.385,153.211 352.884,146.000 353.154 L 139.400 353.400 139.294 365.500 L 139.188 377.600 133.994 377.600 L 128.800 377.600 128.800 339.024 L 128.800 300.448 130.300 300.324 C 133.693 300.043,151.175 300.421,153.400 300.823 M279.300 300.367 L 281.200 300.400 281.200 305.557 C 281.200 311.872,282.896 311.200,266.961 311.200 L 253.987 311.200 254.094 322.300 L 254.200 333.400 267.712 333.505 L 281.223 333.611 281.112 338.905 L 281.000 344.200 268.236 344.270 C 261.215 344.309,255.140 344.427,254.736 344.533 C 254.036 344.716,254.000 345.541,254.000 361.163 L 254.000 377.600 248.800 377.600 L 243.600 377.600 243.600 339.025 L 243.600 300.451 244.900 300.325 C 245.974 300.222,272.764 300.254,279.300 300.367 M202.868 301.540 C 210.292 303.334,215.633 306.138,220.164 310.617 C 224.703 315.105,227.588 319.387,229.586 324.600 C 229.755 325.040,230.084 325.850,230.318 326.400 C 232.763 332.157,232.765 345.246,230.320 351.800 C 227.275 359.964,220.401 368.692,214.540 371.834 C 213.693 372.289,212.640 372.865,212.200 373.115 C 210.449 374.112,207.812 375.200,207.148 375.200 C 206.763 375.200,206.348 375.360,206.227 375.556 C 206.106 375.751,205.421 376.014,204.704 376.139 C 203.987 376.264,202.410 376.571,201.200 376.822 C 199.990 377.072,195.535 377.363,191.300 377.469 L 183.600 377.661 183.600 338.980 L 183.600 300.298 191.500 300.499 C 197.621 300.656,200.181 300.890,202.868 301.540 M139.200 326.367 C 139.200 334.709,139.309 341.819,139.443 342.167 C 139.944 343.474,151.168 342.607,154.600 340.997 C 167.649 334.875,166.533 316.725,152.800 311.722 C 151.898 311.393,149.231 311.210,145.300 311.206 L 139.200 311.200 139.200 326.367 M194.131 339.049 L 194.063 366.898 197.324 366.613 C 199.118 366.457,200.892 366.165,201.266 365.964 C 201.641 365.764,202.274 365.598,202.674 365.595 C 208.395 365.555,218.584 354.825,220.331 347.000 C 220.576 345.900,220.962 344.155,221.189 343.123 C 221.702 340.779,221.717 337.340,221.223 335.106 C 221.015 334.168,220.630 332.420,220.366 331.222 C 218.631 323.344,210.448 314.305,203.593 312.696 C 203.047 312.567,201.520 312.185,200.200 311.845 C 198.880 311.506,196.990 311.222,196.000 311.214 L 194.200 311.200 194.131 339.049 " stroke="none" fill="#cc4d4d" fill-rule="evenodd"></path><path id="path1" d="M52.900 0.281 C 52.405 0.377,52.000 0.623,52.000 0.828 C 52.000 1.033,51.722 1.200,51.382 1.200 C 50.626 1.200,48.800 2.963,48.800 3.694 C 48.800 3.985,48.440 4.483,48.000 4.800 C 47.530 5.139,47.200 5.835,47.200 6.488 C 47.200 7.100,47.020 7.600,46.800 7.600 C 46.574 7.600,46.400 8.733,46.400 10.200 C 46.400 11.667,46.226 12.800,46.000 12.800 C 45.734 12.800,45.600 57.414,45.600 145.843 C 45.600 272.414,45.634 278.869,46.300 278.543 C 47.215 278.095,352.785 278.095,353.700 278.543 C 354.523 278.946,354.822 92.308,354.000 91.800 C 353.780 91.664,353.600 90.393,353.600 88.976 C 353.600 87.525,353.425 86.400,353.200 86.400 C 352.980 86.400,352.800 86.124,352.800 85.786 C 352.800 85.448,350.550 82.938,347.800 80.208 C 345.050 77.478,342.800 75.361,342.800 75.503 C 342.800 75.646,342.485 75.345,342.100 74.835 C 341.715 74.325,337.943 70.464,333.719 66.254 C 329.494 62.044,325.804 58.367,325.519 58.083 C 325.233 57.799,317.755 50.289,308.900 41.394 C 300.045 32.500,292.800 25.344,292.800 25.492 C 292.800 25.641,292.485 25.345,292.100 24.835 C 291.581 24.147,281.235 13.697,275.572 8.141 C 275.381 7.953,273.561 6.090,271.528 4.000 L 267.832 0.200 160.816 0.153 C 101.957 0.127,53.395 0.185,52.900 0.281 M202.683 49.700 C 204.266 50.374,205.843 51.765,208.000 54.390 C 208.990 55.595,210.021 56.818,210.290 57.109 C 210.844 57.706,211.638 59.466,212.378 61.739 C 212.993 63.626,213.005 74.479,212.396 78.800 C 211.481 85.303,211.132 87.458,210.774 88.846 C 210.568 89.642,210.400 90.936,210.400 91.723 C 210.400 92.509,210.220 93.264,210.000 93.400 C 209.780 93.536,209.600 94.258,209.600 95.005 C 209.600 95.751,209.437 96.776,209.238 97.281 C 209.039 97.787,208.669 99.280,208.417 100.600 C 208.164 101.920,207.800 103.502,207.608 104.115 C 207.326 105.014,207.496 105.672,208.483 107.515 C 209.156 108.772,210.485 111.280,211.435 113.089 C 214.338 118.613,215.606 120.823,218.459 125.334 C 219.966 127.717,221.200 129.832,221.200 130.034 C 221.200 130.235,221.380 130.400,221.600 130.400 C 221.820 130.400,222.000 130.588,222.000 130.818 C 222.000 131.225,225.875 137.202,226.398 137.600 C 226.542 137.710,227.405 138.880,228.317 140.200 C 231.182 144.351,234.488 148.639,237.791 152.484 C 239.546 154.528,241.256 156.530,241.591 156.934 C 243.556 159.300,243.559 159.302,244.689 159.016 C 245.300 158.862,246.880 158.585,248.200 158.401 C 269.309 155.461,279.765 156.372,285.789 161.673 C 294.544 169.381,285.995 186.432,272.180 188.813 C 268.484 189.450,264.392 188.901,260.200 187.204 C 255.629 185.353,248.128 180.670,244.711 177.534 C 239.578 172.823,239.292 172.648,237.570 173.146 C 236.706 173.396,235.235 173.792,234.300 174.027 C 233.365 174.262,232.047 174.622,231.372 174.827 C 230.696 175.032,229.809 175.200,229.400 175.200 C 228.991 175.200,228.104 175.368,227.428 175.573 C 226.753 175.778,225.390 176.159,224.400 176.419 C 223.410 176.680,222.150 177.031,221.600 177.200 C 221.050 177.369,219.790 177.729,218.800 178.000 C 217.810 178.271,216.550 178.640,216.000 178.819 C 215.450 178.999,213.650 179.537,212.000 180.015 C 207.663 181.272,192.597 186.317,190.500 187.215 C 190.005 187.427,189.195 187.762,188.700 187.960 C 188.205 188.158,186.947 188.698,185.904 189.160 C 184.862 189.622,183.824 190.000,183.599 190.000 C 183.374 190.000,182.877 190.159,182.495 190.353 C 182.113 190.548,181.350 190.885,180.800 191.103 C 176.362 192.860,176.427 192.789,173.095 199.524 C 171.387 202.976,169.733 206.250,169.420 206.800 C 169.107 207.350,168.008 209.330,166.978 211.200 C 165.948 213.070,164.757 215.206,164.333 215.947 C 163.429 217.524,159.572 223.308,159.230 223.600 C 159.101 223.710,158.504 224.459,157.904 225.265 C 157.303 226.071,156.583 226.971,156.304 227.265 C 156.024 227.559,155.280 228.424,154.650 229.188 C 150.386 234.353,143.775 238.400,139.600 238.400 C 131.211 238.400,122.035 226.493,124.364 218.628 C 125.358 215.272,125.734 214.183,125.962 214.000 C 126.099 213.890,126.642 212.945,127.168 211.900 C 127.695 210.855,128.265 210.000,128.436 210.000 C 128.607 210.000,128.849 209.676,128.974 209.281 C 129.372 208.028,133.877 203.513,138.254 199.980 C 140.419 198.233,143.507 196.000,143.758 196.000 C 143.915 196.000,145.083 195.294,146.353 194.432 C 149.959 191.983,153.797 189.856,161.628 185.967 L 167.055 183.272 168.955 178.736 C 170.000 176.241,171.226 173.390,171.678 172.400 C 172.131 171.410,172.640 170.240,172.810 169.800 C 172.980 169.360,173.407 168.325,173.759 167.500 C 174.112 166.675,174.649 165.415,174.953 164.700 C 175.257 163.985,175.725 162.770,175.993 162.000 C 176.261 161.230,176.667 160.150,176.894 159.600 C 177.454 158.245,177.772 157.411,178.800 154.600 C 179.283 153.280,179.822 151.840,179.999 151.400 C 180.175 150.960,180.536 149.970,180.800 149.200 C 181.064 148.430,181.435 147.440,181.625 147.000 C 181.983 146.166,186.213 133.430,188.359 126.723 C 189.042 124.591,189.600 122.563,189.600 122.218 C 189.600 121.872,189.758 121.277,189.951 120.895 C 190.535 119.739,191.200 117.396,191.200 116.495 C 191.200 116.029,191.380 115.536,191.600 115.400 C 191.820 115.264,192.000 114.634,192.000 114.000 C 192.000 113.366,192.160 112.748,192.356 112.627 C 192.731 112.396,193.097 110.686,193.463 107.458 C 193.634 105.951,193.483 105.101,192.791 103.658 C 192.300 102.636,191.760 101.440,191.590 101.000 C 191.420 100.560,191.007 99.570,190.672 98.800 C 179.560 73.280,181.612 52.876,195.600 49.789 C 198.582 49.132,201.268 49.098,202.683 49.700 M197.355 63.841 C 196.528 65.064,196.023 66.106,195.145 68.400 C 194.484 70.128,194.409 77.636,195.045 78.439 C 195.290 78.747,195.599 79.461,195.734 80.025 C 195.868 80.588,196.432 81.578,196.988 82.225 C 197.544 82.871,197.999 83.535,198.000 83.700 C 198.002 85.070,199.234 83.522,199.910 81.300 C 201.966 74.540,201.513 66.851,198.865 63.581 L 198.138 62.683 197.355 63.841 M200.196 131.296 C 198.915 135.533,197.716 139.171,197.533 139.380 C 197.350 139.589,197.200 140.138,197.200 140.600 C 197.200 141.062,197.051 141.611,196.870 141.820 C 196.688 142.029,196.307 143.010,196.024 144.000 C 195.741 144.990,195.367 146.160,195.195 146.600 C 195.022 147.040,194.664 148.030,194.400 148.800 C 194.136 149.570,193.776 150.560,193.600 151.000 C 193.424 151.440,193.064 152.430,192.800 153.200 C 192.536 153.970,192.176 154.960,192.000 155.400 C 191.824 155.840,191.464 156.830,191.200 157.600 C 190.936 158.370,190.574 159.360,190.396 159.800 C 188.202 165.236,184.398 175.068,184.399 175.300 C 184.400 175.700,186.138 175.685,186.620 175.282 C 186.829 175.107,187.720 174.735,188.600 174.455 C 189.480 174.176,190.560 173.797,191.000 173.613 C 192.410 173.023,196.155 171.671,197.600 171.230 C 198.370 170.995,200.530 170.284,202.400 169.651 C 204.270 169.017,207.600 168.005,209.800 167.402 C 212.000 166.799,214.790 165.984,216.000 165.590 C 217.210 165.196,219.190 164.658,220.400 164.394 C 221.610 164.130,222.913 163.754,223.295 163.557 C 223.677 163.361,224.496 163.200,225.115 163.200 C 225.734 163.200,226.411 163.034,226.620 162.831 C 226.829 162.628,227.509 162.403,228.131 162.331 L 229.262 162.200 227.731 160.207 C 226.889 159.111,225.799 157.801,225.308 157.297 C 224.377 156.339,219.950 150.443,217.578 147.000 C 216.820 145.900,216.095 144.910,215.968 144.800 C 215.419 144.327,211.600 138.398,211.600 138.018 C 211.600 137.788,211.442 137.600,211.249 137.600 C 211.055 137.600,210.673 137.060,210.400 136.400 C 210.127 135.740,209.745 135.200,209.551 135.200 C 209.358 135.200,209.200 134.930,209.200 134.600 C 209.200 134.270,209.020 134.000,208.800 134.000 C 208.580 134.000,208.400 133.844,208.400 133.653 C 208.400 133.383,203.037 124.141,202.623 123.696 C 202.570 123.639,201.478 127.059,200.196 131.296 M261.100 169.498 C 256.404 169.656,256.310 169.878,259.808 172.575 C 264.189 175.954,265.650 176.441,269.400 175.772 C 273.141 175.104,274.828 174.107,275.972 171.892 C 277.223 169.468,274.600 169.046,261.100 169.498 M153.310 204.998 C 151.501 206.209,149.928 207.200,149.815 207.200 C 149.702 207.200,149.292 207.460,148.905 207.777 C 148.517 208.094,146.748 209.514,144.974 210.933 C 137.096 217.232,135.078 221.805,138.801 224.924 C 139.787 225.750,142.750 223.857,145.184 220.845 C 149.068 216.038,150.096 214.654,152.137 211.486 C 153.381 209.553,154.400 207.900,154.400 207.813 C 154.400 207.725,154.959 206.754,155.643 205.654 C 157.482 202.695,156.966 202.550,153.310 204.998 M129.467 301.067 C 129.320 301.213,129.200 318.403,129.200 339.267 L 129.200 377.200 134.000 377.200 L 138.800 377.200 138.800 365.249 C 138.800 356.171,138.920 353.200,139.300 352.892 C 139.575 352.669,142.860 352.402,146.600 352.300 C 155.104 352.067,158.674 350.973,163.800 347.031 C 168.771 343.206,173.158 335.810,173.190 331.197 C 173.196 330.426,173.367 329.211,173.572 328.498 C 173.945 327.197,173.630 323.909,172.738 319.800 C 171.130 312.391,163.858 304.702,156.200 302.313 C 151.899 300.972,150.364 300.828,140.167 300.814 C 134.428 300.806,129.613 300.920,129.467 301.067 M184.667 301.067 C 184.520 301.213,184.400 318.423,184.400 339.309 L 184.400 377.285 190.500 377.056 C 199.331 376.725,207.675 375.180,209.380 373.561 C 209.589 373.362,209.981 373.200,210.251 373.200 C 213.182 373.200,223.563 363.945,226.230 358.953 C 226.687 358.099,227.257 357.040,227.497 356.600 C 228.290 355.150,229.447 352.230,229.955 350.400 C 230.230 349.410,230.646 347.981,230.880 347.224 C 231.115 346.467,231.302 342.777,231.296 339.024 C 231.285 332.339,231.175 331.505,229.625 326.404 C 229.000 324.346,225.753 317.965,224.706 316.736 C 224.208 316.151,223.187 314.922,222.437 314.005 C 220.554 311.702,218.013 309.253,216.700 308.478 C 216.095 308.120,215.600 307.686,215.600 307.514 C 215.600 307.341,215.345 307.200,215.033 307.200 C 214.722 307.200,214.407 307.065,214.333 306.900 C 213.894 305.911,205.808 302.782,201.800 302.049 C 195.889 300.968,185.368 300.365,184.667 301.067 M244.271 301.063 C 244.122 301.212,244.000 318.403,244.000 339.267 L 244.000 377.200 248.796 377.200 L 253.591 377.200 253.696 360.500 L 253.800 343.800 267.100 343.695 L 280.400 343.589 280.400 338.995 L 280.400 334.400 267.243 334.400 C 255.614 334.400,254.057 334.326,253.843 333.767 C 253.298 332.347,253.577 310.917,254.147 310.444 C 254.530 310.126,258.380 310.000,267.047 310.023 C 273.841 310.040,279.631 310.043,279.913 310.027 C 280.306 310.006,280.400 308.943,280.313 305.500 L 280.200 301.000 262.371 300.896 C 252.565 300.839,244.420 300.914,244.271 301.063 M153.400 311.083 C 153.840 311.319,154.887 311.846,155.727 312.256 C 167.859 318.169,166.595 338.184,153.848 341.999 C 152.942 342.271,151.745 342.657,151.189 342.858 C 150.632 343.059,147.662 343.173,144.589 343.112 L 139.000 343.000 138.895 327.201 C 138.838 318.511,138.886 311.153,139.002 310.850 C 139.262 310.174,152.088 310.382,153.400 311.083 M200.600 311.200 C 200.736 311.420,201.242 311.603,201.724 311.606 C 202.813 311.614,205.116 312.402,206.418 313.212 C 206.958 313.549,208.100 314.178,208.956 314.612 C 213.232 316.778,219.101 324.324,220.613 329.600 C 220.960 330.810,221.414 332.353,221.622 333.028 C 222.135 334.695,222.102 343.314,221.574 345.354 C 220.266 350.413,218.766 353.524,215.900 357.126 C 210.412 364.023,201.918 367.965,194.100 367.246 C 193.705 367.210,193.600 361.269,193.600 339.000 L 193.600 310.800 196.976 310.800 C 198.833 310.800,200.464 310.980,200.600 311.200 M45.600 392.367 C 45.600 392.858,45.858 393.200,46.229 393.200 C 46.602 393.200,46.806 392.928,46.729 392.533 C 46.535 391.530,45.600 391.392,45.600 392.367 M353.467 391.867 C 352.979 392.354,353.191 393.200,353.800 393.200 C 354.133 393.200,354.400 392.844,354.400 392.400 C 354.400 391.603,353.974 391.360,353.467 391.867 M46.400 394.613 C 46.400 395.359,49.147 398.186,49.515 397.818 C 49.659 397.674,49.593 397.431,49.367 397.278 C 49.142 397.125,48.548 396.325,48.046 395.500 C 47.097 393.937,46.400 393.562,46.400 394.613 M351.954 395.500 C 351.452 396.325,350.858 397.125,350.633 397.278 C 350.407 397.431,350.341 397.674,350.485 397.818 C 350.853 398.186,353.600 395.359,353.600 394.613 C 353.600 393.562,352.903 393.937,351.954 395.500 " stroke="none" fill="#e6e5dd" fill-rule="evenodd"></path><path id="path2" d="M196.800 49.620 C 196.126 49.849,196.451 49.884,197.800 49.728 C 198.900 49.601,199.875 49.431,199.967 49.349 C 200.282 49.068,197.799 49.280,196.800 49.620 M188.692 53.543 C 187.692 54.612,186.498 56.225,186.037 57.127 C 184.758 59.634,185.055 59.690,186.425 57.200 C 187.091 55.990,188.385 54.235,189.301 53.300 C 190.217 52.365,190.864 51.600,190.738 51.600 C 190.612 51.600,189.692 52.474,188.692 53.543 M207.755 54.519 C 208.603 55.553,209.380 56.400,209.482 56.400 C 209.755 56.400,207.221 53.260,206.677 52.924 C 206.422 52.766,206.907 53.484,207.755 54.519 M210.281 57.761 C 210.677 58.289,211.057 58.667,211.128 58.600 C 211.338 58.399,210.234 56.800,209.885 56.800 C 209.708 56.800,209.886 57.232,210.281 57.761 M184.600 60.400 C 184.450 60.873,184.417 61.350,184.527 61.460 C 184.637 61.570,184.850 61.273,185.000 60.800 C 185.150 60.327,185.183 59.850,185.073 59.740 C 184.963 59.630,184.750 59.927,184.600 60.400 M212.296 63.883 C 212.521 67.042,212.732 67.458,212.762 64.800 C 212.776 63.590,212.640 62.367,212.460 62.083 C 212.276 61.794,212.204 62.589,212.296 63.883 M183.856 63.284 C 183.721 63.788,183.627 64.560,183.646 65.000 C 183.665 65.440,183.845 65.098,184.046 64.240 C 184.436 62.578,184.270 61.740,183.856 63.284 M183.293 69.200 C 183.293 69.970,183.375 70.285,183.476 69.900 C 183.576 69.515,183.576 68.885,183.476 68.500 C 183.375 68.115,183.293 68.430,183.293 69.200 M201.093 70.200 C 201.213 71.520,201.376 72.675,201.455 72.767 C 201.751 73.107,201.531 69.370,201.210 68.600 C 201.008 68.117,200.962 68.751,201.093 70.200 M194.186 71.789 C 194.034 73.212,194.065 75.227,194.255 76.266 C 194.543 77.842,194.603 77.413,194.615 73.678 C 194.633 68.508,194.568 68.222,194.186 71.789 M212.548 73.200 C 212.548 75.510,212.614 76.455,212.695 75.300 C 212.776 74.145,212.776 72.255,212.695 71.100 C 212.614 69.945,212.548 70.890,212.548 73.200 M183.647 74.033 C 183.673 74.785,183.841 75.940,184.020 76.600 C 184.235 77.389,184.270 76.978,184.123 75.400 C 183.877 72.755,183.573 71.881,183.647 74.033 M201.264 74.600 C 201.223 75.480,201.096 76.650,200.983 77.200 L 200.777 78.200 201.208 77.214 C 201.444 76.672,201.571 75.502,201.489 74.614 L 201.340 73.000 201.264 74.600 M184.480 79.000 C 184.480 79.440,184.624 80.250,184.800 80.800 C 185.054 81.592,185.120 81.633,185.120 81.000 C 185.120 80.560,184.976 79.750,184.800 79.200 C 184.546 78.408,184.480 78.367,184.480 79.000 M195.106 79.418 C 195.210 79.965,195.428 80.494,195.590 80.594 C 195.752 80.694,195.799 80.329,195.694 79.782 C 195.590 79.235,195.372 78.706,195.210 78.606 C 195.048 78.506,195.001 78.871,195.106 79.418 M211.693 82.400 C 211.693 83.170,211.775 83.485,211.876 83.100 C 211.976 82.715,211.976 82.085,211.876 81.700 C 211.775 81.315,211.693 81.630,211.693 82.400 M196.811 82.114 C 196.805 82.287,197.081 82.857,197.424 83.380 C 198.092 84.399,199.200 85.028,199.200 84.387 C 199.200 84.174,198.972 84.000,198.693 84.000 C 198.414 84.000,197.878 83.505,197.503 82.900 C 197.128 82.295,196.816 81.941,196.811 82.114 M185.444 83.400 C 185.773 84.871,186.002 85.190,185.994 84.167 C 185.991 83.745,185.805 83.130,185.582 82.800 C 185.285 82.362,185.248 82.524,185.444 83.400 M186.244 86.200 C 186.573 87.671,186.802 87.990,186.794 86.967 C 186.791 86.545,186.605 85.930,186.382 85.600 C 186.085 85.162,186.048 85.324,186.244 86.200 M210.859 86.600 C 210.820 87.260,210.696 88.250,210.583 88.800 L 210.377 89.800 210.808 88.814 C 211.044 88.272,211.168 87.282,211.083 86.614 L 210.928 85.400 210.859 86.600 M187.783 91.200 C 188.291 93.003,189.313 95.621,189.453 95.481 C 189.612 95.321,188.030 90.697,187.714 90.400 C 187.596 90.290,187.628 90.650,187.783 91.200 M210.060 91.467 C 210.027 91.944,209.884 92.664,209.741 93.067 C 209.542 93.631,209.595 93.696,209.972 93.349 C 210.242 93.101,210.385 92.381,210.291 91.749 C 210.170 90.939,210.102 90.856,210.060 91.467 M209.249 95.200 C 209.216 95.530,209.089 96.250,208.967 96.800 C 208.775 97.664,208.807 97.703,209.199 97.088 C 209.448 96.697,209.575 95.977,209.481 95.488 C 209.386 95.000,209.282 94.870,209.249 95.200 M208.449 98.600 C 208.416 99.040,208.296 99.850,208.183 100.400 L 207.977 101.400 208.406 100.419 C 208.642 99.879,208.761 99.069,208.672 98.619 C 208.513 97.821,208.507 97.821,208.449 98.600 M207.429 103.429 C 207.281 104.015,207.251 104.584,207.361 104.694 C 207.471 104.804,207.681 104.415,207.829 103.829 C 207.976 103.242,208.006 102.673,207.896 102.563 C 207.786 102.453,207.576 102.842,207.429 103.429 M193.606 106.900 C 193.603 107.725,193.669 108.400,193.753 108.400 C 194.100 108.400,194.254 106.413,193.946 105.926 C 193.733 105.591,193.610 105.944,193.606 106.900 M209.160 109.400 C 209.834 110.705,210.388 111.428,210.385 111.000 C 210.383 110.780,210.014 110.150,209.564 109.600 C 209.021 108.936,208.885 108.869,209.160 109.400 M213.040 116.802 C 213.639 117.903,214.193 118.740,214.271 118.663 C 214.443 118.490,212.408 114.800,212.141 114.800 C 212.036 114.800,212.440 115.701,213.040 116.802 M190.649 118.615 C 190.512 118.973,190.415 119.566,190.434 119.933 C 190.453 120.300,190.627 120.069,190.821 119.420 C 191.198 118.158,191.065 117.533,190.649 118.615 M189.867 121.067 C 189.720 121.213,189.611 121.708,189.625 122.167 C 189.649 122.933,189.682 122.923,190.034 122.042 C 190.426 121.063,190.344 120.589,189.867 121.067 M216.400 122.520 C 216.400 122.904,218.445 126.000,218.699 126.000 C 218.878 126.000,218.241 124.919,216.939 123.011 C 216.642 122.577,216.400 122.356,216.400 122.520 M202.030 124.126 C 201.793 124.745,201.614 125.465,201.630 125.726 C 201.647 125.987,201.877 125.603,202.142 124.873 L 202.622 123.546 203.537 125.173 C 204.554 126.983,205.154 127.432,204.241 125.700 C 202.894 123.146,202.509 122.871,202.030 124.126 M188.467 126.267 C 188.012 127.756,187.709 129.042,187.792 129.126 C 187.876 129.209,188.319 128.063,188.778 126.578 C 189.236 125.093,189.540 123.807,189.452 123.719 C 189.365 123.631,188.921 124.778,188.467 126.267 M205.891 129.031 C 206.501 130.147,207.319 131.497,207.709 132.031 C 208.100 132.564,207.920 132.086,207.309 130.969 C 206.699 129.853,205.881 128.503,205.491 127.969 C 205.100 127.436,205.280 127.914,205.891 129.031 M220.186 128.700 C 220.535 129.415,220.906 130.000,221.010 130.000 C 221.408 130.000,221.152 129.363,220.367 128.400 L 219.552 127.400 220.186 128.700 M199.449 132.215 C 199.312 132.573,199.215 133.166,199.234 133.533 C 199.253 133.900,199.427 133.669,199.621 133.020 C 199.998 131.758,199.865 131.133,199.449 132.215 M223.477 134.031 C 223.875 134.708,224.456 135.473,224.768 135.731 C 225.080 135.989,224.832 135.435,224.215 134.500 C 222.920 132.537,222.409 132.212,223.477 134.031 M210.473 136.600 C 210.723 137.150,211.084 137.600,211.273 137.600 C 211.463 137.600,211.324 137.150,210.963 136.600 C 210.603 136.050,210.243 135.600,210.163 135.600 C 210.083 135.600,210.222 136.050,210.473 136.600 M198.000 136.903 C 198.000 136.959,197.823 137.622,197.607 138.376 C 197.391 139.129,197.368 139.578,197.555 139.373 C 197.964 138.926,198.503 136.800,198.208 136.800 C 198.093 136.800,198.000 136.846,198.000 136.903 M227.027 139.000 C 228.400 140.800,228.668 140.803,227.504 139.005 C 227.007 138.238,226.456 137.608,226.280 137.605 C 226.103 137.602,226.440 138.230,227.027 139.000 M211.645 138.241 C 211.936 139.069,215.799 144.790,216.071 144.795 C 216.221 144.798,215.343 143.315,214.121 141.500 C 211.796 138.047,211.389 137.511,211.645 138.241 M183.800 140.400 C 183.650 140.873,183.617 141.350,183.727 141.460 C 183.837 141.570,184.050 141.273,184.200 140.800 C 184.350 140.327,184.383 139.850,184.273 139.740 C 184.163 139.630,183.950 139.927,183.800 140.400 M230.608 143.958 C 231.414 145.080,232.251 146.108,232.466 146.241 C 232.682 146.374,232.199 145.565,231.392 144.442 C 230.586 143.320,229.749 142.292,229.534 142.159 C 229.318 142.026,229.801 142.835,230.608 143.958 M195.246 145.067 C 195.221 145.324,195.084 145.864,194.941 146.267 C 194.740 146.836,194.794 146.897,195.179 146.542 C 195.452 146.291,195.589 145.751,195.484 145.342 C 195.379 144.934,195.272 144.810,195.246 145.067 M219.432 149.700 C 220.256 150.855,221.283 152.160,221.714 152.600 C 222.145 153.040,221.561 152.095,220.416 150.500 C 219.272 148.905,218.245 147.600,218.134 147.600 C 218.023 147.600,218.607 148.545,219.432 149.700 M235.662 150.400 C 236.831 151.830,237.835 153.075,237.894 153.167 C 237.952 153.258,238.085 153.249,238.188 153.145 C 238.292 153.042,237.287 151.797,235.956 150.378 L 233.536 147.800 235.662 150.400 M223.156 154.600 C 224.549 156.610,225.184 157.350,225.363 157.170 C 225.457 157.076,224.812 156.189,223.930 155.200 C 223.047 154.210,222.699 153.940,223.156 154.600 M240.194 155.700 C 241.241 156.965,242.187 158.000,242.298 158.000 C 242.584 158.000,241.645 156.853,239.845 155.000 C 238.591 153.710,238.658 153.845,240.194 155.700 M260.912 157.095 C 261.964 157.177,263.584 157.176,264.512 157.092 C 265.440 157.008,264.580 156.941,262.600 156.942 C 260.620 156.943,259.860 157.012,260.912 157.095 M268.800 157.022 C 270.187 157.322,276.128 157.453,275.398 157.168 C 274.959 156.996,273.160 156.864,271.400 156.875 C 269.640 156.885,268.470 156.951,268.800 157.022 M256.300 157.482 C 256.795 157.578,257.605 157.578,258.100 157.482 C 258.595 157.387,258.190 157.309,257.200 157.309 C 256.210 157.309,255.805 157.387,256.300 157.482 M251.000 158.014 C 250.478 158.248,250.963 158.288,252.400 158.132 C 253.610 158.000,254.675 157.826,254.767 157.746 C 255.121 157.436,251.757 157.675,251.000 158.014 M277.200 158.000 C 278.568 158.438,279.619 158.438,278.600 158.000 C 278.160 157.811,277.440 157.662,277.000 157.668 C 276.357 157.677,276.396 157.743,277.200 158.000 M245.600 158.803 C 245.190 159.070,245.635 159.114,247.000 158.941 C 248.100 158.801,249.075 158.623,249.167 158.544 C 249.564 158.201,246.141 158.450,245.600 158.803 M227.994 160.603 C 229.587 162.521,229.721 162.645,229.286 161.796 C 229.059 161.353,228.452 160.634,227.937 160.198 C 227.033 159.434,227.035 159.448,227.994 160.603 M286.000 162.200 C 286.746 162.970,287.447 163.600,287.557 163.600 C 287.667 163.600,287.146 162.970,286.400 162.200 C 285.654 161.430,284.953 160.800,284.843 160.800 C 284.733 160.800,285.254 161.430,286.000 162.200 M226.600 162.800 C 226.308 163.273,226.699 163.273,227.800 162.800 C 228.571 162.469,228.569 162.455,227.724 162.428 C 227.242 162.413,226.736 162.580,226.600 162.800 M223.400 163.600 C 223.108 164.073,223.499 164.073,224.600 163.600 C 225.371 163.269,225.369 163.255,224.524 163.228 C 224.042 163.213,223.536 163.380,223.400 163.600 M220.200 164.400 C 219.696 164.617,219.622 164.744,220.000 164.744 C 220.330 164.744,220.960 164.589,221.400 164.400 C 221.904 164.183,221.978 164.056,221.600 164.056 C 221.270 164.056,220.640 164.211,220.200 164.400 M217.200 165.200 C 216.667 165.545,216.667 165.588,217.200 165.588 C 217.530 165.588,218.070 165.413,218.400 165.200 C 218.933 164.855,218.933 164.812,218.400 164.812 C 218.070 164.812,217.530 164.987,217.200 165.200 M173.833 167.233 C 173.440 168.124,173.205 168.938,173.309 169.043 C 173.414 169.148,173.800 168.483,174.167 167.567 C 175.034 165.400,174.762 165.128,173.833 167.233 M288.412 166.000 C 288.412 166.330,288.587 166.870,288.800 167.200 C 289.145 167.733,289.188 167.733,289.188 167.200 C 289.188 166.870,289.013 166.330,288.800 166.000 C 288.455 165.467,288.412 165.467,288.412 166.000 M211.800 166.800 C 211.296 167.017,211.222 167.144,211.600 167.144 C 211.930 167.144,212.560 166.989,213.000 166.800 C 213.504 166.583,213.578 166.456,213.200 166.456 C 212.870 166.456,212.240 166.611,211.800 166.800 M209.000 167.600 C 208.496 167.817,208.422 167.944,208.800 167.944 C 209.130 167.944,209.760 167.789,210.200 167.600 C 210.704 167.383,210.778 167.256,210.400 167.256 C 210.070 167.256,209.440 167.411,209.000 167.600 M206.200 168.400 L 205.400 168.744 206.200 168.766 C 206.640 168.778,207.270 168.613,207.600 168.400 C 208.395 167.886,207.396 167.886,206.200 168.400 M262.200 169.176 C 260.873 169.309,263.000 169.413,266.960 169.408 C 270.898 169.404,273.598 169.286,272.960 169.147 C 271.527 168.835,265.429 168.851,262.200 169.176 M197.400 171.199 C 196.960 171.388,195.741 171.852,194.691 172.229 C 193.641 172.607,192.840 172.974,192.912 173.045 C 192.983 173.116,194.562 172.646,196.421 172.001 C 198.279 171.356,199.440 170.833,199.000 170.841 C 198.560 170.848,197.840 171.009,197.400 171.199 M257.600 170.918 C 257.600 171.020,258.447 171.797,259.481 172.645 C 260.516 173.493,261.234 173.978,261.076 173.723 C 260.740 173.179,257.600 170.645,257.600 170.918 M171.210 173.378 C 170.215 175.562,170.163 176.337,171.143 174.378 C 172.062 172.541,172.419 171.600,172.197 171.600 C 172.100 171.600,171.655 172.400,171.210 173.378 M236.200 173.200 L 235.400 173.544 236.200 173.566 C 236.640 173.578,237.270 173.413,237.600 173.200 C 238.395 172.686,237.396 172.686,236.200 173.200 M240.200 173.566 C 240.978 174.461,243.200 176.198,243.200 175.912 C 243.200 175.834,242.345 175.067,241.300 174.208 C 240.255 173.349,239.760 173.060,240.200 173.566 M233.000 174.000 L 232.200 174.344 233.000 174.366 C 233.440 174.378,234.070 174.213,234.400 174.000 C 235.195 173.486,234.196 173.486,233.000 174.000 M229.800 174.800 C 228.693 175.082,228.677 175.109,229.600 175.147 C 230.150 175.169,230.870 175.013,231.200 174.800 C 231.881 174.360,231.529 174.360,229.800 174.800 M183.873 175.353 C 183.485 176.366,183.486 176.368,184.691 176.149 C 186.064 175.900,186.397 175.600,185.300 175.600 C 184.842 175.600,184.395 175.384,184.307 175.120 C 184.209 174.828,184.040 174.919,183.873 175.353 M226.400 175.600 C 225.576 175.864,225.541 175.926,226.200 175.954 C 226.640 175.973,227.270 175.813,227.600 175.600 C 228.301 175.147,227.814 175.147,226.400 175.600 M287.480 176.480 C 287.092 177.156,286.857 177.791,286.958 177.891 C 287.059 177.992,287.438 177.501,287.800 176.800 C 288.657 175.143,288.397 174.883,287.480 176.480 M264.600 176.000 C 265.040 176.189,265.760 176.344,266.200 176.344 L 267.000 176.344 266.200 176.000 C 265.760 175.811,265.040 175.656,264.600 175.656 L 263.800 175.656 264.600 176.000 M268.200 176.000 C 266.537 176.423,268.174 176.442,270.200 176.023 C 271.545 175.745,271.609 175.692,270.600 175.693 C 269.940 175.694,268.860 175.832,268.200 176.000 M223.200 176.400 C 222.376 176.664,222.341 176.726,223.000 176.754 C 223.440 176.773,224.070 176.613,224.400 176.400 C 225.101 175.947,224.614 175.947,223.200 176.400 M220.400 177.200 C 219.576 177.464,219.541 177.526,220.200 177.554 C 220.640 177.573,221.270 177.413,221.600 177.200 C 222.301 176.747,221.814 176.747,220.400 177.200 M246.333 178.900 C 248.279 180.555,250.800 182.228,250.800 181.864 C 250.800 181.765,249.935 181.128,248.877 180.449 C 247.819 179.771,246.528 178.762,246.007 178.208 C 245.487 177.653,244.897 177.200,244.698 177.200 C 244.498 177.200,245.234 177.965,246.333 178.900 M217.600 178.000 C 216.776 178.264,216.741 178.326,217.400 178.354 C 217.840 178.373,218.470 178.213,218.800 178.000 C 219.501 177.547,219.014 177.547,217.600 178.000 M210.000 180.225 C 209.230 180.516,208.870 180.762,209.200 180.771 C 209.530 180.781,210.520 180.529,211.400 180.212 C 212.280 179.895,212.640 179.649,212.200 179.665 C 211.760 179.682,210.770 179.934,210.000 180.225 M284.226 181.513 C 282.815 183.203,282.788 183.275,283.960 182.200 C 285.071 181.182,286.288 179.570,285.914 179.613 C 285.851 179.620,285.092 180.475,284.226 181.513 M160.500 186.433 C 159.125 187.100,158.000 187.736,158.000 187.846 C 158.000 187.957,158.135 187.977,158.300 187.892 C 158.465 187.807,159.635 187.243,160.900 186.639 C 162.165 186.035,163.200 185.464,163.200 185.371 C 163.200 185.122,163.219 185.114,160.500 186.433 M262.400 188.000 C 262.730 188.213,263.360 188.378,263.800 188.366 L 264.600 188.344 263.800 188.000 C 262.604 187.486,261.605 187.486,262.400 188.000 M156.000 188.836 C 155.336 189.379,155.269 189.515,155.800 189.240 C 157.105 188.566,157.828 188.012,157.400 188.015 C 157.180 188.017,156.550 188.386,156.000 188.836 M266.140 188.894 C 266.691 189.246,270.518 189.212,272.200 188.840 C 272.877 188.690,271.716 188.580,269.540 188.587 C 267.417 188.594,265.887 188.732,266.140 188.894 M151.600 191.236 C 150.936 191.779,150.869 191.915,151.400 191.640 C 152.705 190.966,153.428 190.412,153.000 190.415 C 152.780 190.417,152.150 190.786,151.600 191.236 M148.800 192.836 C 148.136 193.379,148.069 193.515,148.600 193.240 C 149.905 192.566,150.628 192.012,150.200 192.015 C 149.980 192.017,149.350 192.386,148.800 192.836 M141.113 197.713 C 139.855 198.641,138.820 199.539,138.813 199.709 C 138.806 199.879,139.676 199.339,140.747 198.509 C 141.817 197.679,143.032 196.786,143.447 196.524 C 143.861 196.261,144.020 196.042,143.800 196.036 C 143.580 196.031,142.371 196.785,141.113 197.713 M135.495 202.282 C 134.030 203.537,132.902 204.635,132.989 204.722 C 133.076 204.809,133.834 204.254,134.674 203.489 C 135.513 202.723,136.740 201.630,137.400 201.061 C 138.060 200.491,138.501 200.020,138.380 200.013 C 138.259 200.006,136.961 201.027,135.495 202.282 M156.162 202.862 C 155.973 203.168,156.054 203.214,156.401 202.999 C 156.799 202.753,156.867 202.908,156.683 203.637 C 156.451 204.558,156.465 204.566,157.020 203.824 C 157.339 203.396,157.600 202.901,157.600 202.724 C 157.600 202.231,156.486 202.338,156.162 202.862 M151.100 205.907 C 150.275 206.472,149.674 207.007,149.764 207.097 C 149.929 207.263,153.200 205.216,153.200 204.947 C 153.200 204.622,152.526 204.930,151.100 205.907 M155.295 206.223 C 154.803 206.974,154.400 207.694,154.400 207.822 C 154.400 207.951,153.891 208.808,153.268 209.728 C 151.827 211.856,151.512 212.400,151.720 212.400 C 151.935 212.400,154.800 208.091,154.800 207.768 C 154.800 207.633,155.180 206.990,155.644 206.339 C 156.108 205.687,156.421 205.087,156.339 205.006 C 156.257 204.924,155.788 205.472,155.295 206.223 M129.996 207.697 C 129.067 209.094,128.649 209.848,129.052 209.400 C 130.815 207.440,131.286 206.800,130.966 206.800 C 130.761 206.800,130.324 207.204,129.996 207.697 M145.399 210.181 C 143.420 211.786,141.353 213.616,140.807 214.249 C 140.260 214.882,140.620 214.663,141.607 213.763 C 143.719 211.834,147.799 208.552,148.736 208.028 C 149.097 207.826,149.304 207.571,149.196 207.462 C 149.087 207.354,147.378 208.577,145.399 210.181 M165.952 212.500 C 165.690 212.995,165.215 213.850,164.896 214.400 C 164.339 215.359,164.343 215.367,164.988 214.600 C 165.786 213.652,166.905 211.600,166.624 211.600 C 166.516 211.600,166.214 212.005,165.952 212.500 M125.049 215.815 C 124.912 216.173,124.815 216.766,124.834 217.133 C 124.853 217.500,125.027 217.269,125.221 216.620 C 125.598 215.358,125.465 214.733,125.049 215.815 M138.453 216.842 C 137.932 217.501,137.579 218.112,137.668 218.201 C 137.757 218.290,138.326 217.741,138.932 216.981 C 139.538 216.222,139.891 215.610,139.717 215.622 C 139.543 215.634,138.974 216.183,138.453 216.842 M161.537 219.644 C 160.072 221.820,158.992 223.596,159.137 223.591 C 159.447 223.579,164.515 215.977,164.328 215.805 C 164.258 215.740,163.002 217.468,161.537 219.644 M124.243 219.033 C 123.926 219.858,123.980 222.809,124.328 223.685 C 124.478 224.062,124.600 223.027,124.600 221.385 C 124.600 218.130,124.597 218.110,124.243 219.033 M144.000 221.968 C 143.230 222.772,141.970 223.933,141.200 224.547 C 140.430 225.162,140.201 225.466,140.692 225.223 C 141.773 224.687,146.364 220.413,145.800 220.468 C 145.580 220.489,144.770 221.164,144.000 221.968 M157.021 225.800 C 156.210 226.790,155.674 227.600,155.829 227.600 C 156.111 227.600,156.479 227.183,158.033 225.100 C 159.349 223.337,158.634 223.832,157.021 225.800 M151.270 232.126 C 150.022 233.295,148.481 234.645,147.846 235.126 C 147.211 235.607,146.863 236.000,147.073 236.000 C 147.373 236.000,150.506 233.360,153.780 230.349 C 153.989 230.157,154.021 230.000,153.850 230.000 C 153.680 230.000,152.519 230.957,151.270 232.126 M127.213 230.694 C 127.230 231.107,129.202 233.331,129.387 233.146 C 129.468 233.065,129.009 232.412,128.367 231.693 C 127.725 230.975,127.206 230.525,127.213 230.694 M130.800 234.553 C 131.350 235.171,132.340 235.931,133.000 236.244 C 133.682 236.566,133.871 236.593,133.438 236.306 C 133.019 236.028,132.029 235.267,131.238 234.615 L 129.800 233.430 130.800 234.553 M137.338 238.094 C 137.592 238.256,138.610 238.388,139.600 238.388 C 140.590 238.388,141.608 238.256,141.862 238.094 C 142.116 237.932,141.098 237.800,139.600 237.800 C 138.102 237.800,137.084 237.932,137.338 238.094 M46.400 278.600 C 45.742 278.976,45.616 279.176,46.033 279.186 C 46.382 279.194,46.780 279.086,46.919 278.947 C 47.253 278.613,351.496 278.637,353.246 278.971 C 354.598 279.230,354.598 279.229,353.600 278.631 C 352.119 277.744,47.951 277.713,46.400 278.600 M128.984 301.300 C 128.879 301.575,128.840 318.810,128.897 339.600 L 129.000 377.400 129.200 339.100 C 129.310 318.035,129.349 300.800,129.287 300.800 C 129.226 300.800,129.089 301.025,128.984 301.300 M152.000 301.200 C 153.368 301.638,154.419 301.638,153.400 301.200 C 152.960 301.011,152.240 300.862,151.800 300.868 C 151.157 300.877,151.196 300.943,152.000 301.200 M184.095 339.100 C 184.147 360.165,184.236 371.280,184.294 363.800 C 184.569 328.164,184.572 300.800,184.300 300.800 C 184.135 300.800,184.043 318.035,184.095 339.100 M193.633 300.951 C 193.725 301.035,195.240 301.204,197.000 301.327 C 199.350 301.492,199.775 301.458,198.600 301.199 C 197.006 300.847,193.316 300.664,193.633 300.951 M280.323 305.328 C 280.442 309.714,280.417 309.872,279.523 310.331 L 278.600 310.804 279.600 310.552 C 280.150 310.414,280.664 310.244,280.741 310.176 C 280.953 309.988,281.067 302.736,280.874 301.700 C 280.464 299.496,280.210 301.168,280.323 305.328 M201.600 302.000 C 202.150 302.176,202.960 302.320,203.400 302.320 C 204.033 302.320,203.992 302.254,203.200 302.000 C 202.650 301.824,201.840 301.680,201.400 301.680 C 200.767 301.680,200.808 301.746,201.600 302.000 M243.746 307.000 C 243.747 309.200,243.814 310.049,243.895 308.887 C 243.976 307.724,243.976 305.924,243.893 304.887 C 243.811 303.849,243.745 304.800,243.746 307.000 M162.200 305.057 C 164.237 306.864,164.987 307.391,164.202 306.463 C 163.766 305.948,163.047 305.341,162.604 305.114 C 162.162 304.887,161.980 304.862,162.200 305.057 M211.200 304.990 C 211.200 305.224,213.439 306.401,213.880 306.399 C 214.056 306.398,213.611 306.038,212.890 305.599 C 211.551 304.782,211.200 304.656,211.200 304.990 M165.218 307.218 C 165.208 307.338,166.115 308.418,167.233 309.618 C 168.351 310.818,169.704 312.655,170.240 313.700 C 170.775 314.745,171.303 315.600,171.413 315.600 C 171.523 315.600,171.172 314.745,170.632 313.700 C 169.771 312.033,165.267 306.641,165.218 307.218 M215.625 307.466 C 215.638 307.650,216.465 308.395,217.463 309.123 C 218.460 309.851,219.166 310.269,219.032 310.052 C 218.634 309.408,215.598 307.104,215.625 307.466 M254.068 310.492 C 253.728 310.832,253.625 314.083,253.691 322.380 L 253.782 333.800 253.991 322.200 L 254.200 310.600 266.155 310.511 C 272.731 310.463,278.197 310.336,278.303 310.231 C 278.409 310.125,273.104 310.035,266.516 310.031 C 257.890 310.026,254.405 310.155,254.068 310.492 M138.983 310.901 C 138.877 311.176,138.838 318.511,138.895 327.201 L 139.000 343.000 144.716 343.111 C 147.859 343.172,150.683 343.082,150.990 342.911 C 151.297 342.740,148.770 342.658,145.374 342.728 L 139.200 342.856 139.200 326.839 L 139.200 310.822 144.900 310.699 L 150.600 310.576 144.887 310.488 C 140.615 310.422,139.126 310.526,138.983 310.901 M219.601 310.667 C 219.600 310.923,219.735 311.193,219.900 311.267 C 220.065 311.340,220.785 312.081,221.500 312.914 C 222.215 313.747,222.792 314.287,222.783 314.114 C 222.754 313.584,219.602 310.169,219.601 310.667 M193.790 339.000 C 193.789 354.620,193.839 361.068,193.900 353.329 C 193.961 345.591,193.961 332.811,193.900 324.929 C 193.839 317.048,193.790 323.380,193.790 339.000 M197.633 310.943 C 198.050 311.302,200.797 311.519,200.585 311.176 C 200.457 310.969,199.703 310.800,198.910 310.800 C 198.116 310.800,197.542 310.865,197.633 310.943 M243.750 316.200 C 243.751 318.620,243.816 319.558,243.896 318.285 C 243.976 317.012,243.975 315.032,243.894 313.885 C 243.814 312.738,243.749 313.780,243.750 316.200 M156.200 312.657 C 158.237 314.464,158.987 314.991,158.202 314.063 C 157.766 313.548,157.047 312.941,156.604 312.714 C 156.162 312.487,155.980 312.462,156.200 312.657 M159.951 315.800 C 161.219 317.641,162.534 319.153,162.037 318.200 C 161.807 317.760,161.058 316.770,160.372 316.000 C 159.316 314.816,159.251 314.785,159.951 315.800 M209.400 315.057 C 211.437 316.864,212.187 317.391,211.402 316.463 C 210.966 315.948,210.247 315.341,209.804 315.114 C 209.362 314.887,209.180 314.862,209.400 315.057 M213.625 318.631 C 214.381 319.528,215.081 320.197,215.180 320.117 C 215.279 320.038,214.660 319.304,213.805 318.487 L 212.250 317.000 213.625 318.631 M162.414 319.254 C 162.406 319.394,162.663 320.114,162.984 320.854 C 163.306 321.594,163.569 321.930,163.570 321.600 C 163.572 321.024,162.443 318.734,162.414 319.254 M226.403 319.290 C 226.401 319.450,226.759 320.170,227.199 320.890 C 227.638 321.611,227.996 322.020,227.996 321.800 C 227.995 321.580,227.637 320.860,227.200 320.200 C 226.763 319.540,226.404 319.131,226.403 319.290 M173.273 322.000 C 173.258 322.770,173.395 324.120,173.577 325.000 C 174.036 327.221,174.074 324.950,173.620 322.400 C 173.322 320.722,173.298 320.695,173.273 322.000 M216.828 322.600 C 218.485 325.149,219.212 325.891,218.004 323.800 C 217.495 322.920,216.730 321.840,216.304 321.400 C 215.877 320.960,216.113 321.500,216.828 322.600 M243.742 324.600 C 243.741 326.580,243.808 327.440,243.892 326.512 C 243.976 325.584,243.977 323.964,243.895 322.912 C 243.812 321.860,243.743 322.620,243.742 324.600 M163.939 326.011 C 164.048 328.797,163.908 330.021,163.277 331.774 C 162.837 332.998,162.618 333.912,162.790 333.806 C 163.964 333.081,165.008 324.377,164.094 322.937 C 163.932 322.683,163.862 324.066,163.939 326.011 M173.469 328.756 C 173.321 329.495,173.222 330.753,173.249 331.550 C 173.286 332.649,173.382 332.418,173.648 330.600 C 174.031 327.971,173.899 326.605,173.469 328.756 M230.456 329.200 C 230.456 329.530,230.611 330.160,230.800 330.600 C 231.017 331.104,231.144 331.178,231.144 330.800 C 231.144 330.470,230.989 329.840,230.800 329.400 C 230.583 328.896,230.456 328.822,230.456 329.200 M243.742 332.600 C 243.741 334.580,243.808 335.440,243.892 334.512 C 243.976 333.584,243.977 331.964,243.895 330.912 C 243.812 329.860,243.743 330.620,243.742 332.600 M221.438 334.200 C 221.770 336.184,222.002 336.504,221.994 334.967 C 221.991 334.325,221.804 333.530,221.579 333.200 C 221.286 332.770,221.246 333.054,221.438 334.200 M172.440 334.640 C 172.210 335.473,172.094 336.227,172.182 336.315 C 172.270 336.403,172.530 335.793,172.760 334.960 C 172.990 334.127,173.106 333.373,173.018 333.285 C 172.930 333.197,172.670 333.807,172.440 334.640 M231.378 339.200 C 231.369 344.738,231.384 344.852,231.722 341.722 C 231.922 339.866,231.926 337.350,231.732 335.922 C 231.438 333.769,231.387 334.248,231.378 339.200 M267.100 334.300 L 280.400 334.411 280.400 339.000 L 280.400 343.589 267.100 343.695 L 253.800 343.800 253.793 360.400 L 253.787 377.000 253.898 360.500 L 254.009 344.000 267.181 344.000 C 276.107 344.000,280.438 343.862,280.617 343.572 C 280.844 343.205,280.961 338.714,280.838 335.100 L 280.800 334.000 267.300 334.094 L 253.800 334.189 267.100 334.300 M160.607 336.626 C 160.009 337.411,159.601 338.134,159.701 338.234 C 159.801 338.334,160.362 337.693,160.947 336.808 C 162.265 334.816,162.068 334.711,160.607 336.626 M243.750 341.000 C 243.751 343.420,243.816 344.358,243.896 343.085 C 243.976 341.812,243.975 339.832,243.894 338.685 C 243.814 337.538,243.749 338.580,243.750 341.000 M157.600 339.649 C 156.206 340.871,156.205 340.872,157.488 340.019 C 158.196 339.548,158.882 338.991,159.012 338.781 C 159.397 338.157,159.077 338.354,157.600 339.649 M169.671 340.545 C 168.945 341.692,167.720 343.299,166.950 344.116 C 166.180 344.932,165.696 345.599,165.875 345.599 C 166.479 345.596,171.472 338.939,171.128 338.595 C 171.053 338.520,170.398 339.397,169.671 340.545 M221.454 343.554 C 221.300 344.518,221.258 345.391,221.361 345.494 C 221.630 345.763,222.115 342.945,221.907 342.322 C 221.812 342.036,221.608 342.590,221.454 343.554 M163.591 347.142 C 162.826 347.770,161.598 348.593,160.863 348.971 C 160.127 349.350,159.620 349.753,159.736 349.869 C 159.979 350.113,164.092 347.453,164.812 346.586 C 165.558 345.686,165.123 345.885,163.591 347.142 M243.720 348.000 C 243.720 349.210,243.795 349.705,243.887 349.100 C 243.978 348.495,243.978 347.505,243.887 346.900 C 243.795 346.295,243.720 346.790,243.720 348.000 M220.846 346.867 C 220.821 347.234,220.696 347.864,220.570 348.267 C 220.352 348.962,220.363 348.963,220.797 348.287 C 221.048 347.896,221.173 347.266,221.073 346.887 C 220.911 346.268,220.888 346.266,220.846 346.867 M230.673 347.353 C 230.523 347.745,230.411 348.366,230.425 348.733 C 230.442 349.175,230.581 349.074,230.837 348.434 C 231.049 347.903,231.161 347.282,231.085 347.054 C 231.009 346.827,230.824 346.961,230.673 347.353 M243.750 355.000 C 243.751 357.420,243.816 358.358,243.896 357.085 C 243.976 355.812,243.975 353.832,243.894 352.685 C 243.814 351.538,243.749 352.580,243.750 355.000 M152.800 352.000 C 151.416 352.291,151.414 352.295,152.600 352.341 C 153.260 352.367,154.070 352.213,154.400 352.000 C 155.066 351.570,154.845 351.570,152.800 352.000 M139.280 352.880 C 138.924 353.236,138.824 356.460,138.891 365.380 L 138.982 377.400 139.191 365.200 L 139.400 353.000 144.800 352.782 L 150.200 352.564 144.980 352.482 C 141.355 352.425,139.613 352.547,139.280 352.880 M217.393 354.500 C 214.747 358.541,210.033 362.995,207.300 364.037 C 206.805 364.226,206.400 364.469,206.400 364.577 C 206.400 366.563,216.254 357.678,218.242 353.900 C 219.108 352.253,218.654 352.574,217.393 354.500 M227.014 357.435 C 226.641 358.004,226.427 358.561,226.539 358.672 C 226.650 358.783,227.029 358.318,227.381 357.637 C 228.159 356.133,227.944 356.015,227.014 357.435 M243.750 364.600 C 243.751 367.020,243.816 367.958,243.896 366.685 C 243.976 365.412,243.975 363.432,243.894 362.285 C 243.814 361.138,243.749 362.180,243.750 364.600 M220.319 366.048 C 217.965 368.457,216.525 370.075,217.119 369.644 C 218.133 368.909,221.828 365.169,223.981 362.700 C 225.925 360.470,224.487 361.785,220.319 366.048 M203.135 365.798 C 203.026 365.907,201.781 366.263,200.368 366.588 C 198.160 367.097,198.069 367.149,199.718 366.963 C 201.707 366.737,205.081 365.678,203.967 365.628 C 203.618 365.613,203.244 365.689,203.135 365.798 M243.746 373.400 C 243.747 375.600,243.814 376.449,243.895 375.287 C 243.976 374.124,243.976 372.324,243.893 371.287 C 243.811 370.249,243.745 371.200,243.746 373.400 M213.496 371.558 C 211.060 372.987,210.519 373.544,212.600 372.480 C 214.145 371.691,216.010 370.418,215.600 370.433 C 215.490 370.437,214.543 370.943,213.496 371.558 M208.400 374.054 C 207.374 374.616,207.267 374.752,208.000 374.561 C 209.335 374.213,211.157 373.225,210.400 373.259 C 210.070 373.274,209.170 373.632,208.400 374.054 M201.600 376.000 C 200.836 376.494,201.658 376.494,203.200 376.000 L 204.200 375.680 203.200 375.646 C 202.650 375.627,201.930 375.787,201.600 376.000 M196.200 376.815 C 195.444 377.018,195.962 377.054,197.600 376.915 C 199.030 376.793,200.275 376.628,200.367 376.547 C 200.670 376.280,197.422 376.489,196.200 376.815 M45.600 390.524 C 45.600 391.069,45.882 391.623,46.226 391.755 C 46.714 391.942,46.825 391.759,46.726 390.928 C 46.561 389.536,45.600 389.191,45.600 390.524 M353.600 390.144 C 353.600 390.469,353.490 391.021,353.355 391.372 C 353.176 391.838,353.284 391.943,353.755 391.762 C 354.467 391.489,354.629 390.189,354.000 389.800 C 353.780 389.664,353.600 389.819,353.600 390.144 M48.400 396.077 C 48.400 396.187,48.760 396.693,49.200 397.200 C 49.640 397.707,50.000 397.943,50.000 397.723 C 50.000 397.504,49.640 396.998,49.200 396.600 C 48.760 396.202,48.400 395.966,48.400 396.077 M350.662 396.731 C 350.298 397.134,350.000 397.611,350.000 397.793 C 350.000 397.974,350.360 397.707,350.800 397.200 C 351.240 396.693,351.600 396.215,351.600 396.139 C 351.600 395.839,351.295 396.032,350.662 396.731 M51.200 399.200 C 51.200 399.420,51.470 399.600,51.800 399.600 C 52.130 399.600,52.400 399.420,52.400 399.200 C 52.400 398.980,52.130 398.800,51.800 398.800 C 51.470 398.800,51.200 398.980,51.200 399.200 M347.600 399.200 C 347.600 399.420,347.870 399.600,348.200 399.600 C 348.530 399.600,348.800 399.420,348.800 399.200 C 348.800 398.980,348.530 398.800,348.200 398.800 C 347.870 398.800,347.600 398.980,347.600 399.200 " stroke="none" fill="#dca69d" fill-rule="evenodd"></path><path id="path3" d="M212.493 68.000 C 212.493 68.770,212.575 69.085,212.676 68.700 C 212.776 68.315,212.776 67.685,212.676 67.300 C 212.575 66.915,212.493 67.230,212.493 68.000 M266.500 157.076 C 266.885 157.176,267.515 157.176,267.900 157.076 C 268.285 156.975,267.970 156.893,267.200 156.893 C 266.430 156.893,266.115 156.975,266.500 157.076 M242.370 158.500 C 242.999 159.213,243.701 159.581,244.370 159.546 L 245.400 159.491 244.400 159.310 C 243.850 159.211,242.950 158.741,242.400 158.265 L 241.400 157.400 242.370 158.500 M262.305 169.083 C 262.802 169.179,263.522 169.175,263.905 169.075 C 264.287 168.975,263.880 168.896,263.000 168.901 C 262.120 168.905,261.807 168.987,262.305 169.083 M45.600 334.357 C 45.600 383.017,45.671 389.542,46.200 389.745 C 46.732 389.949,46.800 383.656,46.800 334.587 C 46.800 285.621,46.730 279.200,46.200 279.200 C 45.670 279.200,45.600 285.595,45.600 334.357 M353.571 284.100 C 353.460 302.664,353.425 391.224,353.529 390.494 C 353.599 389.996,353.824 389.691,354.029 389.818 C 354.256 389.958,354.400 368.626,354.400 334.624 C 354.400 297.941,354.265 279.200,354.000 279.200 C 353.757 279.200,353.589 281.119,353.571 284.100 M129.061 300.700 C 128.958 300.865,130.792 300.953,133.137 300.895 C 141.002 300.700,141.847 300.552,135.524 300.476 C 132.072 300.434,129.163 300.535,129.061 300.700 M145.312 300.695 C 146.364 300.777,147.984 300.776,148.912 300.692 C 149.840 300.608,148.980 300.541,147.000 300.542 C 145.020 300.543,144.260 300.612,145.312 300.695 M186.112 300.695 C 187.164 300.777,188.784 300.776,189.712 300.692 C 190.640 300.608,189.780 300.541,187.800 300.542 C 185.820 300.543,185.060 300.612,186.112 300.695 M243.867 300.667 C 243.720 300.813,243.603 301.128,243.606 301.367 C 243.610 301.627,243.738 301.602,243.927 301.304 C 244.168 300.924,248.492 300.783,262.421 300.700 L 280.600 300.592 262.367 300.496 C 252.338 300.443,244.013 300.520,243.867 300.667 M183.792 339.200 C 183.792 360.210,183.841 368.805,183.900 358.300 C 183.959 347.795,183.959 330.605,183.900 320.100 C 183.841 309.595,183.792 318.190,183.792 339.200 M255.500 310.689 C 256.215 310.778,257.385 310.778,258.100 310.689 C 258.815 310.601,258.230 310.528,256.800 310.528 C 255.370 310.528,254.785 310.601,255.500 310.689 M263.318 310.698 C 265.033 310.773,267.733 310.772,269.318 310.697 C 270.903 310.621,269.500 310.559,266.200 310.560 C 262.900 310.561,261.603 310.622,263.318 310.698 M274.311 310.693 C 275.251 310.778,276.691 310.777,277.511 310.691 C 278.330 310.605,277.560 310.536,275.800 310.537 C 274.040 310.539,273.370 310.609,274.311 310.693 M194.905 311.087 C 195.514 311.179,196.414 311.177,196.905 311.082 C 197.397 310.987,196.900 310.911,195.800 310.914 C 194.700 310.917,194.297 310.995,194.905 311.087 M254.700 333.882 C 255.195 333.978,256.005 333.978,256.500 333.882 C 256.995 333.787,256.590 333.709,255.600 333.709 C 254.610 333.709,254.205 333.787,254.700 333.882 M264.900 333.897 C 266.385 333.974,268.815 333.974,270.300 333.897 C 271.785 333.820,270.570 333.757,267.600 333.757 C 264.630 333.757,263.415 333.820,264.900 333.897 M275.505 333.883 C 276.002 333.979,276.722 333.975,277.105 333.875 C 277.487 333.775,277.080 333.696,276.200 333.701 C 275.320 333.705,275.007 333.787,275.505 333.883 M278.500 333.876 C 278.885 333.976,279.515 333.976,279.900 333.876 C 280.285 333.775,279.970 333.693,279.200 333.693 C 278.430 333.693,278.115 333.775,278.500 333.876 M221.709 337.600 C 221.709 338.590,221.787 338.995,221.882 338.500 C 221.978 338.005,221.978 337.195,221.882 336.700 C 221.787 336.205,221.709 336.610,221.709 337.600 M280.901 341.000 C 280.905 341.880,280.987 342.193,281.083 341.695 C 281.179 341.198,281.175 340.478,281.075 340.095 C 280.975 339.713,280.896 340.120,280.901 341.000 M231.693 342.400 C 231.693 343.170,231.775 343.485,231.876 343.100 C 231.976 342.715,231.976 342.085,231.876 341.700 C 231.775 341.315,231.693 341.630,231.693 342.400 M141.700 353.096 C 142.965 353.175,145.035 353.175,146.300 353.096 C 147.565 353.016,146.530 352.951,144.000 352.951 C 141.470 352.951,140.435 353.016,141.700 353.096 M131.500 377.496 C 132.875 377.574,135.125 377.574,136.500 377.496 C 137.875 377.418,136.750 377.354,134.000 377.354 C 131.250 377.354,130.125 377.418,131.500 377.496 M186.716 377.497 C 188.099 377.575,190.259 377.574,191.516 377.495 C 192.772 377.416,191.640 377.352,189.000 377.353 C 186.360 377.353,185.332 377.418,186.716 377.497 M246.300 377.496 C 247.675 377.574,249.925 377.574,251.300 377.496 C 252.675 377.418,251.550 377.354,248.800 377.354 C 246.050 377.354,244.925 377.418,246.300 377.496 " stroke="none" fill="#dc948c" fill-rule="evenodd"></path><path id="path4" d="M188.778 53.900 L 187.400 55.400 188.900 54.022 C 189.725 53.263,190.400 52.588,190.400 52.522 C 190.400 52.216,190.062 52.504,188.778 53.900 M184.101 65.400 C 184.105 66.280,184.187 66.593,184.283 66.095 C 184.379 65.598,184.375 64.878,184.275 64.495 C 184.175 64.113,184.096 64.520,184.101 65.400 M183.720 69.600 C 183.720 70.810,183.795 71.305,183.887 70.700 C 183.978 70.095,183.978 69.105,183.887 68.500 C 183.795 67.895,183.720 68.390,183.720 69.600 M193.852 70.500 C 193.506 71.791,193.544 77.118,193.900 77.338 C 194.065 77.439,194.200 75.740,194.200 73.561 C 194.200 69.214,194.199 69.205,193.852 70.500 M201.742 73.000 C 201.741 74.980,201.808 75.840,201.892 74.912 C 201.976 73.984,201.977 72.364,201.895 71.312 C 201.812 70.260,201.743 71.020,201.742 73.000 M211.782 76.982 C 211.629 78.002,211.594 78.927,211.704 79.037 C 211.814 79.147,212.029 78.402,212.182 77.382 C 212.335 76.361,212.370 75.437,212.260 75.327 C 212.150 75.217,211.935 75.961,211.782 76.982 M211.049 83.015 C 210.912 83.373,210.815 83.966,210.834 84.333 C 210.853 84.700,211.027 84.469,211.221 83.820 C 211.598 82.558,211.465 81.933,211.049 83.015 M198.062 84.569 C 198.735 85.307,199.605 85.141,199.594 84.276 C 199.590 83.977,199.452 84.014,199.224 84.374 C 198.914 84.864,198.754 84.868,198.130 84.396 C 197.443 83.876,197.439 83.887,198.062 84.569 M210.256 87.684 C 210.121 88.188,210.027 88.960,210.046 89.400 C 210.065 89.840,210.245 89.498,210.446 88.640 C 210.836 86.978,210.670 86.140,210.256 87.684 M209.449 92.215 C 209.312 92.573,209.215 93.166,209.234 93.533 C 209.253 93.900,209.427 93.669,209.621 93.020 C 209.998 91.758,209.865 91.133,209.449 92.215 M208.649 95.815 C 208.512 96.173,208.415 96.766,208.434 97.133 C 208.453 97.500,208.627 97.269,208.821 96.620 C 209.198 95.358,209.065 94.733,208.649 95.815 M207.849 99.415 C 207.712 99.773,207.618 100.456,207.641 100.933 C 207.667 101.481,207.803 101.286,208.010 100.403 C 208.360 98.916,208.265 98.333,207.849 99.415 M207.043 103.033 C 206.701 103.923,206.740 106.316,207.100 106.537 C 207.265 106.638,207.400 105.748,207.400 104.560 C 207.400 102.171,207.390 102.128,207.043 103.033 M194.156 106.678 C 194.182 107.452,194.345 107.813,194.567 107.591 C 194.790 107.370,194.772 106.867,194.523 106.313 C 194.140 105.463,194.114 105.488,194.156 106.678 M219.149 127.800 C 219.365 128.240,219.834 128.960,220.193 129.400 L 220.844 130.200 220.451 129.400 C 220.235 128.960,219.766 128.240,219.407 127.800 L 218.756 127.000 219.149 127.800 M211.822 137.900 C 213.959 141.195,214.524 142.000,214.699 142.000 C 214.805 142.000,214.571 141.505,214.178 140.900 C 212.041 137.605,211.476 136.800,211.301 136.800 C 211.195 136.800,211.429 137.295,211.822 137.900 M216.391 144.788 C 216.857 145.441,217.442 146.102,217.691 146.256 C 217.941 146.411,217.641 145.876,217.025 145.068 C 215.688 143.315,215.184 143.092,216.391 144.788 M181.691 147.700 C 181.010 149.584,181.104 150.094,181.826 148.430 C 182.153 147.677,182.366 146.899,182.301 146.702 C 182.235 146.505,181.960 146.954,181.691 147.700 M232.800 147.725 C 232.800 147.794,233.385 148.379,234.100 149.025 L 235.400 150.200 234.225 148.900 C 233.130 147.688,232.800 147.416,232.800 147.725 M220.575 150.532 C 221.191 151.339,221.776 152.000,221.875 152.000 C 222.153 152.000,220.421 149.660,219.909 149.344 C 219.659 149.189,219.959 149.724,220.575 150.532 M257.800 157.600 L 255.800 157.874 257.600 157.902 C 258.590 157.917,260.300 157.790,261.400 157.618 L 263.400 157.307 261.600 157.316 C 260.610 157.321,258.900 157.449,257.800 157.600 M272.600 157.623 C 274.737 158.065,276.204 158.050,274.800 157.600 C 274.250 157.424,273.170 157.283,272.400 157.286 L 271.000 157.292 272.600 157.623 M251.200 158.400 C 249.833 158.688,249.828 158.695,251.000 158.719 C 251.660 158.733,252.560 158.589,253.000 158.400 C 253.962 157.987,253.164 157.987,251.200 158.400 M246.200 159.200 C 245.093 159.482,245.077 159.509,246.000 159.547 C 246.550 159.569,247.270 159.413,247.600 159.200 C 248.281 158.760,247.929 158.760,246.200 159.200 M288.924 170.200 C 288.926 171.520,289.001 172.012,289.090 171.293 C 289.179 170.574,289.177 169.494,289.086 168.893 C 288.995 168.292,288.922 168.880,288.924 170.200 M256.267 169.467 C 256.120 169.613,256.003 169.928,256.006 170.167 C 256.010 170.451,256.114 170.441,256.307 170.136 C 256.470 169.881,257.142 169.593,257.801 169.496 L 259.000 169.320 257.767 169.260 C 257.088 169.227,256.413 169.320,256.267 169.467 M236.446 172.763 C 236.106 172.978,236.612 173.033,237.756 172.904 C 239.193 172.742,239.800 172.857,240.410 173.409 C 240.844 173.802,241.200 173.981,241.200 173.806 C 241.200 172.694,237.751 171.937,236.446 172.763 M233.000 173.600 C 231.981 174.038,233.032 174.038,234.400 173.600 C 235.204 173.343,235.243 173.277,234.600 173.268 C 234.160 173.262,233.440 173.411,233.000 173.600 M183.303 176.000 C 183.504 176.739,184.737 177.023,185.300 176.460 C 185.587 176.173,185.438 176.117,184.817 176.280 C 184.270 176.423,183.766 176.296,183.529 175.957 C 183.205 175.494,183.167 175.501,183.303 176.000 M264.741 176.501 C 264.943 176.703,265.533 176.801,266.054 176.719 C 266.855 176.593,266.798 176.537,265.687 176.352 C 264.893 176.221,264.519 176.279,264.741 176.501 M286.653 177.300 L 285.933 178.600 286.758 177.600 C 287.489 176.713,287.814 176.000,287.486 176.000 C 287.424 176.000,287.049 176.585,286.653 177.300 M267.905 176.683 C 268.402 176.779,269.122 176.775,269.505 176.675 C 269.887 176.575,269.480 176.496,268.600 176.501 C 267.720 176.505,267.407 176.587,267.905 176.683 M247.200 178.925 C 247.200 179.024,247.861 179.609,248.668 180.225 C 249.476 180.841,250.011 181.141,249.856 180.891 C 249.540 180.379,247.200 178.647,247.200 178.925 M282.581 182.900 L 281.000 184.600 282.700 183.019 C 284.281 181.548,284.584 181.200,284.281 181.200 C 284.216 181.200,283.451 181.965,282.581 182.900 M167.262 183.326 C 167.022 183.615,165.920 184.275,164.814 184.794 C 163.708 185.312,162.874 185.807,162.961 185.895 C 163.214 186.148,166.996 184.128,167.574 183.431 C 167.862 183.084,168.008 182.800,167.898 182.800 C 167.788 182.800,167.502 183.037,167.262 183.326 M265.300 188.276 C 265.685 188.376,266.315 188.376,266.700 188.276 C 267.085 188.175,266.770 188.093,266.000 188.093 C 265.230 188.093,264.915 188.175,265.300 188.276 M271.500 188.282 C 271.995 188.378,272.805 188.378,273.300 188.282 C 273.795 188.187,273.390 188.109,272.400 188.109 C 271.410 188.109,271.005 188.187,271.500 188.282 M142.924 196.991 C 141.788 197.756,140.736 198.579,140.587 198.820 C 140.354 199.198,143.903 196.862,144.980 195.929 C 145.847 195.178,144.856 195.690,142.924 196.991 M135.318 203.100 C 132.873 205.472,132.743 205.643,134.762 203.829 C 138.678 200.308,138.999 200.000,138.745 200.000 C 138.617 200.000,137.075 201.395,135.318 203.100 M156.576 202.222 C 155.812 202.834,155.813 202.838,156.600 202.476 C 157.040 202.274,157.625 202.189,157.900 202.287 C 158.175 202.386,158.400 202.272,158.400 202.033 C 158.400 201.406,157.476 201.502,156.576 202.222 M157.053 204.100 L 156.333 205.400 157.158 204.400 C 157.889 203.513,158.214 202.800,157.886 202.800 C 157.824 202.800,157.449 203.385,157.053 204.100 M167.800 208.400 C 167.459 209.060,167.269 209.600,167.379 209.600 C 167.489 209.600,167.859 209.060,168.200 208.400 C 168.541 207.740,168.731 207.200,168.621 207.200 C 168.511 207.200,168.141 207.740,167.800 208.400 M150.141 215.100 C 149.536 215.925,148.762 216.946,148.421 217.369 C 148.079 217.792,148.008 218.016,148.263 217.868 C 148.771 217.573,151.709 213.600,151.420 213.600 C 151.321 213.600,150.746 214.275,150.141 215.100 M124.575 220.228 C 124.424 221.234,124.461 222.616,124.657 223.299 C 124.946 224.306,125.018 223.958,125.040 221.471 C 125.070 217.942,124.961 217.651,124.575 220.228 M159.292 222.229 C 158.797 222.983,158.472 223.600,158.569 223.600 C 158.847 223.600,160.504 221.171,160.339 221.006 C 160.257 220.924,159.786 221.474,159.292 222.229 M143.106 223.411 C 142.284 224.175,141.754 224.800,141.927 224.800 C 142.101 224.800,142.854 224.170,143.600 223.400 C 145.341 221.603,145.043 221.610,143.106 223.411 M153.026 229.918 C 150.381 232.791,150.103 233.176,151.957 231.400 C 154.157 229.292,157.107 225.968,156.734 226.018 C 156.660 226.028,154.992 227.783,153.026 229.918 M129.897 233.226 C 130.830 234.215,132.180 235.341,132.897 235.729 C 134.156 236.411,134.166 236.410,133.200 235.719 C 132.650 235.325,131.300 234.198,130.200 233.216 L 128.200 231.429 129.897 233.226 M142.400 237.200 C 141.576 237.464,141.541 237.526,142.200 237.554 C 142.640 237.573,143.270 237.413,143.600 237.200 C 144.301 236.747,143.814 236.747,142.400 237.200 M199.888 279.100 L 353.176 279.201 353.307 284.201 L 353.437 289.201 353.419 284.101 L 353.400 279.000 200.000 278.999 L 46.600 278.998 199.888 279.100 M353.331 292.600 C 353.333 294.140,353.405 294.721,353.492 293.891 C 353.579 293.061,353.577 291.801,353.489 291.091 C 353.400 290.381,353.329 291.060,353.331 292.600 M353.344 302.800 C 353.344 304.890,353.412 305.745,353.494 304.700 C 353.576 303.655,353.576 301.945,353.494 300.900 C 353.412 299.855,353.344 300.710,353.344 302.800 M192.500 300.691 C 193.325 300.778,194.675 300.778,195.500 300.691 C 196.325 300.605,195.650 300.534,194.000 300.534 C 192.350 300.534,191.675 300.605,192.500 300.691 M153.800 301.139 C 155.037 301.668,157.110 302.077,156.400 301.651 C 156.070 301.454,155.170 301.180,154.400 301.044 C 153.456 300.877,153.260 300.908,153.800 301.139 M199.600 301.200 C 200.150 301.376,200.960 301.520,201.400 301.520 C 202.033 301.520,201.992 301.454,201.200 301.200 C 200.650 301.024,199.840 300.880,199.400 300.880 C 198.767 300.880,198.808 300.946,199.600 301.200 M353.342 310.600 C 353.341 312.580,353.408 313.440,353.492 312.512 C 353.576 311.584,353.577 309.964,353.495 308.912 C 353.412 307.860,353.343 308.620,353.342 310.600 M220.434 311.047 C 220.965 311.733,221.480 312.223,221.579 312.135 C 221.677 312.047,221.243 311.486,220.613 310.888 L 219.469 309.800 220.434 311.047 M280.559 310.401 C 280.329 310.631,274.806 310.834,266.986 310.900 L 253.800 311.011 267.000 311.100 C 278.859 311.179,281.924 310.990,281.162 310.228 C 281.043 310.110,280.772 310.188,280.559 310.401 M142.100 311.097 C 143.805 311.172,146.595 311.172,148.300 311.097 C 150.005 311.022,148.610 310.961,145.200 310.961 C 141.790 310.961,140.395 311.022,142.100 311.097 M199.200 311.600 C 200.568 312.038,201.619 312.038,200.600 311.600 C 200.160 311.411,199.440 311.262,199.000 311.268 C 198.357 311.277,198.396 311.343,199.200 311.600 M154.400 312.179 C 154.400 312.289,154.940 312.659,155.600 313.000 C 156.260 313.341,156.800 313.531,156.800 313.421 C 156.800 313.311,156.260 312.941,155.600 312.600 C 154.940 312.259,154.400 312.069,154.400 312.179 M353.320 316.800 C 353.320 318.010,353.395 318.505,353.487 317.900 C 353.578 317.295,353.578 316.305,353.487 315.700 C 353.395 315.095,353.320 315.590,353.320 316.800 M160.034 316.647 C 160.565 317.333,161.080 317.823,161.179 317.735 C 161.277 317.647,160.843 317.086,160.213 316.488 L 159.069 315.400 160.034 316.647 M173.877 323.600 C 174.003 325.030,174.172 326.275,174.253 326.367 C 174.542 326.695,174.314 322.980,173.984 322.000 C 173.774 321.373,173.734 321.970,173.877 323.600 M163.268 322.800 C 163.288 323.839,163.918 325.546,163.932 324.600 C 163.938 324.160,163.789 323.440,163.600 323.000 C 163.389 322.510,163.261 322.432,163.268 322.800 M174.062 328.800 C 174.022 329.570,173.896 330.650,173.783 331.200 L 173.577 332.200 174.008 331.214 C 174.244 330.671,174.370 329.591,174.286 328.814 L 174.134 327.400 174.062 328.800 M163.654 328.667 C 163.625 329.144,163.496 329.864,163.370 330.267 C 163.152 330.961,163.164 330.962,163.596 330.288 C 163.847 329.897,163.975 329.177,163.881 328.688 C 163.709 327.801,163.709 327.801,163.654 328.667 M353.334 331.600 C 353.334 333.250,353.405 333.925,353.491 333.100 C 353.578 332.275,353.578 330.925,353.491 330.100 C 353.405 329.275,353.334 329.950,353.334 331.600 M220.828 333.433 C 220.844 334.075,221.016 334.960,221.210 335.400 C 221.447 335.934,221.486 335.602,221.327 334.400 C 221.046 332.280,220.788 331.780,220.828 333.433 M232.131 339.000 C 232.133 340.540,232.205 341.121,232.292 340.291 C 232.379 339.461,232.377 338.201,232.289 337.491 C 232.200 336.781,232.129 337.460,232.131 339.000 M353.293 338.000 C 353.293 338.770,353.375 339.085,353.476 338.700 C 353.576 338.315,353.576 337.685,353.476 337.300 C 353.375 336.915,353.293 337.230,353.293 338.000 M158.000 338.849 C 156.606 340.071,156.605 340.072,157.888 339.219 C 158.596 338.748,159.282 338.191,159.412 337.981 C 159.797 337.357,159.477 337.554,158.000 338.849 M148.600 342.400 L 147.000 342.686 148.400 342.696 C 149.170 342.701,150.340 342.568,151.000 342.400 C 152.628 341.986,150.913 341.986,148.600 342.400 M279.400 344.000 L 277.800 344.286 279.276 344.343 C 280.088 344.374,280.864 344.220,281.000 344.000 C 281.136 343.780,281.192 343.626,281.124 343.657 C 281.056 343.688,280.280 343.842,279.400 344.000 M257.091 344.289 C 257.801 344.377,259.061 344.379,259.891 344.292 C 260.721 344.205,260.140 344.133,258.600 344.131 C 257.060 344.129,256.381 344.200,257.091 344.289 M262.305 344.283 C 262.802 344.379,263.522 344.375,263.905 344.275 C 264.287 344.175,263.880 344.096,263.000 344.101 C 262.120 344.105,261.807 344.187,262.305 344.283 M267.100 344.296 C 268.475 344.374,270.725 344.374,272.100 344.296 C 273.475 344.218,272.350 344.154,269.600 344.154 C 266.850 344.154,265.725 344.218,267.100 344.296 M275.505 344.283 C 276.002 344.379,276.722 344.375,277.105 344.275 C 277.487 344.175,277.080 344.096,276.200 344.101 C 275.320 344.105,275.007 344.187,275.505 344.283 M353.293 347.200 C 353.293 347.970,353.375 348.285,353.476 347.900 C 353.576 347.515,353.576 346.885,353.476 346.500 C 353.375 346.115,353.293 346.430,353.293 347.200 M149.800 352.800 L 148.200 353.086 149.600 353.096 C 150.370 353.101,151.540 352.968,152.200 352.800 C 153.828 352.386,152.113 352.386,149.800 352.800 M215.201 356.998 C 214.686 357.548,214.339 358.064,214.432 358.146 C 214.524 358.228,215.019 357.778,215.530 357.147 C 216.676 355.735,216.474 355.644,215.201 356.998 M208.300 363.029 C 206.805 363.840,206.896 364.178,208.400 363.400 C 209.060 363.059,209.600 362.694,209.600 362.590 C 209.600 362.332,209.557 362.347,208.300 363.029 M222.975 364.100 L 221.800 365.400 223.100 364.225 C 223.815 363.579,224.400 362.994,224.400 362.925 C 224.400 362.616,224.070 362.888,222.975 364.100 M353.293 364.400 C 353.293 365.170,353.375 365.485,353.476 365.100 C 353.576 364.715,353.576 364.085,353.476 363.700 C 353.375 363.315,353.293 363.630,353.293 364.400 M201.200 366.000 C 200.667 366.345,200.667 366.388,201.200 366.388 C 201.530 366.388,202.070 366.213,202.400 366.000 C 202.933 365.655,202.933 365.612,202.400 365.612 C 202.070 365.612,201.530 365.787,201.200 366.000 M198.100 366.676 C 198.485 366.776,199.115 366.776,199.500 366.676 C 199.885 366.575,199.570 366.493,198.800 366.493 C 198.030 366.493,197.715 366.575,198.100 366.676 M194.500 367.076 C 194.885 367.176,195.515 367.176,195.900 367.076 C 196.285 366.975,195.970 366.893,195.200 366.893 C 194.430 366.893,194.115 366.975,194.500 367.076 M202.000 376.400 C 201.176 376.664,201.141 376.726,201.800 376.754 C 202.240 376.773,202.870 376.613,203.200 376.400 C 203.901 375.947,203.414 375.947,202.000 376.400 M353.365 382.800 C 353.365 386.650,353.425 388.225,353.498 386.300 C 353.571 384.375,353.571 381.225,353.498 379.300 C 353.425 377.375,353.365 378.950,353.365 382.800 M194.707 377.490 C 195.426 377.579,196.506 377.577,197.107 377.486 C 197.708 377.395,197.120 377.322,195.800 377.324 C 194.480 377.326,193.988 377.401,194.707 377.490 M46.901 391.000 C 46.905 391.880,46.987 392.193,47.083 391.695 C 47.179 391.198,47.175 390.478,47.075 390.095 C 46.975 389.713,46.896 390.120,46.901 391.000 M352.847 392.076 C 352.821 392.668,352.620 393.264,352.400 393.400 C 352.180 393.536,352.003 393.862,352.006 394.124 C 352.010 394.459,352.099 394.470,352.306 394.160 C 352.468 393.918,352.786 393.648,353.013 393.560 C 353.255 393.466,353.316 392.903,353.160 392.200 C 352.896 391.008,352.894 391.007,352.847 392.076 M46.612 393.181 C 46.469 393.411,46.618 393.600,46.943 393.600 C 47.268 393.600,47.624 393.825,47.735 394.100 C 47.862 394.414,47.949 394.432,47.968 394.149 C 48.017 393.455,46.924 392.675,46.612 393.181 M349.100 397.876 C 348.268 398.093,348.159 398.800,348.957 398.800 C 349.264 398.800,349.618 398.530,349.745 398.200 C 349.871 397.870,349.936 397.621,349.887 397.646 C 349.839 397.672,349.485 397.775,349.100 397.876 M54.200 399.600 C 55.301 400.073,55.692 400.073,55.400 399.600 C 55.264 399.380,54.758 399.213,54.276 399.228 C 53.431 399.255,53.429 399.269,54.200 399.600 " stroke="none" fill="#cc8484" fill-rule="evenodd"></path></g></svg>