<svg xmlns="http://www.w3.org/2000/svg" xmlns:xlink="http://www.w3.org/1999/xlink" id="svg" width="400" height="400" viewBox="0, 0, 400,400"><g id="svgg"><path id="path0" d="M147.000 119.560 C 146.340 119.976,136.935 129.204,126.100 140.068 L 106.400 159.819 106.400 162.137 C 106.400 165.476,106.396 165.471,127.891 186.900 L 147.051 206.000 149.826 206.000 C 153.843 205.999,156.000 203.898,156.000 199.986 C 156.000 197.012,155.553 196.491,137.829 178.802 C 129.123 170.113,122.000 162.751,122.000 162.443 C 122.000 162.134,129.470 154.436,138.600 145.335 C 147.730 136.235,155.200 128.522,155.200 128.195 C 155.200 127.868,155.380 127.600,155.600 127.600 C 155.827 127.600,156.000 126.440,156.000 124.919 C 156.000 120.041,150.979 117.051,147.000 119.560 M245.789 120.589 C 244.111 122.268,244.000 122.513,244.000 124.544 C 244.000 127.824,244.005 127.830,261.884 145.697 L 278.592 162.395 261.995 179.097 C 242.548 198.668,244.000 196.996,244.000 199.810 C 244.000 203.927,246.064 206.000,250.164 206.000 L 252.949 206.000 272.109 186.900 C 293.469 165.606,293.600 165.456,293.600 162.260 C 293.600 159.534,294.979 161.082,272.301 138.339 C 252.169 118.148,252.917 118.800,249.852 118.800 C 247.693 118.800,247.489 118.890,245.789 120.589 M171.768 157.295 C 167.988 159.889,167.825 164.700,171.424 167.445 C 177.340 171.958,184.466 163.904,179.532 158.280 C 177.759 156.258,173.978 155.778,171.768 157.295 M196.955 157.162 C 190.022 161.390,196.128 171.931,203.147 167.849 C 207.029 165.591,207.004 159.576,203.104 157.198 C 201.420 156.171,198.607 156.155,196.955 157.162 M222.217 156.924 C 216.841 160.195,218.271 168.003,224.356 168.609 C 230.226 169.193,233.525 162.369,229.378 158.222 C 227.553 156.397,224.108 155.773,222.217 156.924 M47.200 335.816 C 47.200 398.409,47.011 393.581,49.565 396.283 C 50.024 396.769,50.400 397.354,50.400 397.583 C 50.400 397.812,50.670 398.000,51.000 398.000 C 51.330 398.000,51.939 398.339,52.353 398.753 C 52.839 399.239,53.462 399.439,54.107 399.316 C 54.656 399.211,55.228 399.322,55.377 399.562 C 55.762 400.186,343.838 400.186,344.224 399.562 C 344.373 399.320,345.041 399.203,345.708 399.301 C 346.535 399.423,347.156 399.244,347.660 398.740 C 348.067 398.333,348.670 398.000,349.000 398.000 C 349.330 398.000,349.600 397.854,349.600 397.675 C 349.600 397.497,349.943 396.982,350.363 396.532 C 350.783 396.081,351.544 394.922,352.055 393.956 L 352.984 392.200 353.026 335.700 L 353.068 279.200 200.134 279.200 L 47.200 279.200 47.200 335.816 M122.946 299.774 C 123.298 300.310,123.948 301.390,124.392 302.174 C 125.177 303.559,126.012 305.023,127.544 307.700 C 127.953 308.415,128.853 309.953,129.544 311.118 C 130.235 312.282,130.800 313.330,130.800 313.446 C 130.800 313.561,131.340 314.441,132.000 315.400 C 132.660 316.359,133.200 317.231,133.200 317.337 C 133.200 317.777,136.493 323.200,136.760 323.200 C 136.921 323.200,137.414 322.525,137.856 321.700 C 139.036 319.499,139.774 318.226,140.000 318.000 C 140.110 317.890,140.425 317.395,140.700 316.900 C 140.975 316.405,141.425 315.595,141.700 315.100 C 141.975 314.605,142.294 314.110,142.410 314.000 C 142.525 313.890,143.065 312.945,143.609 311.900 C 144.153 310.855,144.734 310.000,144.899 310.000 C 145.065 310.000,145.200 309.640,145.200 309.200 C 145.200 308.760,145.380 308.400,145.600 308.400 C 145.820 308.400,146.000 308.228,146.000 308.017 C 146.000 307.513,150.145 300.401,150.964 299.500 C 152.264 298.070,164.486 298.633,163.317 300.070 C 163.079 300.361,162.523 301.250,162.080 302.045 C 160.469 304.938,160.196 305.404,160.000 305.600 C 159.890 305.710,159.575 306.205,159.300 306.700 C 159.025 307.195,158.575 308.005,158.300 308.500 C 158.025 308.995,157.710 309.490,157.599 309.600 C 157.489 309.710,157.135 310.340,156.812 311.000 C 156.489 311.660,155.724 312.952,155.112 313.872 C 154.501 314.792,154.000 315.624,154.000 315.721 C 154.000 315.819,152.448 318.576,150.551 321.849 C 145.854 329.953,145.715 330.193,144.762 331.900 C 144.302 332.725,143.762 333.571,143.562 333.780 C 142.951 334.421,143.150 335.183,144.400 337.000 C 145.060 337.959,145.600 338.864,145.600 339.010 C 145.600 339.157,145.955 339.775,146.390 340.385 C 146.824 340.995,147.832 342.733,148.631 344.247 C 149.429 345.761,150.334 347.284,150.641 347.631 C 150.949 347.979,151.200 348.360,151.200 348.480 C 151.200 348.599,152.370 350.709,153.800 353.170 C 155.230 355.630,156.400 357.813,156.400 358.022 C 156.400 358.230,156.580 358.400,156.800 358.400 C 157.020 358.400,157.200 358.760,157.200 359.200 C 157.200 359.640,157.358 360.000,157.551 360.000 C 157.745 360.000,158.127 360.540,158.400 361.200 C 158.673 361.860,159.055 362.400,159.249 362.400 C 159.442 362.400,159.600 362.760,159.600 363.200 C 159.600 363.640,159.759 364.000,159.953 364.000 C 160.148 364.000,160.410 364.315,160.536 364.700 C 160.662 365.085,161.321 366.300,162.000 367.400 C 162.679 368.500,163.338 369.715,163.464 370.100 C 163.590 370.485,163.831 370.800,164.000 370.800 C 164.169 370.800,164.413 371.115,164.542 371.500 C 164.789 372.232,165.780 373.995,166.947 375.775 C 168.041 377.445,167.553 377.600,161.204 377.600 L 155.254 377.600 154.427 376.438 C 153.972 375.799,153.600 375.188,153.600 375.079 C 153.600 374.917,151.485 371.226,150.002 368.800 C 149.098 367.321,146.160 362.086,145.625 361.000 C 145.300 360.340,144.936 359.710,144.817 359.600 C 144.698 359.490,144.403 359.040,144.162 358.600 C 143.122 356.698,142.587 355.787,142.400 355.600 C 142.213 355.413,141.678 354.502,140.638 352.600 C 140.397 352.160,140.110 351.710,139.999 351.600 C 139.889 351.490,139.529 350.860,139.200 350.200 C 138.871 349.540,138.511 348.910,138.400 348.800 C 138.289 348.690,137.944 348.105,137.632 347.500 C 136.718 345.727,136.791 345.647,132.738 352.845 C 132.442 353.370,132.110 353.890,131.999 354.000 C 131.889 354.110,131.535 354.740,131.214 355.400 C 130.892 356.060,130.328 357.050,129.961 357.600 C 129.594 358.150,128.913 359.275,128.447 360.100 C 127.981 360.925,127.240 362.230,126.800 363.000 C 126.360 363.770,125.619 365.075,125.153 365.900 C 124.687 366.725,123.996 367.850,123.616 368.400 C 123.236 368.950,122.673 369.985,122.365 370.700 C 122.057 371.415,121.669 372.000,121.502 372.000 C 121.336 372.000,121.200 372.201,121.200 372.448 C 121.200 372.694,120.557 373.954,119.771 375.248 L 118.342 377.600 112.171 377.600 C 106.952 377.600,106.000 377.507,106.000 377.000 C 106.000 376.670,106.138 376.400,106.306 376.400 C 106.474 376.400,106.918 375.725,107.294 374.900 C 107.981 373.388,109.229 371.170,109.601 370.800 C 109.711 370.690,110.065 370.060,110.388 369.400 C 110.711 368.740,111.476 367.448,112.088 366.528 C 112.699 365.608,113.200 364.768,113.200 364.661 C 113.200 364.554,114.037 363.056,115.061 361.333 C 116.084 359.610,117.461 357.210,118.122 356.000 C 118.782 354.790,119.655 353.322,120.061 352.738 C 120.467 352.154,120.800 351.588,120.800 351.479 C 120.800 351.371,121.520 350.097,122.400 348.648 C 123.280 347.200,124.000 345.831,124.000 345.607 C 124.000 345.383,124.146 345.200,124.325 345.200 C 124.504 345.200,124.898 344.570,125.200 343.800 C 125.502 343.030,125.862 342.400,126.000 342.400 C 126.138 342.400,126.498 341.770,126.800 341.000 C 127.102 340.230,127.496 339.600,127.675 339.600 C 127.854 339.600,128.000 339.428,128.000 339.218 C 128.000 339.007,128.545 337.911,129.211 336.781 L 130.423 334.726 129.283 332.863 C 128.657 331.838,127.888 330.415,127.574 329.700 C 127.261 328.985,126.869 328.400,126.702 328.400 C 126.536 328.400,126.400 328.130,126.400 327.800 C 126.400 327.470,126.264 327.200,126.098 327.200 C 125.931 327.200,125.541 326.615,125.230 325.900 C 124.919 325.185,124.560 324.510,124.432 324.400 C 124.161 324.166,123.393 322.842,122.230 320.600 C 121.774 319.720,121.310 318.910,121.200 318.800 C 121.090 318.690,120.744 318.150,120.430 317.600 C 120.117 317.050,118.362 314.007,116.530 310.838 C 114.699 307.668,113.200 305.032,113.200 304.978 C 113.200 304.925,112.463 303.669,111.563 302.187 C 109.502 298.794,109.472 298.814,116.654 298.806 C 122.207 298.800,122.319 298.817,122.946 299.774 M189.204 299.404 C 189.887 300.228,191.170 302.444,191.458 303.300 C 191.587 303.685,191.808 304.000,191.949 304.000 C 192.090 304.000,192.458 304.585,192.768 305.300 C 193.077 306.015,193.801 307.320,194.377 308.200 C 194.953 309.080,195.689 310.340,196.012 311.000 C 196.335 311.660,196.704 312.290,196.834 312.400 C 196.963 312.510,197.612 313.590,198.277 314.800 C 198.943 316.010,201.042 319.671,202.943 322.935 C 204.844 326.199,206.400 329.034,206.400 329.235 C 206.400 329.436,206.580 329.600,206.800 329.600 C 207.020 329.600,207.200 329.960,207.200 330.400 C 207.200 330.840,207.352 331.200,207.537 331.200 C 207.723 331.200,208.308 332.055,208.837 333.100 C 209.367 334.145,209.935 335.060,210.100 335.133 C 210.265 335.207,210.400 335.449,210.400 335.672 C 210.400 335.894,210.736 336.554,211.146 337.138 C 211.556 337.722,212.350 339.068,212.910 340.130 L 213.929 342.060 215.630 339.130 C 216.566 337.518,218.112 334.872,219.066 333.249 C 220.020 331.626,220.800 330.141,220.800 329.949 C 220.800 329.757,220.980 329.600,221.200 329.600 C 221.420 329.600,221.600 329.428,221.600 329.218 C 221.600 329.007,222.165 327.882,222.856 326.718 C 223.547 325.553,224.447 324.015,224.856 323.300 C 226.626 320.207,227.249 319.112,228.043 317.700 C 228.506 316.875,229.034 316.016,229.216 315.791 C 229.398 315.566,230.074 314.396,230.719 313.191 C 231.745 311.273,232.803 309.409,235.595 304.600 C 235.978 303.940,236.707 302.680,237.214 301.800 C 238.963 298.769,238.898 298.800,243.429 298.800 C 245.687 298.800,247.819 298.909,248.167 299.043 C 248.738 299.262,248.800 303.106,248.800 338.443 L 248.800 377.600 243.400 377.600 L 238.000 377.600 237.995 350.100 L 237.990 322.600 236.957 324.400 C 236.388 325.390,235.511 326.934,235.008 327.832 C 233.162 331.120,232.996 331.404,232.800 331.600 C 232.690 331.710,232.358 332.230,232.062 332.755 C 231.767 333.280,231.199 334.290,230.800 335.000 C 230.401 335.710,229.833 336.720,229.538 337.245 C 229.242 337.770,228.901 338.290,228.779 338.400 C 228.658 338.510,228.248 339.267,227.869 340.081 C 227.490 340.896,226.960 341.796,226.690 342.081 C 226.421 342.367,225.826 343.320,225.370 344.200 C 224.294 346.273,223.451 347.749,223.199 348.000 C 223.089 348.110,222.729 348.737,222.399 349.393 C 222.070 350.050,220.675 352.547,219.300 354.944 C 217.925 357.340,216.800 359.381,216.800 359.478 C 216.800 359.576,216.251 360.453,215.581 361.428 C 214.374 363.182,213.200 363.760,213.200 362.600 C 213.200 362.270,213.020 362.000,212.800 362.000 C 212.580 362.000,212.400 361.722,212.400 361.383 C 212.400 361.044,212.040 360.380,211.600 359.908 C 211.160 359.436,210.800 358.813,210.800 358.525 C 210.800 358.236,210.620 358.000,210.400 358.000 C 210.180 358.000,210.000 357.640,210.000 357.200 C 210.000 356.760,209.820 356.400,209.600 356.400 C 209.380 356.400,209.200 356.130,209.200 355.800 C 209.200 355.470,209.064 355.200,208.898 355.200 C 208.731 355.200,208.341 354.615,208.030 353.900 C 207.719 353.185,207.360 352.510,207.232 352.400 C 206.846 352.067,205.566 349.847,205.329 349.100 C 205.207 348.715,204.948 348.400,204.753 348.400 C 204.559 348.400,204.400 348.232,204.400 348.027 C 204.400 347.821,203.885 346.786,203.256 345.727 C 200.367 340.860,197.454 335.797,196.665 334.271 C 196.189 333.352,195.710 332.510,195.600 332.400 C 195.204 332.004,193.946 329.785,193.729 329.100 C 193.607 328.715,193.348 328.400,193.153 328.400 C 192.959 328.400,192.800 328.040,192.800 327.600 C 192.800 327.160,192.641 326.800,192.447 326.800 C 192.252 326.800,191.987 326.485,191.858 326.100 C 191.728 325.715,191.257 324.773,190.811 324.006 L 190.000 322.612 190.000 350.118 L 190.000 377.623 184.500 377.511 L 179.000 377.400 178.898 338.425 C 178.817 307.509,178.900 299.384,179.298 299.131 C 180.277 298.509,188.653 298.740,189.204 299.404 M275.902 332.900 L 276.005 366.800 289.370 366.800 C 305.753 366.800,304.000 366.123,304.000 372.447 L 304.000 377.608 284.500 377.504 L 265.000 377.400 264.907 338.633 C 264.838 310.279,264.934 299.720,265.265 299.322 C 265.612 298.903,266.886 298.803,270.759 298.888 L 275.800 299.000 275.902 332.900 " stroke="none" fill="#abba4f" fill-rule="evenodd"></path><path id="path1" d="M268.049 1.561 C 267.740 1.757,267.630 2.125,267.800 2.400 C 267.970 2.675,267.861 3.040,267.551 3.233 C 267.104 3.511,267.094 3.727,267.496 4.377 C 267.875 4.988,267.885 5.415,267.538 6.177 C 267.197 6.924,267.197 7.315,267.538 7.725 C 267.788 8.027,267.880 8.386,267.743 8.524 C 267.283 8.984,267.186 12.101,267.615 12.618 C 267.910 12.974,267.911 13.208,267.619 13.388 C 267.112 13.702,267.055 15.600,267.553 15.600 C 267.959 15.600,267.924 17.582,267.506 18.240 C 267.185 18.746,267.350 21.272,267.746 21.912 C 267.893 22.150,267.821 22.463,267.587 22.608 C 267.287 22.793,267.291 23.028,267.600 23.400 C 267.904 23.766,267.910 24.009,267.619 24.188 C 267.070 24.527,267.080 26.120,267.635 26.675 C 267.948 26.988,267.943 27.188,267.615 27.390 C 267.285 27.595,267.281 27.815,267.600 28.200 C 267.904 28.566,267.910 28.809,267.619 28.988 C 267.112 29.302,267.055 31.200,267.553 31.200 C 267.960 31.200,267.875 33.066,267.421 34.100 C 267.253 34.485,267.253 35.115,267.421 35.500 C 267.875 36.534,267.960 38.400,267.553 38.400 C 267.055 38.400,267.112 40.298,267.619 40.612 C 267.910 40.791,267.904 41.034,267.600 41.400 C 267.282 41.784,267.282 42.003,267.600 42.200 C 267.902 42.386,267.911 42.626,267.629 42.965 C 267.365 43.283,267.357 43.597,267.606 43.846 C 267.848 44.088,267.855 44.709,267.626 45.511 C 267.407 46.273,267.405 46.880,267.621 47.013 C 267.828 47.141,267.789 47.549,267.529 47.966 C 267.255 48.403,267.206 48.995,267.406 49.447 C 267.900 50.570,267.912 52.110,267.433 52.900 C 267.120 53.414,267.154 53.834,267.558 54.482 C 267.950 55.109,267.978 55.407,267.654 55.515 C 267.083 55.706,267.056 57.464,267.619 57.812 C 267.906 57.989,267.909 58.227,267.629 58.565 C 267.348 58.903,267.353 59.193,267.644 59.484 C 267.945 59.785,267.942 59.989,267.635 60.178 C 267.069 60.528,267.075 62.115,267.645 62.685 C 268.148 63.188,267.744 64.136,267.177 63.786 C 266.762 63.530,267.130 64.748,267.685 65.469 C 267.908 65.758,267.847 66.255,267.527 66.769 C 267.098 67.455,267.104 67.754,267.558 68.482 C 267.965 69.134,267.986 69.405,267.638 69.521 C 267.286 69.638,267.298 69.837,267.683 70.304 C 268.106 70.816,268.106 70.962,267.683 71.104 C 267.261 71.246,267.261 71.392,267.683 71.904 C 268.106 72.416,268.106 72.562,267.683 72.704 C 267.304 72.832,267.282 73.017,267.603 73.403 C 267.905 73.767,267.910 74.009,267.619 74.188 C 267.070 74.527,267.080 76.120,267.635 76.675 C 267.948 76.988,267.948 77.185,267.635 77.378 C 267.037 77.748,267.086 79.495,267.700 79.702 C 268.096 79.835,268.093 80.000,267.683 80.496 C 267.261 81.008,267.261 81.154,267.683 81.296 C 268.105 81.438,268.105 81.585,267.685 82.094 C 267.386 82.456,267.235 83.368,267.326 84.259 L 267.483 85.800 270.141 85.918 C 271.700 85.988,272.800 86.215,272.800 86.467 C 272.800 86.735,273.039 86.700,273.432 86.373 C 273.924 85.965,274.232 85.953,274.814 86.316 C 275.317 86.630,275.646 86.648,275.817 86.372 C 275.989 86.094,276.241 86.102,276.597 86.397 C 276.983 86.718,277.168 86.696,277.296 86.317 C 277.436 85.901,277.600 85.907,278.135 86.349 C 278.599 86.732,278.800 86.756,278.800 86.428 C 278.800 86.087,280.433 85.979,284.800 86.033 C 288.100 86.073,290.800 86.264,290.800 86.457 C 290.800 86.649,291.145 86.591,291.568 86.327 C 292.172 85.950,292.470 85.960,292.968 86.373 C 293.406 86.737,293.600 86.757,293.600 86.438 C 293.600 85.893,308.328 85.960,308.666 86.506 C 308.779 86.689,309.104 86.646,309.388 86.410 C 309.984 85.915,322.800 85.999,322.800 86.498 C 322.800 86.668,323.145 86.591,323.568 86.327 C 324.167 85.953,324.466 85.957,324.932 86.343 C 325.356 86.696,325.607 86.712,325.800 86.400 C 325.995 86.085,326.231 86.093,326.636 86.430 C 326.980 86.715,327.200 86.739,327.200 86.490 C 327.200 86.227,329.611 86.099,334.000 86.132 C 337.740 86.159,340.800 86.342,340.800 86.540 C 340.800 86.737,341.054 86.687,341.364 86.430 C 341.769 86.093,342.005 86.085,342.200 86.400 C 342.397 86.718,342.616 86.718,343.000 86.400 C 343.386 86.080,343.606 86.086,343.814 86.423 C 344.025 86.764,344.184 86.750,344.420 86.368 C 344.680 85.946,344.855 85.948,345.370 86.375 C 345.716 86.662,346.000 86.723,346.000 86.510 C 346.000 86.296,347.385 86.095,349.078 86.063 C 353.431 85.980,353.431 85.791,349.069 81.478 C 346.963 79.396,345.141 77.792,345.020 77.913 C 344.899 78.034,344.800 77.833,344.800 77.467 C 344.800 77.100,344.635 76.800,344.433 76.800 C 344.232 76.800,342.927 75.606,341.533 74.147 C 335.467 67.793,328.835 61.299,328.626 61.507 C 328.502 61.632,328.398 61.478,328.396 61.167 C 328.394 60.855,327.818 60.150,327.115 59.600 C 326.412 59.050,325.469 58.166,325.019 57.635 C 324.568 57.104,320.870 53.373,316.800 49.345 C 307.899 40.535,309.351 41.991,301.626 34.133 C 298.129 30.576,295.162 27.771,295.034 27.900 C 294.905 28.028,294.800 27.833,294.800 27.467 C 294.800 27.100,294.635 26.800,294.433 26.800 C 294.232 26.800,292.927 25.606,291.533 24.147 C 285.467 17.793,278.835 11.299,278.626 11.507 C 278.502 11.632,278.398 11.478,278.396 11.167 C 278.394 10.855,277.818 10.150,277.115 9.600 C 276.412 9.050,275.469 8.176,275.019 7.659 C 273.786 6.242,268.868 1.199,268.725 1.206 C 268.656 1.209,268.352 1.369,268.049 1.561 M115.051 15.917 C 114.942 16.095,115.200 16.457,115.626 16.723 C 116.535 17.291,116.645 16.988,115.826 16.168 C 115.510 15.852,115.161 15.739,115.051 15.917 M183.600 34.757 C 183.600 34.954,183.885 35.224,184.233 35.357 C 185.211 35.733,185.308 35.651,184.657 35.000 C 183.977 34.320,183.600 34.233,183.600 34.757 M145.606 48.671 C 145.618 49.284,146.355 50.178,146.626 49.907 C 146.774 49.759,146.604 49.347,146.248 48.990 C 145.891 48.634,145.603 48.491,145.606 48.671 M164.406 48.671 C 164.418 49.284,165.155 50.178,165.426 49.907 C 165.574 49.759,165.404 49.347,165.048 48.990 C 164.691 48.634,164.403 48.491,164.406 48.671 M86.460 49.868 C 85.734 50.653,86.025 50.864,86.925 50.206 C 87.322 49.915,87.502 49.588,87.324 49.480 C 87.146 49.372,86.757 49.547,86.460 49.868 M182.706 68.572 C 182.324 68.851,182.121 69.188,182.254 69.321 C 182.387 69.453,182.765 69.292,183.095 68.962 C 183.872 68.185,183.603 67.916,182.706 68.572 M163.704 71.794 C 163.431 72.104,163.350 72.446,163.524 72.553 C 163.698 72.660,164.057 72.400,164.323 71.974 C 164.880 71.083,164.442 70.956,163.704 71.794 M284.012 99.984 C 283.688 100.189,283.544 100.478,283.693 100.626 C 283.841 100.774,284.253 100.604,284.610 100.248 C 285.313 99.544,284.957 99.387,284.012 99.984 M288.900 113.823 C 288.311 114.463,288.262 114.800,288.757 114.800 C 289.098 114.800,289.737 113.596,289.509 113.383 C 289.449 113.327,289.175 113.525,288.900 113.823 M149.105 117.613 C 148.063 117.789,146.915 118.228,146.554 118.589 C 146.192 118.950,145.650 119.151,145.348 119.036 C 145.047 118.920,144.800 119.031,144.800 119.282 C 144.800 119.860,133.387 131.200,132.806 131.200 C 132.569 131.200,132.258 131.515,132.115 131.900 C 131.558 133.401,127.566 136.986,127.132 136.374 C 126.807 135.917,126.772 135.947,126.958 136.523 C 127.212 137.305,124.225 140.795,123.300 140.798 C 123.025 140.799,122.800 140.996,122.800 141.236 C 122.800 141.812,116.401 148.200,115.500 148.523 C 115.115 148.662,114.800 148.972,114.800 149.213 C 114.800 149.453,113.000 151.463,110.800 153.678 C 108.600 155.894,106.800 157.822,106.800 157.963 C 106.800 158.104,115.395 149.614,125.900 139.095 C 145.801 119.169,147.144 118.000,150.135 118.000 C 152.118 118.000,155.009 119.568,155.421 120.867 C 155.549 121.270,155.805 121.600,155.989 121.600 C 156.570 121.600,155.433 119.609,154.720 119.379 C 154.347 119.258,154.092 118.943,154.155 118.680 C 154.218 118.416,154.197 118.325,154.108 118.478 C 154.020 118.631,153.375 118.407,152.674 117.980 C 151.973 117.553,151.310 117.223,151.200 117.249 C 151.090 117.274,150.147 117.438,149.105 117.613 M246.892 118.091 C 246.790 118.481,246.474 118.800,246.189 118.800 C 245.904 118.800,245.202 119.385,244.630 120.100 C 244.057 120.815,243.411 121.617,243.194 121.883 C 242.722 122.462,242.663 127.068,243.124 127.353 C 243.302 127.463,243.373 126.520,243.282 125.257 C 242.874 119.624,249.053 116.011,253.680 119.177 C 255.650 120.524,292.149 157.104,293.561 159.146 C 294.333 160.263,294.461 160.860,294.312 162.660 C 294.188 164.156,294.260 164.700,294.546 164.414 C 295.193 163.767,294.815 160.344,293.964 159.150 C 293.544 158.560,293.200 157.942,293.200 157.777 C 293.200 157.612,292.476 156.809,291.592 155.992 C 290.707 155.176,290.048 154.259,290.126 153.954 C 290.205 153.649,290.197 153.525,290.109 153.678 C 289.799 154.213,288.808 153.508,287.975 152.160 C 287.513 151.412,286.900 150.800,286.613 150.800 C 286.049 150.800,284.559 148.809,284.721 148.270 C 284.775 148.089,284.641 148.051,284.423 148.186 C 283.886 148.518,272.752 137.439,272.929 136.748 C 273.006 136.447,272.994 136.334,272.902 136.497 C 272.504 137.206,271.166 135.935,271.407 135.076 C 271.578 134.465,271.539 134.363,271.279 134.739 C 270.983 135.164,270.682 135.038,269.849 134.140 C 269.269 133.514,268.977 132.941,269.200 132.867 C 269.423 132.792,269.491 132.548,269.352 132.323 C 269.185 132.052,269.007 132.065,268.824 132.361 C 268.537 132.826,258.400 123.139,258.400 122.399 C 258.400 122.180,258.208 122.000,257.973 122.000 C 257.738 122.000,256.952 121.370,256.226 120.600 C 255.500 119.830,254.761 119.200,254.584 119.200 C 254.408 119.200,253.915 118.885,253.491 118.501 C 252.318 117.439,247.146 117.118,246.892 118.091 M221.660 121.842 C 221.362 122.178,221.199 122.532,221.295 122.629 C 221.392 122.726,221.798 122.444,222.198 122.002 C 222.597 121.561,222.761 121.207,222.562 121.215 C 222.363 121.224,221.957 121.505,221.660 121.842 M156.752 123.287 C 156.937 124.398,156.993 124.455,157.119 123.654 C 157.201 123.133,157.103 122.543,156.901 122.341 C 156.679 122.119,156.621 122.493,156.752 123.287 M244.097 129.000 C 244.363 129.660,246.157 131.812,248.082 133.782 C 250.590 136.349,251.443 137.465,251.091 137.720 C 250.744 137.971,250.786 138.017,251.235 137.875 C 252.087 137.607,254.523 139.902,254.221 140.689 C 254.062 141.105,254.176 141.218,254.595 141.057 C 255.205 140.823,258.000 143.250,258.000 144.013 C 258.000 144.226,258.237 144.400,258.526 144.400 C 259.054 144.400,261.192 146.609,262.301 148.300 C 262.626 148.795,263.103 149.200,263.361 149.200 C 263.917 149.200,266.800 152.553,266.800 153.200 C 266.800 153.446,266.961 153.548,267.158 153.426 C 267.354 153.305,269.590 155.267,272.126 157.786 L 276.738 162.368 275.180 164.084 C 273.871 165.527,273.554 165.705,273.186 165.200 C 272.826 164.707,272.787 164.743,272.970 165.404 C 273.228 166.333,253.633 186.275,253.015 185.713 C 252.826 185.541,252.781 185.592,252.915 185.828 C 253.048 186.063,251.097 188.310,248.579 190.821 C 246.060 193.332,244.000 195.606,244.000 195.874 C 244.000 196.141,243.694 196.532,243.320 196.741 C 242.493 197.204,242.200 202.400,243.001 202.400 C 243.320 202.400,243.408 201.708,243.283 200.195 C 243.018 196.994,243.272 196.691,261.248 178.762 C 270.022 170.012,277.200 162.708,277.200 162.532 C 277.200 162.357,269.865 154.830,260.899 145.806 C 251.934 136.783,244.377 129.040,244.106 128.600 C 243.711 127.960,243.710 128.041,244.097 129.000 M139.086 145.919 C 130.129 154.874,122.800 162.316,122.800 162.457 C 122.800 163.250,155.563 195.385,155.728 194.754 C 155.841 194.321,155.725 194.131,155.419 194.248 C 154.763 194.500,153.854 193.361,154.227 192.756 C 154.421 192.442,154.354 192.381,154.032 192.580 C 153.487 192.917,151.600 191.363,151.600 190.577 C 151.600 190.311,151.210 189.991,150.734 189.867 C 150.003 189.676,149.948 189.544,150.383 189.020 C 150.731 188.601,150.753 188.400,150.449 188.400 C 150.202 188.400,150.000 188.617,150.000 188.881 C 150.000 189.146,149.280 188.659,148.400 187.800 C 147.520 186.941,146.800 186.025,146.800 185.765 C 146.800 185.506,146.395 185.170,145.900 185.020 C 145.355 184.854,145.197 184.665,145.500 184.540 C 145.775 184.426,146.000 184.146,146.000 183.918 C 146.000 183.641,145.823 183.649,145.472 183.940 C 145.063 184.279,144.013 183.430,140.797 180.159 C 137.470 176.774,136.764 175.859,137.225 175.532 C 137.674 175.214,137.631 175.180,137.030 175.377 C 136.197 175.649,132.800 172.710,132.800 171.717 C 132.800 171.433,132.578 171.200,132.307 171.200 C 131.642 171.200,123.600 163.153,123.600 162.488 C 123.600 162.198,124.905 160.694,126.500 159.145 C 135.017 150.874,139.814 146.062,140.702 144.900 C 141.248 144.185,141.944 143.600,142.247 143.600 C 142.551 143.600,142.800 143.417,142.800 143.194 C 142.800 142.971,145.725 139.928,149.300 136.432 C 152.875 132.936,155.704 129.977,155.586 129.856 C 155.468 129.736,148.043 136.964,139.086 145.919 M184.060 134.242 C 183.331 135.066,183.800 135.457,184.581 134.676 C 184.921 134.336,185.200 133.954,185.200 133.829 C 185.200 133.409,184.606 133.624,184.060 134.242 M330.679 147.054 C 330.547 147.187,330.708 147.565,331.038 147.895 C 331.815 148.672,332.084 148.403,331.428 147.506 C 331.149 147.124,330.812 146.921,330.679 147.054 M172.000 155.200 C 172.000 155.653,172.352 155.708,174.570 155.603 C 181.913 155.255,184.612 165.184,178.096 168.576 C 175.772 169.786,176.110 169.925,178.524 168.752 C 179.679 168.191,180.522 167.412,181.016 166.452 C 181.426 165.653,181.936 164.765,182.149 164.477 C 182.610 163.854,182.733 160.400,182.295 160.400 C 182.127 160.400,181.603 159.603,181.129 158.630 C 180.656 157.656,179.984 156.760,179.635 156.639 C 179.286 156.519,178.202 156.082,177.227 155.668 C 175.962 155.133,175.073 155.003,174.127 155.216 C 173.390 155.383,172.800 155.357,172.800 155.158 C 172.800 154.961,172.620 154.800,172.400 154.800 C 172.180 154.800,172.000 154.980,172.000 155.200 M199.164 155.115 C 197.398 155.608,194.400 157.343,194.400 157.872 C 194.400 158.210,194.175 158.399,193.900 158.294 C 193.611 158.183,193.357 158.461,193.298 158.951 C 192.831 162.857,192.776 164.536,193.104 164.864 C 193.348 165.108,193.418 164.526,193.296 163.262 C 192.883 158.965,196.518 155.239,200.666 155.706 C 201.612 155.813,202.301 155.763,202.198 155.596 C 201.967 155.222,199.934 154.900,199.164 155.115 M225.200 155.125 C 224.210 155.194,223.273 155.375,223.119 155.527 C 222.964 155.679,223.614 155.741,224.564 155.665 C 226.386 155.521,229.327 156.699,230.286 157.958 C 230.626 158.406,230.778 158.443,230.787 158.081 C 230.794 157.796,230.232 157.256,229.537 156.881 C 228.843 156.507,227.988 155.930,227.637 155.600 C 227.214 155.202,226.395 155.042,225.200 155.125 M220.780 156.176 C 221.203 156.686,222.400 156.640,222.400 156.114 C 222.400 156.004,222.130 156.018,221.800 156.145 C 221.470 156.271,221.200 156.201,221.200 155.987 C 221.200 155.774,220.998 155.600,220.751 155.600 C 220.433 155.600,220.441 155.768,220.780 156.176 M203.383 156.524 C 204.764 157.363,206.173 159.167,206.650 160.705 L 207.114 162.200 207.057 160.498 C 207.016 159.261,206.808 158.734,206.300 158.571 C 205.915 158.447,205.600 158.101,205.600 157.802 C 205.600 157.503,205.032 156.975,204.339 156.629 C 202.872 155.898,202.239 155.827,203.383 156.524 M169.499 157.414 C 169.315 158.377,169.343 158.395,170.043 157.761 C 170.449 157.394,170.685 156.937,170.567 156.747 C 170.167 156.100,169.694 156.396,169.499 157.414 M219.592 157.410 C 218.844 158.311,219.278 158.415,220.170 157.548 C 220.593 157.137,220.751 156.800,220.519 156.800 C 220.287 156.800,219.870 157.074,219.592 157.410 M105.829 159.429 C 105.483 159.774,105.185 160.629,105.168 161.329 C 105.150 162.028,105.099 163.095,105.054 163.700 C 105.010 164.305,105.178 164.800,105.428 164.800 C 105.732 164.800,105.819 164.141,105.691 162.807 C 105.553 161.371,105.684 160.531,106.159 159.807 C 106.907 158.665,106.760 158.497,105.829 159.429 M168.516 159.600 C 168.401 160.040,168.148 160.400,167.953 160.400 C 167.526 160.400,167.474 164.678,167.900 164.867 C 168.065 164.940,168.527 165.645,168.927 166.433 C 169.413 167.390,170.247 168.155,171.438 168.733 C 174.043 169.999,174.525 169.794,171.986 168.500 C 168.604 166.775,167.255 163.482,168.605 160.249 C 168.938 159.452,169.101 158.800,168.968 158.800 C 168.834 158.800,168.631 159.160,168.516 159.600 M218.415 159.761 C 218.214 160.290,217.890 160.821,217.696 160.941 C 217.285 161.194,217.467 164.453,217.909 164.780 C 218.073 164.901,218.556 165.663,218.981 166.474 C 219.476 167.418,220.302 168.195,221.279 168.636 C 222.118 169.014,223.004 169.564,223.248 169.857 C 223.491 170.151,223.867 170.282,224.082 170.149 C 224.297 170.016,223.429 169.329,222.153 168.623 C 218.573 166.641,217.245 163.505,218.605 160.249 C 218.938 159.452,219.114 158.800,218.995 158.800 C 218.877 158.800,218.616 159.233,218.415 159.761 M231.420 160.187 C 232.702 163.254,231.242 166.938,228.096 168.576 C 225.756 169.794,226.118 169.921,228.555 168.737 C 230.898 167.599,232.606 164.401,232.234 161.849 C 232.102 160.942,231.956 159.885,231.911 159.500 C 231.866 159.115,231.606 158.800,231.335 158.800 C 230.959 158.800,230.980 159.133,231.420 160.187 M206.854 163.067 C 206.825 163.544,206.696 164.264,206.570 164.667 C 206.352 165.361,206.364 165.362,206.796 164.688 C 207.047 164.297,207.175 163.577,207.081 163.088 C 206.909 162.201,206.909 162.201,206.854 163.067 M204.716 167.251 C 203.446 168.549,203.378 168.702,204.244 168.307 C 205.058 167.936,205.335 167.959,205.655 168.423 C 205.949 168.850,205.985 168.761,205.793 168.081 C 205.647 167.562,205.747 166.904,206.024 166.571 C 207.061 165.322,206.129 165.806,204.716 167.251 M106.843 167.130 C 107.044 167.732,144.874 205.600,145.275 205.600 C 145.437 205.600,141.121 201.157,135.685 195.726 C 130.248 190.296,121.499 181.533,116.242 176.253 C 110.985 170.973,106.756 166.867,106.843 167.130 M194.406 167.236 C 194.403 167.585,194.873 168.087,195.452 168.351 C 196.779 168.956,197.190 168.634,195.934 167.973 C 195.420 167.702,194.868 167.282,194.706 167.040 C 194.519 166.760,194.410 166.831,194.406 167.236 M273.764 186.300 C 263.184 196.915,254.672 205.600,254.848 205.600 C 255.024 205.600,255.522 205.221,255.954 204.757 C 256.386 204.294,256.913 204.023,257.127 204.155 C 257.340 204.287,257.620 203.991,257.749 203.497 C 257.877 203.004,265.231 195.371,274.091 186.535 C 292.569 168.109,293.410 167.253,293.174 167.107 C 293.078 167.048,284.344 175.685,273.764 186.300 M197.705 169.476 C 198.077 169.848,198.515 170.018,198.679 169.854 C 198.843 169.691,198.712 169.389,198.388 169.184 C 197.415 168.569,196.982 168.753,197.705 169.476 M201.666 169.151 C 201.254 169.412,201.308 169.535,201.900 169.690 C 202.379 169.815,202.667 169.686,202.667 169.345 C 202.667 168.719,202.422 168.672,201.666 169.151 M217.790 183.848 C 218.147 184.204,218.559 184.374,218.707 184.226 C 218.856 184.078,218.712 183.789,218.388 183.584 C 217.443 182.987,217.087 183.144,217.790 183.848 M156.149 196.729 C 156.755 197.410,156.865 198.029,156.725 199.962 C 156.630 201.277,156.698 202.263,156.876 202.153 C 157.692 201.649,157.224 197.007,156.300 196.440 C 155.407 195.891,155.406 195.893,156.149 196.729 M63.704 204.594 C 63.431 204.904,63.350 205.246,63.524 205.353 C 63.698 205.460,64.057 205.200,64.323 204.774 C 64.880 203.883,64.442 203.756,63.704 204.594 M271.660 204.642 C 271.362 204.978,271.199 205.332,271.295 205.429 C 271.392 205.526,271.798 205.244,272.198 204.802 C 272.597 204.361,272.761 204.007,272.562 204.015 C 272.363 204.024,271.957 204.305,271.660 204.642 M196.602 205.602 C 197.002 206.044,197.411 206.322,197.512 206.221 C 197.728 206.005,196.588 204.800,196.167 204.800 C 196.007 204.800,196.203 205.161,196.602 205.602 M146.562 206.328 C 147.906 207.866,154.000 207.392,154.000 205.749 C 154.000 205.642,153.600 205.835,153.111 206.177 C 151.888 207.034,148.078 207.004,146.789 206.128 L 145.800 205.455 146.562 206.328 M246.600 206.329 C 247.570 207.353,251.906 207.708,252.942 206.848 C 253.285 206.564,253.751 206.446,253.978 206.586 C 254.223 206.738,254.295 206.592,254.155 206.227 C 253.945 205.680,253.824 205.678,253.070 206.206 C 251.901 207.025,248.058 206.986,246.789 206.142 L 245.800 205.484 246.600 206.329 M185.700 217.023 C 185.111 217.663,185.062 218.000,185.557 218.000 C 185.898 218.000,186.537 216.796,186.309 216.583 C 186.249 216.527,185.975 216.725,185.700 217.023 M252.812 248.384 C 252.488 248.589,252.344 248.878,252.493 249.026 C 252.641 249.174,253.053 249.004,253.410 248.648 C 254.113 247.944,253.757 247.787,252.812 248.384 M300.412 249.984 C 300.088 250.189,299.944 250.478,300.093 250.626 C 300.241 250.774,300.653 250.604,301.010 250.248 C 301.713 249.544,301.357 249.387,300.412 249.984 M269.260 265.468 C 268.519 266.269,269.009 266.648,269.784 265.873 C 270.126 265.531,270.270 265.168,270.103 265.067 C 269.936 264.967,269.557 265.147,269.260 265.468 M252.400 269.029 C 252.400 269.451,253.502 270.364,253.733 270.133 C 253.859 270.008,253.713 269.656,253.410 269.352 C 252.833 268.776,252.400 268.637,252.400 269.029 M96.524 271.773 C 95.879 272.508,96.353 272.904,97.048 272.210 C 97.351 271.906,97.600 271.554,97.600 271.429 C 97.600 271.026,97.015 271.213,96.524 271.773 M75.008 277.587 C 74.830 277.876,70.356 277.996,61.073 277.961 C 51.576 277.925,47.095 278.049,46.400 278.366 L 45.400 278.823 46.400 278.613 C 46.950 278.497,80.776 278.403,121.568 278.403 C 162.361 278.403,195.624 278.290,195.485 278.152 C 195.347 278.014,168.451 277.908,135.717 277.916 C 98.124 277.926,76.029 277.790,75.736 277.546 C 75.434 277.297,75.179 277.311,75.008 277.587 M325.835 277.543 C 325.687 277.783,301.567 277.901,260.800 277.862 C 225.160 277.828,196.000 277.934,196.000 278.098 C 196.000 278.261,231.235 278.398,274.300 278.402 C 317.365 278.406,353.050 278.502,353.600 278.616 L 354.600 278.823 353.600 278.371 C 352.926 278.067,348.429 277.917,339.800 277.911 C 332.555 277.906,326.798 277.742,326.536 277.532 C 326.249 277.303,325.981 277.307,325.835 277.543 M113.700 299.497 C 115.185 299.574,117.615 299.574,119.100 299.497 C 120.585 299.420,119.370 299.357,116.400 299.357 C 113.430 299.357,112.215 299.420,113.700 299.497 M153.600 299.466 C 157.927 299.757,162.711 299.776,162.540 299.500 C 162.437 299.335,159.978 299.232,157.076 299.272 C 154.174 299.312,152.610 299.399,153.600 299.466 M182.115 299.496 C 183.388 299.576,185.368 299.575,186.515 299.494 C 187.662 299.414,186.620 299.349,184.200 299.350 C 181.780 299.351,180.842 299.416,182.115 299.496 M241.300 299.496 C 242.565 299.575,244.635 299.575,245.900 299.496 C 247.165 299.416,246.130 299.351,243.600 299.351 C 241.070 299.351,240.035 299.416,241.300 299.496 M268.300 299.496 C 269.675 299.574,271.925 299.574,273.300 299.496 C 274.675 299.418,273.550 299.354,270.800 299.354 C 268.050 299.354,266.925 299.418,268.300 299.496 M189.380 363.400 C 189.380 371.100,189.434 374.193,189.499 370.274 C 189.565 366.355,189.565 360.055,189.499 356.274 C 189.434 352.493,189.380 355.700,189.380 363.400 M303.309 371.200 C 303.309 372.190,303.387 372.595,303.482 372.100 C 303.578 371.605,303.578 370.795,303.482 370.300 C 303.387 369.805,303.309 370.210,303.309 371.200 M45.600 391.524 C 45.600 391.739,45.885 392.024,46.233 392.157 C 46.623 392.307,46.806 392.218,46.708 391.925 C 46.509 391.327,45.600 390.998,45.600 391.524 M47.675 395.400 C 48.238 396.785,48.983 398.000,49.268 398.000 C 49.835 398.000,49.612 397.448,48.542 396.200 C 47.975 395.540,47.585 395.180,47.675 395.400 M351.240 396.431 C 350.297 397.707,350.347 398.511,351.309 397.548 C 351.767 397.088,352.515 395.200,352.238 395.200 C 352.190 395.200,351.741 395.754,351.240 396.431 " stroke="none" fill="#d6dcd9" fill-rule="evenodd"></path><path id="path2" d="M52.900 0.282 C 52.405 0.378,52.000 0.623,52.000 0.828 C 52.000 1.033,51.722 1.200,51.382 1.200 C 49.895 1.200,48.227 3.792,49.500 4.124 C 50.011 4.258,49.949 4.320,49.271 4.354 C 48.035 4.415,47.200 5.310,47.200 6.571 C 47.200 7.137,47.020 7.600,46.800 7.600 C 46.574 7.600,46.400 8.733,46.400 10.200 C 46.400 11.667,46.226 12.800,46.000 12.800 C 45.734 12.800,45.600 57.348,45.600 145.643 L 45.600 278.487 46.700 278.193 C 47.305 278.032,53.862 277.926,61.272 277.958 C 70.451 277.997,74.827 277.879,75.007 277.588 C 75.177 277.314,75.438 277.298,75.736 277.542 C 76.354 278.048,325.531 278.035,325.844 277.528 C 325.982 277.306,326.255 277.308,326.536 277.534 C 326.801 277.746,332.323 277.902,339.400 277.896 C 346.220 277.891,352.385 278.016,353.100 278.175 L 354.400 278.464 354.400 185.255 C 354.400 123.548,354.265 91.964,354.000 91.800 C 353.780 91.664,353.600 91.212,353.600 90.796 C 353.600 90.380,353.285 89.856,352.900 89.632 C 352.233 89.244,352.233 89.224,352.900 89.212 C 353.412 89.203,353.600 88.870,353.600 87.971 C 353.600 86.837,352.737 85.397,352.312 85.822 C 352.211 85.923,350.749 86.031,349.064 86.063 C 347.379 86.095,346.000 86.296,346.000 86.510 C 346.000 86.723,345.716 86.662,345.370 86.375 C 344.855 85.948,344.680 85.946,344.420 86.368 C 344.184 86.750,344.025 86.764,343.814 86.423 C 343.606 86.086,343.386 86.080,343.000 86.400 C 342.616 86.718,342.397 86.718,342.200 86.400 C 342.005 86.085,341.769 86.093,341.364 86.430 C 341.054 86.687,340.800 86.737,340.800 86.540 C 340.800 86.342,337.740 86.159,334.000 86.132 C 329.611 86.099,327.200 86.227,327.200 86.490 C 327.200 86.739,326.980 86.715,326.636 86.430 C 326.258 86.117,325.987 86.098,325.817 86.372 C 325.646 86.648,325.317 86.630,324.814 86.316 C 324.232 85.953,323.924 85.965,323.432 86.373 C 323.085 86.662,322.800 86.738,322.800 86.543 C 322.800 86.014,310.019 85.887,309.388 86.410 C 309.104 86.646,308.779 86.689,308.666 86.506 C 308.353 86.001,293.600 85.889,293.600 86.392 C 293.600 86.656,293.320 86.632,292.832 86.327 C 292.228 85.950,291.930 85.960,291.432 86.373 C 291.085 86.662,290.800 86.720,290.800 86.502 C 290.800 86.262,288.440 86.078,284.800 86.033 C 280.433 85.979,278.800 86.087,278.800 86.428 C 278.800 86.756,278.599 86.732,278.135 86.349 C 277.600 85.907,277.436 85.901,277.296 86.317 C 277.168 86.696,276.983 86.718,276.597 86.397 C 276.241 86.102,275.989 86.094,275.817 86.372 C 275.646 86.648,275.317 86.630,274.814 86.316 C 274.232 85.953,273.924 85.965,273.432 86.373 C 273.039 86.700,272.800 86.735,272.800 86.467 C 272.800 86.215,271.700 85.988,270.141 85.918 L 267.483 85.800 267.326 84.259 C 267.235 83.368,267.386 82.456,267.685 82.094 C 268.105 81.585,268.105 81.438,267.683 81.296 C 267.261 81.154,267.261 81.008,267.683 80.496 C 268.093 80.000,268.096 79.835,267.700 79.702 C 267.085 79.495,267.042 77.918,267.635 77.325 C 267.948 77.012,267.948 76.815,267.635 76.622 C 267.079 76.278,267.068 74.529,267.619 74.188 C 267.910 74.009,267.905 73.767,267.603 73.403 C 267.282 73.017,267.304 72.832,267.683 72.704 C 268.106 72.562,268.106 72.416,267.683 71.904 C 267.261 71.392,267.261 71.246,267.683 71.104 C 268.106 70.962,268.106 70.816,267.683 70.304 C 267.298 69.837,267.286 69.638,267.638 69.521 C 267.986 69.405,267.965 69.134,267.558 68.482 C 267.104 67.754,267.098 67.455,267.527 66.769 C 267.847 66.255,267.908 65.758,267.685 65.469 C 267.130 64.748,266.762 63.530,267.177 63.786 C 267.744 64.136,268.148 63.188,267.645 62.685 C 267.082 62.122,267.066 60.530,267.619 60.188 C 267.906 60.011,267.909 59.773,267.629 59.435 C 267.348 59.097,267.353 58.807,267.644 58.516 C 267.945 58.215,267.942 58.011,267.635 57.822 C 267.060 57.466,267.075 55.708,267.654 55.515 C 267.978 55.407,267.950 55.109,267.558 54.482 C 267.154 53.834,267.120 53.414,267.433 52.900 C 267.912 52.110,267.900 50.570,267.406 49.447 C 267.206 48.995,267.255 48.403,267.529 47.966 C 267.789 47.549,267.828 47.141,267.621 47.013 C 267.405 46.879,267.405 46.281,267.621 45.526 C 267.855 44.712,267.837 44.086,267.572 43.767 C 267.289 43.425,267.297 43.187,267.600 43.000 C 267.902 42.814,267.911 42.574,267.629 42.235 C 267.348 41.897,267.353 41.607,267.644 41.316 C 267.945 41.015,267.942 40.811,267.635 40.622 C 267.116 40.301,267.046 38.400,267.553 38.400 C 267.960 38.400,267.875 36.534,267.421 35.500 C 267.253 35.115,267.253 34.485,267.421 34.100 C 267.875 33.066,267.960 31.200,267.553 31.200 C 267.055 31.200,267.112 29.302,267.619 28.988 C 267.906 28.811,267.909 28.573,267.629 28.235 C 267.348 27.897,267.353 27.607,267.644 27.316 C 267.945 27.015,267.942 26.811,267.635 26.622 C 267.079 26.278,267.068 24.529,267.619 24.188 C 267.910 24.009,267.904 23.766,267.600 23.400 C 267.291 23.028,267.287 22.793,267.587 22.608 C 267.821 22.463,267.893 22.150,267.746 21.912 C 267.350 21.272,267.185 18.746,267.506 18.240 C 267.924 17.582,267.959 15.600,267.553 15.600 C 267.055 15.600,267.112 13.702,267.619 13.388 C 267.911 13.208,267.910 12.974,267.615 12.618 C 267.186 12.101,267.283 8.984,267.743 8.524 C 267.880 8.386,267.788 8.027,267.538 7.725 C 267.197 7.315,267.197 6.924,267.538 6.177 C 267.885 5.415,267.875 4.988,267.496 4.377 C 267.099 3.735,267.102 3.512,267.514 3.256 C 267.797 3.079,267.912 2.637,267.771 2.268 C 267.626 1.892,267.708 1.600,267.957 1.600 C 268.971 1.600,268.301 0.480,267.150 0.250 C 265.767 -0.027,54.338 0.005,52.900 0.282 M116.400 16.975 C 116.400 17.102,116.052 16.989,115.626 16.723 C 115.200 16.457,114.942 16.095,115.051 15.917 C 115.245 15.603,116.400 16.509,116.400 16.975 M184.657 35.000 C 185.308 35.651,185.211 35.733,184.233 35.357 C 183.885 35.224,183.600 34.954,183.600 34.757 C 183.600 34.233,183.977 34.320,184.657 35.000 M146.626 49.907 C 146.478 50.056,146.189 49.912,145.984 49.588 C 145.387 48.643,145.544 48.287,146.248 48.990 C 146.604 49.347,146.774 49.759,146.626 49.907 M165.426 49.907 C 165.278 50.056,164.989 49.912,164.784 49.588 C 164.187 48.643,164.344 48.287,165.048 48.990 C 165.404 49.347,165.574 49.759,165.426 49.907 M86.925 50.206 C 86.527 50.497,86.138 50.671,86.060 50.594 C 85.801 50.334,86.996 49.281,87.324 49.480 C 87.502 49.588,87.322 49.915,86.925 50.206 M183.095 68.962 C 182.765 69.292,182.387 69.453,182.254 69.321 C 182.121 69.188,182.324 68.851,182.706 68.572 C 183.603 67.916,183.872 68.185,183.095 68.962 M164.323 71.974 C 164.057 72.400,163.698 72.660,163.524 72.553 C 163.350 72.446,163.431 72.104,163.704 71.794 C 164.442 70.956,164.880 71.083,164.323 71.974 M284.610 100.248 C 284.253 100.604,283.841 100.774,283.693 100.626 C 283.544 100.478,283.688 100.189,284.012 99.984 C 284.957 99.387,285.313 99.544,284.610 100.248 M289.367 114.143 C 289.134 114.748,288.400 115.083,288.400 114.583 C 288.400 114.298,289.368 113.251,289.509 113.383 C 289.570 113.439,289.505 113.781,289.367 114.143 M153.856 118.714 C 154.799 119.311,155.581 119.980,155.594 120.200 C 155.607 120.420,155.970 121.050,156.400 121.600 C 158.995 124.917,157.043 128.904,148.980 136.756 C 145.581 140.066,142.800 142.960,142.800 143.187 C 142.800 143.414,142.551 143.600,142.247 143.600 C 141.944 143.600,141.248 144.185,140.702 144.900 C 139.814 146.062,135.017 150.874,126.500 159.145 C 124.905 160.694,123.600 162.198,123.600 162.488 C 123.600 163.153,131.642 171.200,132.307 171.200 C 132.578 171.200,132.800 171.433,132.800 171.717 C 132.800 172.710,136.197 175.649,137.030 175.377 C 137.632 175.179,137.674 175.214,137.223 175.533 C 136.595 175.979,145.237 185.200,146.283 185.200 C 146.567 185.200,146.800 185.419,146.800 185.686 C 146.800 186.340,150.435 190.000,151.085 190.000 C 151.368 190.000,151.600 190.239,151.600 190.530 C 151.600 191.290,153.460 192.934,153.966 192.621 C 154.215 192.467,154.303 192.589,154.177 192.915 C 153.934 193.550,154.980 194.583,155.525 194.247 C 155.723 194.124,155.802 194.456,155.701 194.983 C 155.573 195.655,155.770 196.099,156.359 196.467 C 158.074 197.538,156.569 205.600,154.653 205.600 C 154.392 205.600,153.870 205.960,153.493 206.400 C 152.493 207.568,147.657 207.568,146.600 206.400 C 146.202 205.960,145.674 205.600,145.428 205.600 C 144.591 205.600,107.078 167.726,106.428 166.225 C 106.089 165.441,105.623 164.800,105.393 164.800 C 105.162 164.800,105.010 164.305,105.054 163.700 C 105.099 163.095,105.150 162.013,105.168 161.296 C 105.187 160.519,105.523 159.716,106.000 159.307 C 106.440 158.930,106.800 158.416,106.800 158.164 C 106.800 157.912,108.600 155.894,110.800 153.678 C 113.000 151.463,114.800 149.453,114.800 149.213 C 114.800 148.972,115.115 148.662,115.500 148.523 C 116.401 148.200,122.800 141.812,122.800 141.236 C 122.800 140.996,123.025 140.799,123.300 140.798 C 124.225 140.795,127.212 137.305,126.958 136.523 C 126.772 135.947,126.807 135.917,127.132 136.374 C 127.566 136.986,131.558 133.401,132.115 131.900 C 132.258 131.515,132.569 131.200,132.806 131.200 C 133.387 131.200,144.800 119.860,144.800 119.282 C 144.800 119.031,145.047 118.920,145.348 119.036 C 145.650 119.151,146.192 118.950,146.554 118.589 C 148.113 117.029,151.279 117.084,153.856 118.714 M253.491 118.501 C 253.915 118.885,254.408 119.200,254.584 119.200 C 254.761 119.200,255.500 119.830,256.226 120.600 C 256.952 121.370,257.738 122.000,257.973 122.000 C 258.208 122.000,258.400 122.177,258.400 122.393 C 258.400 123.243,270.946 135.209,271.303 134.700 C 271.525 134.382,271.563 134.519,271.407 135.076 C 271.166 135.935,272.504 137.206,272.902 136.497 C 272.994 136.334,273.006 136.447,272.929 136.748 C 272.752 137.439,283.886 148.518,284.423 148.186 C 284.641 148.051,284.775 148.089,284.721 148.270 C 284.559 148.809,286.049 150.800,286.613 150.800 C 286.900 150.800,287.513 151.412,287.975 152.160 C 288.808 153.508,289.799 154.213,290.109 153.678 C 290.197 153.525,290.205 153.649,290.126 153.954 C 290.048 154.259,290.707 155.176,291.592 155.992 C 292.476 156.809,293.200 157.612,293.200 157.777 C 293.200 157.942,293.544 158.560,293.964 159.150 C 294.818 160.349,295.178 163.640,294.547 164.465 C 294.321 164.759,293.844 165.641,293.486 166.424 C 293.092 167.284,285.948 174.715,275.411 185.224 C 265.828 194.781,257.881 203.004,257.751 203.497 C 257.621 203.991,257.340 204.287,257.127 204.155 C 256.913 204.023,256.386 204.294,255.954 204.757 C 255.522 205.221,254.887 205.600,254.542 205.600 C 254.139 205.600,254.000 205.822,254.153 206.221 C 254.295 206.591,254.224 206.739,253.978 206.586 C 253.751 206.446,253.285 206.564,252.942 206.848 C 251.955 207.668,247.613 207.352,246.585 206.386 C 246.125 205.954,245.535 205.600,245.273 205.600 C 245.012 205.600,244.486 204.880,244.104 204.000 C 243.723 203.120,243.214 202.400,242.974 202.400 C 242.198 202.400,242.517 197.190,243.320 196.741 C 243.694 196.532,244.000 196.141,244.000 195.874 C 244.000 195.606,246.060 193.332,248.579 190.821 C 251.097 188.310,253.048 186.063,252.915 185.828 C 252.781 185.592,252.826 185.541,253.015 185.713 C 253.633 186.275,273.228 166.333,272.970 165.404 C 272.787 164.743,272.826 164.707,273.186 165.200 C 273.554 165.705,273.871 165.527,275.180 164.084 L 276.738 162.368 272.126 157.786 C 269.590 155.267,267.354 153.305,267.158 153.426 C 266.961 153.548,266.800 153.446,266.800 153.200 C 266.800 152.553,263.917 149.200,263.361 149.200 C 263.103 149.200,262.626 148.795,262.301 148.300 C 261.192 146.609,259.054 144.400,258.526 144.400 C 258.237 144.400,258.000 144.226,258.000 144.013 C 258.000 143.250,255.205 140.823,254.595 141.057 C 254.176 141.218,254.062 141.105,254.221 140.689 C 254.523 139.902,252.087 137.607,251.235 137.875 C 250.790 138.015,250.746 137.970,251.087 137.722 C 251.433 137.471,250.584 136.360,248.146 133.872 C 243.413 129.042,241.377 124.112,243.194 121.883 C 243.411 121.617,244.057 120.815,244.630 120.100 C 245.202 119.385,245.904 118.800,246.189 118.800 C 246.474 118.800,246.790 118.481,246.892 118.091 C 247.146 117.118,252.318 117.439,253.491 118.501 M222.198 122.002 C 221.798 122.444,221.392 122.726,221.295 122.629 C 221.061 122.395,222.101 121.235,222.562 121.215 C 222.761 121.207,222.597 121.561,222.198 122.002 M185.200 133.829 C 185.200 133.954,184.921 134.336,184.581 134.676 C 183.800 135.457,183.331 135.066,184.060 134.242 C 184.606 133.624,185.200 133.409,185.200 133.829 M331.786 148.347 C 331.705 148.429,331.368 148.225,331.038 147.895 C 330.708 147.565,330.547 147.187,330.679 147.054 C 330.812 146.921,331.149 147.124,331.428 147.506 C 331.707 147.887,331.868 148.265,331.786 148.347 M179.259 156.496 C 179.868 156.762,180.673 157.690,181.154 158.679 C 181.613 159.626,182.127 160.400,182.295 160.400 C 182.733 160.400,182.610 163.854,182.149 164.477 C 181.936 164.765,181.426 165.653,181.016 166.452 C 178.904 170.563,171.016 170.551,168.927 166.433 C 168.527 165.645,168.065 164.940,167.900 164.867 C 167.735 164.793,167.600 163.773,167.600 162.600 C 167.600 161.427,167.735 160.407,167.900 160.333 C 168.387 160.117,169.600 157.735,169.600 156.995 C 169.600 156.551,169.811 156.395,170.206 156.547 C 170.539 156.675,171.417 156.440,172.157 156.024 C 174.495 154.711,175.304 154.765,179.259 156.496 M203.500 156.269 C 204.655 156.814,205.600 157.503,205.600 157.802 C 205.600 158.101,205.915 158.446,206.300 158.569 C 207.417 158.925,207.495 163.429,206.422 165.648 C 205.966 166.592,205.698 167.726,205.824 168.179 C 206.002 168.818,205.963 168.870,205.650 168.415 C 205.215 167.782,202.142 168.858,202.540 169.504 C 202.819 169.956,198.133 169.803,197.529 169.340 C 197.238 169.117,196.415 168.702,195.700 168.419 C 194.985 168.135,194.400 167.638,194.400 167.313 C 194.400 166.989,194.024 166.195,193.564 165.549 C 192.725 164.372,192.706 163.896,193.298 158.951 C 193.357 158.461,193.611 158.183,193.900 158.294 C 194.175 158.399,194.400 158.210,194.400 157.872 C 194.400 157.525,195.311 156.828,196.500 156.266 C 199.931 154.643,200.047 154.643,203.500 156.269 M228.883 156.442 C 229.767 156.894,230.582 157.609,230.692 158.031 C 230.803 158.454,231.104 158.800,231.361 158.800 C 231.618 158.800,231.866 159.115,231.911 159.500 C 231.956 159.885,232.102 160.942,232.234 161.849 C 232.769 165.517,229.281 169.600,225.613 169.600 C 224.972 169.600,224.341 169.771,224.212 169.980 C 224.082 170.191,223.345 169.931,222.558 169.398 C 221.778 168.868,220.835 168.338,220.462 168.220 C 220.089 168.101,219.430 167.329,218.996 166.502 C 218.562 165.676,218.073 164.901,217.909 164.780 C 217.481 164.464,217.279 161.199,217.672 160.955 C 217.854 160.843,218.360 159.967,218.797 159.007 C 219.898 156.590,226.426 153.697,227.137 155.311 C 227.212 155.482,227.998 155.991,228.883 156.442 M218.388 183.584 C 218.712 183.789,218.856 184.078,218.707 184.226 C 218.559 184.374,218.147 184.204,217.790 183.848 C 217.087 183.144,217.443 182.987,218.388 183.584 M64.323 204.774 C 64.057 205.200,63.698 205.460,63.524 205.353 C 63.350 205.246,63.431 204.904,63.704 204.594 C 64.442 203.756,64.880 203.883,64.323 204.774 M272.198 204.802 C 271.798 205.244,271.392 205.526,271.295 205.429 C 271.061 205.195,272.101 204.035,272.562 204.015 C 272.761 204.007,272.597 204.361,272.198 204.802 M197.076 205.419 C 197.417 205.760,197.613 206.121,197.512 206.221 C 197.411 206.322,197.002 206.044,196.602 205.602 C 195.754 204.665,196.164 204.507,197.076 205.419 M186.167 217.343 C 185.934 217.948,185.200 218.283,185.200 217.783 C 185.200 217.498,186.168 216.451,186.309 216.583 C 186.370 216.639,186.305 216.981,186.167 217.343 M253.410 248.648 C 253.053 249.004,252.641 249.174,252.493 249.026 C 252.344 248.878,252.488 248.589,252.812 248.384 C 253.757 247.787,254.113 247.944,253.410 248.648 M301.010 250.248 C 300.653 250.604,300.241 250.774,300.093 250.626 C 299.944 250.478,300.088 250.189,300.412 249.984 C 301.357 249.387,301.713 249.544,301.010 250.248 M269.784 265.873 C 269.442 266.215,269.062 266.396,268.941 266.274 C 268.637 265.970,269.726 264.839,270.103 265.067 C 270.270 265.168,270.126 265.531,269.784 265.873 M253.410 269.352 C 253.713 269.656,253.859 270.008,253.733 270.133 C 253.502 270.364,252.400 269.451,252.400 269.029 C 252.400 268.637,252.833 268.776,253.410 269.352 M97.600 271.429 C 97.600 271.554,97.351 271.906,97.048 272.210 C 96.353 272.904,95.879 272.508,96.524 271.773 C 97.015 271.213,97.600 271.026,97.600 271.429 M110.929 299.900 C 111.026 300.065,111.846 301.418,112.752 302.907 C 113.659 304.396,114.400 305.678,114.400 305.755 C 114.400 305.888,117.964 312.051,120.740 316.718 C 121.433 317.882,122.000 319.007,122.000 319.218 C 122.000 319.428,122.136 319.600,122.302 319.600 C 122.469 319.600,122.857 320.185,123.165 320.900 C 123.473 321.615,124.036 322.650,124.416 323.200 C 124.796 323.750,125.464 324.830,125.902 325.600 C 126.339 326.370,127.620 328.589,128.749 330.532 C 131.296 334.917,131.303 334.739,128.400 339.600 C 127.080 341.810,126.000 343.780,126.000 343.976 C 126.000 344.173,125.865 344.393,125.700 344.467 C 125.430 344.587,124.222 346.689,123.040 349.097 C 122.798 349.590,122.465 349.995,122.300 349.997 C 122.135 349.999,122.000 350.172,122.000 350.382 C 122.000 350.593,121.435 351.718,120.744 352.882 C 119.341 355.249,119.285 355.345,115.106 362.600 C 113.458 365.460,111.520 368.790,110.799 370.000 C 109.127 372.806,108.015 374.736,107.342 376.000 L 106.810 377.000 112.252 377.112 C 118.157 377.233,117.970 377.294,119.278 374.807 C 119.716 373.974,122.212 369.620,125.646 363.700 C 126.061 362.985,126.735 361.815,127.144 361.100 C 127.553 360.385,128.453 358.847,129.144 357.682 C 129.835 356.518,130.400 355.466,130.400 355.344 C 130.400 355.223,130.745 354.639,131.167 354.046 C 131.589 353.453,132.520 351.895,133.235 350.584 C 135.941 345.620,137.600 343.909,137.600 346.081 C 137.600 346.299,137.939 346.954,138.353 347.538 C 138.767 348.122,139.487 349.275,139.953 350.100 C 140.419 350.925,141.160 352.230,141.600 353.000 C 142.040 353.770,142.779 355.075,143.243 355.900 C 143.706 356.725,144.227 357.580,144.400 357.800 C 144.573 358.020,145.072 358.830,145.508 359.600 C 146.408 361.187,148.948 365.599,149.998 367.400 C 150.382 368.060,151.588 370.130,152.678 372.000 C 153.767 373.870,154.913 375.805,155.225 376.300 C 155.769 377.163,156.022 377.200,161.321 377.200 L 166.850 377.200 165.741 375.100 C 165.131 373.945,164.331 372.550,163.963 372.000 C 163.595 371.450,162.913 370.325,162.447 369.500 C 161.981 368.675,161.240 367.370,160.800 366.600 C 160.360 365.830,159.619 364.525,159.153 363.700 C 158.687 362.875,157.967 361.722,157.553 361.138 C 157.139 360.554,156.800 359.972,156.800 359.843 C 156.800 359.715,155.662 357.673,154.272 355.305 C 150.695 349.216,148.206 344.903,145.957 340.900 C 145.494 340.075,144.973 339.220,144.800 339.000 C 142.511 336.091,142.539 332.180,144.861 330.400 C 145.004 330.290,145.645 329.210,146.285 328.000 C 147.334 326.017,152.033 317.886,156.658 310.049 C 157.616 308.426,158.400 306.941,158.400 306.749 C 158.400 306.557,158.559 306.400,158.753 306.400 C 158.948 306.400,159.213 306.085,159.342 305.700 C 159.588 304.972,160.579 303.207,161.730 301.450 C 162.895 299.673,162.709 299.600,157.027 299.600 L 151.654 299.600 150.890 300.700 C 150.470 301.305,149.267 303.330,148.216 305.200 C 145.476 310.075,144.867 311.126,144.123 312.262 C 142.979 314.007,141.987 315.774,141.742 316.500 C 141.613 316.885,141.369 317.200,141.200 317.200 C 141.031 317.200,140.790 317.515,140.664 317.900 C 140.538 318.285,139.879 319.500,139.200 320.600 C 138.521 321.700,137.865 322.903,137.743 323.272 C 137.621 323.642,137.273 324.040,136.970 324.156 C 136.403 324.374,135.837 323.514,131.200 315.400 C 130.760 314.630,130.040 313.370,129.600 312.600 C 129.160 311.830,128.440 310.570,128.000 309.800 C 127.560 309.030,126.840 307.770,126.400 307.000 C 125.960 306.230,125.250 304.982,124.821 304.226 C 124.393 303.470,123.581 302.120,123.016 301.226 L 121.990 299.600 116.371 299.600 C 113.281 299.600,110.832 299.735,110.929 299.900 M179.600 338.400 L 179.600 377.200 184.400 377.200 L 189.200 377.200 189.266 363.500 C 189.303 355.965,189.381 347.910,189.440 345.600 C 189.499 343.290,189.560 337.125,189.574 331.900 C 189.603 321.460,189.814 320.675,191.622 324.300 C 192.143 325.345,193.071 326.952,193.684 327.872 C 194.298 328.792,194.800 329.650,194.800 329.779 C 194.800 329.908,195.582 331.316,196.537 332.907 C 197.492 334.498,198.707 336.610,199.237 337.600 C 199.767 338.590,200.311 339.490,200.446 339.600 C 200.582 339.710,201.100 340.610,201.599 341.600 C 202.097 342.590,202.820 343.850,203.205 344.400 C 203.591 344.950,204.287 346.075,204.753 346.900 C 205.219 347.725,205.960 349.030,206.400 349.800 C 206.840 350.570,207.579 351.875,208.043 352.700 C 208.506 353.525,209.027 354.380,209.200 354.600 C 209.506 354.989,210.141 356.090,212.422 360.188 C 213.680 362.448,214.218 362.803,214.593 361.622 C 214.737 361.170,215.022 360.800,215.227 360.800 C 215.432 360.800,215.600 360.617,215.600 360.393 C 215.600 360.169,216.320 358.800,217.200 357.352 C 218.080 355.903,218.800 354.675,218.800 354.622 C 218.800 354.568,220.354 351.842,222.252 348.562 C 225.628 342.733,226.572 341.092,227.662 339.155 C 227.958 338.630,228.290 338.110,228.401 338.000 C 228.511 337.890,228.871 337.260,229.200 336.600 C 229.529 335.940,229.889 335.310,229.999 335.200 C 230.110 335.090,230.637 334.190,231.170 333.200 C 231.704 332.210,232.244 331.310,232.370 331.200 C 232.497 331.090,232.912 330.370,233.293 329.600 C 233.675 328.830,234.626 327.120,235.408 325.800 C 236.190 324.480,237.029 323.001,237.273 322.513 C 238.284 320.490,238.400 323.271,238.400 349.624 L 238.400 377.200 243.400 377.200 L 248.400 377.200 248.400 338.400 L 248.400 299.600 243.900 299.605 L 239.400 299.610 238.500 300.999 C 238.005 301.764,237.600 302.571,237.600 302.794 C 237.600 303.017,237.420 303.200,237.200 303.200 C 236.980 303.200,236.800 303.383,236.800 303.607 C 236.800 303.831,236.080 305.200,235.200 306.648 C 234.320 308.097,233.600 309.331,233.600 309.390 C 233.600 309.450,232.409 311.547,230.954 314.050 C 227.344 320.258,226.920 320.990,226.000 322.600 C 225.560 323.370,224.840 324.630,224.400 325.400 C 223.960 326.170,223.221 327.475,222.757 328.300 C 222.294 329.125,221.773 329.980,221.600 330.200 C 221.293 330.590,220.799 331.444,218.239 336.011 C 214.081 343.430,213.977 343.510,212.409 340.500 C 211.865 339.455,211.312 338.510,211.180 338.400 C 211.048 338.290,210.504 337.390,209.970 336.400 C 209.437 335.410,208.865 334.540,208.700 334.467 C 208.535 334.393,208.400 334.186,208.400 334.006 C 208.400 333.827,206.488 330.377,204.151 326.340 C 197.828 315.418,197.528 314.896,195.957 312.100 C 195.494 311.275,194.973 310.420,194.800 310.200 C 194.627 309.980,194.106 309.125,193.643 308.300 C 193.179 307.475,192.440 306.170,192.000 305.400 C 191.560 304.630,190.857 303.395,190.438 302.655 C 188.569 299.357,189.072 299.600,184.104 299.600 L 179.600 299.600 179.600 338.400 M265.600 338.400 L 265.600 377.200 284.412 377.200 L 303.225 377.200 303.112 372.300 L 303.000 367.400 289.300 367.295 L 275.600 367.189 275.600 333.395 L 275.600 299.600 270.600 299.600 L 265.600 299.600 265.600 338.400 M45.600 392.567 C 45.600 392.915,45.885 393.200,46.233 393.200 C 46.940 393.200,46.817 392.339,46.075 392.092 C 45.814 392.005,45.600 392.218,45.600 392.567 M353.478 392.256 C 353.158 392.575,353.519 393.200,354.024 393.200 C 354.231 393.200,354.400 392.930,354.400 392.600 C 354.400 391.981,353.928 391.805,353.478 392.256 M46.400 394.829 C 46.400 395.385,47.574 396.560,47.851 396.282 C 48.151 395.983,47.255 394.400,46.786 394.400 C 46.574 394.400,46.400 394.593,46.400 394.829 M352.382 395.234 C 352.136 395.693,352.031 396.165,352.149 396.282 C 352.426 396.560,353.600 395.385,353.600 394.829 C 353.600 394.105,352.853 394.353,352.382 395.234 " stroke="none" fill="#e4ece4" fill-rule="evenodd"></path><path id="path3" d="M146.400 119.171 C 144.165 120.605,107.633 157.259,106.456 159.247 C 105.399 161.034,105.370 163.255,106.375 165.469 C 107.160 167.197,143.710 204.189,146.200 205.775 C 146.860 206.195,145.960 205.174,144.200 203.506 C 134.265 194.089,107.321 166.631,106.710 165.301 C 104.632 160.775,104.770 160.592,127.088 138.364 C 149.060 116.481,149.251 116.349,153.801 119.822 C 154.826 120.604,155.515 120.977,155.332 120.651 C 153.832 117.976,149.405 117.242,146.400 119.171 M246.401 119.061 C 245.631 119.607,244.852 120.322,244.669 120.649 C 244.486 120.976,245.174 120.604,246.199 119.822 C 250.849 116.272,251.093 116.445,274.300 139.707 C 284.695 150.127,293.200 158.555,293.200 158.436 C 293.200 157.945,255.261 120.255,253.680 119.175 C 251.408 117.623,248.492 117.577,246.401 119.061 M155.920 122.080 C 156.184 122.344,156.400 123.525,156.400 124.704 C 156.400 125.883,156.548 126.756,156.729 126.644 C 157.424 126.214,156.677 121.600,155.912 121.600 C 155.553 121.600,155.555 121.715,155.920 122.080 M243.627 122.168 C 243.348 122.504,243.216 123.604,243.304 124.868 L 243.452 127.000 243.526 124.780 C 243.567 123.559,243.816 122.344,244.080 122.080 C 244.344 121.816,244.456 121.600,244.329 121.600 C 244.202 121.600,243.886 121.855,243.627 122.168 M138.900 145.570 C 129.825 154.727,122.400 162.396,122.400 162.611 C 122.400 162.826,129.344 169.931,137.830 178.401 C 156.661 197.193,156.308 196.792,156.503 199.628 L 156.652 201.800 156.726 199.718 C 156.832 196.733,156.776 196.667,138.804 178.710 C 130.002 169.915,122.800 162.601,122.800 162.456 C 122.800 162.312,130.180 154.819,139.200 145.805 C 148.220 136.791,155.600 129.277,155.600 129.108 C 155.600 128.684,157.094 127.211,138.900 145.570 M244.807 129.600 C 244.996 129.930,252.362 137.399,261.175 146.198 C 269.989 154.997,277.200 162.344,277.200 162.524 C 277.200 162.705,270.042 169.995,261.292 178.726 C 252.543 187.457,245.002 195.140,244.533 195.800 C 244.065 196.460,251.269 189.386,260.541 180.081 C 269.814 170.775,277.400 162.905,277.400 162.592 C 277.400 162.278,269.989 154.592,260.932 145.511 C 251.875 136.430,244.618 129.270,244.807 129.600 M172.938 155.906 C 172.684 156.068,173.612 156.200,175.000 156.200 C 176.388 156.200,177.316 156.068,177.062 155.906 C 176.808 155.744,175.880 155.612,175.000 155.612 C 174.120 155.612,173.192 155.744,172.938 155.906 M198.021 155.955 C 197.620 156.225,197.950 156.277,199.093 156.124 C 200.001 156.002,201.337 156.109,202.063 156.362 C 203.069 156.713,203.271 156.711,202.914 156.354 C 202.303 155.743,198.764 155.454,198.021 155.955 M222.938 155.906 C 222.684 156.068,223.612 156.200,225.000 156.200 C 226.388 156.200,227.316 156.068,227.062 155.906 C 226.808 155.744,225.880 155.612,225.000 155.612 C 224.120 155.612,223.192 155.744,222.938 155.906 M170.160 157.760 C 169.412 158.508,168.805 159.363,168.812 159.660 C 168.819 159.961,169.013 159.845,169.250 159.400 C 169.484 158.960,170.237 158.105,170.923 157.500 C 171.609 156.895,172.024 156.400,171.845 156.400 C 171.666 156.400,170.908 157.012,170.160 157.760 M178.756 157.133 C 179.282 157.548,180.062 158.318,180.489 158.844 L 181.267 159.800 180.567 158.534 C 180.183 157.838,179.403 157.068,178.834 156.823 L 177.800 156.378 178.756 157.133 M195.947 157.004 C 195.369 157.318,194.774 157.892,194.625 158.279 C 194.422 158.809,194.631 158.740,195.478 157.997 C 196.095 157.455,196.771 156.874,196.980 156.706 C 197.558 156.241,197.119 156.367,195.947 157.004 M220.730 157.085 C 219.664 157.747,218.577 159.511,218.985 159.918 C 219.103 160.037,219.200 159.900,219.200 159.614 C 219.200 159.328,219.843 158.488,220.628 157.747 C 222.238 156.229,222.252 156.141,220.730 157.085 M228.756 157.133 C 229.282 157.548,230.062 158.318,230.489 158.844 L 231.267 159.800 230.567 158.534 C 230.183 157.838,229.403 157.068,228.834 156.823 L 227.800 156.378 228.756 157.133 M204.472 157.900 C 205.033 158.505,205.692 159.360,205.934 159.800 C 206.252 160.376,206.379 160.429,206.388 159.989 C 206.400 159.361,204.280 156.800,203.748 156.800 C 203.584 156.800,203.910 157.295,204.472 157.900 M293.416 159.600 C 293.619 159.930,293.899 161.100,294.037 162.200 L 294.287 164.200 294.344 162.149 C 294.385 160.656,294.216 159.949,293.723 159.549 C 293.139 159.075,293.097 159.082,293.416 159.600 M181.386 162.334 C 181.393 163.646,181.532 164.513,181.694 164.260 C 182.060 163.687,182.039 161.642,181.657 160.674 C 181.495 160.261,181.377 160.979,181.386 162.334 M231.386 162.334 C 231.393 163.646,231.532 164.513,231.694 164.260 C 232.060 163.687,232.039 161.642,231.657 160.674 C 231.495 160.261,231.377 160.979,231.386 162.334 M168.243 161.033 C 167.902 161.922,167.952 163.704,168.334 164.307 C 168.518 164.597,168.644 163.866,168.628 162.607 C 168.597 160.165,168.589 160.131,168.243 161.033 M218.243 161.033 C 217.902 161.922,217.952 163.704,218.334 164.307 C 218.518 164.597,218.644 163.866,218.628 162.607 C 218.597 160.165,218.589 160.131,218.243 161.033 M193.314 162.600 C 193.317 163.700,193.395 164.103,193.487 163.495 C 193.579 162.886,193.577 161.986,193.482 161.495 C 193.387 161.003,193.311 161.500,193.314 162.600 M206.400 162.600 C 206.400 163.663,206.495 164.439,206.610 164.323 C 206.925 164.008,206.970 161.236,206.665 160.932 C 206.519 160.786,206.400 161.537,206.400 162.600 M293.167 165.620 C 292.852 166.286,289.455 169.969,285.619 173.804 C 281.782 177.639,278.735 180.869,278.848 180.981 C 279.179 181.312,292.639 167.471,293.381 166.037 C 293.754 165.316,293.988 164.654,293.900 164.567 C 293.813 164.479,293.483 164.953,293.167 165.620 M168.802 165.314 C 168.797 166.061,170.218 167.689,171.359 168.245 L 172.600 168.848 171.601 168.048 C 171.052 167.608,170.198 166.742,169.703 166.124 C 169.209 165.506,168.803 165.141,168.802 165.314 M180.200 166.400 C 179.859 167.060,179.438 167.600,179.266 167.600 C 179.094 167.600,178.604 167.879,178.176 168.219 C 177.486 168.771,177.542 168.770,178.693 168.213 C 179.762 167.695,181.690 165.200,181.021 165.200 C 180.911 165.200,180.541 165.740,180.200 166.400 M218.821 165.400 C 218.816 166.040,220.099 167.440,221.400 168.214 C 222.421 168.821,222.377 168.735,221.107 167.640 C 220.285 166.932,219.436 166.048,219.219 165.676 C 219.002 165.304,218.823 165.180,218.821 165.400 M229.298 167.049 C 227.735 168.678,227.694 168.772,228.791 168.205 C 229.449 167.865,230.264 167.050,230.604 166.393 C 231.379 164.893,231.355 164.905,229.298 167.049 M173.400 169.193 C 174.435 169.647,176.058 169.678,176.723 169.256 C 177.037 169.057,176.319 168.908,174.923 168.883 C 173.277 168.854,172.833 168.944,173.400 169.193 M198.400 169.200 C 198.730 169.413,199.450 169.588,200.000 169.588 C 200.550 169.588,201.270 169.413,201.600 169.200 C 202.027 168.924,201.566 168.812,200.000 168.812 C 198.434 168.812,197.973 168.924,198.400 169.200 M223.200 169.192 C 223.930 169.673,226.006 169.711,226.723 169.256 C 227.038 169.056,226.326 168.900,224.923 168.861 C 223.271 168.815,222.773 168.911,223.200 169.192 M267.909 191.544 C 262.266 197.214,256.815 202.622,255.794 203.563 C 254.774 204.503,254.037 205.371,254.157 205.491 C 254.277 205.611,259.816 200.290,266.466 193.666 C 273.116 187.043,278.469 181.536,278.363 181.430 C 278.256 181.323,273.552 185.875,267.909 191.544 M243.320 199.600 C 243.320 200.810,243.395 201.305,243.487 200.700 C 243.578 200.095,243.578 199.105,243.487 198.500 C 243.395 197.895,243.320 198.390,243.320 199.600 M243.601 202.314 C 243.599 203.166,244.828 204.769,246.153 205.643 L 247.400 206.466 246.342 205.533 C 245.761 205.020,244.906 203.970,244.444 203.200 C 243.981 202.430,243.602 202.031,243.601 202.314 M155.438 203.527 C 155.096 204.187,154.588 204.809,154.308 204.909 C 154.029 205.009,153.917 205.217,154.060 205.372 C 154.202 205.526,154.812 205.006,155.415 204.215 C 156.018 203.425,156.410 202.676,156.285 202.552 C 156.161 202.427,155.780 202.866,155.438 203.527 M148.700 206.689 C 149.415 206.778,150.585 206.778,151.300 206.689 C 152.015 206.601,151.430 206.528,150.000 206.528 C 148.570 206.528,147.985 206.601,148.700 206.689 M248.700 206.689 C 249.415 206.778,250.585 206.778,251.300 206.689 C 252.015 206.601,251.430 206.528,250.000 206.528 C 248.570 206.528,247.985 206.601,248.700 206.689 M60.600 278.417 C 52.460 278.537,45.755 278.672,45.700 278.717 C 45.231 279.105,45.671 391.142,46.142 391.323 C 46.597 391.497,46.684 382.454,46.681 335.265 L 46.677 279.000 200.038 279.000 L 353.400 279.000 353.400 335.429 C 353.400 380.572,353.500 391.757,353.900 391.357 C 354.295 390.962,354.400 379.122,354.400 334.847 L 354.400 278.836 353.100 278.606 C 351.415 278.307,80.045 278.132,60.600 278.417 M179.384 299.700 C 179.279 299.975,179.240 317.570,179.297 338.800 L 179.400 377.400 184.200 377.418 L 189.000 377.437 184.296 377.306 L 179.592 377.175 179.696 338.188 C 179.753 316.744,179.749 299.200,179.687 299.200 C 179.626 299.200,179.489 299.425,179.384 299.700 M189.594 301.100 C 190.295 302.255,190.958 303.200,191.067 303.200 C 191.337 303.200,189.618 300.346,188.898 299.600 C 188.580 299.270,188.893 299.945,189.594 301.100 M248.304 338.220 L 248.408 377.200 243.404 377.200 L 238.400 377.200 238.400 349.600 C 238.400 334.420,238.265 322.000,238.100 322.000 C 237.935 322.000,237.890 334.465,238.000 349.700 L 238.200 377.400 243.400 377.400 L 248.600 377.400 248.702 338.622 C 248.758 317.294,248.668 299.708,248.502 299.542 C 248.336 299.376,248.247 316.781,248.304 338.220 M265.366 299.745 C 265.251 300.044,265.214 301.349,265.284 302.645 L 265.412 305.000 265.606 302.099 C 265.801 299.188,265.754 298.733,265.366 299.745 M275.791 333.400 C 275.791 352.100,275.840 359.692,275.900 350.270 C 275.960 340.849,275.960 325.549,275.900 316.270 C 275.840 306.992,275.791 314.700,275.791 333.400 M160.614 303.435 C 160.241 304.004,160.005 304.538,160.089 304.622 C 160.173 304.707,160.558 304.241,160.944 303.588 C 161.806 302.128,161.548 302.009,160.614 303.435 M235.800 304.800 C 235.459 305.460,235.269 306.000,235.379 306.000 C 235.489 306.000,235.859 305.460,236.200 304.800 C 236.541 304.140,236.731 303.600,236.621 303.600 C 236.511 303.600,236.141 304.140,235.800 304.800 M125.615 305.400 C 125.617 305.620,125.986 306.250,126.436 306.800 C 126.979 307.464,127.115 307.531,126.840 307.000 C 126.166 305.695,125.612 304.972,125.615 305.400 M159.353 305.700 C 157.976 308.036,157.886 308.235,158.587 307.400 C 159.400 306.432,160.100 305.200,159.838 305.200 C 159.733 305.200,159.515 305.425,159.353 305.700 M265.324 307.400 C 265.326 308.720,265.401 309.212,265.490 308.493 C 265.579 307.774,265.577 306.694,265.486 306.093 C 265.395 305.492,265.322 306.080,265.324 307.400 M146.614 307.035 C 146.241 307.604,146.005 308.138,146.089 308.222 C 146.173 308.307,146.558 307.841,146.944 307.188 C 147.806 305.728,147.548 305.609,146.614 307.035 M127.215 308.200 C 127.217 308.420,127.586 309.050,128.036 309.600 C 128.579 310.264,128.715 310.331,128.440 309.800 C 127.766 308.495,127.212 307.772,127.215 308.200 M157.053 309.700 L 156.333 311.000 157.158 310.000 C 157.889 309.113,158.214 308.400,157.886 308.400 C 157.824 308.400,157.449 308.985,157.053 309.700 M145.014 309.835 C 144.641 310.404,144.405 310.938,144.489 311.022 C 144.573 311.107,144.958 310.641,145.344 309.988 C 146.206 308.528,145.948 308.409,145.014 309.835 M232.708 310.100 C 231.833 311.449,231.048 313.056,231.487 312.600 C 232.048 312.017,233.698 309.200,233.479 309.200 C 233.376 309.200,233.029 309.605,232.708 310.100 M265.324 312.200 C 265.326 313.520,265.401 314.012,265.490 313.293 C 265.579 312.574,265.577 311.494,265.486 310.893 C 265.395 310.292,265.322 310.880,265.324 312.200 M265.320 316.800 C 265.320 318.010,265.395 318.505,265.487 317.900 C 265.578 317.295,265.578 316.305,265.487 315.700 C 265.395 315.095,265.320 315.590,265.320 316.800 M120.430 317.000 C 120.924 317.880,121.500 318.780,121.710 319.000 C 122.309 319.628,120.939 317.094,120.196 316.200 C 119.830 315.760,119.935 316.120,120.430 317.000 M141.014 316.635 C 140.641 317.204,140.405 317.738,140.489 317.822 C 140.573 317.907,140.958 317.441,141.344 316.788 C 142.206 315.328,141.948 315.209,141.014 316.635 M198.415 316.200 C 198.417 316.420,198.786 317.050,199.236 317.600 C 199.779 318.264,199.915 318.331,199.640 317.800 C 198.966 316.495,198.412 315.772,198.415 316.200 M139.753 318.900 C 138.376 321.236,138.286 321.435,138.987 320.600 C 139.800 319.632,140.500 318.400,140.238 318.400 C 140.133 318.400,139.915 318.625,139.753 318.900 M265.324 321.400 C 265.326 322.720,265.401 323.212,265.490 322.493 C 265.579 321.774,265.577 320.694,265.486 320.093 C 265.395 319.492,265.322 320.080,265.324 321.400 M225.853 322.100 L 225.133 323.400 225.958 322.400 C 226.689 321.513,227.014 320.800,226.686 320.800 C 226.624 320.800,226.249 321.385,225.853 322.100 M123.215 321.800 C 123.217 322.020,123.586 322.650,124.036 323.200 C 124.579 323.864,124.715 323.931,124.440 323.400 C 123.766 322.095,123.212 321.372,123.215 321.800 M189.782 322.902 C 189.676 323.178,189.639 329.793,189.700 337.602 L 189.811 351.800 189.905 337.276 C 189.976 326.420,190.117 322.825,190.462 323.038 C 190.748 323.215,190.815 323.148,190.638 322.862 C 190.270 322.266,190.022 322.278,189.782 322.902 M265.324 326.200 C 265.326 327.520,265.401 328.012,265.490 327.293 C 265.579 326.574,265.577 325.494,265.486 324.893 C 265.395 324.292,265.322 324.880,265.324 326.200 M146.614 327.435 C 146.241 328.004,146.005 328.538,146.089 328.622 C 146.173 328.707,146.558 328.241,146.944 327.588 C 147.806 326.128,147.548 326.009,146.614 327.435 M127.206 328.450 C 127.197 328.805,129.233 332.400,129.442 332.400 C 129.538 332.400,129.260 331.725,128.824 330.900 C 127.878 329.111,127.215 328.106,127.206 328.450 M193.615 328.600 C 193.617 328.820,193.986 329.450,194.436 330.000 C 194.979 330.664,195.115 330.731,194.840 330.200 C 194.166 328.895,193.612 328.172,193.615 328.600 M265.351 333.200 C 265.351 335.730,265.416 336.765,265.496 335.500 C 265.575 334.235,265.575 332.165,265.496 330.900 C 265.416 329.635,265.351 330.670,265.351 333.200 M145.353 329.700 C 143.976 332.036,143.886 332.235,144.587 331.400 C 145.400 330.432,146.100 329.200,145.838 329.200 C 145.733 329.200,145.515 329.425,145.353 329.700 M206.760 330.600 C 207.434 331.905,207.988 332.628,207.985 332.200 C 207.983 331.980,207.614 331.350,207.164 330.800 C 206.621 330.136,206.485 330.069,206.760 330.600 M220.253 331.700 L 219.533 333.000 220.358 332.000 C 221.089 331.113,221.414 330.400,221.086 330.400 C 221.024 330.400,220.649 330.985,220.253 331.700 M143.228 333.348 C 142.949 333.869,142.808 334.634,142.914 335.047 C 143.059 335.612,143.119 335.545,143.154 334.780 C 143.179 334.219,143.413 333.547,143.673 333.287 C 143.934 333.026,144.054 332.721,143.941 332.607 C 143.827 332.494,143.507 332.827,143.228 333.348 M208.349 333.400 C 208.565 333.840,209.034 334.560,209.393 335.000 L 210.044 335.800 209.651 335.000 C 209.435 334.560,208.966 333.840,208.607 333.400 L 207.956 332.600 208.349 333.400 M210.760 337.400 C 211.434 338.705,211.988 339.428,211.985 339.000 C 211.983 338.780,211.614 338.150,211.164 337.600 C 210.621 336.936,210.485 336.869,210.760 337.400 M227.814 339.035 C 227.441 339.604,227.205 340.138,227.289 340.222 C 227.373 340.307,227.758 339.841,228.144 339.188 C 229.006 337.728,228.748 337.609,227.814 339.035 M265.324 340.200 C 265.326 341.520,265.401 342.012,265.490 341.293 C 265.579 340.574,265.577 339.494,265.486 338.893 C 265.395 338.292,265.322 338.880,265.324 340.200 M225.853 342.500 L 225.133 343.800 225.958 342.800 C 226.689 341.913,227.014 341.200,226.686 341.200 C 226.624 341.200,226.249 341.785,225.853 342.500 M125.414 343.835 C 125.041 344.404,124.805 344.938,124.889 345.022 C 124.973 345.107,125.358 344.641,125.744 343.988 C 126.606 342.528,126.348 342.409,125.414 343.835 M265.324 345.000 C 265.326 346.320,265.401 346.812,265.490 346.093 C 265.579 345.374,265.577 344.294,265.486 343.693 C 265.395 343.092,265.322 343.680,265.324 345.000 M148.415 345.000 C 148.417 345.220,148.786 345.850,149.236 346.400 C 149.779 347.064,149.915 347.131,149.640 346.600 C 148.966 345.295,148.412 344.572,148.415 345.000 M123.814 346.635 C 123.441 347.204,123.205 347.738,123.289 347.822 C 123.373 347.907,123.758 347.441,124.144 346.788 C 125.006 345.328,124.748 345.209,123.814 346.635 M222.653 348.100 L 221.933 349.400 222.758 348.400 C 223.489 347.513,223.814 346.800,223.486 346.800 C 223.424 346.800,223.049 347.385,222.653 348.100 M265.328 350.000 C 265.328 351.430,265.401 352.015,265.489 351.300 C 265.578 350.585,265.578 349.415,265.489 348.700 C 265.401 347.985,265.328 348.570,265.328 350.000 M121.000 351.600 C 120.659 352.260,120.469 352.800,120.579 352.800 C 120.689 352.800,121.059 352.260,121.400 351.600 C 121.741 350.940,121.931 350.400,121.821 350.400 C 121.711 350.400,121.341 350.940,121.000 351.600 M132.708 351.700 C 131.833 353.049,131.048 354.656,131.487 354.200 C 132.048 353.617,133.698 350.800,133.479 350.800 C 133.376 350.800,133.029 351.205,132.708 351.700 M189.701 353.400 C 189.705 354.280,189.787 354.593,189.883 354.095 C 189.979 353.598,189.975 352.878,189.875 352.495 C 189.775 352.113,189.696 352.520,189.701 353.400 M141.160 353.000 C 141.834 354.305,142.388 355.028,142.385 354.600 C 142.383 354.380,142.014 353.750,141.564 353.200 C 141.021 352.536,140.885 352.469,141.160 353.000 M265.314 354.600 C 265.317 355.700,265.395 356.103,265.487 355.495 C 265.579 354.886,265.577 353.986,265.482 353.495 C 265.387 353.003,265.311 353.500,265.314 354.600 M209.215 355.400 C 209.217 355.620,209.586 356.250,210.036 356.800 C 210.579 357.464,210.715 357.531,210.440 357.000 C 209.766 355.695,209.212 354.972,209.215 355.400 M265.314 358.600 C 265.317 359.700,265.395 360.103,265.487 359.495 C 265.579 358.886,265.577 357.986,265.482 357.495 C 265.387 357.003,265.311 357.500,265.314 358.600 M144.415 358.600 C 144.417 358.820,144.786 359.450,145.236 360.000 C 145.779 360.664,145.915 360.731,145.640 360.200 C 144.966 358.895,144.412 358.172,144.415 358.600 M156.760 359.400 C 157.434 360.705,157.988 361.428,157.985 361.000 C 157.983 360.780,157.614 360.150,157.164 359.600 C 156.621 358.936,156.485 358.869,156.760 359.400 M214.932 361.433 C 214.798 361.782,214.309 362.232,213.844 362.433 C 213.141 362.738,213.125 362.783,213.752 362.700 C 214.438 362.609,216.042 360.800,215.436 360.800 C 215.292 360.800,215.066 361.085,214.932 361.433 M265.301 362.200 C 265.305 363.080,265.387 363.393,265.483 362.895 C 265.579 362.398,265.575 361.678,265.475 361.295 C 265.375 360.913,265.296 361.320,265.301 362.200 M125.414 364.235 C 125.041 364.804,124.805 365.338,124.889 365.422 C 124.973 365.507,125.358 365.041,125.744 364.388 C 126.606 362.928,126.348 362.809,125.414 364.235 M265.344 367.600 C 265.344 369.690,265.412 370.545,265.494 369.500 C 265.576 368.455,265.576 366.745,265.494 365.700 C 265.412 364.655,265.344 365.510,265.344 367.600 M124.153 366.500 C 122.776 368.836,122.686 369.035,123.387 368.200 C 124.200 367.232,124.900 366.000,124.638 366.000 C 124.533 366.000,124.315 366.225,124.153 366.500 M303.456 372.051 C 303.486 374.687,303.594 376.927,303.695 377.028 C 303.985 377.318,303.952 368.254,303.661 367.728 C 303.517 367.469,303.425 369.414,303.456 372.051 M109.353 371.700 C 107.976 374.036,107.886 374.235,108.587 373.400 C 109.400 372.432,110.100 371.200,109.838 371.200 C 109.733 371.200,109.515 371.425,109.353 371.700 M265.361 375.697 L 265.400 377.400 284.400 377.406 L 303.400 377.412 284.523 377.302 L 265.646 377.192 265.484 375.593 L 265.322 373.994 265.361 375.697 M107.053 375.700 L 106.333 377.000 107.158 376.000 C 107.889 375.113,108.214 374.400,107.886 374.400 C 107.824 374.400,107.449 374.985,107.053 375.700 M118.172 376.788 C 117.958 377.002,115.267 377.232,112.192 377.300 L 106.600 377.425 112.251 377.512 C 116.863 377.584,117.994 377.490,118.400 377.000 C 118.952 376.335,118.782 376.178,118.172 376.788 M155.149 376.900 C 155.632 377.516,156.378 377.589,161.349 377.512 L 167.000 377.425 161.427 377.300 C 157.826 377.220,155.632 377.004,155.227 376.688 C 154.675 376.258,154.665 376.283,155.149 376.900 M352.058 394.700 C 351.621 395.720,351.631 395.743,352.193 395.024 C 352.527 394.597,353.025 394.104,353.300 393.930 C 353.668 393.696,353.632 393.611,353.164 393.606 C 352.815 393.603,352.317 394.095,352.058 394.700 M47.611 394.646 C 47.632 395.320,50.000 398.153,50.000 397.505 C 50.000 397.154,49.862 396.807,49.693 396.733 C 49.524 396.660,48.984 396.081,48.493 395.446 C 48.002 394.811,47.605 394.451,47.611 394.646 M350.471 396.629 C 350.180 396.958,350.000 397.385,350.071 397.577 C 350.142 397.769,350.523 397.493,350.919 396.963 C 351.697 395.920,351.336 395.650,350.471 396.629 " stroke="none" fill="#cdce9d" fill-rule="evenodd"></path><path id="path4" d="M149.305 118.687 C 149.914 118.779,150.814 118.777,151.305 118.682 C 151.797 118.587,151.300 118.511,150.200 118.514 C 149.100 118.517,148.697 118.595,149.305 118.687 M248.900 118.687 C 249.505 118.778,250.495 118.778,251.100 118.687 C 251.705 118.595,251.210 118.520,250.000 118.520 C 248.790 118.520,248.295 118.595,248.900 118.687 M127.294 138.100 C 117.097 148.275,108.378 157.140,107.920 157.800 C 107.462 158.460,115.932 150.181,126.743 139.402 C 137.554 128.622,146.400 119.757,146.400 119.702 C 146.400 119.142,143.356 122.073,127.294 138.100 M154.434 120.647 C 154.965 121.333,155.480 121.823,155.579 121.735 C 155.677 121.647,155.243 121.086,154.613 120.488 L 153.469 119.400 154.434 120.647 M244.829 121.091 C 243.106 123.182,243.077 126.239,244.757 128.822 C 245.393 129.800,253.043 137.709,261.757 146.398 C 270.471 155.087,277.600 162.369,277.600 162.580 C 277.600 162.790,269.950 170.638,260.600 180.019 L 243.600 197.074 243.676 199.637 L 243.751 202.200 243.896 199.881 C 244.081 196.922,242.656 198.559,261.995 179.097 L 278.592 162.395 261.884 145.697 C 252.694 136.514,244.911 128.484,244.588 127.854 C 243.534 125.799,243.818 122.804,245.229 121.091 C 245.905 120.271,246.368 119.600,246.258 119.600 C 246.148 119.600,245.505 120.271,244.829 121.091 M271.692 137.733 C 281.751 147.814,290.823 156.993,291.851 158.131 C 292.880 159.269,293.492 159.750,293.212 159.200 C 292.648 158.090,256.504 121.651,254.601 120.273 C 253.942 119.796,261.633 127.653,271.692 137.733 M156.128 124.800 C 156.128 126.230,156.201 126.815,156.289 126.100 C 156.378 125.385,156.378 124.215,156.289 123.500 C 156.201 122.785,156.128 123.370,156.128 124.800 M155.200 128.195 C 155.200 128.522,147.730 136.235,138.600 145.335 C 129.470 154.436,122.000 162.134,122.000 162.443 C 122.000 162.751,129.123 170.113,137.829 178.802 C 146.536 187.491,154.186 195.352,154.829 196.272 C 156.631 198.846,156.320 202.978,154.209 204.494 C 153.942 204.686,153.959 204.790,154.260 204.794 C 155.220 204.807,156.400 202.016,156.400 199.733 C 156.400 196.851,156.943 197.475,137.830 178.401 C 129.344 169.931,122.400 162.824,122.400 162.607 C 122.400 162.390,129.760 154.830,138.754 145.806 C 153.984 130.529,156.696 127.600,155.614 127.600 C 155.386 127.600,155.200 127.868,155.200 128.195 M174.105 156.287 C 174.714 156.379,175.614 156.377,176.105 156.282 C 176.597 156.187,176.100 156.111,175.000 156.114 C 173.900 156.117,173.497 156.195,174.105 156.287 M199.100 156.282 C 199.595 156.378,200.405 156.378,200.900 156.282 C 201.395 156.187,200.990 156.109,200.000 156.109 C 199.010 156.109,198.605 156.187,199.100 156.282 M224.105 156.287 C 224.714 156.379,225.614 156.377,226.105 156.282 C 226.597 156.187,226.100 156.111,225.000 156.114 C 223.900 156.117,223.497 156.195,224.105 156.287 M171.089 157.254 C 170.478 157.710,169.704 158.649,169.369 159.342 C 168.814 160.490,168.816 160.530,169.388 159.800 C 170.639 158.204,171.047 157.788,172.015 157.121 C 172.557 156.748,172.820 156.438,172.600 156.434 C 172.380 156.429,171.700 156.798,171.089 157.254 M203.104 157.198 C 206.949 159.542,207.016 165.826,203.218 167.791 C 202.548 168.137,202.000 168.522,202.000 168.647 C 202.000 169.233,204.699 167.205,205.499 166.019 C 207.561 162.959,205.356 156.392,202.269 156.401 C 202.011 156.402,202.387 156.761,203.104 157.198 M195.329 158.100 C 194.884 158.595,194.376 159.270,194.201 159.600 C 193.863 160.237,193.955 160.150,195.576 158.300 C 196.106 157.695,196.449 157.200,196.339 157.200 C 196.229 157.200,195.775 157.605,195.329 158.100 M220.316 157.898 C 219.979 158.284,219.490 159.050,219.229 159.600 C 218.777 160.555,218.784 160.564,219.386 159.800 C 219.732 159.360,220.295 158.668,220.636 158.262 C 221.435 157.313,221.129 156.965,220.316 157.898 M228.800 157.367 C 228.800 157.788,230.005 158.928,230.221 158.712 C 230.322 158.611,230.044 158.202,229.602 157.802 C 229.161 157.403,228.800 157.207,228.800 157.367 M106.114 162.200 C 106.117 163.300,106.195 163.703,106.287 163.095 C 106.379 162.486,106.377 161.586,106.282 161.095 C 106.187 160.603,106.111 161.100,106.114 162.200 M193.672 162.441 C 193.587 165.101,194.598 166.929,196.801 168.099 C 197.571 168.508,197.860 168.608,197.445 168.321 C 194.970 166.614,194.077 165.080,193.881 162.200 L 193.744 160.200 193.672 162.441 M293.720 162.400 C 293.720 163.610,293.795 164.105,293.887 163.500 C 293.978 162.895,293.978 161.905,293.887 161.300 C 293.795 160.695,293.720 161.190,293.720 162.400 M181.301 162.600 C 181.305 163.480,181.387 163.793,181.483 163.295 C 181.579 162.798,181.575 162.078,181.475 161.695 C 181.375 161.313,181.296 161.720,181.301 162.600 M231.301 162.600 C 231.305 163.480,231.387 163.793,231.483 163.295 C 231.579 162.798,231.575 162.078,231.475 161.695 C 231.375 161.313,231.296 161.720,231.301 162.600 M218.801 164.769 C 218.800 165.449,222.207 168.800,222.900 168.800 C 223.167 168.800,222.703 168.336,221.868 167.769 C 221.033 167.201,220.002 166.166,219.577 165.469 C 219.151 164.771,218.802 164.456,218.801 164.769 M106.907 165.712 C 107.383 166.715,145.602 205.331,145.862 205.071 C 145.922 205.011,137.369 196.331,126.855 185.781 C 116.340 175.231,107.432 166.150,107.058 165.600 L 106.379 164.600 106.907 165.712 M292.452 166.100 C 292.005 166.815,283.211 175.815,272.910 186.100 C 262.608 196.385,254.289 204.800,254.422 204.800 C 254.901 204.800,292.543 166.865,293.078 165.844 C 293.850 164.371,293.425 164.545,292.452 166.100 M171.143 167.500 C 171.908 168.215,172.723 168.800,172.956 168.800 C 173.188 168.800,172.933 168.502,172.389 168.138 C 171.845 167.773,171.030 167.188,170.577 166.838 C 170.124 166.487,170.379 166.785,171.143 167.500 M178.600 167.433 L 177.000 168.837 178.464 168.000 C 179.270 167.540,180.029 166.901,180.152 166.582 C 180.447 165.813,180.448 165.812,178.600 167.433 M226.576 168.580 C 225.827 169.140,225.832 169.152,226.706 168.932 C 227.205 168.806,227.710 168.545,227.830 168.352 C 228.168 167.804,227.436 167.938,226.576 168.580 M146.768 205.700 C 147.459 206.613,152.202 206.676,153.376 205.787 C 153.804 205.464,153.949 205.200,153.700 205.200 C 153.451 205.200,153.136 205.380,153.000 205.600 C 152.639 206.184,147.472 206.100,146.799 205.500 C 146.322 205.075,146.318 205.104,146.768 205.700 M246.768 205.700 C 247.459 206.613,252.202 206.676,253.376 205.787 C 253.804 205.464,253.949 205.200,253.700 205.200 C 253.451 205.200,253.136 205.380,253.000 205.600 C 252.639 206.184,247.472 206.100,246.799 205.500 C 246.322 205.075,246.318 205.104,246.768 205.700 M46.769 279.099 C 46.583 280.905,46.754 392.087,46.943 392.276 C 47.084 392.418,47.200 367.033,47.200 335.867 L 47.200 279.200 200.134 279.200 L 353.068 279.200 353.026 335.700 L 352.984 392.200 352.064 393.939 C 351.558 394.895,351.223 395.756,351.318 395.852 C 351.414 395.947,351.718 395.480,351.995 394.813 C 352.271 394.146,352.734 393.600,353.024 393.600 C 353.457 393.600,353.537 383.457,353.475 336.300 L 353.400 279.000 200.100 278.899 C 115.785 278.844,46.786 278.934,46.769 279.099 M112.600 299.068 C 117.423 299.359,122.711 299.375,122.539 299.100 C 122.437 298.935,119.708 298.833,116.476 298.874 C 113.244 298.915,111.500 299.002,112.600 299.068 M154.300 299.097 C 155.895 299.173,158.505 299.173,160.100 299.097 C 161.695 299.021,160.390 298.959,157.200 298.959 C 154.010 298.959,152.705 299.021,154.300 299.097 M179.300 299.065 C 178.736 299.292,178.538 376.991,179.100 377.338 C 179.265 377.440,179.400 359.946,179.400 338.462 L 179.400 299.400 184.000 299.284 C 188.297 299.176,188.646 299.225,189.300 300.029 C 189.685 300.502,190.000 300.717,190.000 300.506 C 190.000 299.070,181.968 297.988,179.300 299.065 M238.723 299.500 C 238.392 299.885,237.985 300.470,237.817 300.800 C 237.649 301.130,237.937 300.907,238.456 300.304 C 239.364 299.250,239.568 299.204,243.800 299.089 L 248.200 298.970 243.762 298.885 C 239.964 298.812,239.237 298.901,238.723 299.500 M265.257 299.331 C 264.764 299.925,264.634 377.050,265.126 377.354 C 265.276 377.447,265.400 359.946,265.400 338.462 L 265.400 299.400 270.662 299.400 C 273.557 299.400,275.841 299.265,275.739 299.100 C 275.389 298.536,265.740 298.749,265.257 299.331 M162.653 300.500 L 161.933 301.800 162.758 300.800 C 163.489 299.913,163.814 299.200,163.486 299.200 C 163.424 299.200,163.049 299.785,162.653 300.500 M123.386 301.100 C 123.735 301.815,124.106 302.400,124.210 302.400 C 124.608 302.400,124.352 301.763,123.567 300.800 L 122.752 299.800 123.386 301.100 M236.214 303.435 C 235.841 304.004,235.605 304.538,235.689 304.622 C 235.773 304.707,236.158 304.241,236.544 303.588 C 237.406 302.128,237.148 302.009,236.214 303.435 M147.400 305.200 C 147.059 305.860,146.869 306.400,146.979 306.400 C 147.089 306.400,147.459 305.860,147.800 305.200 C 148.141 304.540,148.331 304.000,148.221 304.000 C 148.111 304.000,147.741 304.540,147.400 305.200 M234.705 306.100 C 233.844 307.422,232.646 309.865,233.088 309.400 C 233.611 308.850,235.674 305.200,235.463 305.200 C 235.369 305.200,235.028 305.605,234.705 306.100 M114.360 307.000 C 115.034 308.305,115.588 309.028,115.585 308.600 C 115.583 308.380,115.214 307.750,114.764 307.200 C 114.221 306.536,114.085 306.469,114.360 307.000 M194.360 308.600 C 195.034 309.905,195.588 310.628,195.585 310.200 C 195.583 309.980,195.214 309.350,194.764 308.800 C 194.221 308.136,194.085 308.069,194.360 308.600 M129.000 310.800 C 129.341 311.460,129.711 312.000,129.821 312.000 C 129.931 312.000,129.741 311.460,129.400 310.800 C 129.059 310.140,128.689 309.600,128.579 309.600 C 128.469 309.600,128.659 310.140,129.000 310.800 M117.560 312.600 C 118.234 313.905,118.788 314.628,118.785 314.200 C 118.783 313.980,118.414 313.350,117.964 312.800 C 117.421 312.136,117.285 312.069,117.560 312.600 M131.960 315.800 C 132.634 317.105,133.188 317.828,133.185 317.400 C 133.183 317.180,132.814 316.550,132.364 316.000 C 131.821 315.336,131.685 315.269,131.960 315.800 M200.815 319.800 C 200.817 320.020,201.186 320.650,201.636 321.200 C 202.179 321.864,202.315 321.931,202.040 321.400 C 201.366 320.095,200.812 319.372,200.815 319.800 M134.415 320.200 C 134.417 320.420,134.786 321.050,135.236 321.600 C 135.779 322.264,135.915 322.331,135.640 321.800 C 134.966 320.495,134.412 319.772,134.415 320.200 M150.600 321.200 C 150.259 321.860,150.069 322.400,150.179 322.400 C 150.289 322.400,150.659 321.860,151.000 321.200 C 151.341 320.540,151.531 320.000,151.421 320.000 C 151.311 320.000,150.941 320.540,150.600 321.200 M137.336 322.623 C 137.204 322.966,136.841 323.148,136.528 323.028 C 136.212 322.907,136.067 322.986,136.203 323.205 C 136.588 323.828,137.135 323.670,137.600 322.800 C 137.835 322.360,137.926 322.000,137.802 322.000 C 137.677 322.000,137.467 322.280,137.336 322.623 M202.415 322.600 C 202.417 322.820,202.786 323.450,203.236 324.000 C 203.779 324.664,203.915 324.731,203.640 324.200 C 202.966 322.895,202.412 322.172,202.415 322.600 M149.105 323.700 C 148.244 325.022,147.046 327.465,147.488 327.000 C 148.011 326.450,150.074 322.800,149.863 322.800 C 149.769 322.800,149.428 323.205,149.105 323.700 M223.000 326.400 C 222.659 327.060,222.469 327.600,222.579 327.600 C 222.689 327.600,223.059 327.060,223.400 326.400 C 223.741 325.740,223.931 325.200,223.821 325.200 C 223.711 325.200,223.341 325.740,223.000 326.400 M235.467 326.300 C 234.472 327.955,233.190 330.514,233.514 330.200 C 234.048 329.682,236.084 326.000,235.836 326.000 C 235.732 326.000,235.566 326.135,235.467 326.300 M129.160 332.600 C 129.834 333.905,130.388 334.628,130.385 334.200 C 130.383 333.980,130.014 333.350,129.564 332.800 C 129.021 332.136,128.885 332.069,129.160 332.600 M217.440 335.998 C 216.840 337.099,216.436 338.000,216.541 338.000 C 216.808 338.000,218.843 334.310,218.671 334.137 C 218.593 334.060,218.039 334.897,217.440 335.998 M129.386 336.500 L 128.752 337.800 129.567 336.800 C 130.352 335.837,130.608 335.200,130.210 335.200 C 130.106 335.200,129.735 335.785,129.386 336.500 M198.430 337.400 C 198.924 338.280,199.500 339.180,199.710 339.400 C 200.309 340.028,198.939 337.494,198.196 336.600 C 197.830 336.160,197.935 336.520,198.430 337.400 M144.586 337.900 C 144.935 338.615,145.306 339.200,145.410 339.200 C 145.808 339.200,145.552 338.563,144.767 337.600 L 143.952 336.600 144.586 337.900 M146.643 341.400 C 147.943 343.755,148.800 345.078,148.800 344.727 C 148.800 344.285,147.185 341.435,146.348 340.400 C 145.814 339.739,145.914 340.079,146.643 341.400 M214.653 340.900 L 213.933 342.200 214.758 341.200 C 215.489 340.313,215.814 339.600,215.486 339.600 C 215.424 339.600,215.049 340.185,214.653 340.900 M200.360 340.600 C 201.034 341.905,201.588 342.628,201.585 342.200 C 201.583 341.980,201.214 341.350,200.764 340.800 C 200.221 340.136,200.085 340.069,200.360 340.600 M202.325 344.200 C 202.772 345.080,203.433 346.160,203.794 346.600 C 204.155 347.040,203.959 346.500,203.359 345.400 C 202.016 342.938,201.207 341.999,202.325 344.200 M135.100 348.006 C 133.730 350.490,133.988 350.646,135.421 348.200 C 136.610 346.171,136.692 346.128,137.478 347.100 C 137.989 347.732,138.002 347.712,137.608 346.900 C 136.946 345.533,136.309 345.814,135.100 348.006 M150.828 348.670 C 152.028 350.836,152.649 351.345,151.594 349.298 C 151.112 348.362,150.551 347.494,150.349 347.368 C 150.146 347.243,150.362 347.829,150.828 348.670 M205.215 349.000 C 205.217 349.220,205.586 349.850,206.036 350.400 C 206.579 351.064,206.715 351.131,206.440 350.600 C 205.766 349.295,205.212 348.572,205.215 349.000 M121.414 350.235 C 121.041 350.804,120.805 351.338,120.889 351.422 C 120.973 351.507,121.358 351.041,121.744 350.388 C 122.606 348.928,122.348 348.809,121.414 350.235 M152.409 351.500 C 152.414 351.665,152.785 352.250,153.233 352.800 L 154.048 353.800 153.414 352.500 C 152.811 351.265,152.389 350.845,152.409 351.500 M119.019 354.421 C 117.643 356.769,117.059 358.189,118.127 356.589 C 119.188 354.999,120.828 352.000,120.636 352.000 C 120.527 352.000,119.800 353.090,119.019 354.421 M154.009 354.300 C 154.014 354.465,154.385 355.050,154.833 355.600 L 155.648 356.600 155.014 355.300 C 154.411 354.065,153.989 353.645,154.009 354.300 M129.786 357.300 L 129.152 358.600 129.967 357.600 C 130.752 356.637,131.008 356.000,130.610 356.000 C 130.506 356.000,130.135 356.585,129.786 357.300 M217.467 357.500 C 216.472 359.155,215.190 361.714,215.514 361.400 C 216.048 360.882,218.084 357.200,217.836 357.200 C 217.732 357.200,217.566 357.335,217.467 357.500 M114.653 362.100 L 113.933 363.400 114.758 362.400 C 115.489 361.513,115.814 360.800,115.486 360.800 C 115.424 360.800,115.049 361.385,114.653 362.100 M147.160 363.800 C 147.834 365.105,148.388 365.828,148.385 365.400 C 148.383 365.180,148.014 364.550,147.564 364.000 C 147.021 363.336,146.885 363.269,147.160 363.800 M148.978 367.075 C 149.317 367.776,149.794 368.472,150.037 368.623 C 150.574 368.955,149.995 367.815,149.010 366.600 C 148.408 365.857,148.406 365.891,148.978 367.075 M111.414 367.435 C 111.041 368.004,110.827 368.561,110.939 368.672 C 111.050 368.783,111.429 368.318,111.781 367.637 C 112.559 366.133,112.344 366.015,111.414 367.435 M282.700 367.099 C 286.495 367.165,292.705 367.165,296.500 367.099 C 300.295 367.034,297.190 366.980,289.600 366.980 C 282.010 366.980,278.905 367.034,282.700 367.099 M162.360 368.600 C 163.034 369.905,163.588 370.628,163.585 370.200 C 163.583 369.980,163.214 369.350,162.764 368.800 C 162.221 368.136,162.085 368.069,162.360 368.600 M150.400 369.341 C 150.400 369.491,151.120 370.800,152.000 372.248 C 152.880 373.697,153.601 374.998,153.602 375.141 C 153.603 375.283,154.068 375.940,154.635 376.600 L 155.666 377.800 154.833 376.538 C 154.375 375.844,154.000 375.188,154.000 375.079 C 154.000 374.895,150.873 369.600,150.548 369.233 C 150.467 369.142,150.400 369.190,150.400 369.341 M165.206 373.502 C 165.688 374.438,166.249 375.306,166.451 375.432 C 166.871 375.691,165.334 372.810,164.727 372.200 C 164.508 371.980,164.723 372.566,165.206 373.502 M120.308 373.700 C 119.433 375.049,118.648 376.656,119.087 376.200 C 119.648 375.617,121.298 372.800,121.079 372.800 C 120.976 372.800,120.629 373.205,120.308 373.700 M46.600 393.200 C 46.464 393.420,46.588 393.605,46.876 393.611 C 47.164 393.617,47.839 394.333,48.375 395.202 C 48.911 396.072,49.415 396.718,49.495 396.638 C 49.574 396.559,49.181 395.818,48.620 394.991 C 48.059 394.165,47.600 393.333,47.600 393.144 C 47.600 392.671,46.903 392.710,46.600 393.200 M50.046 397.067 C 49.963 397.910,50.475 398.800,51.043 398.800 C 51.349 398.800,51.600 398.620,51.600 398.400 C 51.600 398.180,51.343 398.000,51.029 398.000 C 50.715 398.000,50.376 397.685,50.276 397.300 C 50.175 396.915,50.072 396.810,50.046 397.067 M349.600 397.533 C 349.600 397.790,349.330 398.000,349.000 398.000 C 348.670 398.000,348.400 398.180,348.400 398.400 C 348.400 399.058,349.494 398.852,349.767 398.143 C 349.905 397.781,349.925 397.391,349.809 397.276 C 349.694 397.161,349.600 397.277,349.600 397.533 M54.000 399.600 C 54.788 400.109,55.715 400.109,55.400 399.600 C 55.264 399.380,54.758 399.203,54.276 399.206 C 53.564 399.211,53.512 399.285,54.000 399.600 M344.200 399.600 C 343.905 400.078,344.689 400.078,345.800 399.600 C 346.514 399.293,346.485 399.253,345.524 399.228 C 344.932 399.213,344.336 399.380,344.200 399.600 " stroke="none" fill="#bcc47d" fill-rule="evenodd"></path></g></svg>