<svg xmlns="http://www.w3.org/2000/svg" xmlns:xlink="http://www.w3.org/1999/xlink" id="svg" width="400" height="400" viewBox="0, 0, 400,400"><g id="svgg"><path id="path0" d="M127.200 55.200 L 152.600 55.400 155.800 57.685 C 160.679 61.169,168.190 66.618,172.200 69.583 C 174.180 71.047,177.420 73.404,179.400 74.822 C 181.380 76.239,183.729 77.939,184.620 78.599 C 185.512 79.260,186.682 80.113,187.220 80.495 C 187.759 80.877,190.180 82.641,192.600 84.414 C 195.020 86.187,200.330 90.056,204.400 93.010 C 208.470 95.964,211.982 98.521,212.205 98.691 C 212.428 98.861,214.003 100.054,215.705 101.342 C 222.978 106.847,222.800 106.080,222.800 131.869 L 222.800 152.749 221.700 152.923 C 221.095 153.018,221.390 153.030,222.356 152.948 C 223.322 152.867,226.041 152.800,228.400 152.800 L 232.689 152.800 232.932 150.746 C 233.521 145.771,239.183 145.861,239.845 150.856 L 240.103 152.800 244.396 152.800 C 246.757 152.800,249.478 152.867,250.444 152.948 C 251.410 153.030,251.705 153.018,251.100 152.923 L 250.000 152.749 249.990 132.875 C 249.976 104.577,251.174 107.286,232.800 93.990 C 224.940 88.302,206.210 74.678,203.400 72.605 C 201.860 71.468,196.910 67.872,192.400 64.613 C 181.620 56.824,180.400 55.898,180.400 55.502 C 180.400 55.319,190.748 55.221,203.394 55.285 C 216.041 55.348,225.969 55.288,225.455 55.151 C 224.941 55.014,196.909 54.924,163.160 54.951 C 125.160 54.981,111.470 55.076,127.200 55.200 M101.600 66.106 C 101.600 66.194,102.365 66.874,103.300 67.617 C 104.235 68.360,104.746 68.652,104.436 68.265 C 103.851 67.537,101.600 65.823,101.600 66.106 M108.869 71.876 C 111.113 73.689,111.517 73.875,109.818 72.312 C 108.928 71.494,108.051 70.819,107.869 70.812 C 107.687 70.805,108.137 71.284,108.869 71.876 M125.744 84.709 C 126.060 85.221,128.400 86.953,128.400 86.675 C 128.400 86.576,127.739 85.991,126.932 85.375 C 126.124 84.759,125.589 84.459,125.744 84.709 M267.600 84.525 C 267.600 84.624,268.261 85.209,269.068 85.825 C 269.876 86.441,270.411 86.741,270.256 86.491 C 269.940 85.979,267.600 84.247,267.600 84.525 M287.200 99.325 C 287.200 99.424,287.861 100.009,288.668 100.625 C 289.476 101.241,290.011 101.541,289.856 101.291 C 289.540 100.779,287.200 99.047,287.200 99.325 M105.331 99.888 C 105.480 100.129,106.546 101.003,107.701 101.830 C 108.855 102.658,109.583 103.071,109.318 102.748 C 108.685 101.978,104.979 99.319,105.331 99.888 M111.600 104.751 C 112.590 105.645,113.580 106.377,113.800 106.379 C 114.220 106.382,113.023 105.344,111.000 103.951 C 110.340 103.497,110.610 103.857,111.600 104.751 M98.353 107.078 C 98.601 107.560,98.983 108.066,99.202 108.201 C 99.887 108.625,99.637 108.005,98.751 107.083 L 97.901 106.200 98.353 107.078 M103.200 110.977 C 103.200 111.218,112.340 118.000,112.665 118.000 C 112.807 118.000,110.961 116.527,108.562 114.727 C 106.163 112.927,104.140 111.307,104.067 111.127 C 103.929 110.789,103.200 110.663,103.200 110.977 M120.822 111.480 C 120.853 111.922,123.195 113.739,123.431 113.503 C 123.536 113.398,122.987 112.827,122.211 112.235 C 121.435 111.644,120.810 111.303,120.822 111.480 M124.033 114.131 C 128.786 117.872,133.600 121.352,133.600 121.047 C 133.600 120.788,124.478 114.000,124.130 114.000 C 123.985 114.000,123.942 114.059,124.033 114.131 M297.898 116.400 C 298.013 117.830,298.174 119.075,298.254 119.167 C 298.549 119.504,298.333 115.374,298.015 114.600 C 297.822 114.130,297.774 114.873,297.898 116.400 M170.900 114.697 C 172.385 114.774,174.815 114.774,176.300 114.697 C 177.785 114.620,176.570 114.557,173.600 114.557 C 170.630 114.557,169.415 114.620,170.900 114.697 M167.600 115.910 C 167.600 116.593,167.777 117.262,167.994 117.396 C 168.240 117.548,168.294 117.145,168.137 116.320 C 167.800 114.551,167.600 114.399,167.600 115.910 M180.075 118.400 C 180.086 118.950,180.232 119.940,180.400 120.600 L 180.705 121.800 180.725 120.400 C 180.735 119.630,180.589 118.640,180.400 118.200 C 180.088 117.474,180.058 117.493,180.075 118.400 M168.423 119.633 C 168.436 120.605,168.605 122.120,168.799 123.000 C 169.058 124.175,169.092 123.750,168.927 121.400 C 168.680 117.882,168.387 116.852,168.423 119.633 M113.665 119.102 C 114.251 119.486,115.286 120.217,115.965 120.727 C 116.644 121.237,117.189 121.507,117.175 121.327 C 117.141 120.870,113.693 118.400,113.093 118.402 C 112.822 118.403,113.079 118.718,113.665 119.102 M156.434 118.800 C 156.446 119.130,156.611 119.760,156.800 120.200 L 157.144 121.000 157.166 120.200 C 157.178 119.760,157.013 119.130,156.800 118.800 C 156.455 118.267,156.415 118.267,156.434 118.800 M298.562 125.800 C 298.562 129.320,298.624 130.706,298.698 128.881 C 298.772 127.056,298.772 124.176,298.697 122.481 C 298.622 120.786,298.561 122.280,298.562 125.800 M137.205 123.873 C 137.208 124.053,137.857 124.619,138.648 125.132 C 139.440 125.645,139.972 125.878,139.831 125.651 C 139.441 125.018,137.199 123.501,137.205 123.873 M157.344 127.200 C 157.344 129.290,157.412 130.145,157.494 129.100 C 157.576 128.055,157.576 126.345,157.494 125.300 C 157.412 124.255,157.344 125.110,157.344 127.200 M180.950 128.600 C 180.954 131.249,181.080 132.862,181.231 132.200 C 181.594 130.610,181.595 126.058,181.232 124.800 C 181.073 124.250,180.946 125.960,180.950 128.600 M140.400 126.300 C 140.400 126.469,140.760 126.832,141.200 127.107 C 141.640 127.382,142.000 127.469,142.000 127.300 C 142.000 127.131,141.640 126.768,141.200 126.493 C 140.760 126.218,140.400 126.131,140.400 126.300 M169.331 128.600 C 169.333 130.140,169.405 130.721,169.492 129.891 C 169.579 129.061,169.577 127.801,169.489 127.091 C 169.400 126.381,169.329 127.060,169.331 128.600 M125.600 128.000 C 127.391 129.400,130.227 131.291,129.200 130.400 C 126.614 128.156,125.367 127.210,125.000 127.214 C 124.780 127.216,125.050 127.570,125.600 128.000 M143.605 128.715 C 143.608 128.872,144.193 129.398,144.905 129.884 C 145.991 130.625,149.165 133.012,151.608 134.924 C 154.960 137.548,156.400 138.236,156.400 137.213 C 156.400 136.999,156.153 136.920,155.851 137.036 C 155.544 137.154,152.726 135.305,149.451 132.838 C 146.233 130.414,143.602 128.559,143.605 128.715 M131.569 132.297 C 133.923 134.345,139.794 138.739,139.957 138.576 C 140.054 138.479,140.058 138.348,139.967 138.284 C 139.875 138.221,137.910 136.754,135.600 135.024 C 131.130 131.676,129.893 130.840,131.569 132.297 M298.072 134.067 C 298.032 135.094,297.896 136.264,297.770 136.667 C 297.554 137.354,297.568 137.356,297.992 136.697 C 298.240 136.310,298.376 135.140,298.294 134.097 L 298.144 132.200 298.072 134.067 M168.595 135.311 C 168.443 136.727,168.392 138.226,168.480 138.642 C 168.569 139.059,168.777 137.984,168.942 136.254 C 169.107 134.524,169.158 133.025,169.056 132.923 C 168.954 132.821,168.746 133.895,168.595 135.311 M156.629 134.229 C 156.481 134.815,156.451 135.384,156.561 135.494 C 156.671 135.604,156.881 135.215,157.029 134.629 C 157.176 134.042,157.206 133.473,157.096 133.363 C 156.986 133.253,156.776 133.642,156.629 134.229 M180.246 137.147 C 180.089 138.327,180.046 139.379,180.150 139.483 C 180.417 139.750,180.922 136.164,180.707 135.525 C 180.611 135.236,180.403 135.966,180.246 137.147 M297.029 139.029 C 296.881 139.615,296.851 140.184,296.961 140.294 C 297.071 140.404,297.281 140.015,297.429 139.429 C 297.576 138.842,297.606 138.273,297.496 138.163 C 297.386 138.053,297.176 138.442,297.029 139.029 M141.600 139.900 C 141.600 140.069,141.960 140.432,142.400 140.707 C 142.840 140.982,143.200 141.069,143.200 140.900 C 143.200 140.731,142.840 140.368,142.400 140.093 C 141.960 139.818,141.600 139.731,141.600 139.900 M167.756 140.171 C 167.635 140.485,167.604 141.160,167.686 141.671 C 167.795 142.354,167.888 142.204,168.037 141.100 C 168.247 139.547,168.136 139.181,167.756 140.171 M143.769 141.549 C 144.159 142.182,146.401 143.699,146.395 143.327 C 146.392 143.147,145.743 142.581,144.952 142.068 C 144.160 141.555,143.628 141.322,143.769 141.549 M148.000 144.700 C 148.000 144.869,148.360 145.232,148.800 145.507 C 149.240 145.782,149.600 145.869,149.600 145.700 C 149.600 145.531,149.240 145.168,148.800 144.893 C 148.360 144.618,148.000 144.531,148.000 144.700 M294.073 146.200 C 293.822 146.750,293.683 147.200,293.763 147.200 C 293.843 147.200,294.203 146.750,294.563 146.200 C 294.924 145.650,295.063 145.200,294.873 145.200 C 294.684 145.200,294.323 145.650,294.073 146.200 M150.770 146.947 C 151.852 148.123,152.066 148.238,151.780 147.491 C 151.672 147.212,151.183 146.738,150.692 146.439 C 149.841 145.920,149.845 145.944,150.770 146.947 M115.870 151.663 C 118.252 153.458,120.425 155.100,120.700 155.312 C 120.975 155.524,121.200 155.600,121.200 155.481 C 121.200 155.211,112.160 148.400,111.801 148.400 C 111.658 148.400,113.489 149.868,115.870 151.663 M103.400 154.927 C 104.280 155.720,105.149 156.377,105.331 156.385 C 105.513 156.393,105.153 155.991,104.531 155.491 C 102.413 153.787,101.795 153.479,103.400 154.927 M121.600 155.900 C 121.600 156.069,121.960 156.432,122.400 156.707 C 122.840 156.982,123.200 157.069,123.200 156.900 C 123.200 156.731,122.840 156.368,122.400 156.093 C 121.960 155.818,121.600 155.731,121.600 155.900 M216.895 169.887 L 216.800 183.573 218.213 184.987 C 219.270 186.044,219.966 186.400,220.971 186.400 C 222.520 186.400,222.800 186.864,222.800 189.433 L 222.800 191.200 187.280 191.200 C 159.430 191.200,151.639 191.092,151.199 190.700 C 150.722 190.275,150.718 190.304,151.168 190.900 C 151.666 191.557,153.857 191.600,187.203 191.600 L 222.709 191.600 223.007 202.700 C 223.314 214.136,223.039 223.512,222.377 224.180 C 222.170 224.389,222.000 225.059,222.000 225.668 C 222.000 227.482,220.154 230.970,218.146 232.949 L 216.268 234.800 228.323 234.800 C 249.551 234.800,249.691 234.542,249.975 195.103 L 250.000 191.607 271.900 191.500 L 293.800 191.393 271.880 191.297 L 249.960 191.200 250.080 188.900 C 250.199 186.622,250.214 186.597,251.600 186.321 C 252.370 186.168,252.100 186.157,251.000 186.297 C 248.111 186.665,224.190 186.599,221.678 186.217 C 220.133 185.982,219.236 185.575,218.383 184.721 L 217.210 183.549 217.100 169.874 L 216.989 156.200 216.895 169.887 M297.893 159.800 C 298.013 161.120,298.176 162.275,298.255 162.367 C 298.551 162.707,298.331 158.970,298.010 158.200 C 297.808 157.717,297.762 158.351,297.893 159.800 M124.800 158.300 C 124.800 158.469,125.160 158.832,125.600 159.107 C 126.040 159.382,126.400 159.469,126.400 159.300 C 126.400 159.131,126.040 158.768,125.600 158.493 C 125.160 158.218,124.800 158.131,124.800 158.300 M167.736 159.022 C 167.605 159.364,167.671 160.032,167.882 160.507 C 168.211 161.244,168.262 161.154,168.234 159.886 C 168.197 158.258,168.096 158.083,167.736 159.022 M255.778 170.800 C 255.778 177.730,255.833 180.565,255.899 177.100 C 255.966 173.635,255.966 167.965,255.899 164.500 C 255.833 161.035,255.778 163.870,255.778 170.800 M223.200 169.157 C 223.200 178.233,223.278 179.544,223.833 179.757 C 224.659 180.074,248.141 180.074,248.967 179.757 C 249.522 179.544,249.600 178.233,249.600 169.157 L 249.600 158.800 244.835 158.800 L 240.071 158.800 239.935 163.206 C 239.809 167.329,239.735 167.670,238.792 168.506 C 238.237 168.998,237.958 169.265,238.172 169.100 C 239.497 168.076,239.591 170.294,238.274 171.530 C 236.407 173.285,233.332 172.007,233.682 169.622 C 233.779 168.961,233.665 168.355,233.429 168.277 C 233.167 168.190,232.948 166.320,232.866 163.467 L 232.731 158.800 227.966 158.800 L 223.200 158.800 223.200 169.157 M128.000 160.700 C 128.000 160.869,128.360 161.232,128.800 161.507 C 129.240 161.782,129.600 161.869,129.600 161.700 C 129.600 161.531,129.240 161.168,128.800 160.893 C 128.360 160.618,128.000 160.531,128.000 160.700 M112.600 161.878 C 112.943 162.217,117.653 165.804,122.900 169.721 C 123.725 170.337,124.400 170.754,124.400 170.648 C 124.400 170.541,121.925 168.586,118.900 166.302 C 113.726 162.395,111.648 160.937,112.600 161.878 M168.423 163.033 C 168.436 163.895,168.603 165.320,168.794 166.200 C 169.052 167.386,169.084 167.024,168.919 164.800 C 168.677 161.547,168.386 160.510,168.423 163.033 M180.272 163.400 C 180.399 164.500,180.569 165.475,180.651 165.567 C 180.932 165.882,180.720 163.399,180.380 162.400 C 180.151 161.726,180.116 162.051,180.272 163.400 M156.412 162.800 C 156.412 163.130,156.587 163.670,156.800 164.000 C 157.145 164.533,157.188 164.533,157.188 164.000 C 157.188 163.670,157.013 163.130,156.800 162.800 C 156.455 162.267,156.412 162.267,156.412 162.800 M131.205 163.073 C 131.208 163.253,131.793 163.798,132.505 164.283 C 133.217 164.769,134.295 165.549,134.900 166.017 C 135.505 166.484,136.000 166.788,136.000 166.692 C 136.000 166.596,134.920 165.670,133.600 164.632 C 132.280 163.595,131.202 162.894,131.205 163.073 M298.563 169.600 C 298.563 173.230,298.623 174.715,298.698 172.900 C 298.772 171.085,298.772 168.115,298.698 166.300 C 298.623 164.485,298.563 165.970,298.563 169.600 M136.559 167.134 C 136.692 167.349,137.720 168.186,138.842 168.992 C 139.965 169.799,140.774 170.282,140.641 170.066 C 140.508 169.851,139.480 169.014,138.358 168.208 C 137.235 167.401,136.426 166.918,136.559 167.134 M157.340 170.800 C 157.340 172.670,157.409 173.435,157.493 172.500 C 157.577 171.565,157.577 170.035,157.493 169.100 C 157.409 168.165,157.340 168.930,157.340 170.800 M180.930 172.200 C 180.928 176.536,180.963 176.772,181.291 174.641 C 181.507 173.234,181.508 171.295,181.294 169.841 C 180.963 167.607,180.933 167.806,180.930 172.200 M169.337 172.200 C 169.339 173.960,169.409 174.630,169.493 173.689 C 169.578 172.749,169.577 171.309,169.491 170.489 C 169.405 169.670,169.336 170.440,169.337 172.200 M141.200 170.525 C 141.200 170.624,141.861 171.209,142.668 171.825 C 143.476 172.441,144.011 172.741,143.856 172.491 C 143.540 171.979,141.200 170.247,141.200 170.525 M124.969 171.149 C 125.359 171.782,127.601 173.299,127.595 172.927 C 127.592 172.747,126.943 172.181,126.152 171.668 C 125.360 171.155,124.828 170.922,124.969 171.149 M128.169 173.549 C 128.559 174.182,130.801 175.699,130.795 175.327 C 130.792 175.147,130.143 174.581,129.352 174.068 C 128.560 173.555,128.028 173.322,128.169 173.549 M298.114 178.200 C 298.117 179.300,298.195 179.703,298.287 179.095 C 298.379 178.486,298.377 177.586,298.282 177.095 C 298.187 176.603,298.111 177.100,298.114 178.200 M168.893 178.000 C 168.893 178.770,168.975 179.085,169.076 178.700 C 169.176 178.315,169.176 177.685,169.076 177.300 C 168.975 176.915,168.893 177.230,168.893 178.000 M156.600 178.000 C 156.450 178.473,156.417 178.950,156.527 179.060 C 156.637 179.170,156.850 178.873,157.000 178.400 C 157.150 177.927,157.183 177.450,157.073 177.340 C 156.963 177.230,156.750 177.527,156.600 178.000 M134.544 178.309 C 134.860 178.821,137.200 180.553,137.200 180.275 C 137.200 180.176,136.539 179.591,135.732 178.975 C 134.924 178.359,134.389 178.059,134.544 178.309 M153.127 179.800 C 153.781 180.350,154.470 180.799,154.658 180.798 C 155.085 180.796,152.723 178.834,152.269 178.814 C 152.087 178.806,152.473 179.250,153.127 179.800 M180.246 180.747 C 180.089 181.927,180.046 182.979,180.150 183.083 C 180.417 183.350,180.922 179.764,180.707 179.125 C 180.611 178.836,180.403 179.566,180.246 180.747 M168.509 181.200 C 168.509 182.190,168.587 182.595,168.682 182.100 C 168.778 181.605,168.778 180.795,168.682 180.300 C 168.587 179.805,168.509 180.210,168.509 181.200 M137.605 180.673 C 137.608 180.853,138.257 181.419,139.048 181.932 C 139.840 182.445,140.372 182.678,140.231 182.451 C 139.841 181.818,137.599 180.301,137.605 180.673 M297.050 182.850 C 296.717 184.517,297.040 184.840,297.400 183.200 C 297.552 182.509,297.593 181.859,297.491 181.758 C 297.389 181.656,297.191 182.147,297.050 182.850 M140.800 182.970 C 140.800 183.060,141.520 183.703,142.400 184.400 C 143.280 185.097,143.993 185.517,143.985 185.334 C 143.970 185.005,140.800 182.653,140.800 182.970 M167.764 184.199 C 167.241 186.286,167.530 186.400,173.355 186.400 C 179.572 186.400,180.014 186.297,179.960 184.857 L 179.920 183.800 179.643 184.800 L 179.365 185.800 173.628 185.911 L 167.892 186.023 168.121 184.611 C 168.383 182.993,168.138 182.709,167.764 184.199 M254.176 184.826 C 253.487 185.545,253.280 185.944,253.677 185.792 C 254.250 185.572,255.876 183.600,255.484 183.600 C 255.410 183.600,254.821 184.152,254.176 184.826 M145.597 186.744 C 146.366 187.401,147.073 187.860,147.168 187.765 C 147.366 187.567,146.186 186.588,145.000 185.968 C 144.560 185.737,144.829 186.086,145.597 186.744 M147.600 188.149 C 147.600 188.235,148.230 188.786,149.000 189.373 C 149.770 189.960,150.398 190.297,150.395 190.120 C 150.392 189.944,149.762 189.393,148.995 188.896 C 148.228 188.399,147.600 188.063,147.600 188.149 M47.200 336.000 C 47.200 373.600,47.335 392.800,47.600 392.800 C 47.820 392.800,48.000 393.097,48.000 393.461 C 48.000 394.328,50.451 397.572,51.118 397.588 C 51.403 397.594,52.039 398.005,52.532 398.500 C 53.139 399.110,53.794 399.358,54.563 399.269 C 55.187 399.197,55.892 399.332,56.129 399.569 C 56.747 400.187,343.442 400.180,343.824 399.562 C 343.973 399.321,344.698 399.194,345.436 399.280 C 346.292 399.380,346.850 399.248,346.977 398.915 C 347.087 398.628,347.678 398.170,348.289 397.898 C 349.545 397.339,350.588 396.193,351.900 393.931 L 352.800 392.379 352.800 335.789 L 352.800 279.200 200.000 279.200 L 47.200 279.200 47.200 336.000 M192.400 299.000 C 192.400 299.550,192.241 300.000,192.047 300.000 C 191.852 300.000,191.586 300.315,191.455 300.700 C 191.323 301.085,190.589 302.480,189.822 303.800 C 189.056 305.120,187.884 307.190,187.218 308.400 C 186.553 309.610,185.458 311.500,184.786 312.600 C 184.114 313.700,183.462 314.915,183.336 315.300 C 183.210 315.685,182.992 316.000,182.851 316.000 C 182.710 316.000,182.341 316.585,182.030 317.300 C 181.719 318.015,181.360 318.690,181.232 318.800 C 180.846 319.133,179.566 321.353,179.329 322.100 C 179.207 322.485,178.948 322.800,178.753 322.800 C 178.559 322.800,178.400 323.160,178.400 323.600 C 178.400 324.040,178.242 324.400,178.049 324.400 C 177.855 324.400,177.473 324.940,177.200 325.600 C 176.927 326.260,176.545 326.800,176.351 326.800 C 176.158 326.800,176.000 327.160,176.000 327.600 C 176.000 328.040,175.841 328.400,175.647 328.400 C 175.452 328.400,175.193 328.715,175.071 329.100 C 174.854 329.785,173.596 332.004,173.200 332.400 C 173.090 332.510,172.692 333.230,172.315 334.000 C 171.938 334.770,170.986 336.480,170.199 337.800 C 169.413 339.120,168.665 340.515,168.538 340.900 C 168.411 341.285,168.192 341.600,168.051 341.600 C 167.910 341.600,167.543 342.185,167.235 342.900 C 166.927 343.615,166.364 344.650,165.984 345.200 C 164.861 346.828,163.182 349.747,162.936 350.500 C 162.810 350.885,162.581 351.200,162.428 351.200 C 162.275 351.200,161.902 351.830,161.600 352.600 C 161.298 353.370,160.904 354.000,160.725 354.000 C 160.546 354.000,160.400 354.236,160.400 354.525 C 160.400 354.813,160.040 355.436,159.600 355.908 C 159.160 356.380,158.800 356.957,158.800 357.189 C 158.800 357.643,157.958 359.272,157.554 359.600 C 157.418 359.710,156.900 360.610,156.401 361.600 C 155.903 362.590,155.159 363.878,154.748 364.462 C 154.336 365.046,154.000 365.631,154.000 365.762 C 154.000 365.893,162.078 366.000,171.951 366.000 C 193.005 366.000,190.869 365.333,190.713 371.857 L 190.600 376.600 163.200 376.704 C 148.130 376.761,135.577 376.722,135.305 376.618 C 134.866 376.450,135.935 373.978,136.782 373.200 C 136.902 373.090,137.374 372.280,137.830 371.400 C 138.993 369.158,139.761 367.834,140.032 367.600 C 140.160 367.490,140.519 366.815,140.830 366.100 C 141.141 365.385,141.531 364.800,141.698 364.800 C 141.864 364.800,142.000 364.564,142.000 364.275 C 142.000 363.987,142.360 363.364,142.800 362.892 C 143.240 362.420,143.600 361.843,143.600 361.611 C 143.600 361.180,144.421 359.561,144.822 359.200 C 144.945 359.090,145.685 357.830,146.467 356.400 C 147.248 354.970,148.273 353.125,148.744 352.300 C 149.712 350.604,150.867 348.567,151.662 347.155 C 151.958 346.630,152.294 346.110,152.410 346.000 C 152.525 345.890,153.065 344.945,153.609 343.900 C 154.153 342.855,154.734 342.000,154.899 342.000 C 155.065 342.000,155.200 341.640,155.200 341.200 C 155.200 340.760,155.359 340.400,155.553 340.400 C 155.748 340.400,156.007 340.085,156.129 339.700 C 156.366 338.953,157.646 336.733,158.032 336.400 C 158.160 336.290,158.519 335.615,158.830 334.900 C 159.141 334.185,159.510 333.600,159.651 333.600 C 159.792 333.600,160.014 333.285,160.145 332.900 C 160.277 332.515,161.011 331.120,161.778 329.800 C 162.544 328.480,163.716 326.410,164.382 325.200 C 165.048 323.990,166.070 322.190,166.653 321.200 C 167.639 319.526,168.316 318.345,169.662 315.955 C 169.958 315.430,170.290 314.910,170.400 314.800 C 170.796 314.404,172.054 312.185,172.271 311.500 C 172.393 311.115,172.652 310.800,172.847 310.800 C 173.041 310.800,173.200 310.455,173.200 310.033 C 173.200 309.612,173.425 309.176,173.700 309.065 C 173.975 308.954,165.875 308.849,155.700 308.832 L 137.200 308.800 137.200 303.667 C 137.200 300.843,137.320 298.413,137.467 298.267 C 137.613 298.120,150.033 298.000,165.067 298.000 L 192.400 298.000 192.400 299.000 M218.302 337.500 L 218.404 376.800 213.002 376.800 L 207.600 376.800 207.600 337.388 L 207.600 297.977 212.900 298.088 L 218.200 298.200 218.302 337.500 M258.481 298.349 C 258.987 298.541,260.120 298.913,261.000 299.175 C 262.626 299.661,264.037 300.209,265.300 300.847 C 266.548 301.477,267.795 302.195,268.000 302.402 C 268.110 302.514,268.830 303.078,269.600 303.657 C 271.716 305.248,272.545 306.064,273.600 307.600 C 274.129 308.370,274.886 309.291,275.281 309.647 C 275.676 310.003,276.000 310.573,276.000 310.914 C 276.000 311.254,276.135 311.593,276.300 311.667 C 276.734 311.860,278.400 315.173,278.400 315.843 C 278.400 316.155,278.559 316.723,278.753 317.105 C 279.499 318.574,280.000 321.747,280.000 325.000 C 280.000 328.253,279.499 331.426,278.753 332.895 C 278.559 333.277,278.400 333.845,278.400 334.157 C 278.400 334.827,276.734 338.140,276.300 338.333 C 276.135 338.407,276.000 338.797,276.000 339.200 C 276.000 339.603,275.858 339.993,275.685 340.067 C 275.512 340.140,274.747 341.010,273.985 342.000 C 273.223 342.990,272.162 344.160,271.627 344.600 C 271.092 345.040,270.012 345.945,269.227 346.611 C 268.442 347.277,267.260 348.087,266.600 348.410 C 265.940 348.734,265.310 349.089,265.200 349.199 C 264.722 349.679,263.160 350.400,262.600 350.400 C 262.264 350.400,261.677 350.558,261.295 350.751 C 259.318 351.750,257.228 352.000,250.872 352.000 L 244.000 352.000 244.000 364.400 L 244.000 376.800 238.600 376.800 L 233.200 376.800 233.200 337.667 C 233.200 316.143,233.320 298.413,233.467 298.267 C 233.866 297.867,257.417 297.945,258.481 298.349 M244.000 324.999 L 244.000 341.244 249.100 341.059 C 254.722 340.855,257.601 340.506,258.180 339.959 C 258.389 339.762,258.884 339.600,259.280 339.600 C 259.676 339.600,260.000 339.420,260.000 339.200 C 260.000 338.980,260.243 338.800,260.540 338.800 C 261.551 338.800,265.828 334.491,266.765 332.530 C 267.273 331.469,267.848 330.287,268.044 329.905 C 268.505 329.005,268.508 321.001,268.047 320.095 C 267.852 319.713,267.453 318.860,267.159 318.200 C 266.533 316.794,264.447 313.941,263.707 313.478 C 263.424 313.301,262.752 312.716,262.214 312.178 C 261.676 311.640,260.958 311.200,260.618 311.200 C 260.278 311.200,260.000 311.020,260.000 310.800 C 260.000 310.580,259.676 310.400,259.280 310.400 C 258.884 310.400,258.389 310.237,258.180 310.039 C 257.643 309.528,254.582 309.168,248.900 308.946 L 244.000 308.754 244.000 324.999 " stroke="none" fill="#747474" fill-rule="evenodd"></path><path id="path1" d="M52.900 0.281 C 52.405 0.377,52.000 0.623,52.000 0.828 C 52.000 1.033,51.722 1.200,51.382 1.200 C 50.626 1.200,48.800 2.963,48.800 3.694 C 48.800 3.985,48.440 4.483,48.000 4.800 C 47.530 5.139,47.200 5.835,47.200 6.488 C 47.200 7.100,47.020 7.600,46.800 7.600 C 46.574 7.600,46.400 8.733,46.400 10.200 C 46.400 11.667,46.226 12.800,46.000 12.800 C 45.734 12.800,45.600 57.367,45.600 145.700 L 45.600 278.600 200.000 278.600 L 354.400 278.600 354.400 185.324 C 354.400 123.571,354.265 91.964,354.000 91.800 C 353.780 91.664,353.600 90.393,353.600 88.976 C 353.600 87.525,353.425 86.400,353.200 86.400 C 352.980 86.400,352.800 86.124,352.800 85.786 C 352.800 85.448,350.550 82.938,347.800 80.208 C 345.050 77.478,342.800 75.361,342.800 75.503 C 342.800 75.646,342.485 75.345,342.100 74.835 C 341.532 74.083,337.155 69.661,325.519 58.084 C 325.233 57.800,317.755 50.291,308.900 41.398 C 300.045 32.505,292.800 25.349,292.800 25.496 C 292.800 25.643,292.485 25.345,292.100 24.835 C 291.581 24.147,281.235 13.697,275.572 8.141 C 275.381 7.953,273.561 6.090,271.528 4.000 L 267.832 0.200 160.816 0.153 C 101.957 0.127,53.395 0.185,52.900 0.281 M226.840 54.839 C 230.320 55.962,233.303 57.737,238.000 61.478 C 238.330 61.740,239.770 62.818,241.200 63.872 C 244.502 66.307,244.380 66.215,245.800 67.329 C 246.460 67.846,249.250 69.954,252.000 72.014 C 254.750 74.073,257.090 75.867,257.200 75.999 C 257.310 76.131,258.030 76.674,258.800 77.206 C 259.570 77.738,260.438 78.405,260.729 78.687 C 261.019 78.969,261.381 79.200,261.533 79.200 C 261.684 79.200,262.256 79.608,262.804 80.107 C 263.352 80.606,265.060 81.900,266.600 82.983 C 268.140 84.066,269.490 85.062,269.600 85.197 C 269.710 85.331,272.050 87.141,274.800 89.219 C 277.550 91.296,279.860 93.132,279.933 93.298 C 280.007 93.464,280.245 93.600,280.462 93.600 C 280.679 93.600,281.086 93.825,281.365 94.100 C 281.645 94.375,282.397 94.989,283.037 95.463 C 287.100 98.479,291.635 101.914,293.044 103.044 C 296.033 105.440,298.223 111.060,299.180 118.790 C 300.418 128.788,298.714 140.468,295.178 146.228 C 294.437 147.435,294.437 147.482,295.216 148.935 C 300.152 158.144,301.087 177.904,296.978 186.161 C 296.660 186.800,296.400 187.479,296.400 187.670 C 296.400 187.861,295.925 188.734,295.345 189.611 L 294.291 191.204 295.705 194.302 C 300.470 204.740,300.456 222.277,295.675 232.000 L 294.200 235.000 265.200 235.215 C 249.250 235.332,217.083 235.349,193.718 235.252 L 151.235 235.075 143.507 229.237 C 139.257 226.027,134.884 222.728,133.789 221.906 C 132.695 221.084,131.620 220.272,131.400 220.101 C 131.180 219.930,126.950 216.745,122.000 213.023 C 95.881 193.382,97.438 194.676,96.978 192.222 C 96.268 188.437,100.754 184.938,104.495 186.360 C 105.282 186.659,116.562 194.836,117.200 195.570 C 117.310 195.697,119.110 197.073,121.200 198.629 C 130.206 205.332,139.877 212.594,140.829 213.365 C 141.394 213.824,142.384 214.591,143.029 215.070 C 143.673 215.548,146.630 217.750,149.600 219.963 C 155.939 224.687,155.761 224.641,156.345 221.733 C 157.809 214.441,156.523 204.626,152.850 195.066 L 151.800 192.332 144.600 186.908 C 140.640 183.925,137.340 181.330,137.267 181.142 C 137.193 180.954,136.958 180.800,136.743 180.800 C 136.413 180.800,133.419 178.660,132.800 177.981 C 132.690 177.860,131.970 177.329,131.200 176.800 C 130.430 176.271,129.710 175.734,129.600 175.607 C 129.490 175.480,125.800 172.691,121.400 169.411 C 117.000 166.130,113.310 163.337,113.200 163.204 C 113.090 163.070,112.370 162.529,111.600 162.000 C 110.830 161.471,110.110 160.931,110.000 160.800 C 109.890 160.669,109.170 160.123,108.400 159.586 C 107.630 159.050,106.730 158.392,106.400 158.125 C 106.070 157.857,104.180 156.362,102.200 154.803 C 96.528 150.337,95.468 147.990,97.567 144.546 C 100.048 140.478,103.568 141.010,110.598 146.514 C 110.819 146.687,114.150 149.178,118.000 152.048 C 126.435 158.338,126.734 158.563,128.000 159.562 C 128.550 159.996,131.970 162.563,135.600 165.268 C 139.230 167.973,142.290 170.287,142.400 170.412 C 142.510 170.537,143.230 171.071,144.000 171.600 C 144.770 172.129,145.490 172.669,145.600 172.800 C 145.710 172.931,146.430 173.471,147.200 174.000 C 147.970 174.529,148.690 175.065,148.800 175.192 C 149.717 176.249,155.337 180.018,155.592 179.747 C 156.553 178.724,156.872 167.984,156.072 163.600 C 155.811 162.170,155.495 160.370,155.371 159.600 C 155.247 158.830,154.990 157.840,154.801 157.400 C 154.611 156.960,154.248 155.880,153.993 155.000 C 153.739 154.120,153.294 152.860,153.004 152.200 C 152.714 151.540,152.209 150.352,151.883 149.559 C 151.557 148.767,150.685 147.693,149.945 147.172 C 148.879 146.422,144.854 143.355,142.200 141.271 C 141.980 141.098,138.920 138.819,135.400 136.207 C 131.880 133.595,128.910 131.346,128.800 131.210 C 128.690 131.073,127.970 130.529,127.200 130.000 C 126.430 129.471,125.710 128.931,125.600 128.800 C 125.490 128.669,124.770 128.129,124.000 127.600 C 123.230 127.071,122.510 126.531,122.400 126.400 C 122.290 126.269,121.570 125.729,120.800 125.200 C 120.030 124.671,119.310 124.134,119.200 124.006 C 119.090 123.878,116.120 121.636,112.600 119.022 C 109.080 116.409,106.110 114.164,106.000 114.034 C 105.890 113.904,104.720 112.989,103.400 112.000 C 102.080 111.011,100.910 110.103,100.800 109.982 C 100.690 109.861,100.012 109.351,99.294 108.849 C 93.223 104.608,98.828 95.492,105.373 98.962 C 106.258 99.431,110.651 102.669,111.529 103.500 C 111.819 103.775,112.179 104.003,112.329 104.006 C 112.478 104.010,113.224 104.563,113.988 105.235 C 114.751 105.908,115.876 106.754,116.488 107.115 C 117.099 107.477,117.600 107.914,117.600 108.086 C 117.600 108.259,117.855 108.400,118.167 108.400 C 118.478 108.400,118.793 108.535,118.867 108.700 C 119.007 109.017,120.791 110.522,122.426 111.705 C 123.518 112.494,133.560 119.959,135.363 121.321 C 136.003 121.805,136.755 122.425,137.035 122.700 C 137.314 122.975,137.736 123.200,137.971 123.200 C 138.207 123.200,138.400 123.341,138.400 123.514 C 138.400 123.686,138.895 124.126,139.500 124.491 C 140.105 124.856,141.057 125.587,141.617 126.116 C 142.176 126.645,142.808 127.150,143.022 127.239 C 143.601 127.479,154.559 135.723,154.855 136.142 C 156.290 138.168,157.228 125.580,156.072 119.800 C 155.809 118.480,155.481 116.590,155.344 115.600 C 155.207 114.610,154.971 113.620,154.820 113.400 C 154.668 113.180,154.306 112.190,154.015 111.200 C 152.670 106.619,152.065 105.769,147.832 102.522 C 145.614 100.820,143.562 99.197,143.271 98.914 C 142.981 98.631,142.619 98.400,142.467 98.400 C 142.316 98.400,141.743 97.995,141.195 97.500 C 140.647 97.005,139.119 95.790,137.799 94.801 C 136.480 93.812,135.310 92.903,135.200 92.782 C 135.090 92.661,134.370 92.123,133.600 91.586 C 132.830 91.050,131.930 90.387,131.600 90.114 C 130.541 89.235,119.819 81.031,116.637 78.665 C 115.997 78.189,115.277 77.619,115.037 77.398 C 114.796 77.177,112.710 75.558,110.400 73.799 C 97.387 63.893,96.828 63.333,96.828 60.200 C 96.828 57.711,97.454 56.551,99.444 55.346 L 101.000 54.404 163.240 54.402 C 207.321 54.401,225.877 54.528,226.840 54.839 M168.810 115.700 C 168.815 115.975,168.998 116.920,169.217 117.800 C 170.460 122.791,170.379 134.919,169.069 139.900 L 168.517 142.000 173.659 142.000 C 176.576 142.000,178.800 141.838,178.800 141.627 C 178.800 141.421,179.159 139.126,179.598 136.527 C 180.607 130.547,180.608 126.487,179.602 120.527 C 179.163 117.927,178.803 115.665,178.802 115.500 C 178.801 115.335,176.550 115.200,173.800 115.200 C 170.062 115.200,168.802 115.326,168.810 115.700 M234.703 148.700 C 233.762 149.762,232.829 157.789,233.562 158.522 C 233.827 158.787,234.000 160.734,234.000 163.457 C 234.000 167.651,234.060 167.997,234.889 168.577 C 237.495 170.403,238.800 168.593,238.800 163.154 C 238.800 160.641,238.976 158.784,239.239 158.521 C 239.663 158.097,239.641 157.538,238.970 151.600 C 238.683 149.063,237.925 148.000,236.400 148.000 C 235.808 148.000,235.045 148.315,234.703 148.700 M169.069 160.900 C 170.379 165.881,170.460 178.009,169.217 183.000 C 168.540 185.722,168.324 185.600,173.800 185.600 C 176.550 185.600,178.803 185.465,178.807 185.300 C 178.811 185.135,179.168 182.840,179.600 180.200 C 180.598 174.098,180.598 170.198,179.598 164.273 C 179.159 161.674,178.800 159.379,178.800 159.173 C 178.800 158.962,176.576 158.800,173.659 158.800 L 168.517 158.800 169.069 160.900 M168.406 203.100 C 168.409 203.265,168.696 204.570,169.043 206.000 C 169.913 209.587,169.908 222.259,169.034 226.200 C 168.693 227.740,168.411 229.135,168.407 229.300 C 168.390 230.021,178.702 229.631,178.996 228.900 C 180.534 225.085,180.551 205.709,179.019 203.231 C 178.715 202.739,168.396 202.612,168.406 203.100 M137.867 298.667 C 137.720 298.813,137.600 301.063,137.600 303.667 L 137.600 308.400 155.776 308.400 C 173.834 308.400,175.074 308.489,174.077 309.718 C 173.862 309.983,173.306 310.875,172.843 311.700 C 172.379 312.525,171.640 313.830,171.200 314.600 C 170.760 315.370,170.040 316.630,169.600 317.400 C 168.167 319.908,167.336 321.343,165.200 325.000 C 164.043 326.980,162.688 329.320,162.190 330.200 C 161.691 331.080,160.341 333.420,159.190 335.400 C 156.970 339.219,156.090 340.742,154.800 343.000 C 154.360 343.770,153.640 345.030,153.200 345.800 C 152.760 346.570,152.040 347.830,151.600 348.600 C 151.160 349.370,150.463 350.585,150.051 351.300 C 149.638 352.015,147.908 355.030,146.206 358.000 C 144.504 360.970,142.977 363.580,142.813 363.800 C 142.649 364.020,141.976 365.190,141.317 366.400 C 140.657 367.610,139.731 369.275,139.259 370.100 C 138.787 370.925,138.037 372.241,137.592 373.026 C 137.148 373.810,136.498 374.890,136.146 375.426 L 135.508 376.400 162.766 376.400 L 190.025 376.400 189.912 371.500 L 189.800 366.600 171.500 366.496 C 161.435 366.439,153.200 366.309,153.200 366.208 C 153.200 366.107,153.538 365.434,153.950 364.712 C 154.363 363.990,155.467 362.050,156.404 360.400 C 157.341 358.750,158.893 356.098,159.854 354.507 C 160.814 352.916,161.600 351.534,161.600 351.436 C 161.600 351.339,162.500 349.792,163.600 348.000 C 164.700 346.208,165.600 344.672,165.600 344.588 C 165.600 344.504,166.165 343.482,166.856 342.318 C 168.428 339.666,168.980 338.718,171.699 334.000 C 172.903 331.910,175.196 327.950,176.794 325.200 C 180.008 319.669,180.820 318.265,182.000 316.200 C 183.534 313.515,184.317 312.158,187.987 305.828 C 190.019 302.323,191.772 299.218,191.883 298.928 C 192.101 298.361,138.432 298.101,137.867 298.667 M208.000 337.388 L 208.000 376.400 213.002 376.400 L 218.004 376.400 217.902 337.500 L 217.800 298.600 212.900 298.488 L 208.000 298.375 208.000 337.388 M233.867 298.667 C 233.720 298.813,233.600 316.363,233.600 337.667 L 233.600 376.400 238.594 376.400 L 243.588 376.400 243.694 364.100 L 243.800 351.800 250.400 351.559 C 257.325 351.306,257.957 351.214,261.758 349.913 C 281.181 343.268,285.479 316.517,269.117 304.119 C 265.594 301.450,263.018 300.291,257.354 298.826 C 255.561 298.362,234.315 298.218,233.867 298.667 M255.827 308.838 C 268.829 311.236,273.854 327.043,264.617 336.492 C 260.778 340.419,256.671 341.727,248.800 341.527 L 243.800 341.400 243.695 325.401 C 243.638 316.601,243.677 309.176,243.783 308.901 C 244.030 308.257,252.438 308.213,255.827 308.838 M45.600 392.167 C 45.600 392.839,45.819 393.200,46.228 393.200 C 46.645 393.200,46.813 392.908,46.728 392.331 C 46.539 391.051,45.600 390.914,45.600 392.167 M353.443 391.833 C 353.059 392.834,353.154 393.200,353.800 393.200 C 354.173 393.200,354.400 392.822,354.400 392.200 C 354.400 391.083,353.816 390.859,353.443 391.833 M46.400 394.613 C 46.400 395.175,48.891 398.000,49.387 398.000 C 49.862 398.000,49.545 397.261,48.600 396.162 C 48.051 395.523,47.601 394.775,47.600 394.500 C 47.600 394.225,47.330 394.000,47.000 394.000 C 46.670 394.000,46.400 394.276,46.400 394.613 M352.400 394.462 C 352.400 394.716,351.932 395.538,351.360 396.289 C 349.929 398.164,350.436 398.391,352.173 396.653 C 353.663 395.164,354.025 394.000,353.000 394.000 C 352.670 394.000,352.400 394.208,352.400 394.462 " stroke="none" fill="#e3e3e3" fill-rule="evenodd"></path><path id="path2" d="M100.800 55.491 C 96.227 56.323,96.193 61.977,100.741 65.325 C 103.910 67.658,106.972 70.137,107.133 70.500 C 107.207 70.665,107.444 70.800,107.660 70.800 C 107.877 70.800,109.077 71.621,110.327 72.625 C 111.577 73.628,112.870 74.666,113.200 74.930 C 113.530 75.195,114.430 75.856,115.200 76.400 C 116.669 77.438,117.782 78.311,118.545 79.027 C 118.795 79.262,121.610 81.414,124.800 83.810 C 127.990 86.205,130.690 88.263,130.800 88.384 C 130.910 88.504,132.080 89.411,133.400 90.400 C 134.720 91.389,135.890 92.288,136.000 92.399 C 136.110 92.510,137.010 93.223,138.000 93.985 C 138.990 94.747,139.860 95.512,139.933 95.685 C 140.007 95.858,140.241 96.000,140.453 96.000 C 140.666 96.000,142.262 97.125,144.000 98.500 C 145.739 99.875,148.396 101.929,149.904 103.065 C 152.611 105.104,154.800 108.779,154.800 111.286 C 154.800 111.653,154.959 112.051,155.152 112.170 C 155.787 112.563,156.600 116.769,157.271 123.137 C 157.879 128.899,156.951 137.600,155.728 137.600 C 155.242 137.600,152.685 135.942,152.000 135.183 C 151.890 135.061,151.170 134.529,150.400 134.001 C 149.225 133.195,147.183 131.621,144.000 129.070 C 143.670 128.805,142.770 128.150,142.000 127.614 C 141.230 127.077,140.510 126.531,140.400 126.400 C 140.290 126.269,139.570 125.729,138.800 125.200 C 138.030 124.671,137.310 124.139,137.200 124.017 C 137.090 123.895,136.190 123.203,135.200 122.479 C 130.100 118.751,124.184 114.203,124.067 113.921 C 123.993 113.744,123.723 113.599,123.467 113.598 C 123.210 113.597,122.460 113.096,121.800 112.485 C 121.140 111.874,119.970 110.939,119.200 110.406 C 118.430 109.874,117.710 109.331,117.600 109.200 C 117.490 109.069,116.770 108.529,116.000 108.000 C 115.230 107.471,114.510 106.940,114.400 106.819 C 114.290 106.699,113.903 106.420,113.540 106.200 C 113.177 105.980,111.111 104.450,108.949 102.800 C 104.607 99.486,103.475 98.800,102.349 98.800 C 100.953 98.800,98.000 100.888,98.000 101.875 C 98.000 102.170,97.808 102.723,97.573 103.105 C 96.933 104.146,99.019 108.400,100.169 108.400 C 100.320 108.400,101.019 108.939,101.722 109.598 C 102.425 110.257,103.210 110.797,103.467 110.798 C 103.723 110.799,103.993 110.945,104.067 111.122 C 104.140 111.299,106.090 112.864,108.400 114.600 C 110.710 116.336,112.660 117.901,112.733 118.078 C 112.807 118.255,113.051 118.400,113.276 118.400 C 113.500 118.400,114.173 118.805,114.771 119.300 C 115.369 119.795,116.458 120.650,117.192 121.200 C 117.926 121.750,118.755 122.425,119.035 122.700 C 119.314 122.975,119.644 123.200,119.767 123.200 C 119.990 123.200,121.217 124.151,122.216 125.100 C 122.506 125.375,122.896 125.600,123.083 125.600 C 123.270 125.600,123.683 125.960,124.000 126.400 C 124.317 126.840,124.773 127.200,125.013 127.200 C 125.253 127.200,125.798 127.521,126.225 127.914 C 126.651 128.306,129.880 130.773,133.400 133.395 C 136.920 136.017,139.890 138.270,140.000 138.401 C 140.110 138.532,140.830 139.071,141.600 139.600 C 142.370 140.129,143.090 140.669,143.200 140.800 C 143.310 140.931,144.030 141.471,144.800 142.000 C 145.570 142.529,146.290 143.069,146.400 143.200 C 146.510 143.331,147.230 143.875,148.000 144.408 C 148.770 144.942,149.749 145.698,150.175 146.089 C 150.602 146.480,151.052 146.800,151.176 146.800 C 151.405 146.800,152.965 149.775,153.694 151.600 C 153.914 152.150,154.252 152.913,154.447 153.295 C 154.641 153.677,154.800 154.431,154.800 154.971 C 154.800 155.511,154.980 156.064,155.200 156.200 C 155.420 156.336,155.600 156.851,155.600 157.344 C 155.600 157.837,155.763 158.411,155.961 158.620 C 156.160 158.829,156.422 159.810,156.544 160.800 C 156.665 161.790,156.963 164.130,157.206 166.000 C 157.686 169.700,157.420 176.946,156.721 179.200 C 156.482 179.970,156.231 180.819,156.162 181.086 C 155.997 181.723,154.591 181.008,152.520 179.234 C 151.684 178.518,150.505 177.639,149.900 177.280 C 149.295 176.921,148.800 176.486,148.800 176.314 C 148.800 176.141,148.545 176.000,148.233 176.000 C 147.922 176.000,147.607 175.850,147.533 175.666 C 147.460 175.482,143.800 172.655,139.400 169.383 C 135.000 166.112,131.310 163.328,131.200 163.198 C 131.090 163.068,130.370 162.529,129.600 162.000 C 128.830 161.471,128.110 160.931,128.000 160.800 C 127.890 160.669,127.170 160.129,126.400 159.600 C 125.630 159.071,124.709 158.314,124.353 157.919 C 123.997 157.524,123.536 157.200,123.329 157.200 C 123.121 157.200,122.599 156.885,122.169 156.500 C 121.740 156.115,119.231 154.186,116.594 152.213 C 113.957 150.241,111.710 148.522,111.600 148.394 C 111.490 148.266,110.770 147.726,110.000 147.194 C 109.230 146.662,108.368 146.002,108.085 145.727 C 107.802 145.453,107.037 144.913,106.385 144.528 C 105.733 144.143,105.200 143.686,105.200 143.514 C 105.200 143.341,104.928 143.200,104.595 143.200 C 104.262 143.200,103.632 142.977,103.195 142.704 C 102.562 142.309,102.238 142.309,101.605 142.704 C 101.168 142.977,100.620 143.200,100.387 143.200 C 99.837 143.200,98.000 145.037,98.000 145.587 C 98.000 145.820,97.777 146.368,97.504 146.805 C 97.109 147.438,97.109 147.762,97.504 148.395 C 97.777 148.832,98.000 149.433,98.000 149.730 C 98.000 150.340,100.556 152.800,101.189 152.800 C 101.415 152.800,101.600 152.941,101.600 153.114 C 101.600 153.286,102.095 153.731,102.700 154.102 C 103.305 154.474,104.518 155.412,105.396 156.189 C 106.273 156.965,107.152 157.600,107.349 157.600 C 107.545 157.600,107.997 157.924,108.353 158.319 C 108.709 158.714,109.630 159.475,110.400 160.008 C 111.170 160.542,111.980 161.121,112.200 161.296 C 112.420 161.471,115.750 163.963,119.600 166.833 C 123.450 169.704,126.870 172.268,127.200 172.532 C 127.530 172.796,128.430 173.450,129.200 173.987 C 129.970 174.523,130.891 175.286,131.247 175.681 C 131.603 176.076,132.006 176.400,132.142 176.400 C 132.279 176.400,132.708 176.664,133.095 176.987 C 133.483 177.309,136.050 179.241,138.800 181.280 C 141.550 183.318,144.038 185.214,144.329 185.493 C 144.619 185.772,144.981 186.000,145.133 186.000 C 145.284 186.000,145.856 186.410,146.404 186.911 C 146.952 187.413,148.030 188.263,148.800 188.800 C 149.570 189.338,150.549 190.098,150.975 190.489 C 151.706 191.159,153.793 191.200,187.275 191.200 L 222.800 191.200 222.800 189.433 C 222.800 186.864,222.520 186.400,220.971 186.400 C 219.966 186.400,219.270 186.044,218.213 184.987 L 216.800 183.573 216.800 170.147 C 216.800 154.037,217.154 152.800,221.760 152.800 L 222.800 152.800 222.800 131.894 C 222.800 106.076,222.979 106.848,215.705 101.342 C 214.003 100.054,212.428 98.861,212.205 98.691 C 211.982 98.521,208.470 95.964,204.400 93.010 C 200.330 90.056,195.020 86.187,192.600 84.414 C 190.180 82.641,187.759 80.877,187.220 80.495 C 186.682 80.113,185.512 79.260,184.620 78.599 C 183.729 77.939,181.380 76.239,179.400 74.821 C 177.420 73.404,173.820 70.783,171.400 68.997 C 166.547 65.416,160.488 61.032,155.509 57.500 L 152.267 55.200 127.034 55.254 C 113.155 55.284,101.350 55.391,100.800 55.491 M180.400 55.495 C 180.400 55.898,181.590 56.802,192.400 64.613 C 196.910 67.872,201.860 71.468,203.400 72.605 C 206.210 74.678,224.940 88.302,232.800 93.990 C 251.172 107.285,249.976 104.581,249.990 132.847 L 250.000 152.695 251.672 152.919 C 252.872 153.080,253.692 153.515,254.572 154.457 L 255.800 155.770 255.936 169.279 C 256.099 185.419,255.962 185.917,251.200 186.481 C 250.279 186.591,250.190 186.783,250.080 188.900 L 249.960 191.200 271.684 191.200 L 293.408 191.200 293.941 190.345 C 297.039 185.386,298.039 181.217,298.300 172.185 C 298.646 160.227,297.546 154.178,294.002 148.546 C 293.437 147.647,294.056 145.200,294.849 145.200 C 295.042 145.200,295.200 144.876,295.200 144.480 C 295.200 144.084,295.366 143.589,295.568 143.380 C 299.324 139.500,299.313 115.541,295.551 107.800 C 293.922 104.448,294.451 104.935,283.400 96.614 C 277.900 92.473,273.310 88.975,273.200 88.842 C 273.090 88.709,272.701 88.420,272.336 88.200 C 271.971 87.980,266.327 83.750,259.795 78.800 C 253.262 73.850,247.409 69.440,246.787 69.000 C 246.165 68.560,244.158 67.061,242.328 65.668 C 238.579 62.816,237.650 62.111,234.453 59.702 C 233.214 58.768,231.120 57.418,229.800 56.703 L 227.400 55.402 203.900 55.278 C 190.975 55.209,180.400 55.307,180.400 55.495 M179.281 114.900 C 179.972 115.445,180.184 116.364,180.871 121.800 C 181.619 127.714,181.363 133.887,180.090 140.600 L 179.787 142.200 173.694 142.310 L 167.600 142.421 167.600 141.234 C 167.600 140.581,167.753 139.953,167.940 139.837 C 168.432 139.533,168.965 133.694,168.965 128.600 C 168.965 123.506,168.432 117.667,167.940 117.363 C 167.412 117.037,167.540 114.891,168.100 114.665 C 169.234 114.207,178.654 114.405,179.281 114.900 M179.448 158.706 C 179.914 159.011,180.039 159.657,180.859 166.000 C 181.600 171.733,181.523 173.704,180.138 184.303 C 179.860 186.430,179.736 186.465,173.000 186.315 L 167.800 186.200 167.873 185.000 C 167.913 184.340,168.219 182.000,168.554 179.800 C 169.510 173.506,169.238 165.379,167.916 160.743 C 167.687 159.941,167.623 159.086,167.774 158.843 C 168.084 158.341,178.702 158.217,179.448 158.706 M233.600 169.853 C 233.600 171.155,234.965 172.400,236.391 172.400 C 237.664 172.400,239.200 170.909,239.200 169.674 C 239.200 168.631,239.246 168.639,237.661 169.429 C 236.514 170.002,236.286 170.002,235.139 169.429 C 233.536 168.630,233.600 168.612,233.600 169.853 " stroke="none" fill="#515151" fill-rule="evenodd"></path><path id="path3" d="M159.100 55.099 C 162.895 55.165,169.105 55.165,172.900 55.099 C 176.695 55.034,173.590 54.980,166.000 54.980 C 158.410 54.980,155.305 55.034,159.100 55.099 M100.657 98.707 C 100.553 98.876,101.172 98.948,102.034 98.865 C 102.895 98.783,103.600 98.645,103.600 98.558 C 103.600 98.260,100.847 98.400,100.657 98.707 M151.645 104.981 C 152.000 105.431,152.490 106.160,152.733 106.600 C 152.977 107.040,153.181 107.178,153.188 106.906 C 153.195 106.635,152.705 105.906,152.100 105.287 C 151.495 104.668,151.290 104.530,151.645 104.981 M179.693 117.600 C 179.693 118.370,179.775 118.685,179.876 118.300 C 179.976 117.915,179.976 117.285,179.876 116.900 C 179.775 116.515,179.693 116.830,179.693 117.600 M116.000 120.946 C 116.000 121.056,116.540 121.530,117.200 122.000 C 117.860 122.470,118.400 122.764,118.400 122.654 C 118.400 122.544,117.860 122.070,117.200 121.600 C 116.540 121.130,116.000 120.836,116.000 120.946 M298.955 125.800 C 298.956 128.660,299.020 129.778,299.097 128.283 C 299.174 126.789,299.174 124.449,299.096 123.083 C 299.018 121.718,298.955 122.940,298.955 125.800 M180.509 123.200 C 180.509 124.190,180.587 124.595,180.682 124.100 C 180.778 123.605,180.778 122.795,180.682 122.300 C 180.587 121.805,180.509 122.210,180.509 123.200 M169.309 124.400 C 169.309 125.390,169.387 125.795,169.482 125.300 C 169.578 124.805,169.578 123.995,169.482 123.500 C 169.387 123.005,169.309 123.410,169.309 124.400 M180.901 128.600 C 180.905 129.480,180.987 129.793,181.083 129.295 C 181.179 128.798,181.175 128.078,181.075 127.695 C 180.975 127.313,180.896 127.720,180.901 128.600 M169.309 132.800 C 169.309 133.790,169.387 134.195,169.482 133.700 C 169.578 133.205,169.578 132.395,169.482 131.900 C 169.387 131.405,169.309 131.810,169.309 132.800 M180.501 133.800 C 180.505 134.680,180.587 134.993,180.683 134.495 C 180.779 133.998,180.775 133.278,180.675 132.895 C 180.575 132.513,180.496 132.920,180.501 133.800 M106.000 143.725 C 106.000 143.824,106.661 144.409,107.468 145.025 C 108.276 145.641,108.811 145.941,108.656 145.691 C 108.340 145.179,106.000 143.447,106.000 143.725 M235.587 147.154 C 233.811 147.866,233.171 148.731,232.933 150.735 L 232.691 152.777 227.646 152.902 L 222.600 153.026 227.849 153.113 L 233.098 153.200 233.291 151.196 C 233.758 146.334,239.001 146.082,239.279 150.908 L 239.400 153.000 244.800 153.019 L 250.200 153.038 245.150 152.908 L 240.100 152.777 239.844 150.845 C 239.511 148.339,237.335 146.452,235.587 147.154 M255.293 157.200 C 255.293 157.970,255.375 158.285,255.476 157.900 C 255.576 157.515,255.576 156.885,255.476 156.500 C 255.375 156.115,255.293 156.430,255.293 157.200 M170.900 158.697 C 172.385 158.774,174.815 158.774,176.300 158.697 C 177.785 158.620,176.570 158.557,173.600 158.557 C 170.630 158.557,169.415 158.620,170.900 158.697 M222.893 169.505 L 222.800 180.411 236.300 180.305 L 249.800 180.200 249.810 169.400 L 249.821 158.600 249.704 168.981 C 249.617 176.664,249.458 179.443,249.093 179.675 C 248.822 179.847,243.110 179.988,236.400 179.988 C 229.690 179.988,223.978 179.847,223.707 179.675 C 223.342 179.443,223.184 176.667,223.100 168.981 L 222.986 158.600 222.893 169.505 M232.880 162.600 C 232.803 167.083,232.999 168.237,233.896 168.581 C 234.430 168.787,234.438 168.729,233.957 168.150 C 233.591 167.711,233.322 165.956,233.174 163.041 L 232.948 158.600 232.880 162.600 M239.124 163.582 C 239.041 166.769,239.133 168.230,239.400 167.963 C 239.952 167.410,240.195 158.800,239.659 158.800 C 239.406 158.800,239.199 160.649,239.124 163.582 M179.693 161.600 C 179.693 162.370,179.775 162.685,179.876 162.300 C 179.976 161.915,179.976 161.285,179.876 160.900 C 179.775 160.515,179.693 160.830,179.693 161.600 M156.658 164.800 C 156.975 166.525,157.202 166.851,157.194 165.567 C 157.191 165.035,157.011 164.330,156.794 164.000 C 156.518 163.578,156.477 163.815,156.658 164.800 M298.957 169.600 C 298.957 172.570,299.020 173.785,299.097 172.300 C 299.174 170.815,299.174 168.385,299.097 166.900 C 299.020 165.415,298.957 166.630,298.957 169.600 M180.509 167.200 C 180.509 168.190,180.587 168.595,180.682 168.100 C 180.778 167.605,180.778 166.795,180.682 166.300 C 180.587 165.805,180.509 166.210,180.509 167.200 M169.309 167.600 C 169.309 168.590,169.387 168.995,169.482 168.500 C 169.578 168.005,169.578 167.195,169.482 166.700 C 169.387 166.205,169.309 166.610,169.309 167.600 M169.309 176.800 C 169.309 177.790,169.387 178.195,169.482 177.700 C 169.578 177.205,169.578 176.395,169.482 175.900 C 169.387 175.405,169.309 175.810,169.309 176.800 M156.846 176.067 C 156.821 176.434,156.696 177.064,156.570 177.467 C 156.352 178.162,156.363 178.163,156.797 177.487 C 157.048 177.096,157.173 176.466,157.073 176.087 C 156.911 175.468,156.888 175.466,156.846 176.067 M180.501 177.400 C 180.505 178.280,180.587 178.593,180.683 178.095 C 180.779 177.598,180.775 176.878,180.675 176.495 C 180.575 176.113,180.496 176.520,180.501 177.400 M223.400 186.400 C 223.840 186.589,229.690 186.744,236.400 186.744 C 243.110 186.744,248.960 186.589,249.400 186.400 C 249.867 186.199,244.449 186.056,236.400 186.056 C 228.351 186.056,222.933 186.199,223.400 186.400 M293.745 191.000 C 293.544 191.523,290.728 191.600,271.757 191.600 L 250.000 191.600 249.975 195.100 C 249.757 225.442,248.712 230.997,242.689 233.841 C 240.878 234.697,240.777 234.800,241.934 234.617 C 247.613 233.720,249.684 228.262,249.983 213.400 L 250.200 202.600 273.900 202.497 C 288.410 202.434,297.600 202.247,297.600 202.016 C 297.600 200.172,294.842 192.986,293.891 192.351 C 293.666 192.201,293.699 191.763,293.973 191.251 C 294.223 190.783,294.326 190.400,294.202 190.400 C 294.077 190.400,293.871 190.670,293.745 191.000 M153.437 194.832 C 154.187 196.609,154.800 198.373,154.800 198.752 C 154.800 199.130,154.965 199.611,155.166 199.820 C 155.368 200.029,155.593 200.650,155.666 201.200 L 155.800 202.200 188.981 202.315 C 207.231 202.378,222.261 202.529,222.381 202.650 C 223.013 203.287,222.561 221.484,221.840 224.400 C 220.749 228.818,219.039 231.818,216.724 233.377 C 214.002 235.210,214.001 235.210,227.967 235.106 L 240.600 235.012 228.440 234.900 L 216.280 234.788 218.152 232.943 C 220.154 230.969,222.000 227.480,222.000 225.668 C 222.000 225.059,222.170 224.389,222.377 224.180 C 223.039 223.512,223.314 214.136,223.007 202.700 L 222.709 191.600 187.392 191.600 L 152.074 191.600 153.437 194.832 M46.985 279.299 C 46.880 279.575,46.841 305.000,46.899 335.800 L 47.003 391.800 47.101 335.500 L 47.200 279.200 199.999 279.200 L 352.797 279.200 352.901 335.600 L 353.004 392.000 353.002 335.500 L 353.000 279.000 200.088 278.899 C 77.967 278.819,47.137 278.900,46.985 279.299 M137.462 298.300 C 137.293 298.572,157.372 298.568,182.800 298.292 C 188.190 298.233,180.236 298.144,165.124 298.093 C 150.012 298.042,137.564 298.135,137.462 298.300 M209.200 298.266 C 213.527 298.557,218.311 298.576,218.140 298.300 C 218.037 298.135,215.578 298.032,212.676 298.072 C 209.774 298.112,208.210 298.199,209.200 298.266 M233.462 298.300 C 233.360 298.465,239.002 298.600,246.000 298.600 C 252.999 298.600,258.516 298.468,258.262 298.306 C 257.652 297.918,233.701 297.912,233.462 298.300 M264.899 300.978 C 265.503 301.293,266.223 301.668,266.499 301.810 C 266.774 301.953,266.550 301.698,266.000 301.244 C 265.450 300.789,264.730 300.415,264.400 300.411 C 264.070 300.408,264.294 300.663,264.899 300.978 M268.600 303.065 C 270.387 304.829,273.666 307.638,273.194 307.000 C 272.868 306.560,272.151 305.785,271.601 305.277 C 270.594 304.348,267.853 302.329,268.600 303.065 M186.400 309.200 C 185.951 310.080,185.674 310.800,185.784 310.800 C 185.894 310.800,186.351 310.080,186.800 309.200 C 187.249 308.320,187.526 307.600,187.416 307.600 C 187.306 307.600,186.849 308.320,186.400 309.200 M254.000 309.200 C 254.330 309.413,255.050 309.578,255.600 309.566 C 256.516 309.546,256.533 309.515,255.800 309.200 C 254.616 308.691,253.213 308.691,254.000 309.200 M183.853 313.700 L 183.133 315.000 183.958 314.000 C 184.689 313.113,185.014 312.400,184.686 312.400 C 184.624 312.400,184.249 312.985,183.853 313.700 M167.414 319.835 C 167.041 320.404,166.805 320.938,166.889 321.022 C 166.973 321.107,167.358 320.641,167.744 319.988 C 168.606 318.528,168.348 318.409,167.414 319.835 M279.476 321.800 C 279.605 323.120,279.776 324.275,279.856 324.367 C 280.163 324.721,279.925 320.957,279.592 320.200 C 279.369 319.692,279.326 320.276,279.476 321.800 M268.550 325.000 C 268.551 327.420,268.616 328.358,268.696 327.085 C 268.776 325.812,268.775 323.832,268.694 322.685 C 268.614 321.538,268.549 322.580,268.550 325.000 M166.153 322.100 C 164.776 324.436,164.686 324.635,165.387 323.800 C 166.200 322.832,166.900 321.600,166.638 321.600 C 166.533 321.600,166.315 321.825,166.153 322.100 M279.670 326.650 C 279.631 327.338,279.505 328.507,279.389 329.250 C 279.196 330.486,279.215 330.517,279.608 329.614 C 279.844 329.072,279.971 327.902,279.889 327.014 C 279.768 325.702,279.727 325.633,279.670 326.650 M264.500 335.516 C 263.345 336.749,262.400 337.850,262.400 337.962 C 262.400 338.301,266.032 334.653,266.445 333.900 C 266.999 332.888,266.829 333.029,264.500 335.516 M169.053 339.300 L 168.333 340.600 169.158 339.600 C 169.889 338.713,170.214 338.000,169.886 338.000 C 169.824 338.000,169.449 338.585,169.053 339.300 M254.400 340.800 C 253.636 341.294,254.458 341.294,256.000 340.800 L 257.000 340.480 256.000 340.446 C 255.450 340.427,254.730 340.587,254.400 340.800 M271.600 344.134 C 270.830 345.050,270.559 345.530,270.998 345.200 C 272.456 344.105,273.923 342.378,273.349 342.434 C 273.157 342.452,272.370 343.217,271.600 344.134 M165.786 344.900 L 165.152 346.200 165.967 345.200 C 166.752 344.237,167.008 343.600,166.610 343.600 C 166.506 343.600,166.135 344.185,165.786 344.900 M268.494 346.812 C 267.775 347.465,267.337 348.000,267.519 348.000 C 267.701 348.000,268.368 347.460,269.000 346.800 C 270.470 345.265,270.186 345.272,268.494 346.812 M151.014 348.235 C 150.641 348.804,150.405 349.338,150.489 349.422 C 150.573 349.507,150.958 349.041,151.344 348.388 C 152.206 346.928,151.948 346.809,151.014 348.235 M149.867 350.300 C 148.872 351.955,147.590 354.514,147.914 354.200 C 148.448 353.682,150.484 350.000,150.236 350.000 C 150.132 350.000,149.966 350.135,149.867 350.300 M256.000 351.600 L 253.400 351.862 255.800 351.925 C 257.120 351.959,258.470 351.813,258.800 351.600 C 259.130 351.387,259.220 351.241,259.000 351.275 C 258.780 351.310,257.430 351.456,256.000 351.600 M155.400 362.800 C 155.059 363.460,154.869 364.000,154.979 364.000 C 155.089 364.000,155.459 363.460,155.800 362.800 C 156.141 362.140,156.331 361.600,156.221 361.600 C 156.111 361.600,155.741 362.140,155.400 362.800 M153.600 366.100 C 153.600 366.265,161.790 366.400,171.800 366.400 L 190.000 366.400 190.000 371.624 C 190.000 375.004,190.141 376.760,190.400 376.600 C 191.036 376.207,190.917 366.995,190.269 366.457 C 189.657 365.950,153.600 365.598,153.600 366.100 M350.624 395.900 C 350.003 396.725,348.943 397.670,348.268 398.000 C 347.040 398.601,346.352 399.600,347.167 399.600 C 347.405 399.600,347.600 399.310,347.600 398.957 C 347.600 398.475,347.844 398.375,348.573 398.557 C 349.346 398.752,349.602 398.617,349.819 397.901 C 349.969 397.405,350.404 396.640,350.786 396.200 C 351.564 395.305,352.124 394.400,351.900 394.400 C 351.820 394.400,351.245 395.075,350.624 395.900 M49.453 396.380 C 49.702 396.721,50.029 397.405,50.180 397.901 C 50.398 398.617,50.654 398.752,51.427 398.557 C 52.156 398.375,52.400 398.475,52.400 398.957 C 52.400 399.310,52.595 399.600,52.833 399.600 C 53.605 399.600,52.967 398.616,51.795 398.000 C 51.167 397.670,50.282 397.031,49.827 396.580 C 49.372 396.130,49.204 396.040,49.453 396.380 M55.000 399.600 C 55.136 399.820,55.517 400.000,55.847 400.000 C 56.177 400.000,56.336 399.820,56.200 399.600 C 56.064 399.380,55.683 399.200,55.353 399.200 C 55.023 399.200,54.864 399.380,55.000 399.600 M343.800 399.600 C 343.664 399.820,343.913 400.000,344.353 400.000 C 344.793 400.000,345.264 399.820,345.400 399.600 C 345.536 399.380,345.287 399.200,344.847 399.200 C 344.407 399.200,343.936 399.380,343.800 399.600 " stroke="none" fill="#828282" fill-rule="evenodd"></path><path id="path4" d="M99.444 55.346 C 97.891 56.286,96.840 57.666,96.815 58.800 C 96.807 59.130,97.116 58.774,97.501 58.008 C 97.885 57.242,98.812 56.207,99.559 55.708 L 100.918 54.800 163.199 54.800 C 207.402 54.800,225.875 54.928,226.840 55.240 C 229.561 56.120,231.855 57.327,234.449 59.243 C 235.906 60.320,237.235 61.200,237.404 61.200 C 238.902 61.200,230.070 55.881,226.840 54.839 C 225.877 54.528,207.321 54.401,163.240 54.402 L 101.000 54.404 99.444 55.346 M96.847 61.600 C 96.800 63.134,99.043 65.154,110.400 73.799 C 112.710 75.558,114.796 77.177,115.037 77.398 C 115.277 77.619,115.997 78.189,116.637 78.665 C 119.819 81.031,130.541 89.235,131.600 90.114 C 131.930 90.387,132.830 91.050,133.600 91.586 C 134.370 92.123,135.090 92.661,135.200 92.782 C 135.310 92.903,136.480 93.812,137.799 94.801 C 139.119 95.790,140.647 97.005,141.195 97.500 C 141.743 97.995,142.316 98.400,142.467 98.400 C 142.619 98.400,142.981 98.631,143.271 98.914 C 143.562 99.197,145.614 100.820,147.832 102.522 C 152.065 105.769,152.670 106.619,154.015 111.200 C 154.306 112.190,154.668 113.180,154.820 113.400 C 154.971 113.620,155.207 114.610,155.344 115.600 C 155.481 116.590,155.809 118.480,156.072 119.800 C 157.228 125.580,156.293 138.143,154.855 136.148 C 154.385 135.496,143.100 127.167,142.924 127.343 C 142.829 127.438,144.877 129.109,147.475 131.056 C 150.074 133.004,152.290 134.696,152.400 134.818 C 153.082 135.571,155.289 136.837,155.688 136.704 C 158.133 135.889,157.328 119.421,154.429 110.955 C 152.502 105.325,152.396 105.227,128.400 87.087 C 126.310 85.507,124.510 84.114,124.400 83.991 C 124.208 83.777,117.311 78.489,110.600 73.410 C 99.185 64.770,98.165 63.897,97.332 62.042 C 97.075 61.469,96.857 61.270,96.847 61.600 M238.000 61.744 C 238.000 61.853,242.320 65.186,247.600 69.151 C 252.880 73.115,257.196 76.233,257.191 76.079 C 257.187 75.926,256.175 75.080,254.942 74.200 C 253.710 73.320,250.938 71.250,248.783 69.600 C 246.627 67.950,244.366 66.240,243.758 65.800 C 243.149 65.360,242.190 64.629,241.626 64.175 C 240.002 62.869,238.000 61.527,238.000 61.744 M257.600 76.549 C 257.600 76.635,258.230 77.186,259.000 77.773 C 259.770 78.360,260.398 78.697,260.395 78.520 C 260.392 78.344,259.762 77.793,258.995 77.296 C 258.228 76.799,257.600 76.463,257.600 76.549 M261.997 79.944 C 262.766 80.601,263.473 81.060,263.568 80.965 C 263.766 80.767,262.586 79.788,261.400 79.168 C 260.960 78.937,261.229 79.286,261.997 79.944 M264.000 81.318 C 264.000 81.421,265.305 82.480,266.900 83.670 C 268.495 84.861,272.095 87.591,274.900 89.738 C 277.705 91.885,279.990 93.497,279.978 93.320 C 279.965 93.144,277.885 91.470,275.356 89.600 C 272.826 87.730,270.451 85.923,270.078 85.585 C 269.037 84.641,264.000 81.105,264.000 81.318 M281.597 94.780 C 282.366 95.417,283.085 95.849,283.194 95.739 C 283.304 95.630,283.089 95.370,282.716 95.161 C 282.344 94.953,281.773 94.516,281.448 94.191 C 281.123 93.866,280.709 93.605,280.529 93.611 C 280.348 93.617,280.829 94.143,281.597 94.780 M285.926 97.922 C 287.496 99.318,290.800 101.726,290.800 101.473 C 290.800 101.288,286.828 98.190,285.414 97.271 C 284.966 96.980,285.197 97.273,285.926 97.922 M98.400 100.000 C 97.467 100.933,96.804 101.975,96.809 102.500 C 96.815 103.165,97.019 102.957,97.589 101.700 C 98.014 100.765,98.505 99.996,98.680 99.991 C 99.234 99.976,101.025 98.418,100.500 98.409 C 100.225 98.404,99.280 99.120,98.400 100.000 M104.600 99.079 C 105.582 99.608,120.111 110.354,124.600 113.872 C 126.021 114.985,125.901 114.895,129.200 117.328 C 130.630 118.382,132.070 119.460,132.400 119.724 C 133.002 120.204,140.352 125.743,141.687 126.723 C 142.079 127.010,142.398 127.100,142.396 126.923 C 142.393 126.745,141.502 125.970,140.414 125.200 C 139.327 124.430,138.429 123.665,138.419 123.500 C 138.408 123.335,138.207 123.200,137.971 123.200 C 137.736 123.200,137.314 122.975,137.035 122.700 C 136.755 122.425,136.003 121.805,135.363 121.321 C 133.560 119.959,123.518 112.494,122.426 111.705 C 120.791 110.522,119.007 109.017,118.867 108.700 C 118.793 108.535,118.478 108.400,118.167 108.400 C 117.855 108.400,117.600 108.259,117.600 108.086 C 117.600 107.914,117.099 107.477,116.488 107.115 C 115.876 106.754,114.751 105.908,113.988 105.235 C 113.224 104.563,112.478 104.010,112.329 104.006 C 112.179 104.003,111.819 103.775,111.529 103.500 C 109.441 101.525,104.702 98.386,103.854 98.416 C 103.604 98.425,103.940 98.723,104.600 99.079 M293.016 103.412 C 294.993 105.361,297.555 110.459,297.634 112.600 C 297.652 113.104,297.743 113.198,297.880 112.854 C 298.518 111.250,295.248 104.820,292.800 102.863 L 291.000 101.423 293.016 103.412 M96.841 104.920 C 96.775 106.083,97.889 107.868,99.294 108.849 C 100.012 109.351,100.690 109.861,100.800 109.982 C 100.910 110.103,102.080 111.011,103.400 112.000 C 104.720 112.989,105.890 113.904,106.000 114.034 C 106.110 114.164,109.080 116.409,112.600 119.022 C 116.120 121.636,119.090 123.878,119.200 124.006 C 119.310 124.134,120.030 124.671,120.800 125.200 C 121.570 125.729,122.290 126.269,122.400 126.400 C 122.510 126.531,123.230 127.071,124.000 127.600 C 124.770 128.129,125.490 128.669,125.600 128.800 C 125.710 128.931,126.430 129.471,127.200 130.000 C 127.970 130.529,128.690 131.073,128.800 131.210 C 128.910 131.346,131.880 133.595,135.400 136.207 C 138.920 138.819,141.980 141.098,142.200 141.271 C 144.854 143.355,148.879 146.422,149.945 147.172 C 150.685 147.693,151.557 148.767,151.883 149.559 C 152.209 150.352,152.714 151.540,153.004 152.200 C 153.294 152.860,153.739 154.120,153.993 155.000 C 154.248 155.880,154.611 156.960,154.801 157.400 C 154.990 157.840,155.247 158.830,155.371 159.600 C 155.495 160.370,155.811 162.170,156.072 163.600 C 156.872 167.984,156.553 178.724,155.592 179.747 C 155.337 180.018,149.717 176.249,148.800 175.192 C 148.690 175.065,147.970 174.529,147.200 174.000 C 146.430 173.471,145.710 172.931,145.600 172.800 C 145.490 172.669,144.770 172.129,144.000 171.600 C 143.230 171.071,142.510 170.537,142.400 170.412 C 142.290 170.287,139.230 167.970,135.600 165.263 C 128.210 159.752,127.420 159.157,126.000 158.043 C 125.450 157.611,121.850 154.911,118.000 152.043 C 114.150 149.175,110.819 146.687,110.598 146.514 C 105.615 142.613,104.514 142.000,102.488 142.000 C 99.609 142.000,96.748 144.328,96.833 146.600 C 96.855 147.180,96.979 147.069,97.284 146.200 C 98.421 142.954,101.998 141.465,104.953 143.006 C 105.913 143.507,113.349 148.933,114.000 149.607 C 114.110 149.721,118.507 153.051,123.770 157.007 C 159.454 183.826,155.891 181.308,156.159 179.886 C 156.251 179.399,156.523 178.041,156.763 176.869 C 157.003 175.698,157.200 173.073,157.200 171.036 C 157.200 167.568,156.998 165.867,155.939 160.400 C 155.198 156.576,153.336 151.115,151.887 148.519 C 151.617 148.035,146.423 143.895,140.345 139.319 C 134.267 134.744,128.778 130.608,128.147 130.129 C 127.516 129.650,124.390 127.300,121.200 124.906 C 97.790 107.342,97.928 107.454,97.290 105.469 C 97.060 104.754,96.864 104.514,96.841 104.920 M298.213 114.800 C 299.024 120.475,299.195 122.313,299.275 126.200 L 299.366 130.600 299.506 126.800 C 299.652 122.849,299.015 115.755,298.379 114.261 C 298.093 113.589,298.057 113.707,298.213 114.800 M168.185 115.224 C 168.041 115.457,168.107 116.132,168.331 116.724 C 170.024 121.191,169.939 135.131,168.181 141.200 C 167.966 141.943,168.009 142.091,168.350 141.775 C 169.980 140.267,170.712 124.792,169.432 118.874 C 169.085 117.264,168.800 115.779,168.800 115.574 C 168.800 115.362,170.953 115.200,173.764 115.200 L 178.728 115.200 179.189 118.100 C 179.442 119.695,179.799 121.720,179.982 122.600 L 180.314 124.200 180.357 122.824 C 180.405 121.298,179.701 117.098,179.163 115.700 C 178.777 114.694,168.780 114.261,168.185 115.224 M180.546 128.600 C 180.547 130.800,180.614 131.649,180.695 130.487 C 180.776 129.324,180.776 127.524,180.693 126.487 C 180.611 125.449,180.545 126.400,180.546 128.600 M298.638 133.458 C 298.174 137.985,296.541 143.357,294.733 146.300 C 293.935 147.599,293.935 147.601,294.733 148.900 C 298.517 155.061,299.971 166.375,298.600 179.000 L 298.426 180.600 298.814 179.200 C 300.905 171.646,299.057 156.100,295.216 148.935 C 294.437 147.482,294.437 147.435,295.178 146.228 C 297.296 142.779,300.351 130.800,299.113 130.800 C 299.002 130.800,298.788 131.996,298.638 133.458 M179.693 135.800 C 179.430 137.560,179.110 139.720,178.981 140.600 C 178.829 141.647,178.874 141.993,179.113 141.600 C 179.593 140.812,180.544 134.427,180.334 133.400 C 180.244 132.960,179.956 134.040,179.693 135.800 M171.100 142.296 C 172.475 142.374,174.725 142.374,176.100 142.296 C 177.475 142.218,176.350 142.154,173.600 142.154 C 170.850 142.154,169.725 142.218,171.100 142.296 M234.204 148.396 C 233.796 148.846,233.400 150.062,233.291 151.196 L 233.098 153.200 226.929 153.200 C 216.741 153.200,217.200 152.416,217.200 169.794 C 217.200 187.741,215.141 186.000,236.361 186.000 C 257.683 186.000,255.720 187.710,255.533 169.299 C 255.360 152.296,256.101 153.546,246.000 153.216 L 239.400 153.000 239.279 150.908 C 239.101 147.818,236.080 146.322,234.204 148.396 M238.099 148.700 C 238.441 149.085,238.833 150.390,238.970 151.600 C 239.641 157.538,239.663 158.097,239.239 158.521 C 238.976 158.784,238.800 160.641,238.800 163.154 C 238.800 168.593,237.495 170.403,234.889 168.577 C 234.060 167.997,234.000 167.651,234.000 163.457 C 234.000 160.734,233.827 158.787,233.562 158.522 C 233.290 158.250,233.209 157.199,233.347 155.742 C 233.985 149.022,234.388 148.000,236.400 148.000 C 236.992 148.000,237.756 148.315,238.099 148.700 M96.823 149.000 C 96.796 150.158,98.130 151.598,102.200 154.803 C 104.180 156.362,106.070 157.857,106.400 158.125 C 106.730 158.392,107.630 159.050,108.400 159.586 C 109.170 160.123,109.890 160.669,110.000 160.800 C 110.110 160.931,110.830 161.471,111.600 162.000 C 112.370 162.529,113.090 163.070,113.200 163.204 C 113.310 163.337,117.000 166.130,121.400 169.411 C 125.800 172.691,129.490 175.480,129.600 175.607 C 129.710 175.734,130.430 176.271,131.200 176.800 C 131.970 177.329,132.690 177.860,132.800 177.981 C 133.419 178.660,136.413 180.800,136.743 180.800 C 136.958 180.800,137.193 180.954,137.267 181.142 C 137.340 181.330,140.640 183.925,144.600 186.908 L 151.800 192.332 152.850 195.066 C 156.523 204.626,157.809 214.441,156.345 221.733 C 155.761 224.641,155.939 224.687,149.600 219.963 C 146.630 217.750,143.673 215.548,143.029 215.070 C 142.384 214.591,141.394 213.824,140.829 213.365 C 139.877 212.594,130.206 205.332,121.200 198.629 C 119.110 197.073,117.310 195.697,117.200 195.570 C 116.562 194.836,105.282 186.659,104.495 186.360 C 99.497 184.460,94.801 190.442,98.049 194.572 C 98.505 195.151,102.055 198.016,105.939 200.940 C 109.822 203.863,117.050 209.300,122.000 213.023 C 126.950 216.745,131.180 219.930,131.400 220.101 C 131.620 220.272,132.695 221.084,133.789 221.906 C 134.884 222.728,139.257 226.027,143.507 229.237 L 151.235 235.075 193.718 235.252 C 217.083 235.349,249.250 235.332,265.200 235.215 L 294.200 235.000 295.675 232.000 C 300.456 222.277,300.470 204.740,295.705 194.302 L 294.291 191.204 295.345 189.611 C 295.925 188.734,296.400 187.779,296.400 187.489 C 296.400 187.198,296.573 186.787,296.784 186.576 C 297.269 186.091,298.537 181.203,298.251 180.918 C 298.135 180.801,297.931 181.222,297.800 181.853 C 297.362 183.954,296.665 186.195,296.330 186.580 C 296.149 186.789,296.000 187.182,296.000 187.453 C 296.000 187.725,295.425 188.872,294.722 190.002 C 293.935 191.269,293.602 192.161,293.854 192.328 C 294.836 192.979,297.600 200.129,297.600 202.016 C 297.600 202.247,288.410 202.434,273.900 202.497 L 250.200 202.600 249.980 213.400 C 249.732 225.633,249.347 227.614,246.494 231.368 C 243.754 234.971,243.703 234.982,228.855 235.125 C 213.924 235.270,213.915 235.269,216.650 233.427 C 219.044 231.815,220.735 228.874,221.840 224.400 C 222.561 221.484,223.013 203.287,222.381 202.650 C 222.261 202.529,207.231 202.378,188.981 202.315 L 155.800 202.200 155.666 201.200 C 155.593 200.650,155.368 200.029,155.166 199.820 C 154.965 199.611,154.801 199.161,154.802 198.820 C 154.803 198.479,154.253 196.829,153.579 195.153 L 152.353 192.106 141.476 183.936 C 124.381 171.096,103.239 155.141,100.525 153.033 C 98.972 151.826,97.825 150.568,97.446 149.655 C 97.043 148.686,96.835 148.467,96.823 149.000 M168.176 159.600 C 170.018 166.054,170.013 178.687,168.166 185.100 L 167.907 186.000 173.304 186.000 C 179.961 186.000,179.689 186.291,180.205 178.600 L 180.366 176.200 179.980 178.200 C 179.767 179.300,179.398 181.415,179.160 182.900 L 178.728 185.600 173.764 185.600 C 170.953 185.600,168.800 185.438,168.800 185.226 C 168.800 185.021,169.085 183.536,169.432 181.926 C 170.712 176.008,169.980 160.533,168.350 159.025 C 168.009 158.709,167.965 158.858,168.176 159.600 M178.814 159.233 C 178.822 159.545,179.178 161.690,179.605 164.000 C 180.378 168.182,180.423 166.228,179.667 161.306 C 179.368 159.365,178.782 157.940,178.814 159.233 M233.200 162.969 C 233.200 168.849,234.963 170.963,238.038 168.773 L 239.200 167.946 239.200 163.373 L 239.200 158.800 244.607 158.800 L 250.013 158.800 249.907 169.500 L 249.800 180.200 236.300 180.305 L 222.800 180.411 222.800 169.605 L 222.800 158.800 228.000 158.800 L 233.200 158.800 233.200 162.969 M180.544 172.400 C 180.544 174.490,180.612 175.345,180.694 174.300 C 180.776 173.255,180.776 171.545,180.694 170.500 C 180.612 169.455,180.544 170.310,180.544 172.400 M179.019 203.231 C 180.551 205.709,180.534 225.085,178.996 228.900 C 178.702 229.631,168.390 230.021,168.407 229.300 C 168.411 229.135,168.693 227.740,169.034 226.200 C 169.908 222.259,169.913 209.587,169.043 206.000 C 168.696 204.570,168.409 203.265,168.406 203.100 C 168.396 202.612,178.715 202.739,179.019 203.231 M46.300 278.676 C 45.256 278.948,45.205 390.963,46.249 391.363 C 46.729 391.548,46.836 391.922,46.659 392.806 C 46.480 393.700,46.568 394.000,47.010 394.000 C 47.335 394.000,47.600 394.236,47.600 394.525 C 47.600 394.813,47.927 395.400,48.327 395.829 C 48.727 396.258,49.261 396.967,49.515 397.405 C 49.768 397.842,49.981 397.993,49.988 397.740 C 49.995 397.487,49.381 396.360,48.624 395.235 C 46.676 392.341,46.757 395.176,46.884 334.400 L 47.000 279.000 200.000 279.000 L 353.000 279.000 353.101 335.323 L 353.203 391.645 352.364 393.594 C 351.903 394.666,351.183 395.854,350.763 396.233 C 350.343 396.613,350.000 397.198,350.000 397.533 C 350.000 398.249,352.372 395.237,352.389 394.500 C 352.395 394.225,352.673 394.000,353.008 394.000 C 353.446 394.000,353.549 393.738,353.379 393.058 C 353.230 392.466,353.377 391.880,353.771 391.486 C 354.337 390.920,354.400 385.248,354.400 334.875 L 354.400 278.893 353.500 278.652 C 352.466 278.375,47.361 278.398,46.300 278.676 M137.374 298.924 C 137.263 299.213,137.224 301.508,137.286 304.024 L 137.400 308.600 155.700 308.704 C 165.765 308.761,173.996 308.941,173.991 309.104 C 173.986 309.267,173.630 309.850,173.200 310.400 C 172.770 310.950,172.414 311.552,172.409 311.738 C 172.404 311.924,172.067 312.554,171.661 313.138 C 170.583 314.687,167.801 319.870,168.300 319.400 C 168.533 319.180,169.102 318.325,169.562 317.500 C 170.023 316.675,170.760 315.370,171.200 314.600 C 171.640 313.830,172.379 312.525,172.843 311.700 C 173.306 310.875,173.862 309.983,174.077 309.718 C 175.075 308.489,173.834 308.400,155.754 308.400 L 137.554 308.400 137.677 303.399 C 137.799 298.443,137.763 297.910,137.374 298.924 M207.797 337.400 L 207.800 376.600 213.000 376.600 L 218.200 376.600 218.302 337.822 C 218.358 316.494,218.268 298.908,218.102 298.742 C 217.936 298.576,217.847 315.981,217.904 337.420 L 218.008 376.400 213.006 376.400 L 208.004 376.400 207.899 337.300 L 207.794 298.200 207.797 337.400 M233.384 298.900 C 233.279 299.175,233.240 316.770,233.297 338.000 L 233.400 376.600 238.600 376.600 L 243.800 376.600 243.906 364.312 L 244.012 352.025 248.806 351.893 L 253.601 351.761 248.701 351.781 L 243.800 351.800 243.694 364.100 L 243.588 376.400 238.590 376.400 L 233.592 376.400 233.696 337.400 C 233.753 315.950,233.749 298.400,233.687 298.400 C 233.626 298.400,233.489 298.625,233.384 298.900 M257.000 298.800 C 257.440 298.989,258.160 299.144,258.600 299.144 L 259.400 299.144 258.600 298.800 C 258.160 298.611,257.440 298.456,257.000 298.456 L 256.200 298.456 257.000 298.800 M260.400 299.600 C 260.730 299.813,261.270 299.988,261.600 299.988 C 262.133 299.988,262.133 299.945,261.600 299.600 C 261.270 299.387,260.730 299.212,260.400 299.212 C 259.867 299.212,259.867 299.255,260.400 299.600 M190.653 301.300 L 189.933 302.600 190.758 301.600 C 191.489 300.713,191.814 300.000,191.486 300.000 C 191.424 300.000,191.049 300.585,190.653 301.300 M264.400 300.962 C 264.400 301.051,265.421 301.700,266.668 302.404 C 271.298 305.016,276.827 311.969,278.093 316.768 C 280.468 325.774,278.816 335.453,273.962 340.983 C 273.277 341.762,272.871 342.397,273.059 342.394 C 274.057 342.376,277.675 336.259,278.497 333.200 C 281.826 320.805,277.741 309.380,267.546 302.572 C 265.054 300.908,264.400 300.573,264.400 300.962 M188.986 304.100 L 188.352 305.400 189.167 304.400 C 189.952 303.437,190.208 302.800,189.810 302.800 C 189.706 302.800,189.335 303.385,188.986 304.100 M185.138 310.700 C 183.606 313.334,183.307 313.991,183.906 313.400 C 184.458 312.856,186.927 308.400,186.676 308.400 C 186.566 308.400,185.874 309.435,185.138 310.700 M243.783 308.901 C 243.677 309.176,243.638 316.601,243.695 325.401 L 243.800 341.400 248.800 341.527 C 256.671 341.727,260.778 340.419,264.617 336.492 C 266.542 334.523,268.818 330.718,268.786 329.525 C 268.778 329.236,268.179 330.260,267.455 331.800 C 264.321 338.466,259.063 341.187,249.300 341.195 L 244.000 341.200 244.000 325.012 L 244.000 308.823 249.300 308.699 L 254.600 308.575 249.287 308.487 C 245.336 308.422,243.926 308.528,243.783 308.901 M255.800 309.168 C 256.240 309.374,256.917 309.556,257.304 309.572 C 260.266 309.690,265.712 314.405,267.600 318.487 C 268.240 319.869,268.772 320.764,268.782 320.475 C 268.912 316.733,261.501 309.771,256.600 309.032 C 255.442 308.858,255.221 308.895,255.800 309.168 M183.068 314.300 C 182.897 314.584,182.279 315.680,180.357 319.100 C 179.894 319.925,179.385 320.780,179.226 321.000 C 178.328 322.246,176.828 325.292,177.552 324.400 C 177.999 323.850,178.591 322.950,178.868 322.400 C 179.145 321.850,179.665 320.950,180.025 320.400 C 181.219 318.572,183.672 314.000,183.458 314.000 C 183.342 314.000,183.166 314.135,183.068 314.300 M166.986 321.300 L 166.352 322.600 167.167 321.600 C 167.952 320.637,168.208 320.000,167.810 320.000 C 167.706 320.000,167.335 320.585,166.986 321.300 M268.891 325.200 C 268.893 328.636,268.926 328.804,269.235 326.956 C 269.426 325.818,269.424 324.133,269.233 323.156 C 268.941 321.671,268.888 321.986,268.891 325.200 M165.414 323.835 C 165.041 324.404,164.827 324.961,164.939 325.072 C 165.050 325.183,165.429 324.718,165.781 324.037 C 166.559 322.533,166.344 322.415,165.414 323.835 M175.853 326.900 L 175.133 328.200 175.958 327.200 C 176.689 326.313,177.014 325.600,176.686 325.600 C 176.624 325.600,176.249 326.185,175.853 326.900 M174.424 329.318 C 174.123 329.803,173.615 330.605,173.293 331.100 C 172.917 331.679,172.867 332.000,173.154 332.000 C 173.399 332.000,173.600 331.803,173.600 331.562 C 173.600 331.321,173.980 330.590,174.444 329.939 C 174.908 329.287,175.216 328.682,175.128 328.595 C 175.041 328.508,174.724 328.833,174.424 329.318 M160.614 332.235 C 160.241 332.804,160.005 333.338,160.089 333.422 C 160.173 333.507,160.558 333.041,160.944 332.388 C 161.806 330.928,161.548 330.809,160.614 332.235 M159.014 335.035 C 158.641 335.604,158.405 336.138,158.489 336.222 C 158.573 336.307,158.958 335.841,159.344 335.188 C 160.206 333.728,159.948 333.609,159.014 335.035 M170.986 335.300 L 170.352 336.600 171.167 335.600 C 171.952 334.637,172.208 334.000,171.810 334.000 C 171.706 334.000,171.335 334.585,170.986 335.300 M157.753 337.300 C 156.376 339.636,156.286 339.835,156.987 339.000 C 157.800 338.032,158.500 336.800,158.238 336.800 C 158.133 336.800,157.915 337.025,157.753 337.300 M169.422 337.822 C 169.045 338.398,168.816 338.949,168.914 339.047 C 169.012 339.145,169.400 338.754,169.778 338.178 C 170.155 337.602,170.384 337.051,170.286 336.953 C 170.188 336.855,169.800 337.246,169.422 337.822 M167.019 342.021 C 165.626 344.399,165.080 345.740,166.138 344.189 C 167.228 342.590,168.869 339.600,168.657 339.600 C 168.537 339.600,167.800 340.690,167.019 342.021 M155.639 340.887 C 154.197 343.195,153.146 345.399,153.964 344.400 C 154.414 343.850,154.786 343.248,154.791 343.062 C 154.796 342.876,155.180 342.190,155.644 341.539 C 156.108 340.887,156.416 340.282,156.328 340.195 C 156.241 340.108,155.931 340.419,155.639 340.887 M269.953 345.130 C 268.497 346.378,266.157 347.979,264.753 348.687 C 263.349 349.395,262.419 349.980,262.686 349.987 C 263.698 350.014,268.294 347.134,270.600 345.028 C 273.731 342.169,273.332 342.232,269.953 345.130 M163.764 347.700 C 161.153 352.128,160.226 353.947,161.164 352.800 C 161.614 352.250,161.986 351.648,161.991 351.462 C 161.996 351.276,162.328 350.646,162.728 350.062 C 163.883 348.378,165.653 345.200,165.436 345.200 C 165.327 345.200,164.575 346.325,163.764 347.700 M152.186 346.900 L 151.552 348.200 152.367 347.200 C 153.152 346.237,153.408 345.600,153.010 345.600 C 152.906 345.600,152.535 346.185,152.186 346.900 M150.586 349.700 L 149.952 351.000 150.767 350.000 C 151.552 349.037,151.808 348.400,151.410 348.400 C 151.306 348.400,150.935 348.985,150.586 349.700 M260.400 350.400 C 259.867 350.745,259.867 350.788,260.400 350.788 C 260.730 350.788,261.270 350.613,261.600 350.400 C 262.133 350.055,262.133 350.012,261.600 350.012 C 261.270 350.012,260.730 350.187,260.400 350.400 M256.600 351.200 L 255.000 351.486 256.600 351.515 C 257.480 351.531,258.560 351.389,259.000 351.200 L 259.800 350.856 259.000 350.885 C 258.560 350.901,257.480 351.042,256.600 351.200 M147.414 355.035 C 147.041 355.604,146.827 356.161,146.939 356.272 C 147.050 356.383,147.429 355.918,147.781 355.237 C 148.559 353.733,148.344 353.615,147.414 355.035 M159.149 355.722 C 156.748 359.643,156.355 360.400,156.721 360.400 C 156.933 360.400,157.213 360.085,157.342 359.700 C 157.590 358.965,158.581 357.204,159.762 355.401 C 160.148 354.812,160.399 354.266,160.320 354.187 C 160.241 354.108,159.714 354.799,159.149 355.722 M145.191 358.900 C 145.186 359.175,144.830 359.850,144.400 360.400 C 143.639 361.373,143.236 362.572,143.936 361.780 C 144.822 360.777,146.016 358.400,145.633 358.400 C 145.395 358.400,145.196 358.625,145.191 358.900 M142.482 363.700 C 142.051 364.415,141.250 365.810,140.702 366.800 C 140.153 367.790,138.706 370.310,137.486 372.400 C 136.267 374.490,135.398 376.336,135.557 376.503 C 135.716 376.669,148.075 376.758,163.023 376.700 L 190.200 376.594 162.854 376.497 L 135.508 376.400 136.146 375.426 C 136.498 374.890,137.148 373.810,137.592 373.026 C 138.037 372.241,138.785 370.925,139.257 370.100 C 139.728 369.275,140.560 367.790,141.106 366.800 C 141.652 365.810,142.451 364.415,142.882 363.700 C 143.313 362.985,143.575 362.400,143.465 362.400 C 143.355 362.400,142.913 362.985,142.482 363.700 M154.614 363.435 C 154.241 364.004,154.027 364.561,154.139 364.672 C 154.250 364.783,154.629 364.318,154.981 363.637 C 155.759 362.133,155.544 362.015,154.614 363.435 M53.800 399.600 C 53.664 399.820,53.934 400.000,54.400 400.000 C 54.866 400.000,55.136 399.820,55.000 399.600 C 54.864 399.380,54.594 399.200,54.400 399.200 C 54.206 399.200,53.936 399.380,53.800 399.600 " stroke="none" fill="#a3a3a3" fill-rule="evenodd"></path></g></svg>